<svg width="183" height="133" viewBox="0 0 183 133" fill="none" xmlns="http://www.w3.org/2000/svg">
<path d="M30.0819 125.851L22.2985 125.816C21.3815 125.812 20.466 125.742 19.5592 125.605L16.4478 125.138C12.562 124.554 9.13034 122.289 7.06566 118.945L6.66851 118.302C5.61439 116.595 5.06032 114.627 5.0693 112.621C5.07508 111.328 5.31449 110.048 5.77597 108.84L10.5084 96.4605C11.1136 94.8774 11.5042 93.2204 11.6699 91.5337L13.5172 72.7285L13.5027 59.687L11.6572 41.1277L8.74346 23.4208C8.20324 20.1378 8.94322 16.7727 10.8108 14.0192C13.2399 10.438 17.2928 8.30138 21.6201 8.32075L33.5005 8.37391L70.1224 13.1757C98.3809 13.3021 104.972 13.1569 109.174 13.1757L121.396 13.1757C123.452 13.1757 125.495 12.8419 127.444 12.1875L139.053 8.28977L150.391 6.00796C154.661 5.14879 159.096 5.82333 162.917 7.91284L164.485 8.76989C169.452 11.4863 172.541 16.6967 172.541 22.3583C172.541 23.896 172.312 25.4252 171.862 26.8954L168.335 38.407C167.782 40.2107 167.501 42.0867 167.501 43.9732L167.501 54.6777L167.501 70.5158C167.501 71.9859 167.672 73.4511 168.009 74.8819L172.541 94.0752L176.551 106.259C177.502 109.149 177.695 112.234 177.113 115.22L176.626 117.714C175.748 122.215 172.6 125.939 168.309 127.555C166.186 128.354 163.893 128.594 161.65 128.251L139.053 124.793L109.174 121.567L72.531 121.403L30.0819 125.851Z" fill="#4EFFF4" fill-opacity="0.9" stroke="#C4C4C4" stroke-opacity="0.27" stroke-width="9"/>
</svg>
