<svg width="231" height="34" viewBox="0 0 231 34" fill="none" xmlns="http://www.w3.org/2000/svg">
<path d="M42.1568 25.7998L44.153 24.2675C44.8397 23.7404 45.8346 24.2135 45.8592 25.0788C45.8759 25.6644 46.3641 26.1256 46.9497 26.109L48.9859 26.0511C50.6961 26.0025 52.0431 24.5767 51.9945 22.8665L51.832 17.1486C51.7777 15.2369 51.1033 13.3947 49.9106 11.8997L47.2242 8.53247C46.026 7.03061 44.1915 6.1793 42.271 6.23389C41.4236 6.25797 40.5904 6.45803 39.8244 6.82136L38.9491 7.23657C35.1077 9.05869 32.7058 12.9785 32.8266 17.2284L32.9119 20.2309C33.0104 23.6948 35.8982 26.4231 39.3622 26.3246L40.7948 26.2839C41.2884 26.2699 41.765 26.1005 42.1568 25.7998Z" fill="url(#paint0_linear)" fill-opacity="0.19"/>
<path d="M42.1568 25.7998L44.153 24.2675C44.8397 23.7404 45.8346 24.2135 45.8592 25.0788C45.8759 25.6644 46.3641 26.1256 46.9497 26.109L48.9859 26.0511C50.6961 26.0025 52.0431 24.5767 51.9945 22.8665L51.832 17.1486C51.7777 15.2369 51.1033 13.3947 49.9106 11.8997L47.2242 8.53247C46.026 7.03061 44.1915 6.1793 42.271 6.23389C41.4236 6.25797 40.5904 6.45803 39.8244 6.82136L38.9491 7.23657C35.1077 9.05869 32.7058 12.9785 32.8266 17.2284L32.9119 20.2309C33.0104 23.6948 35.8982 26.4231 39.3622 26.3246L40.7948 26.2839C41.2884 26.2699 41.765 26.1005 42.1568 25.7998Z" fill="url(#paint1_linear)" fill-opacity="0.19"/>
<path d="M42.1568 25.7998L44.153 24.2675C44.8397 23.7404 45.8346 24.2135 45.8592 25.0788C45.8759 25.6644 46.3641 26.1256 46.9497 26.109L48.9859 26.0511C50.6961 26.0025 52.0431 24.5767 51.9945 22.8665L51.832 17.1486C51.7777 15.2369 51.1033 13.3947 49.9106 11.8997L47.2242 8.53247C46.026 7.03061 44.1915 6.1793 42.271 6.23389C41.4236 6.25797 40.5904 6.45803 39.8244 6.82136L38.9491 7.23657C35.1077 9.05869 32.7058 12.9785 32.8266 17.2284L32.9119 20.2309C33.0104 23.6948 35.8982 26.4231 39.3622 26.3246L40.7948 26.2839C41.2884 26.2699 41.765 26.1005 42.1568 25.7998Z" fill="url(#paint2_linear)" fill-opacity="0.19"/>
<path d="M91.336 31.4049L93.3322 29.8726C94.0189 29.3455 95.0138 29.8186 95.0384 30.6839C95.0551 31.2695 95.5433 31.7307 96.1289 31.7141L98.1651 31.6562C99.8753 31.6076 101.222 30.1818 101.174 28.4716L101.011 22.7537C100.957 20.842 100.283 18.9998 99.0898 17.5048L96.4034 14.1376C95.2052 12.6357 93.3707 11.7844 91.4502 11.839C90.6028 11.8631 89.7696 12.0631 89.0036 12.4265L88.1283 12.8417C84.2869 14.6638 81.885 18.5836 82.0058 22.8335L82.0911 25.836C82.1896 29.2999 85.0774 32.0282 88.5414 31.9297L89.974 31.889C90.4676 31.875 90.9442 31.7056 91.336 31.4049Z" fill="url(#paint3_linear)" fill-opacity="0.19"/>
<path d="M91.336 31.4049L93.3322 29.8726C94.0189 29.3455 95.0138 29.8186 95.0384 30.6839C95.0551 31.2695 95.5433 31.7307 96.1289 31.7141L98.1651 31.6562C99.8753 31.6076 101.222 30.1818 101.174 28.4716L101.011 22.7537C100.957 20.842 100.283 18.9998 99.0898 17.5048L96.4034 14.1376C95.2052 12.6357 93.3707 11.7844 91.4502 11.839C90.6028 11.8631 89.7696 12.0631 89.0036 12.4265L88.1283 12.8417C84.2869 14.6638 81.885 18.5836 82.0058 22.8335L82.0911 25.836C82.1896 29.2999 85.0774 32.0282 88.5414 31.9297L89.974 31.889C90.4676 31.875 90.9442 31.7056 91.336 31.4049Z" fill="url(#paint4_linear)" fill-opacity="0.19"/>
<path d="M91.336 31.4049L93.3322 29.8726C94.0189 29.3455 95.0138 29.8186 95.0384 30.6839C95.0551 31.2695 95.5433 31.7307 96.1289 31.7141L98.1651 31.6562C99.8753 31.6076 101.222 30.1818 101.174 28.4716L101.011 22.7537C100.957 20.842 100.283 18.9998 99.0898 17.5048L96.4034 14.1376C95.2052 12.6357 93.3707 11.7844 91.4502 11.839C90.6028 11.8631 89.7696 12.0631 89.0036 12.4265L88.1283 12.8417C84.2869 14.6638 81.885 18.5836 82.0058 22.8335L82.0911 25.836C82.1896 29.2999 85.0774 32.0282 88.5414 31.9297L89.974 31.889C90.4676 31.875 90.9442 31.7056 91.336 31.4049Z" fill="url(#paint5_linear)" fill-opacity="0.19"/>
<path d="M165.192 25.3042L167.189 23.7719C167.875 23.2448 168.87 23.7179 168.895 24.5832C168.912 25.1688 169.4 25.63 169.985 25.6134L172.022 25.5555C173.732 25.5069 175.079 24.0811 175.03 22.3709L174.868 16.653C174.813 14.7413 174.139 12.8991 172.946 11.4041L170.26 8.03686C169.062 6.535 167.227 5.6837 165.307 5.73828C164.459 5.76237 163.626 5.96243 162.86 6.32576L161.985 6.74097C158.143 8.56308 155.741 12.4829 155.862 16.7328L155.948 19.7353C156.046 23.1992 158.934 25.9275 162.398 25.829L163.83 25.7883C164.324 25.7743 164.801 25.6049 165.192 25.3042Z" fill="url(#paint6_linear)" fill-opacity="0.19"/>
<path d="M165.192 25.3042L167.189 23.7719C167.875 23.2448 168.87 23.7179 168.895 24.5832C168.912 25.1688 169.4 25.63 169.985 25.6134L172.022 25.5555C173.732 25.5069 175.079 24.0811 175.03 22.3709L174.868 16.653C174.813 14.7413 174.139 12.8991 172.946 11.4041L170.26 8.03686C169.062 6.535 167.227 5.6837 165.307 5.73828C164.459 5.76237 163.626 5.96243 162.86 6.32576L161.985 6.74097C158.143 8.56308 155.741 12.4829 155.862 16.7328L155.948 19.7353C156.046 23.1992 158.934 25.9275 162.398 25.829L163.83 25.7883C164.324 25.7743 164.801 25.6049 165.192 25.3042Z" fill="url(#paint7_linear)" fill-opacity="0.19"/>
<path d="M165.192 25.3042L167.189 23.7719C167.875 23.2448 168.87 23.7179 168.895 24.5832C168.912 25.1688 169.4 25.63 169.985 25.6134L172.022 25.5555C173.732 25.5069 175.079 24.0811 175.03 22.3709L174.868 16.653C174.813 14.7413 174.139 12.8991 172.946 11.4041L170.26 8.03686C169.062 6.535 167.227 5.6837 165.307 5.73828C164.459 5.76237 163.626 5.96243 162.86 6.32576L161.985 6.74097C158.143 8.56308 155.741 12.4829 155.862 16.7328L155.948 19.7353C156.046 23.1992 158.934 25.9275 162.398 25.829L163.83 25.7883C164.324 25.7743 164.801 25.6049 165.192 25.3042Z" fill="url(#paint8_linear)" fill-opacity="0.19"/>
<path d="M4.41031 17.307L7.91607 14.9678L9.54922 14.179C11.5183 13.2278 11.8442 10.5589 10.1619 9.16187C8.8254 8.05194 8.70593 6.04316 9.9015 4.78263L12.2505 2.30603C13.0129 1.50219 14.0627 1.0332 15.1702 1.00172C17.4823 0.936012 19.4099 2.75706 19.4756 5.06915L20.0976 26.9542C20.1904 30.2213 17.6172 32.9451 14.3501 33.038L12.4369 33.0923C9.84923 33.1659 7.31637 32.3382 5.27146 30.7508L3.96451 29.7363C2.15459 28.3313 1.0682 26.1902 1.0031 23.8999C0.928139 21.2623 2.21534 18.7715 4.41031 17.307Z" fill="url(#paint9_linear)" fill-opacity="0.19"/>
<path d="M4.41031 17.307L7.91607 14.9678L9.54922 14.179C11.5183 13.2278 11.8442 10.5589 10.1619 9.16187C8.8254 8.05194 8.70593 6.04316 9.9015 4.78263L12.2505 2.30603C13.0129 1.50219 14.0627 1.0332 15.1702 1.00172C17.4823 0.936012 19.4099 2.75706 19.4756 5.06915L20.0976 26.9542C20.1904 30.2213 17.6172 32.9451 14.3501 33.038L12.4369 33.0923C9.84923 33.1659 7.31637 32.3382 5.27146 30.7508L3.96451 29.7363C2.15459 28.3313 1.0682 26.1902 1.0031 23.8999C0.928139 21.2623 2.21534 18.7715 4.41031 17.307Z" fill="url(#paint10_linear)" fill-opacity="0.19"/>
<path d="M4.41031 17.307L7.91607 14.9678L9.54922 14.179C11.5183 13.2278 11.8442 10.5589 10.1619 9.16187C8.8254 8.05194 8.70593 6.04316 9.9015 4.78263L12.2505 2.30603C13.0129 1.50219 14.0627 1.0332 15.1702 1.00172C17.4823 0.936012 19.4099 2.75706 19.4756 5.06915L20.0976 26.9542C20.1904 30.2213 17.6172 32.9451 14.3501 33.038L12.4369 33.0923C9.84923 33.1659 7.31637 32.3382 5.27146 30.7508L3.96451 29.7363C2.15459 28.3313 1.0682 26.1902 1.0031 23.8999C0.928139 21.2623 2.21534 18.7715 4.41031 17.307Z" fill="url(#paint11_linear)" fill-opacity="0.19"/>
<path d="M226.807 10.031L228.184 11.155C229.191 11.9775 229.792 13.1973 229.829 14.4973C229.899 16.97 227.951 19.0315 225.479 19.1018L225 19.1154L229.104 23.1098C229.743 23.7323 230.115 24.5797 230.141 25.4719C230.194 27.3668 228.702 28.9466 226.807 29.0005L217.137 29.2753C212.779 29.3992 209.146 25.9668 209.022 21.6089C208.984 20.2723 209.286 18.948 209.9 17.7601L212.064 13.5739C213.735 10.3406 217.03 8.26985 220.668 8.16645L221.279 8.1491C223.288 8.09201 225.25 8.76004 226.807 10.031Z" fill="url(#paint12_linear)" fill-opacity="0.19"/>
<path d="M226.807 10.031L228.184 11.155C229.191 11.9775 229.792 13.1973 229.829 14.4973C229.899 16.97 227.951 19.0315 225.479 19.1018L225 19.1154L229.104 23.1098C229.743 23.7323 230.115 24.5797 230.141 25.4719C230.194 27.3668 228.702 28.9466 226.807 29.0005L217.137 29.2753C212.779 29.3992 209.146 25.9668 209.022 21.6089C208.984 20.2723 209.286 18.948 209.9 17.7601L212.064 13.5739C213.735 10.3406 217.03 8.26985 220.668 8.16645L221.279 8.1491C223.288 8.09201 225.25 8.76004 226.807 10.031Z" fill="url(#paint13_linear)" fill-opacity="0.19"/>
<path d="M226.807 10.031L228.184 11.155C229.191 11.9775 229.792 13.1973 229.829 14.4973C229.899 16.97 227.951 19.0315 225.479 19.1018L225 19.1154L229.104 23.1098C229.743 23.7323 230.115 24.5797 230.141 25.4719C230.194 27.3668 228.702 28.9466 226.807 29.0005L217.137 29.2753C212.779 29.3992 209.146 25.9668 209.022 21.6089C208.984 20.2723 209.286 18.948 209.9 17.7601L212.064 13.5739C213.735 10.3406 217.03 8.26985 220.668 8.16645L221.279 8.1491C223.288 8.09201 225.25 8.76004 226.807 10.031Z" fill="url(#paint14_linear)" fill-opacity="0.19"/>
<path d="M110.136 29.9324L107.911 13.221C107.701 11.6454 107.886 10.0424 108.448 8.55585L109.045 6.98068C110.273 3.73604 113.572 1.76324 117.012 2.21717L120.195 2.63733C121.665 2.83131 122.822 3.98701 123.018 5.45662C123.257 7.25257 121.995 8.90237 120.199 9.14154L117.494 9.50176C116.286 9.66266 115.437 10.7725 115.598 11.9807C115.759 13.1888 116.869 14.0378 118.077 13.8769L121.709 13.3932C122.993 13.2222 124.172 14.1243 124.343 15.4079C124.514 16.6916 123.612 17.8708 122.329 18.0418L120.581 18.2746C118.332 18.5741 116.751 20.64 117.051 22.889L117.852 28.9049C118.136 31.0355 116.639 32.9927 114.508 33.2765C112.377 33.5602 110.42 32.063 110.136 29.9324Z" fill="url(#paint15_linear)" fill-opacity="0.19"/>
<path d="M110.136 29.9324L107.911 13.221C107.701 11.6454 107.886 10.0424 108.448 8.55585L109.045 6.98068C110.273 3.73604 113.572 1.76324 117.012 2.21717L120.195 2.63733C121.665 2.83131 122.822 3.98701 123.018 5.45662C123.257 7.25257 121.995 8.90237 120.199 9.14154L117.494 9.50176C116.286 9.66266 115.437 10.7725 115.598 11.9807C115.759 13.1888 116.869 14.0378 118.077 13.8769L121.709 13.3932C122.993 13.2222 124.172 14.1243 124.343 15.4079C124.514 16.6916 123.612 17.8708 122.329 18.0418L120.581 18.2746C118.332 18.5741 116.751 20.64 117.051 22.889L117.852 28.9049C118.136 31.0355 116.639 32.9927 114.508 33.2765C112.377 33.5602 110.42 32.063 110.136 29.9324Z" fill="url(#paint16_linear)" fill-opacity="0.19"/>
<path d="M110.136 29.9324L107.911 13.221C107.701 11.6454 107.886 10.0424 108.448 8.55585L109.045 6.98068C110.273 3.73604 113.572 1.76324 117.012 2.21717L120.195 2.63733C121.665 2.83131 122.822 3.98701 123.018 5.45662C123.257 7.25257 121.995 8.90237 120.199 9.14154L117.494 9.50176C116.286 9.66266 115.437 10.7725 115.598 11.9807C115.759 13.1888 116.869 14.0378 118.077 13.8769L121.709 13.3932C122.993 13.2222 124.172 14.1243 124.343 15.4079C124.514 16.6916 123.612 17.8708 122.329 18.0418L120.581 18.2746C118.332 18.5741 116.751 20.64 117.051 22.889L117.852 28.9049C118.136 31.0355 116.639 32.9927 114.508 33.2765C112.377 33.5602 110.42 32.063 110.136 29.9324Z" fill="url(#paint17_linear)" fill-opacity="0.19"/>
<path d="M183.708 10.9203L184.265 30.507C184.291 31.447 185.075 32.1874 186.015 32.1606C186.955 32.1339 187.695 31.3503 187.669 30.4103L187.527 25.4329C187.509 24.7807 187.592 24.1297 187.773 23.503L188.717 20.2444C188.916 19.5594 189.534 19.081 190.247 19.0608C191.153 19.035 191.908 19.7485 191.934 20.6544L191.942 20.9485C191.96 21.5831 192.288 22.1684 192.82 22.5149L193.293 22.8231C194.532 23.63 196.173 23.4191 197.167 22.3254L197.644 21.8004C198.472 20.6604 200.261 21.0608 200.524 22.4447L201.542 27.8116C201.71 28.6987 202.497 29.3323 203.4 29.3066C204.415 29.2778 205.214 28.4317 205.185 27.4167L204.813 14.3285C204.784 13.3069 204.401 12.3273 203.728 11.5578L203.333 11.1057C202.133 9.73186 200.11 9.43814 198.568 10.4138L197.706 10.9595C197.473 11.1072 197.303 11.3377 197.233 11.6048L197.12 12.0303C196.814 13.1823 195.123 12.9861 195.089 11.7946C195.079 11.4559 194.904 11.1435 194.62 10.9585L192.751 9.7411C192.045 9.28067 191.141 9.2491 190.404 9.6591L188.413 10.7662C187.829 11.0913 187.108 10.681 187.089 10.0126C187.075 9.52048 186.665 9.13289 186.173 9.14688L185.362 9.16993C184.422 9.19664 183.681 9.98032 183.708 10.9203Z" fill="url(#paint18_linear)" fill-opacity="0.19"/>
<path d="M183.708 10.9203L184.265 30.507C184.291 31.447 185.075 32.1874 186.015 32.1606C186.955 32.1339 187.695 31.3503 187.669 30.4103L187.527 25.4329C187.509 24.7807 187.592 24.1297 187.773 23.503L188.717 20.2444C188.916 19.5594 189.534 19.081 190.247 19.0608C191.153 19.035 191.908 19.7485 191.934 20.6544L191.942 20.9485C191.96 21.5831 192.288 22.1684 192.82 22.5149L193.293 22.8231C194.532 23.63 196.173 23.4191 197.167 22.3254L197.644 21.8004C198.472 20.6604 200.261 21.0608 200.524 22.4447L201.542 27.8116C201.71 28.6987 202.497 29.3323 203.4 29.3066C204.415 29.2778 205.214 28.4317 205.185 27.4167L204.813 14.3285C204.784 13.3069 204.401 12.3273 203.728 11.5578L203.333 11.1057C202.133 9.73186 200.11 9.43814 198.568 10.4138L197.706 10.9595C197.473 11.1072 197.303 11.3377 197.233 11.6048L197.12 12.0303C196.814 13.1823 195.123 12.9861 195.089 11.7946C195.079 11.4559 194.904 11.1435 194.62 10.9585L192.751 9.7411C192.045 9.28067 191.141 9.2491 190.404 9.6591L188.413 10.7662C187.829 11.0913 187.108 10.681 187.089 10.0126C187.075 9.52048 186.665 9.13289 186.173 9.14688L185.362 9.16993C184.422 9.19664 183.681 9.98032 183.708 10.9203Z" fill="url(#paint19_linear)" fill-opacity="0.19"/>
<path d="M183.708 10.9203L184.265 30.507C184.291 31.447 185.075 32.1874 186.015 32.1606C186.955 32.1339 187.695 31.3503 187.669 30.4103L187.527 25.4329C187.509 24.7807 187.592 24.1297 187.773 23.503L188.717 20.2444C188.916 19.5594 189.534 19.081 190.247 19.0608C191.153 19.035 191.908 19.7485 191.934 20.6544L191.942 20.9485C191.96 21.5831 192.288 22.1684 192.82 22.5149L193.293 22.8231C194.532 23.63 196.173 23.4191 197.167 22.3254L197.644 21.8004C198.472 20.6604 200.261 21.0608 200.524 22.4447L201.542 27.8116C201.71 28.6987 202.497 29.3323 203.4 29.3066C204.415 29.2778 205.214 28.4317 205.185 27.4167L204.813 14.3285C204.784 13.3069 204.401 12.3273 203.728 11.5578L203.333 11.1057C202.133 9.73186 200.11 9.43814 198.568 10.4138L197.706 10.9595C197.473 11.1072 197.303 11.3377 197.233 11.6048L197.12 12.0303C196.814 13.1823 195.123 12.9861 195.089 11.7946C195.079 11.4559 194.904 11.1435 194.62 10.9585L192.751 9.7411C192.045 9.28067 191.141 9.2491 190.404 9.6591L188.413 10.7662C187.829 11.0913 187.108 10.681 187.089 10.0126C187.075 9.52048 186.665 9.13289 186.173 9.14688L185.362 9.16993C184.422 9.19664 183.681 9.98032 183.708 10.9203Z" fill="url(#paint20_linear)" fill-opacity="0.19"/>
<path d="M132.17 27.9074C132.195 28.7847 133.071 29.381 133.896 29.0829L135.737 28.4183C136.835 28.0217 137.555 26.965 137.522 25.7977L137.453 23.3691C137.363 20.2183 139.845 17.5915 142.996 17.5019L144.076 17.4712C145.596 17.428 146.958 16.5224 147.585 15.138L147.884 14.4781C148.399 13.3437 148.145 12.0086 147.25 11.1424C146.679 10.59 145.909 10.2912 145.115 10.3138L136.361 10.5626C135.33 10.5919 134.337 10.961 133.537 11.6126C132.41 12.5312 131.773 13.9218 131.814 15.3757L132.17 27.9074Z" fill="url(#paint21_linear)" fill-opacity="0.19"/>
<path d="M132.17 27.9074C132.195 28.7847 133.071 29.381 133.896 29.0829L135.737 28.4183C136.835 28.0217 137.555 26.965 137.522 25.7977L137.453 23.3691C137.363 20.2183 139.845 17.5915 142.996 17.5019L144.076 17.4712C145.596 17.428 146.958 16.5224 147.585 15.138L147.884 14.4781C148.399 13.3437 148.145 12.0086 147.25 11.1424C146.679 10.59 145.909 10.2912 145.115 10.3138L136.361 10.5626C135.33 10.5919 134.337 10.961 133.537 11.6126C132.41 12.5312 131.773 13.9218 131.814 15.3757L132.17 27.9074Z" fill="url(#paint22_linear)" fill-opacity="0.19"/>
<path d="M132.17 27.9074C132.195 28.7847 133.071 29.381 133.896 29.0829L135.737 28.4183C136.835 28.0217 137.555 26.965 137.522 25.7977L137.453 23.3691C137.363 20.2183 139.845 17.5915 142.996 17.5019L144.076 17.4712C145.596 17.428 146.958 16.5224 147.585 15.138L147.884 14.4781C148.399 13.3437 148.145 12.0086 147.25 11.1424C146.679 10.59 145.909 10.2912 145.115 10.3138L136.361 10.5626C135.33 10.5919 134.337 10.961 133.537 11.6126C132.41 12.5312 131.773 13.9218 131.814 15.3757L132.17 27.9074Z" fill="url(#paint23_linear)" fill-opacity="0.19"/>
<path d="M70.8171 24.2988L70.4972 13.0412C70.4531 11.4918 71.6734 10.2002 73.2227 10.1561L76.9348 10.0506C77.5705 10.0326 78.196 9.88583 78.7734 9.61928L80.4014 8.86778C81.1243 8.53405 81.5786 7.80132 81.556 7.00538C81.5367 6.32812 81.174 5.70724 80.5936 5.35781L79.0459 4.42615C78.1779 3.9036 77.1781 3.64113 76.1653 3.66992L63.6899 4.02449C62.4559 4.05956 61.2276 3.84414 60.0791 3.39123L58.5757 2.79832C58.216 2.65645 57.8392 2.56247 57.4549 2.51881L55.4332 2.28904C53.8323 2.10711 52.4413 3.38492 52.4871 4.99542C52.5172 6.0551 53.1764 6.9947 54.1626 7.38363L58.2156 8.98201L58.4448 9.04035C61.6566 9.858 63.9366 12.7067 64.0308 16.0196L64.0899 18.0985C64.1411 19.9021 63.9352 21.7038 63.4783 23.4493L63.3229 24.043L62.8064 25.4882C62.5792 26.1239 62.5687 26.8169 62.7764 27.4592C63.1946 28.7521 64.4156 29.6142 65.7739 29.5756L66.3961 29.5579C67.5156 29.5261 68.5671 29.0132 69.2814 28.1505L69.6403 27.7171C70.4342 26.7581 70.8525 25.5433 70.8171 24.2988Z" fill="url(#paint24_linear)" fill-opacity="0.19"/>
<path d="M70.8171 24.2988L70.4972 13.0412C70.4531 11.4918 71.6734 10.2002 73.2227 10.1561L76.9348 10.0506C77.5705 10.0326 78.196 9.88583 78.7734 9.61928L80.4014 8.86778C81.1243 8.53405 81.5786 7.80132 81.556 7.00538C81.5367 6.32812 81.174 5.70724 80.5936 5.35781L79.0459 4.42615C78.1779 3.9036 77.1781 3.64113 76.1653 3.66992L63.6899 4.02449C62.4559 4.05956 61.2276 3.84414 60.0791 3.39123L58.5757 2.79832C58.216 2.65645 57.8392 2.56247 57.4549 2.51881L55.4332 2.28904C53.8323 2.10711 52.4413 3.38492 52.4871 4.99542C52.5172 6.0551 53.1764 6.9947 54.1626 7.38363L58.2156 8.98201L58.4448 9.04035C61.6566 9.858 63.9366 12.7067 64.0308 16.0196L64.0899 18.0985C64.1411 19.9021 63.9352 21.7038 63.4783 23.4493L63.3229 24.043L62.8064 25.4882C62.5792 26.1239 62.5687 26.8169 62.7764 27.4592C63.1946 28.7521 64.4156 29.6142 65.7739 29.5756L66.3961 29.5579C67.5156 29.5261 68.5671 29.0132 69.2814 28.1505L69.6403 27.7171C70.4342 26.7581 70.8525 25.5433 70.8171 24.2988Z" fill="url(#paint25_linear)" fill-opacity="0.19"/>
<path d="M70.8171 24.2988L70.4972 13.0412C70.4531 11.4918 71.6734 10.2002 73.2227 10.1561L76.9348 10.0506C77.5705 10.0326 78.196 9.88583 78.7734 9.61928L80.4014 8.86778C81.1243 8.53405 81.5786 7.80132 81.556 7.00538C81.5367 6.32812 81.174 5.70724 80.5936 5.35781L79.0459 4.42615C78.1779 3.9036 77.1781 3.64113 76.1653 3.66992L63.6899 4.02449C62.4559 4.05956 61.2276 3.84414 60.0791 3.39123L58.5757 2.79832C58.216 2.65645 57.8392 2.56247 57.4549 2.51881L55.4332 2.28904C53.8323 2.10711 52.4413 3.38492 52.4871 4.99542C52.5172 6.0551 53.1764 6.9947 54.1626 7.38363L58.2156 8.98201L58.4448 9.04035C61.6566 9.858 63.9366 12.7067 64.0308 16.0196L64.0899 18.0985C64.1411 19.9021 63.9352 21.7038 63.4783 23.4493L63.3229 24.043L62.8064 25.4882C62.5792 26.1239 62.5687 26.8169 62.7764 27.4592C63.1946 28.7521 64.4156 29.6142 65.7739 29.5756L66.3961 29.5579C67.5156 29.5261 68.5671 29.0132 69.2814 28.1505L69.6403 27.7171C70.4342 26.7581 70.8525 25.5433 70.8171 24.2988Z" fill="url(#paint26_linear)" fill-opacity="0.19"/>
<path d="M220.043 19.2563L225 19.1154M225 19.1154L225.479 19.1018C227.951 19.0315 229.899 16.97 229.829 14.4973C229.792 13.1973 229.191 11.9775 228.184 11.155L226.807 10.031C225.25 8.76004 223.288 8.09201 221.279 8.1491L220.668 8.16645C217.03 8.26985 213.735 10.3406 212.064 13.5739L209.9 17.7601C209.286 18.948 208.984 20.2723 209.022 21.6089C209.146 25.9668 212.779 29.3992 217.137 29.2753L226.807 29.0005C228.702 28.9466 230.194 27.3668 230.141 25.4719C230.115 24.5797 229.743 23.7323 229.104 23.1098L225 19.1154ZM44.153 24.2675L42.1568 25.7998C41.765 26.1005 41.2884 26.2699 40.7948 26.2839L39.3622 26.3246C35.8982 26.4231 33.0104 23.6948 32.9119 20.2309L32.8266 17.2284C32.7058 12.9785 35.1077 9.05869 38.9491 7.23657L39.8244 6.82136C40.5904 6.45803 41.4236 6.25797 42.271 6.23389C44.1915 6.1793 46.026 7.03061 47.2242 8.53247L49.9106 11.8997C51.1033 13.3947 51.7777 15.2369 51.832 17.1486L51.9945 22.8665C52.0431 24.5767 50.6961 26.0025 48.9859 26.0511L46.9497 26.109C46.3641 26.1256 45.8759 25.6644 45.8592 25.0788C45.8346 24.2135 44.8397 23.7404 44.153 24.2675ZM93.3322 29.8726L91.336 31.4049C90.9442 31.7056 90.4676 31.875 89.974 31.889L88.5414 31.9297C85.0774 32.0282 82.1896 29.2999 82.0911 25.836L82.0058 22.8335C81.885 18.5836 84.2869 14.6638 88.1283 12.8417L89.0036 12.4265C89.7696 12.0631 90.6028 11.8631 91.4502 11.839C93.3707 11.7844 95.2052 12.6357 96.4034 14.1376L99.0898 17.5048C100.283 18.9998 100.957 20.842 101.011 22.7537L101.174 28.4716C101.222 30.1818 99.8753 31.6076 98.1651 31.6562L96.1289 31.7141C95.5433 31.7307 95.0551 31.2695 95.0384 30.6839C95.0138 29.8186 94.0189 29.3455 93.3322 29.8726ZM167.189 23.7719L165.192 25.3042C164.801 25.6049 164.324 25.7743 163.83 25.7883L162.398 25.829C158.934 25.9275 156.046 23.1992 155.948 19.7353L155.862 16.7328C155.741 12.4829 158.143 8.56308 161.985 6.74097L162.86 6.32576C163.626 5.96243 164.459 5.76237 165.307 5.73828C167.227 5.6837 169.062 6.535 170.26 8.03686L172.946 11.4041C174.139 12.8991 174.813 14.7413 174.868 16.653L175.03 22.3709C175.079 24.0811 173.732 25.5069 172.022 25.5555L169.985 25.6134C169.4 25.63 168.912 25.1688 168.895 24.5832C168.87 23.7179 167.875 23.2448 167.189 23.7719ZM7.91607 14.9678L4.41031 17.307C2.21534 18.7715 0.928139 21.2623 1.0031 23.8999C1.0682 26.1902 2.15459 28.3313 3.96451 29.7363L5.27146 30.7508C7.31637 32.3382 9.84923 33.1659 12.4369 33.0923L14.3501 33.038C17.6172 32.9451 20.1904 30.2213 20.0976 26.9542L19.4756 5.06915C19.4099 2.75706 17.4823 0.936012 15.1702 1.00172C14.0627 1.0332 13.0129 1.50219 12.2505 2.30603L9.9015 4.78263C8.70593 6.04316 8.8254 8.05194 10.1619 9.16187C11.8442 10.5589 11.5183 13.2278 9.54922 14.179L7.91607 14.9678ZM110.136 29.9324C110.42 32.063 112.377 33.5602 114.508 33.2765C116.639 32.9927 118.136 31.0355 117.852 28.9049L117.051 22.889C116.751 20.64 118.332 18.5741 120.581 18.2746L122.329 18.0418C123.612 17.8708 124.514 16.6916 124.343 15.4079C124.172 14.1243 122.993 13.2222 121.709 13.3932L118.077 13.8769C116.869 14.0378 115.759 13.1888 115.598 11.9807C115.437 10.7725 116.286 9.66266 117.494 9.50176L120.199 9.14154C121.995 8.90237 123.257 7.25257 123.018 5.45662C122.822 3.98701 121.665 2.83131 120.195 2.63733L117.012 2.21717C113.572 1.76324 110.273 3.73604 109.045 6.98068L108.448 8.55585C107.886 10.0424 107.701 11.6454 107.911 13.221L110.136 29.9324ZM184.265 30.507L183.708 10.9203C183.681 9.98032 184.422 9.19664 185.362 9.16993L186.173 9.14688C186.665 9.13289 187.075 9.52048 187.089 10.0126C187.108 10.681 187.829 11.0913 188.413 10.7662L190.404 9.6591C191.141 9.2491 192.045 9.28067 192.751 9.7411L194.62 10.9585C194.904 11.1435 195.079 11.4559 195.089 11.7946C195.123 12.9861 196.814 13.1823 197.12 12.0303L197.233 11.6048C197.303 11.3377 197.473 11.1072 197.706 10.9595L198.568 10.4138C200.11 9.43814 202.133 9.73186 203.333 11.1057L203.728 11.5578C204.401 12.3273 204.784 13.3069 204.813 14.3285L205.185 27.4167C205.214 28.4317 204.415 29.2778 203.4 29.3066C202.497 29.3323 201.71 28.6987 201.542 27.8116L200.524 22.4447C200.261 21.0608 198.472 20.6604 197.644 21.8004L197.167 22.3254C196.173 23.4191 194.532 23.63 193.293 22.8231L192.82 22.5149C192.288 22.1684 191.96 21.5831 191.942 20.9485L191.934 20.6544C191.908 19.7485 191.153 19.035 190.247 19.0608C189.534 19.081 188.916 19.5594 188.717 20.2444L187.773 23.503C187.592 24.1297 187.509 24.7807 187.527 25.4329L187.669 30.4103C187.695 31.3503 186.955 32.1339 186.015 32.1606C185.075 32.1874 184.291 31.447 184.265 30.507ZM132.17 27.9074C132.195 28.7847 133.071 29.381 133.896 29.0829L135.737 28.4183C136.835 28.0217 137.555 26.965 137.522 25.7977L137.453 23.3691C137.363 20.2183 139.845 17.5915 142.996 17.5019L144.076 17.4712C145.596 17.428 146.958 16.5224 147.585 15.138L147.884 14.4781C148.399 13.3437 148.145 12.0086 147.25 11.1424C146.679 10.59 145.909 10.2912 145.115 10.3138L136.361 10.5626C135.33 10.5919 134.337 10.961 133.537 11.6126C132.41 12.5312 131.773 13.9218 131.814 15.3757L132.17 27.9074ZM70.8171 24.2988C70.8525 25.5433 70.4342 26.7581 69.6403 27.7171L69.2814 28.1505C68.5671 29.0132 67.5156 29.5261 66.3961 29.5579L65.7739 29.5756C64.4156 29.6142 63.1946 28.7521 62.7764 27.4592C62.5687 26.8169 62.5792 26.1239 62.8064 25.4882L63.3229 24.043L63.4783 23.4493C63.9352 21.7038 64.1411 19.9021 64.0899 18.0985L64.0308 16.0196C63.9366 12.7067 61.6566 9.858 58.4448 9.04035L58.2156 8.98201L54.1626 7.38363C53.1764 6.9947 52.5172 6.0551 52.4871 4.99542C52.4413 3.38492 53.8323 2.10711 55.4332 2.28904L57.4549 2.51881C57.8392 2.56247 58.216 2.65645 58.5757 2.79832L60.0791 3.39123C61.2276 3.84414 62.4559 4.05956 63.6899 4.02449L76.1653 3.66992C77.1781 3.64113 78.1779 3.9036 79.0459 4.42615L80.5936 5.35781C81.174 5.70724 81.5367 6.32812 81.556 7.00538C81.5786 7.80132 81.1243 8.53405 80.4014 8.86778L78.7734 9.61928C78.196 9.88583 77.5705 10.0326 76.9348 10.0506L73.2227 10.1561C71.6734 10.2002 70.4531 11.4918 70.4972 13.0412L70.8171 24.2988Z" stroke="#874927" stroke-opacity="0.89" stroke-width="0.5"/>
<defs>
<linearGradient id="paint0_linear" x1="115.571" y1="1" x2="115.571" y2="33.311" gradientUnits="userSpaceOnUse">
<stop stop-color="#68FF0C"/>
<stop offset="1" stop-color="#C4C4C4" stop-opacity="0"/>
</linearGradient>
<linearGradient id="paint1_linear" x1="115.571" y1="1" x2="115.571" y2="33.311" gradientUnits="userSpaceOnUse">
<stop stop-color="#68FF0C"/>
<stop offset="1" stop-color="#C4C4C4" stop-opacity="0"/>
</linearGradient>
<linearGradient id="paint2_linear" x1="115.571" y1="1" x2="115.571" y2="33.311" gradientUnits="userSpaceOnUse">
<stop offset="0.9999" stop-color="#FF8DFA" stop-opacity="0.44"/>
<stop offset="1" stop-color="white" stop-opacity="0"/>
</linearGradient>
<linearGradient id="paint3_linear" x1="115.571" y1="1" x2="115.571" y2="33.311" gradientUnits="userSpaceOnUse">
<stop stop-color="#68FF0C"/>
<stop offset="1" stop-color="#C4C4C4" stop-opacity="0"/>
</linearGradient>
<linearGradient id="paint4_linear" x1="115.571" y1="1" x2="115.571" y2="33.311" gradientUnits="userSpaceOnUse">
<stop stop-color="#68FF0C"/>
<stop offset="1" stop-color="#C4C4C4" stop-opacity="0"/>
</linearGradient>
<linearGradient id="paint5_linear" x1="115.571" y1="1" x2="115.571" y2="33.311" gradientUnits="userSpaceOnUse">
<stop offset="0.9999" stop-color="#FF8DFA" stop-opacity="0.44"/>
<stop offset="1" stop-color="white" stop-opacity="0"/>
</linearGradient>
<linearGradient id="paint6_linear" x1="115.571" y1="1" x2="115.571" y2="33.311" gradientUnits="userSpaceOnUse">
<stop stop-color="#68FF0C"/>
<stop offset="1" stop-color="#C4C4C4" stop-opacity="0"/>
</linearGradient>
<linearGradient id="paint7_linear" x1="115.571" y1="1" x2="115.571" y2="33.311" gradientUnits="userSpaceOnUse">
<stop stop-color="#68FF0C"/>
<stop offset="1" stop-color="#C4C4C4" stop-opacity="0"/>
</linearGradient>
<linearGradient id="paint8_linear" x1="115.571" y1="1" x2="115.571" y2="33.311" gradientUnits="userSpaceOnUse">
<stop offset="0.9999" stop-color="#FF8DFA" stop-opacity="0.44"/>
<stop offset="1" stop-color="white" stop-opacity="0"/>
</linearGradient>
<linearGradient id="paint9_linear" x1="115.571" y1="1" x2="115.571" y2="33.311" gradientUnits="userSpaceOnUse">
<stop stop-color="#68FF0C"/>
<stop offset="1" stop-color="#C4C4C4" stop-opacity="0"/>
</linearGradient>
<linearGradient id="paint10_linear" x1="115.571" y1="1" x2="115.571" y2="33.311" gradientUnits="userSpaceOnUse">
<stop stop-color="#68FF0C"/>
<stop offset="1" stop-color="#C4C4C4" stop-opacity="0"/>
</linearGradient>
<linearGradient id="paint11_linear" x1="115.571" y1="1" x2="115.571" y2="33.311" gradientUnits="userSpaceOnUse">
<stop offset="0.9999" stop-color="#FF8DFA" stop-opacity="0.44"/>
<stop offset="1" stop-color="white" stop-opacity="0"/>
</linearGradient>
<linearGradient id="paint12_linear" x1="115.571" y1="1" x2="115.571" y2="33.311" gradientUnits="userSpaceOnUse">
<stop stop-color="#68FF0C"/>
<stop offset="1" stop-color="#C4C4C4" stop-opacity="0"/>
</linearGradient>
<linearGradient id="paint13_linear" x1="115.571" y1="1" x2="115.571" y2="33.311" gradientUnits="userSpaceOnUse">
<stop stop-color="#68FF0C"/>
<stop offset="1" stop-color="#C4C4C4" stop-opacity="0"/>
</linearGradient>
<linearGradient id="paint14_linear" x1="115.571" y1="1" x2="115.571" y2="33.311" gradientUnits="userSpaceOnUse">
<stop offset="0.9999" stop-color="#FF8DFA" stop-opacity="0.44"/>
<stop offset="1" stop-color="white" stop-opacity="0"/>
</linearGradient>
<linearGradient id="paint15_linear" x1="115.571" y1="1" x2="115.571" y2="33.311" gradientUnits="userSpaceOnUse">
<stop stop-color="#68FF0C"/>
<stop offset="1" stop-color="#C4C4C4" stop-opacity="0"/>
</linearGradient>
<linearGradient id="paint16_linear" x1="115.571" y1="1" x2="115.571" y2="33.311" gradientUnits="userSpaceOnUse">
<stop stop-color="#68FF0C"/>
<stop offset="1" stop-color="#C4C4C4" stop-opacity="0"/>
</linearGradient>
<linearGradient id="paint17_linear" x1="115.571" y1="1" x2="115.571" y2="33.311" gradientUnits="userSpaceOnUse">
<stop offset="0.9999" stop-color="#FF8DFA" stop-opacity="0.44"/>
<stop offset="1" stop-color="white" stop-opacity="0"/>
</linearGradient>
<linearGradient id="paint18_linear" x1="115.571" y1="1" x2="115.571" y2="33.311" gradientUnits="userSpaceOnUse">
<stop stop-color="#68FF0C"/>
<stop offset="1" stop-color="#C4C4C4" stop-opacity="0"/>
</linearGradient>
<linearGradient id="paint19_linear" x1="115.571" y1="1" x2="115.571" y2="33.311" gradientUnits="userSpaceOnUse">
<stop stop-color="#68FF0C"/>
<stop offset="1" stop-color="#C4C4C4" stop-opacity="0"/>
</linearGradient>
<linearGradient id="paint20_linear" x1="115.571" y1="1" x2="115.571" y2="33.311" gradientUnits="userSpaceOnUse">
<stop offset="0.9999" stop-color="#FF8DFA" stop-opacity="0.44"/>
<stop offset="1" stop-color="white" stop-opacity="0"/>
</linearGradient>
<linearGradient id="paint21_linear" x1="115.571" y1="1" x2="115.571" y2="33.311" gradientUnits="userSpaceOnUse">
<stop stop-color="#68FF0C"/>
<stop offset="1" stop-color="#C4C4C4" stop-opacity="0"/>
</linearGradient>
<linearGradient id="paint22_linear" x1="115.571" y1="1" x2="115.571" y2="33.311" gradientUnits="userSpaceOnUse">
<stop stop-color="#68FF0C"/>
<stop offset="1" stop-color="#C4C4C4" stop-opacity="0"/>
</linearGradient>
<linearGradient id="paint23_linear" x1="115.571" y1="1" x2="115.571" y2="33.311" gradientUnits="userSpaceOnUse">
<stop offset="0.9999" stop-color="#FF8DFA" stop-opacity="0.44"/>
<stop offset="1" stop-color="white" stop-opacity="0"/>
</linearGradient>
<linearGradient id="paint24_linear" x1="115.571" y1="1" x2="115.571" y2="33.311" gradientUnits="userSpaceOnUse">
<stop stop-color="#68FF0C"/>
<stop offset="1" stop-color="#C4C4C4" stop-opacity="0"/>
</linearGradient>
<linearGradient id="paint25_linear" x1="115.571" y1="1" x2="115.571" y2="33.311" gradientUnits="userSpaceOnUse">
<stop stop-color="#68FF0C"/>
<stop offset="1" stop-color="#C4C4C4" stop-opacity="0"/>
</linearGradient>
<linearGradient id="paint26_linear" x1="115.571" y1="1" x2="115.571" y2="33.311" gradientUnits="userSpaceOnUse">
<stop offset="0.9999" stop-color="#FF8DFA" stop-opacity="0.44"/>
<stop offset="1" stop-color="white" stop-opacity="0"/>
</linearGradient>
</defs>
</svg>
