<svg version="1.1" viewBox="0.0 0.0 960.0 720.0" fill="none" stroke="none" stroke-linecap="square" stroke-miterlimit="10" xmlns:xlink="http://www.w3.org/1999/xlink" xmlns="http://www.w3.org/2000/svg"><clipPath id="p.0"><path d="m0 0l960.0 0l0 720.0l-960.0 0l0 -720.0z" clip-rule="nonzero"/></clipPath><g clip-path="url(#p.0)"><path fill="#000000" fill-opacity="0.0" d="m0 0l960.0 0l0 720.0l-960.0 0z" fill-rule="evenodd"/><path fill="#00ff00" fill-opacity="0.352" d="m448.0 360.0l0 0c0 -16.385895 14.326874 -29.669281 32.0 -29.669281l0 0c17.673126 0 32.0 13.283386 32.0 29.669281l0 0c0 16.385895 -14.326874 29.669281 -32.0 29.669281l0 0c-17.673126 0 -32.0 -13.283386 -32.0 -29.669281z" fill-rule="evenodd"/><path fill="#00ff00" fill-opacity="0.352" d="m456.08398 350.0l0 0c0 -16.385895 14.326904 -29.669281 32.0 -29.669281l0 0c17.673126 0 32.0 13.283386 32.0 29.669281l0 0c0 16.385895 -14.326874 29.669281 -32.0 29.669281l0 0c-17.673096 0 -32.0 -13.283386 -32.0 -29.669281z" fill-rule="evenodd"/><path fill="#00ff00" fill-opacity="0.352" d="m438.0 350.0l0 0c0 -16.385895 14.326874 -29.669281 32.0 -29.669281l0 0c17.673126 0 32.0 13.283386 32.0 29.669281l0 0c0 16.385895 -14.326874 29.669281 -32.0 29.669281l0 0c-17.673126 0 -32.0 -13.283386 -32.0 -29.669281z" fill-rule="evenodd"/><path fill="#ff0000" fill-opacity="0.6927" d="m431.41733 350.0l0 0c0 -26.535767 21.75119 -48.04724 48.582672 -48.04724l0 0c12.884918 0 25.242126 5.0621033 34.35315 14.072723c9.111023 9.01059 14.229553 21.231598 14.229553 33.974518l0 0c0 26.535767 -21.75122 48.04724 -48.582703 48.04724l0 0c-26.831482 0 -48.582672 -21.511475 -48.582672 -48.04724z" fill-rule="evenodd"/><path fill="#cfe2f3" fill-opacity="0.5754" d="m322.80298 372.46872l0 44.268494l-10.863007 9.352509l-9.05249 -8.729004l0.6034851 -45.515503l10.259491 -11.846497z" fill-rule="evenodd"/><path stroke="#00fffb" stroke-width="3.0" stroke-linejoin="round" stroke-linecap="butt" d="m322.80298 372.46872l0 44.268494l-10.863007 9.352509l-9.05249 -8.729004l0.6034851 -45.515503l10.259491 -11.846497z" fill-rule="evenodd"/><path fill="#cfe2f3" fill-opacity="0.5754" d="m334.78302 388.45483l-11.892487 34.742676l-14.038513 4.4420166l-7.26001 -9.265686l12.867859 -35.560333l14.068146 -6.5603333z" fill-rule="evenodd"/><path stroke="#00fffb" stroke-width="3.0" stroke-linejoin="round" stroke-linecap="butt" d="m334.78302 388.45483l-11.892487 34.742676l-14.038513 4.4420166l-7.26001 -9.265686l12.867859 -35.560333l14.068146 -6.5603333z" fill-rule="evenodd"/><path fill="#cfe2f3" fill-opacity="0.5754" d="m305.78586 388.88855l11.040497 26.814331l-5.536499 8.046997l-8.734497 -3.3023376l-10.914337 -27.701996l4.4773254 -9.4253235z" fill-rule="evenodd"/><path stroke="#00fffb" stroke-width="3.0" stroke-linejoin="round" stroke-linecap="butt" d="m305.78586 388.88855l11.040497 26.814331l-5.536499 8.046997l-8.734497 -3.3023376l-10.914337 -27.701996l4.4773254 -9.4253235z" fill-rule="evenodd"/></g></svg>