<svg width="412" height="338" viewBox="0 0 412 338" fill="none" xmlns="http://www.w3.org/2000/svg">
<g filter="url(#filter0_i)">
<path d="M213.239 74.3939L125.088 68.6309C119.671 68.2767 114.225 68.7098 108.921 69.9166L96.4172 72.7616C81.6841 76.1138 70.3794 88.0299 67.807 102.919C66.8922 108.214 67.133 113.637 68.5129 118.815L81.2941 166.774C84.6498 176.07 86.4805 185.857 86.7155 195.758L87.4075 224.914C87.5672 231.641 87.0476 238.372 85.8565 245.004L81.4151 269.734C80.4922 274.872 79.0051 279.897 76.9809 284.716L71.8019 297.045C68.8258 304.13 63.5035 309.987 56.7338 313.627L55.0718 314.521C51.5944 316.39 47.7345 317.426 43.7986 317.546C33.5109 317.859 24.0982 311.914 19.9835 302.507L18.4659 299.037C16.8606 295.366 15.986 291.414 15.8907 287.399L15.8271 284.721C15.7435 281.2 16.077 277.679 16.8206 274.23L22.3538 248.571C24.0199 240.844 24.7671 232.953 24.5799 225.064L23.5649 182.306C23.4129 175.902 22.6461 169.532 21.2751 163.283L16.3015 140.615L6.29302 109.194C3.41901 100.171 1.84578 90.7766 1.62067 81.2927L1.25013 65.6822C1.13033 60.6352 1.85152 55.5978 3.38412 50.7768L3.53552 50.3006C7.21834 38.7156 15.4777 29.1157 26.3871 23.7401C32.1025 20.9238 38.3485 19.3662 44.7013 19.173L64.2257 18.5794L151.684 15.6697L226.195 21.3018C234.111 21.9001 242.077 21.5522 249.923 20.2654L304.254 11.3549L329.756 4.50535C333.993 3.36746 338.345 2.73006 342.724 2.60624L353.316 2.3067C360.771 2.09586 368.007 4.7398 373.545 9.69852C379.538 15.0642 383.033 22.6819 383.205 30.7508L383.247 32.7024C383.591 48.8732 372.429 63.0962 356.624 66.6255L342.414 69.7986C339.201 70.5161 335.929 70.9242 332.642 71.0171L305.541 71.7835L213.239 74.3939Z" fill="url(#paint0_radial)" fill-opacity="0.6"/>
<path d="M213.239 74.3939L125.088 68.6309C119.671 68.2767 114.225 68.7098 108.921 69.9166L96.4172 72.7616C81.6841 76.1138 70.3794 88.0299 67.807 102.919C66.8922 108.214 67.133 113.637 68.5129 118.815L81.2941 166.774C84.6498 176.07 86.4805 185.857 86.7155 195.758L87.4075 224.914C87.5672 231.641 87.0476 238.372 85.8565 245.004L81.4151 269.734C80.4922 274.872 79.0051 279.897 76.9809 284.716L71.8019 297.045C68.8258 304.13 63.5035 309.987 56.7338 313.627L55.0718 314.521C51.5944 316.39 47.7345 317.426 43.7986 317.546C33.5109 317.859 24.0982 311.914 19.9835 302.507L18.4659 299.037C16.8606 295.366 15.986 291.414 15.8907 287.399L15.8271 284.721C15.7435 281.2 16.077 277.679 16.8206 274.23L22.3538 248.571C24.0199 240.844 24.7671 232.953 24.5799 225.064L23.5649 182.306C23.4129 175.902 22.6461 169.532 21.2751 163.283L16.3015 140.615L6.29302 109.194C3.41901 100.171 1.84578 90.7766 1.62067 81.2927L1.25013 65.6822C1.13033 60.6352 1.85152 55.5978 3.38412 50.7768L3.53552 50.3006C7.21834 38.7156 15.4777 29.1157 26.3871 23.7401C32.1025 20.9238 38.3485 19.3662 44.7013 19.173L64.2257 18.5794L151.684 15.6697L226.195 21.3018C234.111 21.9001 242.077 21.5522 249.923 20.2654L304.254 11.3549L329.756 4.50535C333.993 3.36746 338.345 2.73006 342.724 2.60624L353.316 2.3067C360.771 2.09586 368.007 4.7398 373.545 9.69852C379.538 15.0642 383.033 22.6819 383.205 30.7508L383.247 32.7024C383.591 48.8732 372.429 63.0962 356.624 66.6255L342.414 69.7986C339.201 70.5161 335.929 70.9242 332.642 71.0171L305.541 71.7835L213.239 74.3939Z" fill="url(#paint1_linear)" fill-opacity="0.6"/>
<path d="M213.239 74.3939L125.088 68.6309C119.671 68.2767 114.225 68.7098 108.921 69.9166L96.4172 72.7616C81.6841 76.1138 70.3794 88.0299 67.807 102.919C66.8922 108.214 67.133 113.637 68.5129 118.815L81.2941 166.774C84.6498 176.07 86.4805 185.857 86.7155 195.758L87.4075 224.914C87.5672 231.641 87.0476 238.372 85.8565 245.004L81.4151 269.734C80.4922 274.872 79.0051 279.897 76.9809 284.716L71.8019 297.045C68.8258 304.13 63.5035 309.987 56.7338 313.627L55.0718 314.521C51.5944 316.39 47.7345 317.426 43.7986 317.546C33.5109 317.859 24.0982 311.914 19.9835 302.507L18.4659 299.037C16.8606 295.366 15.986 291.414 15.8907 287.399L15.8271 284.721C15.7435 281.2 16.077 277.679 16.8206 274.23L22.3538 248.571C24.0199 240.844 24.7671 232.953 24.5799 225.064L23.5649 182.306C23.4129 175.902 22.6461 169.532 21.2751 163.283L16.3015 140.615L6.29302 109.194C3.41901 100.171 1.84578 90.7766 1.62067 81.2927L1.25013 65.6822C1.13033 60.6352 1.85152 55.5978 3.38412 50.7768L3.53552 50.3006C7.21834 38.7156 15.4777 29.1157 26.3871 23.7401C32.1025 20.9238 38.3485 19.3662 44.7013 19.173L64.2257 18.5794L151.684 15.6697L226.195 21.3018C234.111 21.9001 242.077 21.5522 249.923 20.2654L304.254 11.3549L329.756 4.50535C333.993 3.36746 338.345 2.73006 342.724 2.60624L353.316 2.3067C360.771 2.09586 368.007 4.7398 373.545 9.69852C379.538 15.0642 383.033 22.6819 383.205 30.7508L383.247 32.7024C383.591 48.8732 372.429 63.0962 356.624 66.6255L342.414 69.7986C339.201 70.5161 335.929 70.9242 332.642 71.0171L305.541 71.7835L213.239 74.3939Z" fill="url(#paint2_radial)" fill-opacity="0.6"/>
<path d="M213.239 74.3939L125.088 68.6309C119.671 68.2767 114.225 68.7098 108.921 69.9166L96.4172 72.7616C81.6841 76.1138 70.3794 88.0299 67.807 102.919C66.8922 108.214 67.133 113.637 68.5129 118.815L81.2941 166.774C84.6498 176.07 86.4805 185.857 86.7155 195.758L87.4075 224.914C87.5672 231.641 87.0476 238.372 85.8565 245.004L81.4151 269.734C80.4922 274.872 79.0051 279.897 76.9809 284.716L71.8019 297.045C68.8258 304.13 63.5035 309.987 56.7338 313.627L55.0718 314.521C51.5944 316.39 47.7345 317.426 43.7986 317.546C33.5109 317.859 24.0982 311.914 19.9835 302.507L18.4659 299.037C16.8606 295.366 15.986 291.414 15.8907 287.399L15.8271 284.721C15.7435 281.2 16.077 277.679 16.8206 274.23L22.3538 248.571C24.0199 240.844 24.7671 232.953 24.5799 225.064L23.5649 182.306C23.4129 175.902 22.6461 169.532 21.2751 163.283L16.3015 140.615L6.29302 109.194C3.41901 100.171 1.84578 90.7766 1.62067 81.2927L1.25013 65.6822C1.13033 60.6352 1.85152 55.5978 3.38412 50.7768L3.53552 50.3006C7.21834 38.7156 15.4777 29.1157 26.3871 23.7401C32.1025 20.9238 38.3485 19.3662 44.7013 19.173L64.2257 18.5794L151.684 15.6697L226.195 21.3018C234.111 21.9001 242.077 21.5522 249.923 20.2654L304.254 11.3549L329.756 4.50535C333.993 3.36746 338.345 2.73006 342.724 2.60624L353.316 2.3067C360.771 2.09586 368.007 4.7398 373.545 9.69852C379.538 15.0642 383.033 22.6819 383.205 30.7508L383.247 32.7024C383.591 48.8732 372.429 63.0962 356.624 66.6255L342.414 69.7986C339.201 70.5161 335.929 70.9242 332.642 71.0171L305.541 71.7835L213.239 74.3939Z" fill="url(#paint3_linear)" fill-opacity="0.6"/>
</g>
<path d="M213.239 74.3939L125.088 68.6309C119.671 68.2767 114.225 68.7098 108.921 69.9166L96.4172 72.7616C81.6841 76.1138 70.3794 88.0299 67.807 102.919C66.8922 108.214 67.133 113.637 68.5129 118.815L81.2941 166.774C84.6498 176.07 86.4805 185.857 86.7155 195.758L87.4075 224.914C87.5672 231.641 87.0476 238.372 85.8565 245.004L81.4151 269.734C80.4922 274.872 79.0051 279.897 76.9809 284.716L71.8019 297.045C68.8258 304.13 63.5035 309.987 56.7338 313.627L55.0718 314.521C51.5944 316.39 47.7345 317.426 43.7986 317.546C33.5109 317.859 24.0982 311.914 19.9835 302.507L18.4659 299.037C16.8606 295.366 15.986 291.414 15.8907 287.399L15.8271 284.721C15.7435 281.2 16.077 277.679 16.8206 274.23L22.3538 248.571C24.0199 240.844 24.7671 232.953 24.5799 225.064L23.5649 182.306C23.4129 175.902 22.6461 169.532 21.2751 163.283L16.3015 140.615L6.29302 109.194C3.41901 100.171 1.84578 90.7766 1.62067 81.2927L1.25013 65.6822C1.13033 60.6352 1.85152 55.5978 3.38412 50.7768L3.53552 50.3006C7.21834 38.7156 15.4777 29.1157 26.3871 23.7401C32.1025 20.9238 38.3485 19.3662 44.7013 19.173L64.2257 18.5794L151.684 15.6697L226.195 21.3018C234.111 21.9001 242.077 21.5522 249.923 20.2654L304.254 11.3549L329.756 4.50535C333.993 3.36746 338.345 2.73006 342.724 2.60624L353.316 2.3067C360.771 2.09586 368.007 4.7398 373.545 9.69852C379.538 15.0642 383.033 22.6819 383.205 30.7508L383.247 32.7024C383.591 48.8732 372.429 63.0962 356.624 66.6255L342.414 69.7986C339.201 70.5161 335.929 70.9242 332.642 71.0171L305.541 71.7835L213.239 74.3939Z" stroke="#594600" stroke-opacity="0.05"/>
<g filter="url(#filter1_i)">
<path d="M315.783 149.503L324.108 101.527C325.188 95.2979 324.64 88.8664 322.515 82.8533C317.773 69.4319 305.819 59.7701 291.75 57.9882L280.958 56.6213C276.627 56.0729 272.256 56.0478 267.939 56.5466L204.598 63.8647L195.969 65.304C189.993 66.3007 183.928 66.7486 177.851 66.6421L119.633 65.6219L67.2442 58.7865L36.8086 50.6954C32.2528 49.4843 28.1356 46.9512 24.9809 43.4183L22.2985 40.4145C20.0768 37.9265 18.845 34.7174 18.8429 31.4117C18.8388 25.1873 23.1475 19.8692 29.2176 18.6064L45.9746 15.1204C48.4863 14.5979 51.0532 14.357 53.6283 14.4021L67.2155 14.6402L119.605 22.5321L199.431 23.931L239.492 20.3305L288.007 13.3541C293.271 12.5972 298.595 12.2639 303.927 12.3573L335.804 12.9159C340.283 12.9944 344.752 13.4948 349.152 14.4105L362.987 17.2894C370.351 18.8218 376.996 22.8666 381.778 28.7267C386.559 34.5852 389.177 41.8913 389.182 49.3862L389.187 57.8065L389.48 108.052C389.518 114.561 388.921 121.046 387.697 127.415L382.276 155.622C379.593 169.582 379.937 184.01 383.287 197.936L387.576 215.772C388.659 220.272 390.117 224.681 391.935 228.95L396.569 239.833C397.937 243.045 398.636 246.491 398.625 249.959C398.597 258.943 393.819 267.156 386.064 271.551L384.549 272.41C380.187 274.883 375.224 276.136 370.17 276.04L352.385 275.705C336.089 275.397 321.582 264.814 316.225 249.324C314.802 245.208 314.082 240.894 314.096 236.565L314.145 221.118L314.32 166.203C314.338 160.597 314.828 155.01 315.783 149.503Z" fill="url(#paint4_radial)" fill-opacity="0.6"/>
<path d="M315.783 149.503L324.108 101.527C325.188 95.2979 324.64 88.8664 322.515 82.8533C317.773 69.4319 305.819 59.7701 291.75 57.9882L280.958 56.6213C276.627 56.0729 272.256 56.0478 267.939 56.5466L204.598 63.8647L195.969 65.304C189.993 66.3007 183.928 66.7486 177.851 66.6421L119.633 65.6219L67.2442 58.7865L36.8086 50.6954C32.2528 49.4843 28.1356 46.9512 24.9809 43.4183L22.2985 40.4145C20.0768 37.9265 18.845 34.7174 18.8429 31.4117C18.8388 25.1873 23.1475 19.8692 29.2176 18.6064L45.9746 15.1204C48.4863 14.5979 51.0532 14.357 53.6283 14.4021L67.2155 14.6402L119.605 22.5321L199.431 23.931L239.492 20.3305L288.007 13.3541C293.271 12.5972 298.595 12.2639 303.927 12.3573L335.804 12.9159C340.283 12.9944 344.752 13.4948 349.152 14.4105L362.987 17.2894C370.351 18.8218 376.996 22.8666 381.778 28.7267C386.559 34.5852 389.177 41.8913 389.182 49.3862L389.187 57.8065L389.48 108.052C389.518 114.561 388.921 121.046 387.697 127.415L382.276 155.622C379.593 169.582 379.937 184.01 383.287 197.936L387.576 215.772C388.659 220.272 390.117 224.681 391.935 228.95L396.569 239.833C397.937 243.045 398.636 246.491 398.625 249.959C398.597 258.943 393.819 267.156 386.064 271.551L384.549 272.41C380.187 274.883 375.224 276.136 370.17 276.04L352.385 275.705C336.089 275.397 321.582 264.814 316.225 249.324C314.802 245.208 314.082 240.894 314.096 236.565L314.145 221.118L314.32 166.203C314.338 160.597 314.828 155.01 315.783 149.503Z" fill="url(#paint5_linear)" fill-opacity="0.6"/>
<path d="M315.783 149.503L324.108 101.527C325.188 95.2979 324.64 88.8664 322.515 82.8533C317.773 69.4319 305.819 59.7701 291.75 57.9882L280.958 56.6213C276.627 56.0729 272.256 56.0478 267.939 56.5466L204.598 63.8647L195.969 65.304C189.993 66.3007 183.928 66.7486 177.851 66.6421L119.633 65.6219L67.2442 58.7865L36.8086 50.6954C32.2528 49.4843 28.1356 46.9512 24.9809 43.4183L22.2985 40.4145C20.0768 37.9265 18.845 34.7174 18.8429 31.4117C18.8388 25.1873 23.1475 19.8692 29.2176 18.6064L45.9746 15.1204C48.4863 14.5979 51.0532 14.357 53.6283 14.4021L67.2155 14.6402L119.605 22.5321L199.431 23.931L239.492 20.3305L288.007 13.3541C293.271 12.5972 298.595 12.2639 303.927 12.3573L335.804 12.9159C340.283 12.9944 344.752 13.4948 349.152 14.4105L362.987 17.2894C370.351 18.8218 376.996 22.8666 381.778 28.7267C386.559 34.5852 389.177 41.8913 389.182 49.3862L389.187 57.8065L389.48 108.052C389.518 114.561 388.921 121.046 387.697 127.415L382.276 155.622C379.593 169.582 379.937 184.01 383.287 197.936L387.576 215.772C388.659 220.272 390.117 224.681 391.935 228.95L396.569 239.833C397.937 243.045 398.636 246.491 398.625 249.959C398.597 258.943 393.819 267.156 386.064 271.551L384.549 272.41C380.187 274.883 375.224 276.136 370.17 276.04L352.385 275.705C336.089 275.397 321.582 264.814 316.225 249.324C314.802 245.208 314.082 240.894 314.096 236.565L314.145 221.118L314.32 166.203C314.338 160.597 314.828 155.01 315.783 149.503Z" fill="url(#paint6_radial)" fill-opacity="0.6"/>
<path d="M315.783 149.503L324.108 101.527C325.188 95.2979 324.64 88.8664 322.515 82.8533C317.773 69.4319 305.819 59.7701 291.75 57.9882L280.958 56.6213C276.627 56.0729 272.256 56.0478 267.939 56.5466L204.598 63.8647L195.969 65.304C189.993 66.3007 183.928 66.7486 177.851 66.6421L119.633 65.6219L67.2442 58.7865L36.8086 50.6954C32.2528 49.4843 28.1356 46.9512 24.9809 43.4183L22.2985 40.4145C20.0768 37.9265 18.845 34.7174 18.8429 31.4117C18.8388 25.1873 23.1475 19.8692 29.2176 18.6064L45.9746 15.1204C48.4863 14.5979 51.0532 14.357 53.6283 14.4021L67.2155 14.6402L119.605 22.5321L199.431 23.931L239.492 20.3305L288.007 13.3541C293.271 12.5972 298.595 12.2639 303.927 12.3573L335.804 12.9159C340.283 12.9944 344.752 13.4948 349.152 14.4105L362.987 17.2894C370.351 18.8218 376.996 22.8666 381.778 28.7267C386.559 34.5852 389.177 41.8913 389.182 49.3862L389.187 57.8065L389.48 108.052C389.518 114.561 388.921 121.046 387.697 127.415L382.276 155.622C379.593 169.582 379.937 184.01 383.287 197.936L387.576 215.772C388.659 220.272 390.117 224.681 391.935 228.95L396.569 239.833C397.937 243.045 398.636 246.491 398.625 249.959C398.597 258.943 393.819 267.156 386.064 271.551L384.549 272.41C380.187 274.883 375.224 276.136 370.17 276.04L352.385 275.705C336.089 275.397 321.582 264.814 316.225 249.324C314.802 245.208 314.082 240.894 314.096 236.565L314.145 221.118L314.32 166.203C314.338 160.597 314.828 155.01 315.783 149.503Z" fill="url(#paint7_linear)" fill-opacity="0.6"/>
</g>
<path d="M315.783 149.503L324.108 101.527C325.188 95.2979 324.64 88.8664 322.515 82.8533C317.773 69.4319 305.819 59.7701 291.75 57.9882L280.958 56.6213C276.627 56.0729 272.256 56.0478 267.939 56.5466L204.598 63.8647L195.969 65.304C189.993 66.3007 183.928 66.7486 177.851 66.6421L119.633 65.6219L67.2442 58.7865L36.8086 50.6954C32.2528 49.4843 28.1356 46.9512 24.9809 43.4183L22.2985 40.4145C20.0768 37.9265 18.845 34.7174 18.8429 31.4117C18.8388 25.1873 23.1475 19.8692 29.2176 18.6064L45.9746 15.1204C48.4863 14.5979 51.0532 14.357 53.6283 14.4021L67.2155 14.6402L119.605 22.5321L199.431 23.931L239.492 20.3305L288.007 13.3541C293.271 12.5972 298.595 12.2639 303.927 12.3573L335.804 12.9159C340.283 12.9944 344.752 13.4948 349.152 14.4105L362.987 17.2894C370.351 18.8218 376.996 22.8666 381.778 28.7267C386.559 34.5852 389.177 41.8913 389.182 49.3862L389.187 57.8065L389.48 108.052C389.518 114.561 388.921 121.046 387.697 127.415L382.276 155.622C379.593 169.582 379.937 184.01 383.287 197.936L387.576 215.772C388.659 220.272 390.117 224.681 391.935 228.95L396.569 239.833C397.937 243.045 398.636 246.491 398.625 249.959C398.597 258.943 393.819 267.156 386.064 271.551L384.549 272.41C380.187 274.883 375.224 276.136 370.17 276.04L352.385 275.705C336.089 275.397 321.582 264.814 316.225 249.324C314.802 245.208 314.082 240.894 314.096 236.565L314.145 221.118L314.32 166.203C314.338 160.597 314.828 155.01 315.783 149.503Z" stroke="#594600" stroke-opacity="0.05"/>
<g filter="url(#filter2_i)">
<path d="M315.591 161.618L324.226 107.871C325.234 101.596 324.719 95.1433 322.725 89.0536C317.868 74.2267 304.904 63.4085 289.494 61.3231L281.295 60.2136C276.745 59.5979 272.145 59.5756 267.611 60.1474L204.6 68.0931L196.645 69.5363C190.223 70.7015 183.691 71.2305 177.142 71.1157L119.636 70.108L67.2467 62.8027L37.4603 54.2971C32.4886 52.8774 28.0456 49.9711 24.733 45.9718L22.3201 43.0587C20.0772 40.3508 18.8463 36.9558 18.8441 33.4707C18.8396 26.6393 23.507 20.7756 30.1426 19.2764L45.6596 15.7704C48.3794 15.1558 51.1689 14.87 53.9685 14.9191L60.696 15.037C65.0369 15.1131 69.3725 15.499 73.6698 16.1917L112.532 22.4565C117.242 23.2158 121.994 23.6387 126.752 23.7221L199.431 24.9958L239.493 21.0536L287.406 13.55C293.068 12.6632 298.806 12.268 304.554 12.3687L335.568 12.9122C340.202 12.9935 344.824 13.5449 349.364 14.5582L361.912 17.3592C369.954 19.1543 377.131 23.7777 382.129 30.3816C386.699 36.4196 389.178 43.7601 389.183 51.2666L389.189 61.297L389.493 117.018C389.526 123.057 389.012 129.076 387.957 135.003L381.715 170.078C379.403 183.07 379.702 196.438 382.593 209.408L387.588 231.815C388.67 236.667 390.133 241.433 391.962 246.067L396.605 257.829C397.958 261.257 398.648 264.901 398.638 268.564C398.609 278.391 393.425 287.512 385.116 292.607C380.449 295.469 374.972 296.976 369.453 296.871L354.864 296.594C337.172 296.259 321.505 284.554 316.074 267.615C314.757 263.507 314.093 259.228 314.105 254.937L314.156 237.68L314.332 177.124C314.347 171.923 314.768 166.739 315.591 161.618Z" fill="url(#paint8_radial)" fill-opacity="0.6"/>
<path d="M315.591 161.618L324.226 107.871C325.234 101.596 324.719 95.1433 322.725 89.0536C317.868 74.2267 304.904 63.4085 289.494 61.3231L281.295 60.2136C276.745 59.5979 272.145 59.5756 267.611 60.1474L204.6 68.0931L196.645 69.5363C190.223 70.7015 183.691 71.2305 177.142 71.1157L119.636 70.108L67.2467 62.8027L37.4603 54.2971C32.4886 52.8774 28.0456 49.9711 24.733 45.9718L22.3201 43.0587C20.0772 40.3508 18.8463 36.9558 18.8441 33.4707C18.8396 26.6393 23.507 20.7756 30.1426 19.2764L45.6596 15.7704C48.3794 15.1558 51.1689 14.87 53.9685 14.9191L60.696 15.037C65.0369 15.1131 69.3725 15.499 73.6698 16.1917L112.532 22.4565C117.242 23.2158 121.994 23.6387 126.752 23.7221L199.431 24.9958L239.493 21.0536L287.406 13.55C293.068 12.6632 298.806 12.268 304.554 12.3687L335.568 12.9122C340.202 12.9935 344.824 13.5449 349.364 14.5582L361.912 17.3592C369.954 19.1543 377.131 23.7777 382.129 30.3816C386.699 36.4196 389.178 43.7601 389.183 51.2666L389.189 61.297L389.493 117.018C389.526 123.057 389.012 129.076 387.957 135.003L381.715 170.078C379.403 183.07 379.702 196.438 382.593 209.408L387.588 231.815C388.67 236.667 390.133 241.433 391.962 246.067L396.605 257.829C397.958 261.257 398.648 264.901 398.638 268.564C398.609 278.391 393.425 287.512 385.116 292.607C380.449 295.469 374.972 296.976 369.453 296.871L354.864 296.594C337.172 296.259 321.505 284.554 316.074 267.615C314.757 263.507 314.093 259.228 314.105 254.937L314.156 237.68L314.332 177.124C314.347 171.923 314.768 166.739 315.591 161.618Z" fill="url(#paint9_linear)" fill-opacity="0.6"/>
<path d="M315.591 161.618L324.226 107.871C325.234 101.596 324.719 95.1433 322.725 89.0536C317.868 74.2267 304.904 63.4085 289.494 61.3231L281.295 60.2136C276.745 59.5979 272.145 59.5756 267.611 60.1474L204.6 68.0931L196.645 69.5363C190.223 70.7015 183.691 71.2305 177.142 71.1157L119.636 70.108L67.2467 62.8027L37.4603 54.2971C32.4886 52.8774 28.0456 49.9711 24.733 45.9718L22.3201 43.0587C20.0772 40.3508 18.8463 36.9558 18.8441 33.4707C18.8396 26.6393 23.507 20.7756 30.1426 19.2764L45.6596 15.7704C48.3794 15.1558 51.1689 14.87 53.9685 14.9191L60.696 15.037C65.0369 15.1131 69.3725 15.499 73.6698 16.1917L112.532 22.4565C117.242 23.2158 121.994 23.6387 126.752 23.7221L199.431 24.9958L239.493 21.0536L287.406 13.55C293.068 12.6632 298.806 12.268 304.554 12.3687L335.568 12.9122C340.202 12.9935 344.824 13.5449 349.364 14.5582L361.912 17.3592C369.954 19.1543 377.131 23.7777 382.129 30.3816C386.699 36.4196 389.178 43.7601 389.183 51.2666L389.189 61.297L389.493 117.018C389.526 123.057 389.012 129.076 387.957 135.003L381.715 170.078C379.403 183.07 379.702 196.438 382.593 209.408L387.588 231.815C388.67 236.667 390.133 241.433 391.962 246.067L396.605 257.829C397.958 261.257 398.648 264.901 398.638 268.564C398.609 278.391 393.425 287.512 385.116 292.607C380.449 295.469 374.972 296.976 369.453 296.871L354.864 296.594C337.172 296.259 321.505 284.554 316.074 267.615C314.757 263.507 314.093 259.228 314.105 254.937L314.156 237.68L314.332 177.124C314.347 171.923 314.768 166.739 315.591 161.618Z" fill="url(#paint10_radial)" fill-opacity="0.6"/>
<path d="M315.591 161.618L324.226 107.871C325.234 101.596 324.719 95.1433 322.725 89.0536C317.868 74.2267 304.904 63.4085 289.494 61.3231L281.295 60.2136C276.745 59.5979 272.145 59.5756 267.611 60.1474L204.6 68.0931L196.645 69.5363C190.223 70.7015 183.691 71.2305 177.142 71.1157L119.636 70.108L67.2467 62.8027L37.4603 54.2971C32.4886 52.8774 28.0456 49.9711 24.733 45.9718L22.3201 43.0587C20.0772 40.3508 18.8463 36.9558 18.8441 33.4707C18.8396 26.6393 23.507 20.7756 30.1426 19.2764L45.6596 15.7704C48.3794 15.1558 51.1689 14.87 53.9685 14.9191L60.696 15.037C65.0369 15.1131 69.3725 15.499 73.6698 16.1917L112.532 22.4565C117.242 23.2158 121.994 23.6387 126.752 23.7221L199.431 24.9958L239.493 21.0536L287.406 13.55C293.068 12.6632 298.806 12.268 304.554 12.3687L335.568 12.9122C340.202 12.9935 344.824 13.5449 349.364 14.5582L361.912 17.3592C369.954 19.1543 377.131 23.7777 382.129 30.3816C386.699 36.4196 389.178 43.7601 389.183 51.2666L389.189 61.297L389.493 117.018C389.526 123.057 389.012 129.076 387.957 135.003L381.715 170.078C379.403 183.07 379.702 196.438 382.593 209.408L387.588 231.815C388.67 236.667 390.133 241.433 391.962 246.067L396.605 257.829C397.958 261.257 398.648 264.901 398.638 268.564C398.609 278.391 393.425 287.512 385.116 292.607C380.449 295.469 374.972 296.976 369.453 296.871L354.864 296.594C337.172 296.259 321.505 284.554 316.074 267.615C314.757 263.507 314.093 259.228 314.105 254.937L314.156 237.68L314.332 177.124C314.347 171.923 314.768 166.739 315.591 161.618Z" fill="url(#paint11_linear)" fill-opacity="0.6"/>
</g>
<path d="M315.591 161.618L324.226 107.871C325.234 101.596 324.719 95.1433 322.725 89.0536C317.868 74.2267 304.904 63.4085 289.494 61.3231L281.295 60.2136C276.745 59.5979 272.145 59.5756 267.611 60.1474L204.6 68.0931L196.645 69.5363C190.223 70.7015 183.691 71.2305 177.142 71.1157L119.636 70.108L67.2467 62.8027L37.4603 54.2971C32.4886 52.8774 28.0456 49.9711 24.733 45.9718L22.3201 43.0587C20.0772 40.3508 18.8463 36.9558 18.8441 33.4707C18.8396 26.6393 23.507 20.7756 30.1426 19.2764L45.6596 15.7704C48.3794 15.1558 51.1689 14.87 53.9685 14.9191L60.696 15.037C65.0369 15.1131 69.3725 15.499 73.6698 16.1917L112.532 22.4565C117.242 23.2158 121.994 23.6387 126.752 23.7221L199.431 24.9958L239.493 21.0536L287.406 13.55C293.068 12.6632 298.806 12.268 304.554 12.3687L335.568 12.9122C340.202 12.9935 344.824 13.5449 349.364 14.5582L361.912 17.3592C369.954 19.1543 377.131 23.7777 382.129 30.3816C386.699 36.4196 389.178 43.7601 389.183 51.2666L389.189 61.297L389.493 117.018C389.526 123.057 389.012 129.076 387.957 135.003L381.715 170.078C379.403 183.07 379.702 196.438 382.593 209.408L387.588 231.815C388.67 236.667 390.133 241.433 391.962 246.067L396.605 257.829C397.958 261.257 398.648 264.901 398.638 268.564C398.609 278.391 393.425 287.512 385.116 292.607C380.449 295.469 374.972 296.976 369.453 296.871L354.864 296.594C337.172 296.259 321.505 284.554 316.074 267.615C314.757 263.507 314.093 259.228 314.105 254.937L314.156 237.68L314.332 177.124C314.347 171.923 314.768 166.739 315.591 161.618Z" stroke="#594600" stroke-opacity="0.05"/>
<g filter="url(#filter3_i)">
<path d="M73.692 60.8915L74.5754 64.9959C75.229 68.033 75.5246 71.1228 75.456 74.2007L75.0308 93.2858L73.3652 151.737C72.7637 172.848 88.0162 191.708 108.88 195.652C115.998 196.997 123.269 196.482 129.985 194.158L140.371 190.562C148.205 187.851 156.447 186.351 164.822 186.113L186.705 185.492L237.911 184.038C245.283 183.829 252.687 184.833 259.831 187.011L266.52 189.05C279.354 192.963 293.006 191.736 304.552 185.632L316.551 179.289C331.445 171.415 350.276 175.855 360.894 189.745C362.534 191.89 363.931 194.206 365.058 196.649L384.261 238.252C389.744 250.131 390.151 263.566 385.386 275.348C379.401 290.148 366.042 300.449 350.121 302.543L328.92 305.33C324.567 305.902 320.278 306.817 316.094 308.067L273.915 320.657C268.699 322.214 263.218 322.843 257.714 322.515C254.664 322.333 251.627 321.858 248.644 321.098L223.947 314.802C217.706 313.211 211.351 312.218 204.969 311.838L163.339 309.356C158.17 309.047 153.001 309.142 147.879 309.638L125.875 311.769L95.3035 317.12C87.781 318.437 80.0972 318.871 72.4052 318.412L55.5868 317.409C51.5669 317.17 47.5763 316.385 43.7242 315.076L39.0698 313.495C30.7823 310.68 23.8151 304.726 19.6944 296.938C17 291.845 15.642 286.19 15.7533 280.526L16.0077 267.575L17.0499 202.805L24.4795 154.084C25.9562 144.4 25.9892 134.493 24.5772 124.684L19.566 89.8697L14.4102 70.7091C13.5196 67.3995 13.1057 63.9971 13.1812 60.6074L13.2933 55.5733C13.4512 48.4872 16.6957 41.9482 22.1739 37.6752C26.6407 34.1911 32.2651 32.472 38.0345 32.8273L41.5206 33.042C57.0811 34.0004 70.3829 45.5152 73.692 60.8915Z" fill="url(#paint12_radial)" fill-opacity="0.6"/>
<path d="M73.692 60.8915L74.5754 64.9959C75.229 68.033 75.5246 71.1228 75.456 74.2007L75.0308 93.2858L73.3652 151.737C72.7637 172.848 88.0162 191.708 108.88 195.652C115.998 196.997 123.269 196.482 129.985 194.158L140.371 190.562C148.205 187.851 156.447 186.351 164.822 186.113L186.705 185.492L237.911 184.038C245.283 183.829 252.687 184.833 259.831 187.011L266.52 189.05C279.354 192.963 293.006 191.736 304.552 185.632L316.551 179.289C331.445 171.415 350.276 175.855 360.894 189.745C362.534 191.89 363.931 194.206 365.058 196.649L384.261 238.252C389.744 250.131 390.151 263.566 385.386 275.348C379.401 290.148 366.042 300.449 350.121 302.543L328.92 305.33C324.567 305.902 320.278 306.817 316.094 308.067L273.915 320.657C268.699 322.214 263.218 322.843 257.714 322.515C254.664 322.333 251.627 321.858 248.644 321.098L223.947 314.802C217.706 313.211 211.351 312.218 204.969 311.838L163.339 309.356C158.17 309.047 153.001 309.142 147.879 309.638L125.875 311.769L95.3035 317.12C87.781 318.437 80.0972 318.871 72.4052 318.412L55.5868 317.409C51.5669 317.17 47.5763 316.385 43.7242 315.076L39.0698 313.495C30.7823 310.68 23.8151 304.726 19.6944 296.938C17 291.845 15.642 286.19 15.7533 280.526L16.0077 267.575L17.0499 202.805L24.4795 154.084C25.9562 144.4 25.9892 134.493 24.5772 124.684L19.566 89.8697L14.4102 70.7091C13.5196 67.3995 13.1057 63.9971 13.1812 60.6074L13.2933 55.5733C13.4512 48.4872 16.6957 41.9482 22.1739 37.6752C26.6407 34.1911 32.2651 32.472 38.0345 32.8273L41.5206 33.042C57.0811 34.0004 70.3829 45.5152 73.692 60.8915Z" fill="url(#paint13_linear)" fill-opacity="0.6"/>
<path d="M73.692 60.8915L74.5754 64.9959C75.229 68.033 75.5246 71.1228 75.456 74.2007L75.0308 93.2858L73.3652 151.737C72.7637 172.848 88.0162 191.708 108.88 195.652C115.998 196.997 123.269 196.482 129.985 194.158L140.371 190.562C148.205 187.851 156.447 186.351 164.822 186.113L186.705 185.492L237.911 184.038C245.283 183.829 252.687 184.833 259.831 187.011L266.52 189.05C279.354 192.963 293.006 191.736 304.552 185.632L316.551 179.289C331.445 171.415 350.276 175.855 360.894 189.745C362.534 191.89 363.931 194.206 365.058 196.649L384.261 238.252C389.744 250.131 390.151 263.566 385.386 275.348C379.401 290.148 366.042 300.449 350.121 302.543L328.92 305.33C324.567 305.902 320.278 306.817 316.094 308.067L273.915 320.657C268.699 322.214 263.218 322.843 257.714 322.515C254.664 322.333 251.627 321.858 248.644 321.098L223.947 314.802C217.706 313.211 211.351 312.218 204.969 311.838L163.339 309.356C158.17 309.047 153.001 309.142 147.879 309.638L125.875 311.769L95.3035 317.12C87.781 318.437 80.0972 318.871 72.4052 318.412L55.5868 317.409C51.5669 317.17 47.5763 316.385 43.7242 315.076L39.0698 313.495C30.7823 310.68 23.8151 304.726 19.6944 296.938C17 291.845 15.642 286.19 15.7533 280.526L16.0077 267.575L17.0499 202.805L24.4795 154.084C25.9562 144.4 25.9892 134.493 24.5772 124.684L19.566 89.8697L14.4102 70.7091C13.5196 67.3995 13.1057 63.9971 13.1812 60.6074L13.2933 55.5733C13.4512 48.4872 16.6957 41.9482 22.1739 37.6752C26.6407 34.1911 32.2651 32.472 38.0345 32.8273L41.5206 33.042C57.0811 34.0004 70.3829 45.5152 73.692 60.8915Z" fill="url(#paint14_radial)" fill-opacity="0.27"/>
<path d="M73.692 60.8915L74.5754 64.9959C75.229 68.033 75.5246 71.1228 75.456 74.2007L75.0308 93.2858L73.3652 151.737C72.7637 172.848 88.0162 191.708 108.88 195.652C115.998 196.997 123.269 196.482 129.985 194.158L140.371 190.562C148.205 187.851 156.447 186.351 164.822 186.113L186.705 185.492L237.911 184.038C245.283 183.829 252.687 184.833 259.831 187.011L266.52 189.05C279.354 192.963 293.006 191.736 304.552 185.632L316.551 179.289C331.445 171.415 350.276 175.855 360.894 189.745C362.534 191.89 363.931 194.206 365.058 196.649L384.261 238.252C389.744 250.131 390.151 263.566 385.386 275.348C379.401 290.148 366.042 300.449 350.121 302.543L328.92 305.33C324.567 305.902 320.278 306.817 316.094 308.067L273.915 320.657C268.699 322.214 263.218 322.843 257.714 322.515C254.664 322.333 251.627 321.858 248.644 321.098L223.947 314.802C217.706 313.211 211.351 312.218 204.969 311.838L163.339 309.356C158.17 309.047 153.001 309.142 147.879 309.638L125.875 311.769L95.3035 317.12C87.781 318.437 80.0972 318.871 72.4052 318.412L55.5868 317.409C51.5669 317.17 47.5763 316.385 43.7242 315.076L39.0698 313.495C30.7823 310.68 23.8151 304.726 19.6944 296.938C17 291.845 15.642 286.19 15.7533 280.526L16.0077 267.575L17.0499 202.805L24.4795 154.084C25.9562 144.4 25.9892 134.493 24.5772 124.684L19.566 89.8697L14.4102 70.7091C13.5196 67.3995 13.1057 63.9971 13.1812 60.6074L13.2933 55.5733C13.4512 48.4872 16.6957 41.9482 22.1739 37.6752C26.6407 34.1911 32.2651 32.472 38.0345 32.8273L41.5206 33.042C57.0811 34.0004 70.3829 45.5152 73.692 60.8915Z" fill="url(#paint15_linear)" fill-opacity="0.6"/>
</g>
<path d="M73.692 60.8915L74.5754 64.9959C75.229 68.033 75.5246 71.1228 75.456 74.2007L75.0308 93.2858L73.3652 151.737C72.7637 172.848 88.0162 191.708 108.88 195.652C115.998 196.997 123.269 196.482 129.985 194.158L140.371 190.562C148.205 187.851 156.447 186.351 164.822 186.113L186.705 185.492L237.911 184.038C245.283 183.829 252.687 184.833 259.831 187.011L266.52 189.05C279.354 192.963 293.006 191.736 304.552 185.632L316.551 179.289C331.445 171.415 350.276 175.855 360.894 189.745C362.534 191.89 363.931 194.206 365.058 196.649L384.261 238.252C389.744 250.131 390.151 263.566 385.386 275.348C379.401 290.148 366.042 300.449 350.121 302.543L328.92 305.33C324.567 305.902 320.278 306.817 316.094 308.067L273.915 320.657C268.699 322.214 263.218 322.843 257.714 322.515C254.664 322.333 251.627 321.858 248.644 321.098L223.947 314.802C217.706 313.211 211.351 312.218 204.969 311.838L163.339 309.356C158.17 309.047 153.001 309.142 147.879 309.638L125.875 311.769L95.3035 317.12C87.781 318.437 80.0972 318.871 72.4052 318.412L55.5868 317.409C51.5669 317.17 47.5763 316.385 43.7242 315.076L39.0698 313.495C30.7823 310.68 23.8151 304.726 19.6944 296.938C17 291.845 15.642 286.19 15.7533 280.526L16.0077 267.575L17.0499 202.805L24.4795 154.084C25.9562 144.4 25.9892 134.493 24.5772 124.684L19.566 89.8697L14.4102 70.7091C13.5196 67.3995 13.1057 63.9971 13.1812 60.6074L13.2933 55.5733C13.4512 48.4872 16.6957 41.9482 22.1739 37.6752C26.6407 34.1911 32.2651 32.472 38.0345 32.8273L41.5206 33.042C57.0811 34.0004 70.3829 45.5152 73.692 60.8915Z" stroke="#594600" stroke-opacity="0.05"/>
<g filter="url(#filter4_i)">
<path d="M26.4907 290.592L26.1201 276.013C25.926 268.375 26.6079 260.742 28.1525 253.263L34.2725 223.633C35.1893 219.194 36.7295 214.908 38.8472 210.903L41.5208 205.847C53.6241 182.959 83.0843 175.918 104.319 190.84C111.987 196.228 121.195 198.977 130.549 198.671L214.152 195.931L267.025 194.198C273.369 193.99 279.602 192.503 285.35 189.825C297.889 183.984 307.21 172.918 310.837 159.565L314.605 145.69C316.125 140.094 317.017 134.345 317.264 128.548L318.661 95.7644C318.872 90.819 319.449 85.897 320.389 81.039L326.063 51.716C327.133 46.1871 328.822 40.7977 331.098 35.6496L336.687 23.0078C340.064 15.3689 345.979 9.1374 353.431 5.36707L355.176 4.48455C358.959 2.57036 363.133 1.54775 367.377 1.49494C378.609 1.3552 388.842 7.97828 393.325 18.2887L394.721 21.4999C396.467 25.5169 397.401 29.8383 397.467 34.214L397.507 36.8891C397.564 40.6335 397.167 44.3698 396.326 48.0166L389.949 75.6657C388.139 83.5177 387.285 91.5623 387.406 99.6243L388.105 145.947C388.204 152.492 388.945 159.014 390.318 165.417L395.585 189.985L406.34 224.143C409.251 233.391 410.805 243.01 410.951 252.697L411.208 269.747C411.29 275.196 410.445 280.617 408.71 285.779C404.51 298.27 395.324 308.491 383.365 314.021C377.215 316.865 370.513 318.387 363.732 318.471L342.317 318.738L257.99 320.023C250.851 320.132 243.719 319.476 236.716 318.066L208.628 312.412C201.032 310.883 193.286 310.241 185.547 310.499L152.592 311.598C146.37 311.805 140.183 312.593 134.111 313.951L89.9963 323.819C84.3719 325.077 78.6409 325.807 72.878 325.999L58.2993 326.485C53.5767 326.642 48.8791 325.702 44.5754 323.739C33.903 318.872 26.937 308.339 26.6424 296.624L26.4907 290.592Z" fill="url(#paint16_radial)" fill-opacity="0.6"/>
<path d="M26.4907 290.592L26.1201 276.013C25.926 268.375 26.6079 260.742 28.1525 253.263L34.2725 223.633C35.1893 219.194 36.7295 214.908 38.8472 210.903L41.5208 205.847C53.6241 182.959 83.0843 175.918 104.319 190.84C111.987 196.228 121.195 198.977 130.549 198.671L214.152 195.931L267.025 194.198C273.369 193.99 279.602 192.503 285.35 189.825C297.889 183.984 307.21 172.918 310.837 159.565L314.605 145.69C316.125 140.094 317.017 134.345 317.264 128.548L318.661 95.7644C318.872 90.819 319.449 85.897 320.389 81.039L326.063 51.716C327.133 46.1871 328.822 40.7977 331.098 35.6496L336.687 23.0078C340.064 15.3689 345.979 9.1374 353.431 5.36707L355.176 4.48455C358.959 2.57036 363.133 1.54775 367.377 1.49494C378.609 1.3552 388.842 7.97828 393.325 18.2887L394.721 21.4999C396.467 25.5169 397.401 29.8383 397.467 34.214L397.507 36.8891C397.564 40.6335 397.167 44.3698 396.326 48.0166L389.949 75.6657C388.139 83.5177 387.285 91.5623 387.406 99.6243L388.105 145.947C388.204 152.492 388.945 159.014 390.318 165.417L395.585 189.985L406.34 224.143C409.251 233.391 410.805 243.01 410.951 252.697L411.208 269.747C411.29 275.196 410.445 280.617 408.71 285.779C404.51 298.27 395.324 308.491 383.365 314.021C377.215 316.865 370.513 318.387 363.732 318.471L342.317 318.738L257.99 320.023C250.851 320.132 243.719 319.476 236.716 318.066L208.628 312.412C201.032 310.883 193.286 310.241 185.547 310.499L152.592 311.598C146.37 311.805 140.183 312.593 134.111 313.951L89.9963 323.819C84.3719 325.077 78.6409 325.807 72.878 325.999L58.2993 326.485C53.5767 326.642 48.8791 325.702 44.5754 323.739C33.903 318.872 26.937 308.339 26.6424 296.624L26.4907 290.592Z" fill="url(#paint17_linear)" fill-opacity="0.6"/>
<path d="M26.4907 290.592L26.1201 276.013C25.926 268.375 26.6079 260.742 28.1525 253.263L34.2725 223.633C35.1893 219.194 36.7295 214.908 38.8472 210.903L41.5208 205.847C53.6241 182.959 83.0843 175.918 104.319 190.84C111.987 196.228 121.195 198.977 130.549 198.671L214.152 195.931L267.025 194.198C273.369 193.99 279.602 192.503 285.35 189.825C297.889 183.984 307.21 172.918 310.837 159.565L314.605 145.69C316.125 140.094 317.017 134.345 317.264 128.548L318.661 95.7644C318.872 90.819 319.449 85.897 320.389 81.039L326.063 51.716C327.133 46.1871 328.822 40.7977 331.098 35.6496L336.687 23.0078C340.064 15.3689 345.979 9.1374 353.431 5.36707L355.176 4.48455C358.959 2.57036 363.133 1.54775 367.377 1.49494C378.609 1.3552 388.842 7.97828 393.325 18.2887L394.721 21.4999C396.467 25.5169 397.401 29.8383 397.467 34.214L397.507 36.8891C397.564 40.6335 397.167 44.3698 396.326 48.0166L389.949 75.6657C388.139 83.5177 387.285 91.5623 387.406 99.6243L388.105 145.947C388.204 152.492 388.945 159.014 390.318 165.417L395.585 189.985L406.34 224.143C409.251 233.391 410.805 243.01 410.951 252.697L411.208 269.747C411.29 275.196 410.445 280.617 408.71 285.779C404.51 298.27 395.324 308.491 383.365 314.021C377.215 316.865 370.513 318.387 363.732 318.471L342.317 318.738L257.99 320.023C250.851 320.132 243.719 319.476 236.716 318.066L208.628 312.412C201.032 310.883 193.286 310.241 185.547 310.499L152.592 311.598C146.37 311.805 140.183 312.593 134.111 313.951L89.9963 323.819C84.3719 325.077 78.6409 325.807 72.878 325.999L58.2993 326.485C53.5767 326.642 48.8791 325.702 44.5754 323.739C33.903 318.872 26.937 308.339 26.6424 296.624L26.4907 290.592Z" fill="url(#paint18_radial)" fill-opacity="0.27"/>
<path d="M26.4907 290.592L26.1201 276.013C25.926 268.375 26.6079 260.742 28.1525 253.263L34.2725 223.633C35.1893 219.194 36.7295 214.908 38.8472 210.903L41.5208 205.847C53.6241 182.959 83.0843 175.918 104.319 190.84C111.987 196.228 121.195 198.977 130.549 198.671L214.152 195.931L267.025 194.198C273.369 193.99 279.602 192.503 285.35 189.825C297.889 183.984 307.21 172.918 310.837 159.565L314.605 145.69C316.125 140.094 317.017 134.345 317.264 128.548L318.661 95.7644C318.872 90.819 319.449 85.897 320.389 81.039L326.063 51.716C327.133 46.1871 328.822 40.7977 331.098 35.6496L336.687 23.0078C340.064 15.3689 345.979 9.1374 353.431 5.36707L355.176 4.48455C358.959 2.57036 363.133 1.54775 367.377 1.49494C378.609 1.3552 388.842 7.97828 393.325 18.2887L394.721 21.4999C396.467 25.5169 397.401 29.8383 397.467 34.214L397.507 36.8891C397.564 40.6335 397.167 44.3698 396.326 48.0166L389.949 75.6657C388.139 83.5177 387.285 91.5623 387.406 99.6243L388.105 145.947C388.204 152.492 388.945 159.014 390.318 165.417L395.585 189.985L406.34 224.143C409.251 233.391 410.805 243.01 410.951 252.697L411.208 269.747C411.29 275.196 410.445 280.617 408.71 285.779C404.51 298.27 395.324 308.491 383.365 314.021C377.215 316.865 370.513 318.387 363.732 318.471L342.317 318.738L257.99 320.023C250.851 320.132 243.719 319.476 236.716 318.066L208.628 312.412C201.032 310.883 193.286 310.241 185.547 310.499L152.592 311.598C146.37 311.805 140.183 312.593 134.111 313.951L89.9963 323.819C84.3719 325.077 78.6409 325.807 72.878 325.999L58.2993 326.485C53.5767 326.642 48.8791 325.702 44.5754 323.739C33.903 318.872 26.937 308.339 26.6424 296.624L26.4907 290.592Z" fill="url(#paint19_linear)" fill-opacity="0.6"/>
</g>
<path d="M26.4907 290.592L26.1201 276.013C25.926 268.375 26.6079 260.742 28.1525 253.263L34.2725 223.633C35.1893 219.194 36.7295 214.908 38.8472 210.903L41.5208 205.847C53.6241 182.959 83.0843 175.918 104.319 190.84C111.987 196.228 121.195 198.977 130.549 198.671L214.152 195.931L267.025 194.198C273.369 193.99 279.602 192.503 285.35 189.825C297.889 183.984 307.21 172.918 310.837 159.565L314.605 145.69C316.125 140.094 317.017 134.345 317.264 128.548L318.661 95.7644C318.872 90.819 319.449 85.897 320.389 81.039L326.063 51.716C327.133 46.1871 328.822 40.7977 331.098 35.6496L336.687 23.0078C340.064 15.3689 345.979 9.1374 353.431 5.36707L355.176 4.48455C358.959 2.57036 363.133 1.54775 367.377 1.49494C378.609 1.3552 388.842 7.97828 393.325 18.2887L394.721 21.4999C396.467 25.5169 397.401 29.8383 397.467 34.214L397.507 36.8891C397.564 40.6335 397.167 44.3698 396.326 48.0166L389.949 75.6657C388.139 83.5177 387.285 91.5623 387.406 99.6243L388.105 145.947C388.204 152.492 388.945 159.014 390.318 165.417L395.585 189.985L406.34 224.143C409.251 233.391 410.805 243.01 410.951 252.697L411.208 269.747C411.29 275.196 410.445 280.617 408.71 285.779C404.51 298.27 395.324 308.491 383.365 314.021C377.215 316.865 370.513 318.387 363.732 318.471L342.317 318.738L257.99 320.023C250.851 320.132 243.719 319.476 236.716 318.066L208.628 312.412C201.032 310.883 193.286 310.241 185.547 310.499L152.592 311.598C146.37 311.805 140.183 312.593 134.111 313.951L89.9963 323.819C84.3719 325.077 78.6409 325.807 72.878 325.999L58.2993 326.485C53.5767 326.642 48.8791 325.702 44.5754 323.739C33.903 318.872 26.937 308.339 26.6424 296.624L26.4907 290.592Z" stroke="#594600" stroke-opacity="0.05"/>
<g filter="url(#filter5_i)">
<path d="M213.239 74.3939L125.088 68.6309C119.671 68.2767 114.225 68.7098 108.921 69.9166L96.4172 72.7616C81.6841 76.1138 70.3794 88.0299 67.807 102.919C66.8922 108.214 67.133 113.637 68.5129 118.815L81.2941 166.774C84.6498 176.07 86.4805 185.857 86.7155 195.758L87.4075 224.914C87.5672 231.641 87.0476 238.372 85.8565 245.004L81.4151 269.734C80.4922 274.872 79.0051 279.897 76.9809 284.716L71.8019 297.045C68.8258 304.13 63.5035 309.987 56.7338 313.627L55.0718 314.521C51.5944 316.39 47.7345 317.426 43.7986 317.546C33.5109 317.859 24.0982 311.914 19.9835 302.507L18.4659 299.037C16.8606 295.366 15.986 291.414 15.8907 287.399L15.8271 284.721C15.7435 281.2 16.077 277.679 16.8206 274.23L22.3538 248.571C24.0199 240.844 24.7671 232.953 24.5799 225.064L23.5649 182.306C23.4129 175.902 22.6461 169.532 21.2751 163.283L16.3015 140.615L6.29302 109.194C3.41901 100.171 1.84578 90.7766 1.62067 81.2927L1.25013 65.6822C1.13033 60.6352 1.85152 55.5978 3.38412 50.7768L3.53552 50.3006C7.21834 38.7156 15.4777 29.1157 26.3871 23.7401C32.1025 20.9238 38.3485 19.3662 44.7013 19.173L64.2257 18.5794L151.684 15.6697L226.195 21.3018C234.111 21.9001 242.077 21.5522 249.923 20.2654L304.254 11.3549L329.756 4.50535C333.993 3.36746 338.345 2.73006 342.724 2.60624L353.316 2.3067C360.771 2.09586 368.007 4.7398 373.545 9.69852C379.538 15.0642 383.033 22.6819 383.205 30.7508L383.247 32.7024C383.591 48.8732 372.429 63.0962 356.624 66.6255L342.414 69.7986C339.201 70.5161 335.929 70.9242 332.642 71.0171L305.541 71.7835L213.239 74.3939Z" fill="url(#paint20_radial)" fill-opacity="0.6"/>
<path d="M213.239 74.3939L125.088 68.6309C119.671 68.2767 114.225 68.7098 108.921 69.9166L96.4172 72.7616C81.6841 76.1138 70.3794 88.0299 67.807 102.919C66.8922 108.214 67.133 113.637 68.5129 118.815L81.2941 166.774C84.6498 176.07 86.4805 185.857 86.7155 195.758L87.4075 224.914C87.5672 231.641 87.0476 238.372 85.8565 245.004L81.4151 269.734C80.4922 274.872 79.0051 279.897 76.9809 284.716L71.8019 297.045C68.8258 304.13 63.5035 309.987 56.7338 313.627L55.0718 314.521C51.5944 316.39 47.7345 317.426 43.7986 317.546C33.5109 317.859 24.0982 311.914 19.9835 302.507L18.4659 299.037C16.8606 295.366 15.986 291.414 15.8907 287.399L15.8271 284.721C15.7435 281.2 16.077 277.679 16.8206 274.23L22.3538 248.571C24.0199 240.844 24.7671 232.953 24.5799 225.064L23.5649 182.306C23.4129 175.902 22.6461 169.532 21.2751 163.283L16.3015 140.615L6.29302 109.194C3.41901 100.171 1.84578 90.7766 1.62067 81.2927L1.25013 65.6822C1.13033 60.6352 1.85152 55.5978 3.38412 50.7768L3.53552 50.3006C7.21834 38.7156 15.4777 29.1157 26.3871 23.7401C32.1025 20.9238 38.3485 19.3662 44.7013 19.173L64.2257 18.5794L151.684 15.6697L226.195 21.3018C234.111 21.9001 242.077 21.5522 249.923 20.2654L304.254 11.3549L329.756 4.50535C333.993 3.36746 338.345 2.73006 342.724 2.60624L353.316 2.3067C360.771 2.09586 368.007 4.7398 373.545 9.69852C379.538 15.0642 383.033 22.6819 383.205 30.7508L383.247 32.7024C383.591 48.8732 372.429 63.0962 356.624 66.6255L342.414 69.7986C339.201 70.5161 335.929 70.9242 332.642 71.0171L305.541 71.7835L213.239 74.3939Z" fill="url(#paint21_linear)" fill-opacity="0.6"/>
<path d="M213.239 74.3939L125.088 68.6309C119.671 68.2767 114.225 68.7098 108.921 69.9166L96.4172 72.7616C81.6841 76.1138 70.3794 88.0299 67.807 102.919C66.8922 108.214 67.133 113.637 68.5129 118.815L81.2941 166.774C84.6498 176.07 86.4805 185.857 86.7155 195.758L87.4075 224.914C87.5672 231.641 87.0476 238.372 85.8565 245.004L81.4151 269.734C80.4922 274.872 79.0051 279.897 76.9809 284.716L71.8019 297.045C68.8258 304.13 63.5035 309.987 56.7338 313.627L55.0718 314.521C51.5944 316.39 47.7345 317.426 43.7986 317.546C33.5109 317.859 24.0982 311.914 19.9835 302.507L18.4659 299.037C16.8606 295.366 15.986 291.414 15.8907 287.399L15.8271 284.721C15.7435 281.2 16.077 277.679 16.8206 274.23L22.3538 248.571C24.0199 240.844 24.7671 232.953 24.5799 225.064L23.5649 182.306C23.4129 175.902 22.6461 169.532 21.2751 163.283L16.3015 140.615L6.29302 109.194C3.41901 100.171 1.84578 90.7766 1.62067 81.2927L1.25013 65.6822C1.13033 60.6352 1.85152 55.5978 3.38412 50.7768L3.53552 50.3006C7.21834 38.7156 15.4777 29.1157 26.3871 23.7401C32.1025 20.9238 38.3485 19.3662 44.7013 19.173L64.2257 18.5794L151.684 15.6697L226.195 21.3018C234.111 21.9001 242.077 21.5522 249.923 20.2654L304.254 11.3549L329.756 4.50535C333.993 3.36746 338.345 2.73006 342.724 2.60624L353.316 2.3067C360.771 2.09586 368.007 4.7398 373.545 9.69852C379.538 15.0642 383.033 22.6819 383.205 30.7508L383.247 32.7024C383.591 48.8732 372.429 63.0962 356.624 66.6255L342.414 69.7986C339.201 70.5161 335.929 70.9242 332.642 71.0171L305.541 71.7835L213.239 74.3939Z" fill="url(#paint22_radial)" fill-opacity="0.6"/>
<path d="M213.239 74.3939L125.088 68.6309C119.671 68.2767 114.225 68.7098 108.921 69.9166L96.4172 72.7616C81.6841 76.1138 70.3794 88.0299 67.807 102.919C66.8922 108.214 67.133 113.637 68.5129 118.815L81.2941 166.774C84.6498 176.07 86.4805 185.857 86.7155 195.758L87.4075 224.914C87.5672 231.641 87.0476 238.372 85.8565 245.004L81.4151 269.734C80.4922 274.872 79.0051 279.897 76.9809 284.716L71.8019 297.045C68.8258 304.13 63.5035 309.987 56.7338 313.627L55.0718 314.521C51.5944 316.39 47.7345 317.426 43.7986 317.546C33.5109 317.859 24.0982 311.914 19.9835 302.507L18.4659 299.037C16.8606 295.366 15.986 291.414 15.8907 287.399L15.8271 284.721C15.7435 281.2 16.077 277.679 16.8206 274.23L22.3538 248.571C24.0199 240.844 24.7671 232.953 24.5799 225.064L23.5649 182.306C23.4129 175.902 22.6461 169.532 21.2751 163.283L16.3015 140.615L6.29302 109.194C3.41901 100.171 1.84578 90.7766 1.62067 81.2927L1.25013 65.6822C1.13033 60.6352 1.85152 55.5978 3.38412 50.7768L3.53552 50.3006C7.21834 38.7156 15.4777 29.1157 26.3871 23.7401C32.1025 20.9238 38.3485 19.3662 44.7013 19.173L64.2257 18.5794L151.684 15.6697L226.195 21.3018C234.111 21.9001 242.077 21.5522 249.923 20.2654L304.254 11.3549L329.756 4.50535C333.993 3.36746 338.345 2.73006 342.724 2.60624L353.316 2.3067C360.771 2.09586 368.007 4.7398 373.545 9.69852C379.538 15.0642 383.033 22.6819 383.205 30.7508L383.247 32.7024C383.591 48.8732 372.429 63.0962 356.624 66.6255L342.414 69.7986C339.201 70.5161 335.929 70.9242 332.642 71.0171L305.541 71.7835L213.239 74.3939Z" fill="url(#paint23_linear)" fill-opacity="0.6"/>
</g>
<path d="M213.239 74.3939L125.088 68.6309C119.671 68.2767 114.225 68.7098 108.921 69.9166L96.4172 72.7616C81.6841 76.1138 70.3794 88.0299 67.807 102.919C66.8922 108.214 67.133 113.637 68.5129 118.815L81.2941 166.774C84.6498 176.07 86.4805 185.857 86.7155 195.758L87.4075 224.914C87.5672 231.641 87.0476 238.372 85.8565 245.004L81.4151 269.734C80.4922 274.872 79.0051 279.897 76.9809 284.716L71.8019 297.045C68.8258 304.13 63.5035 309.987 56.7338 313.627L55.0718 314.521C51.5944 316.39 47.7345 317.426 43.7986 317.546C33.5109 317.859 24.0982 311.914 19.9835 302.507L18.4659 299.037C16.8606 295.366 15.986 291.414 15.8907 287.399L15.8271 284.721C15.7435 281.2 16.077 277.679 16.8206 274.23L22.3538 248.571C24.0199 240.844 24.7671 232.953 24.5799 225.064L23.5649 182.306C23.4129 175.902 22.6461 169.532 21.2751 163.283L16.3015 140.615L6.29302 109.194C3.41901 100.171 1.84578 90.7766 1.62067 81.2927L1.25013 65.6822C1.13033 60.6352 1.85152 55.5978 3.38412 50.7768L3.53552 50.3006C7.21834 38.7156 15.4777 29.1157 26.3871 23.7401C32.1025 20.9238 38.3485 19.3662 44.7013 19.173L64.2257 18.5794L151.684 15.6697L226.195 21.3018C234.111 21.9001 242.077 21.5522 249.923 20.2654L304.254 11.3549L329.756 4.50535C333.993 3.36746 338.345 2.73006 342.724 2.60624L353.316 2.3067C360.771 2.09586 368.007 4.7398 373.545 9.69852C379.538 15.0642 383.033 22.6819 383.205 30.7508L383.247 32.7024C383.591 48.8732 372.429 63.0962 356.624 66.6255L342.414 69.7986C339.201 70.5161 335.929 70.9242 332.642 71.0171L305.541 71.7835L213.239 74.3939Z" stroke="#594600" stroke-opacity="0.05"/>
<g filter="url(#filter6_i)">
<path d="M315.783 149.503L324.108 101.527C325.188 95.2979 324.64 88.8664 322.515 82.8533C317.773 69.4319 305.819 59.7701 291.75 57.9882L280.958 56.6213C276.627 56.0729 272.256 56.0478 267.939 56.5466L204.598 63.8647L195.969 65.304C189.993 66.3007 183.928 66.7486 177.851 66.6421L119.633 65.6219L67.2442 58.7865L36.8086 50.6954C32.2528 49.4843 28.1356 46.9512 24.9809 43.4183L22.2985 40.4145C20.0768 37.9265 18.845 34.7174 18.8429 31.4117C18.8388 25.1873 23.1475 19.8692 29.2176 18.6064L45.9746 15.1204C48.4863 14.5979 51.0532 14.357 53.6283 14.4021L67.2155 14.6402L119.605 22.5321L199.431 23.931L239.492 20.3305L288.007 13.3541C293.271 12.5972 298.595 12.2639 303.927 12.3573L335.804 12.9159C340.283 12.9944 344.752 13.4948 349.152 14.4105L362.987 17.2894C370.351 18.8218 376.996 22.8666 381.778 28.7267C386.559 34.5852 389.177 41.8913 389.182 49.3862L389.187 57.8065L389.48 108.052C389.518 114.561 388.921 121.046 387.697 127.415L382.276 155.622C379.593 169.582 379.937 184.01 383.287 197.936L387.576 215.772C388.659 220.272 390.117 224.681 391.935 228.95L396.569 239.833C397.937 243.045 398.636 246.491 398.625 249.959C398.597 258.943 393.819 267.156 386.064 271.551L384.549 272.41C380.187 274.883 375.224 276.136 370.17 276.04L352.385 275.705C336.089 275.397 321.582 264.814 316.225 249.324C314.802 245.208 314.082 240.894 314.096 236.565L314.145 221.118L314.32 166.203C314.338 160.597 314.828 155.01 315.783 149.503Z" fill="url(#paint24_radial)" fill-opacity="0.6"/>
<path d="M315.783 149.503L324.108 101.527C325.188 95.2979 324.64 88.8664 322.515 82.8533C317.773 69.4319 305.819 59.7701 291.75 57.9882L280.958 56.6213C276.627 56.0729 272.256 56.0478 267.939 56.5466L204.598 63.8647L195.969 65.304C189.993 66.3007 183.928 66.7486 177.851 66.6421L119.633 65.6219L67.2442 58.7865L36.8086 50.6954C32.2528 49.4843 28.1356 46.9512 24.9809 43.4183L22.2985 40.4145C20.0768 37.9265 18.845 34.7174 18.8429 31.4117C18.8388 25.1873 23.1475 19.8692 29.2176 18.6064L45.9746 15.1204C48.4863 14.5979 51.0532 14.357 53.6283 14.4021L67.2155 14.6402L119.605 22.5321L199.431 23.931L239.492 20.3305L288.007 13.3541C293.271 12.5972 298.595 12.2639 303.927 12.3573L335.804 12.9159C340.283 12.9944 344.752 13.4948 349.152 14.4105L362.987 17.2894C370.351 18.8218 376.996 22.8666 381.778 28.7267C386.559 34.5852 389.177 41.8913 389.182 49.3862L389.187 57.8065L389.48 108.052C389.518 114.561 388.921 121.046 387.697 127.415L382.276 155.622C379.593 169.582 379.937 184.01 383.287 197.936L387.576 215.772C388.659 220.272 390.117 224.681 391.935 228.95L396.569 239.833C397.937 243.045 398.636 246.491 398.625 249.959C398.597 258.943 393.819 267.156 386.064 271.551L384.549 272.41C380.187 274.883 375.224 276.136 370.17 276.04L352.385 275.705C336.089 275.397 321.582 264.814 316.225 249.324C314.802 245.208 314.082 240.894 314.096 236.565L314.145 221.118L314.32 166.203C314.338 160.597 314.828 155.01 315.783 149.503Z" fill="url(#paint25_linear)" fill-opacity="0.6"/>
<path d="M315.783 149.503L324.108 101.527C325.188 95.2979 324.64 88.8664 322.515 82.8533C317.773 69.4319 305.819 59.7701 291.75 57.9882L280.958 56.6213C276.627 56.0729 272.256 56.0478 267.939 56.5466L204.598 63.8647L195.969 65.304C189.993 66.3007 183.928 66.7486 177.851 66.6421L119.633 65.6219L67.2442 58.7865L36.8086 50.6954C32.2528 49.4843 28.1356 46.9512 24.9809 43.4183L22.2985 40.4145C20.0768 37.9265 18.845 34.7174 18.8429 31.4117C18.8388 25.1873 23.1475 19.8692 29.2176 18.6064L45.9746 15.1204C48.4863 14.5979 51.0532 14.357 53.6283 14.4021L67.2155 14.6402L119.605 22.5321L199.431 23.931L239.492 20.3305L288.007 13.3541C293.271 12.5972 298.595 12.2639 303.927 12.3573L335.804 12.9159C340.283 12.9944 344.752 13.4948 349.152 14.4105L362.987 17.2894C370.351 18.8218 376.996 22.8666 381.778 28.7267C386.559 34.5852 389.177 41.8913 389.182 49.3862L389.187 57.8065L389.48 108.052C389.518 114.561 388.921 121.046 387.697 127.415L382.276 155.622C379.593 169.582 379.937 184.01 383.287 197.936L387.576 215.772C388.659 220.272 390.117 224.681 391.935 228.95L396.569 239.833C397.937 243.045 398.636 246.491 398.625 249.959C398.597 258.943 393.819 267.156 386.064 271.551L384.549 272.41C380.187 274.883 375.224 276.136 370.17 276.04L352.385 275.705C336.089 275.397 321.582 264.814 316.225 249.324C314.802 245.208 314.082 240.894 314.096 236.565L314.145 221.118L314.32 166.203C314.338 160.597 314.828 155.01 315.783 149.503Z" fill="url(#paint26_radial)" fill-opacity="0.6"/>
<path d="M315.783 149.503L324.108 101.527C325.188 95.2979 324.64 88.8664 322.515 82.8533C317.773 69.4319 305.819 59.7701 291.75 57.9882L280.958 56.6213C276.627 56.0729 272.256 56.0478 267.939 56.5466L204.598 63.8647L195.969 65.304C189.993 66.3007 183.928 66.7486 177.851 66.6421L119.633 65.6219L67.2442 58.7865L36.8086 50.6954C32.2528 49.4843 28.1356 46.9512 24.9809 43.4183L22.2985 40.4145C20.0768 37.9265 18.845 34.7174 18.8429 31.4117C18.8388 25.1873 23.1475 19.8692 29.2176 18.6064L45.9746 15.1204C48.4863 14.5979 51.0532 14.357 53.6283 14.4021L67.2155 14.6402L119.605 22.5321L199.431 23.931L239.492 20.3305L288.007 13.3541C293.271 12.5972 298.595 12.2639 303.927 12.3573L335.804 12.9159C340.283 12.9944 344.752 13.4948 349.152 14.4105L362.987 17.2894C370.351 18.8218 376.996 22.8666 381.778 28.7267C386.559 34.5852 389.177 41.8913 389.182 49.3862L389.187 57.8065L389.48 108.052C389.518 114.561 388.921 121.046 387.697 127.415L382.276 155.622C379.593 169.582 379.937 184.01 383.287 197.936L387.576 215.772C388.659 220.272 390.117 224.681 391.935 228.95L396.569 239.833C397.937 243.045 398.636 246.491 398.625 249.959C398.597 258.943 393.819 267.156 386.064 271.551L384.549 272.41C380.187 274.883 375.224 276.136 370.17 276.04L352.385 275.705C336.089 275.397 321.582 264.814 316.225 249.324C314.802 245.208 314.082 240.894 314.096 236.565L314.145 221.118L314.32 166.203C314.338 160.597 314.828 155.01 315.783 149.503Z" fill="url(#paint27_linear)" fill-opacity="0.6"/>
</g>
<path d="M315.783 149.503L324.108 101.527C325.188 95.2979 324.64 88.8664 322.515 82.8533C317.773 69.4319 305.819 59.7701 291.75 57.9882L280.958 56.6213C276.627 56.0729 272.256 56.0478 267.939 56.5466L204.598 63.8647L195.969 65.304C189.993 66.3007 183.928 66.7486 177.851 66.6421L119.633 65.6219L67.2442 58.7865L36.8086 50.6954C32.2528 49.4843 28.1356 46.9512 24.9809 43.4183L22.2985 40.4145C20.0768 37.9265 18.845 34.7174 18.8429 31.4117C18.8388 25.1873 23.1475 19.8692 29.2176 18.6064L45.9746 15.1204C48.4863 14.5979 51.0532 14.357 53.6283 14.4021L67.2155 14.6402L119.605 22.5321L199.431 23.931L239.492 20.3305L288.007 13.3541C293.271 12.5972 298.595 12.2639 303.927 12.3573L335.804 12.9159C340.283 12.9944 344.752 13.4948 349.152 14.4105L362.987 17.2894C370.351 18.8218 376.996 22.8666 381.778 28.7267C386.559 34.5852 389.177 41.8913 389.182 49.3862L389.187 57.8065L389.48 108.052C389.518 114.561 388.921 121.046 387.697 127.415L382.276 155.622C379.593 169.582 379.937 184.01 383.287 197.936L387.576 215.772C388.659 220.272 390.117 224.681 391.935 228.95L396.569 239.833C397.937 243.045 398.636 246.491 398.625 249.959C398.597 258.943 393.819 267.156 386.064 271.551L384.549 272.41C380.187 274.883 375.224 276.136 370.17 276.04L352.385 275.705C336.089 275.397 321.582 264.814 316.225 249.324C314.802 245.208 314.082 240.894 314.096 236.565L314.145 221.118L314.32 166.203C314.338 160.597 314.828 155.01 315.783 149.503Z" stroke="#594600" stroke-opacity="0.05"/>
<g filter="url(#filter7_i)">
<path d="M315.591 161.618L324.226 107.871C325.234 101.596 324.719 95.1433 322.725 89.0536C317.868 74.2267 304.904 63.4085 289.494 61.3231L281.295 60.2136C276.745 59.5979 272.145 59.5756 267.611 60.1474L204.6 68.0931L196.645 69.5363C190.223 70.7015 183.691 71.2305 177.142 71.1157L119.636 70.108L67.2467 62.8027L37.4603 54.2971C32.4886 52.8774 28.0456 49.9711 24.733 45.9718L22.3201 43.0587C20.0772 40.3508 18.8463 36.9558 18.8441 33.4707C18.8396 26.6393 23.507 20.7756 30.1426 19.2764L45.6596 15.7704C48.3794 15.1558 51.1689 14.87 53.9685 14.9191L60.696 15.037C65.0369 15.1131 69.3725 15.499 73.6698 16.1917L112.532 22.4565C117.242 23.2158 121.994 23.6387 126.752 23.7221L199.431 24.9958L239.493 21.0536L287.406 13.55C293.068 12.6632 298.806 12.268 304.554 12.3687L335.568 12.9122C340.202 12.9935 344.824 13.5449 349.364 14.5582L361.912 17.3592C369.954 19.1543 377.131 23.7777 382.129 30.3816C386.699 36.4196 389.178 43.7601 389.183 51.2666L389.189 61.297L389.493 117.018C389.526 123.057 389.012 129.076 387.957 135.003L381.715 170.078C379.403 183.07 379.702 196.438 382.593 209.408L387.588 231.815C388.67 236.667 390.133 241.433 391.962 246.067L396.605 257.829C397.958 261.257 398.648 264.901 398.638 268.564C398.609 278.391 393.425 287.512 385.116 292.607C380.449 295.469 374.972 296.976 369.453 296.871L354.864 296.594C337.172 296.259 321.505 284.554 316.074 267.615C314.757 263.507 314.093 259.228 314.105 254.937L314.156 237.68L314.332 177.124C314.347 171.923 314.768 166.739 315.591 161.618Z" fill="url(#paint28_radial)" fill-opacity="0.6"/>
<path d="M315.591 161.618L324.226 107.871C325.234 101.596 324.719 95.1433 322.725 89.0536C317.868 74.2267 304.904 63.4085 289.494 61.3231L281.295 60.2136C276.745 59.5979 272.145 59.5756 267.611 60.1474L204.6 68.0931L196.645 69.5363C190.223 70.7015 183.691 71.2305 177.142 71.1157L119.636 70.108L67.2467 62.8027L37.4603 54.2971C32.4886 52.8774 28.0456 49.9711 24.733 45.9718L22.3201 43.0587C20.0772 40.3508 18.8463 36.9558 18.8441 33.4707C18.8396 26.6393 23.507 20.7756 30.1426 19.2764L45.6596 15.7704C48.3794 15.1558 51.1689 14.87 53.9685 14.9191L60.696 15.037C65.0369 15.1131 69.3725 15.499 73.6698 16.1917L112.532 22.4565C117.242 23.2158 121.994 23.6387 126.752 23.7221L199.431 24.9958L239.493 21.0536L287.406 13.55C293.068 12.6632 298.806 12.268 304.554 12.3687L335.568 12.9122C340.202 12.9935 344.824 13.5449 349.364 14.5582L361.912 17.3592C369.954 19.1543 377.131 23.7777 382.129 30.3816C386.699 36.4196 389.178 43.7601 389.183 51.2666L389.189 61.297L389.493 117.018C389.526 123.057 389.012 129.076 387.957 135.003L381.715 170.078C379.403 183.07 379.702 196.438 382.593 209.408L387.588 231.815C388.67 236.667 390.133 241.433 391.962 246.067L396.605 257.829C397.958 261.257 398.648 264.901 398.638 268.564C398.609 278.391 393.425 287.512 385.116 292.607C380.449 295.469 374.972 296.976 369.453 296.871L354.864 296.594C337.172 296.259 321.505 284.554 316.074 267.615C314.757 263.507 314.093 259.228 314.105 254.937L314.156 237.68L314.332 177.124C314.347 171.923 314.768 166.739 315.591 161.618Z" fill="url(#paint29_linear)" fill-opacity="0.6"/>
<path d="M315.591 161.618L324.226 107.871C325.234 101.596 324.719 95.1433 322.725 89.0536C317.868 74.2267 304.904 63.4085 289.494 61.3231L281.295 60.2136C276.745 59.5979 272.145 59.5756 267.611 60.1474L204.6 68.0931L196.645 69.5363C190.223 70.7015 183.691 71.2305 177.142 71.1157L119.636 70.108L67.2467 62.8027L37.4603 54.2971C32.4886 52.8774 28.0456 49.9711 24.733 45.9718L22.3201 43.0587C20.0772 40.3508 18.8463 36.9558 18.8441 33.4707C18.8396 26.6393 23.507 20.7756 30.1426 19.2764L45.6596 15.7704C48.3794 15.1558 51.1689 14.87 53.9685 14.9191L60.696 15.037C65.0369 15.1131 69.3725 15.499 73.6698 16.1917L112.532 22.4565C117.242 23.2158 121.994 23.6387 126.752 23.7221L199.431 24.9958L239.493 21.0536L287.406 13.55C293.068 12.6632 298.806 12.268 304.554 12.3687L335.568 12.9122C340.202 12.9935 344.824 13.5449 349.364 14.5582L361.912 17.3592C369.954 19.1543 377.131 23.7777 382.129 30.3816C386.699 36.4196 389.178 43.7601 389.183 51.2666L389.189 61.297L389.493 117.018C389.526 123.057 389.012 129.076 387.957 135.003L381.715 170.078C379.403 183.07 379.702 196.438 382.593 209.408L387.588 231.815C388.67 236.667 390.133 241.433 391.962 246.067L396.605 257.829C397.958 261.257 398.648 264.901 398.638 268.564C398.609 278.391 393.425 287.512 385.116 292.607C380.449 295.469 374.972 296.976 369.453 296.871L354.864 296.594C337.172 296.259 321.505 284.554 316.074 267.615C314.757 263.507 314.093 259.228 314.105 254.937L314.156 237.68L314.332 177.124C314.347 171.923 314.768 166.739 315.591 161.618Z" fill="url(#paint30_radial)" fill-opacity="0.6"/>
<path d="M315.591 161.618L324.226 107.871C325.234 101.596 324.719 95.1433 322.725 89.0536C317.868 74.2267 304.904 63.4085 289.494 61.3231L281.295 60.2136C276.745 59.5979 272.145 59.5756 267.611 60.1474L204.6 68.0931L196.645 69.5363C190.223 70.7015 183.691 71.2305 177.142 71.1157L119.636 70.108L67.2467 62.8027L37.4603 54.2971C32.4886 52.8774 28.0456 49.9711 24.733 45.9718L22.3201 43.0587C20.0772 40.3508 18.8463 36.9558 18.8441 33.4707C18.8396 26.6393 23.507 20.7756 30.1426 19.2764L45.6596 15.7704C48.3794 15.1558 51.1689 14.87 53.9685 14.9191L60.696 15.037C65.0369 15.1131 69.3725 15.499 73.6698 16.1917L112.532 22.4565C117.242 23.2158 121.994 23.6387 126.752 23.7221L199.431 24.9958L239.493 21.0536L287.406 13.55C293.068 12.6632 298.806 12.268 304.554 12.3687L335.568 12.9122C340.202 12.9935 344.824 13.5449 349.364 14.5582L361.912 17.3592C369.954 19.1543 377.131 23.7777 382.129 30.3816C386.699 36.4196 389.178 43.7601 389.183 51.2666L389.189 61.297L389.493 117.018C389.526 123.057 389.012 129.076 387.957 135.003L381.715 170.078C379.403 183.07 379.702 196.438 382.593 209.408L387.588 231.815C388.67 236.667 390.133 241.433 391.962 246.067L396.605 257.829C397.958 261.257 398.648 264.901 398.638 268.564C398.609 278.391 393.425 287.512 385.116 292.607C380.449 295.469 374.972 296.976 369.453 296.871L354.864 296.594C337.172 296.259 321.505 284.554 316.074 267.615C314.757 263.507 314.093 259.228 314.105 254.937L314.156 237.68L314.332 177.124C314.347 171.923 314.768 166.739 315.591 161.618Z" fill="url(#paint31_linear)" fill-opacity="0.6"/>
</g>
<path d="M315.591 161.618L324.226 107.871C325.234 101.596 324.719 95.1433 322.725 89.0536C317.868 74.2267 304.904 63.4085 289.494 61.3231L281.295 60.2136C276.745 59.5979 272.145 59.5756 267.611 60.1474L204.6 68.0931L196.645 69.5363C190.223 70.7015 183.691 71.2305 177.142 71.1157L119.636 70.108L67.2467 62.8027L37.4603 54.2971C32.4886 52.8774 28.0456 49.9711 24.733 45.9718L22.3201 43.0587C20.0772 40.3508 18.8463 36.9558 18.8441 33.4707C18.8396 26.6393 23.507 20.7756 30.1426 19.2764L45.6596 15.7704C48.3794 15.1558 51.1689 14.87 53.9685 14.9191L60.696 15.037C65.0369 15.1131 69.3725 15.499 73.6698 16.1917L112.532 22.4565C117.242 23.2158 121.994 23.6387 126.752 23.7221L199.431 24.9958L239.493 21.0536L287.406 13.55C293.068 12.6632 298.806 12.268 304.554 12.3687L335.568 12.9122C340.202 12.9935 344.824 13.5449 349.364 14.5582L361.912 17.3592C369.954 19.1543 377.131 23.7777 382.129 30.3816C386.699 36.4196 389.178 43.7601 389.183 51.2666L389.189 61.297L389.493 117.018C389.526 123.057 389.012 129.076 387.957 135.003L381.715 170.078C379.403 183.07 379.702 196.438 382.593 209.408L387.588 231.815C388.67 236.667 390.133 241.433 391.962 246.067L396.605 257.829C397.958 261.257 398.648 264.901 398.638 268.564C398.609 278.391 393.425 287.512 385.116 292.607C380.449 295.469 374.972 296.976 369.453 296.871L354.864 296.594C337.172 296.259 321.505 284.554 316.074 267.615C314.757 263.507 314.093 259.228 314.105 254.937L314.156 237.68L314.332 177.124C314.347 171.923 314.768 166.739 315.591 161.618Z" stroke="#594600" stroke-opacity="0.05"/>
<g filter="url(#filter8_i)">
<path d="M73.692 60.8915L74.5753 64.9959C75.229 68.033 75.5246 71.1228 75.456 74.2007L75.0308 93.2858L73.3652 151.737C72.7637 172.848 88.0162 191.708 108.88 195.652C115.998 196.997 123.269 196.482 129.985 194.158L140.371 190.562C148.205 187.851 156.447 186.351 164.822 186.113L186.705 185.492L237.911 184.038C245.283 183.829 252.687 184.833 259.831 187.011L266.52 189.05C279.353 192.963 293.006 191.736 304.552 185.632L316.551 179.289C331.445 171.415 350.276 175.855 360.894 189.745C362.534 191.89 363.931 194.206 365.058 196.649L384.261 238.252C389.744 250.131 390.151 263.566 385.386 275.348C379.401 290.148 366.042 300.449 350.121 302.543L322.38 306.19L289.404 309.053L288.297 309.09C273.445 309.585 258.547 306.533 244.825 300.184C231.104 293.836 216.206 290.784 201.353 291.279L168.177 292.385C159.34 292.679 150.628 294.155 142.271 296.773L112.074 306.234L103.814 310.018C90.7854 315.986 76.3866 318.649 61.8417 317.782L55.5869 317.409C51.5669 317.17 47.5763 316.385 43.7242 315.076L39.0698 313.495C30.7823 310.68 23.8151 304.726 19.6944 296.938C17 291.845 15.642 286.19 15.7533 280.526L16.0077 267.575L17.0499 202.805L24.4795 154.084C25.9562 144.4 25.9892 134.493 24.5772 124.684L19.566 89.8697L14.4102 70.7091C13.5196 67.3995 13.1057 63.9971 13.1812 60.6074L13.2933 55.5733C13.4512 48.4872 16.6957 41.9482 22.1739 37.6752C26.6407 34.1911 32.2651 32.472 38.0345 32.8273L41.5206 33.042C57.0811 34.0004 70.3829 45.5152 73.692 60.8915Z" fill="url(#paint32_radial)" fill-opacity="0.6"/>
<path d="M73.692 60.8915L74.5753 64.9959C75.229 68.033 75.5246 71.1228 75.456 74.2007L75.0308 93.2858L73.3652 151.737C72.7637 172.848 88.0162 191.708 108.88 195.652C115.998 196.997 123.269 196.482 129.985 194.158L140.371 190.562C148.205 187.851 156.447 186.351 164.822 186.113L186.705 185.492L237.911 184.038C245.283 183.829 252.687 184.833 259.831 187.011L266.52 189.05C279.353 192.963 293.006 191.736 304.552 185.632L316.551 179.289C331.445 171.415 350.276 175.855 360.894 189.745C362.534 191.89 363.931 194.206 365.058 196.649L384.261 238.252C389.744 250.131 390.151 263.566 385.386 275.348C379.401 290.148 366.042 300.449 350.121 302.543L322.38 306.19L289.404 309.053L288.297 309.09C273.445 309.585 258.547 306.533 244.825 300.184C231.104 293.836 216.206 290.784 201.353 291.279L168.177 292.385C159.34 292.679 150.628 294.155 142.271 296.773L112.074 306.234L103.814 310.018C90.7854 315.986 76.3866 318.649 61.8417 317.782L55.5869 317.409C51.5669 317.17 47.5763 316.385 43.7242 315.076L39.0698 313.495C30.7823 310.68 23.8151 304.726 19.6944 296.938C17 291.845 15.642 286.19 15.7533 280.526L16.0077 267.575L17.0499 202.805L24.4795 154.084C25.9562 144.4 25.9892 134.493 24.5772 124.684L19.566 89.8697L14.4102 70.7091C13.5196 67.3995 13.1057 63.9971 13.1812 60.6074L13.2933 55.5733C13.4512 48.4872 16.6957 41.9482 22.1739 37.6752C26.6407 34.1911 32.2651 32.472 38.0345 32.8273L41.5206 33.042C57.0811 34.0004 70.3829 45.5152 73.692 60.8915Z" fill="url(#paint33_linear)" fill-opacity="0.6"/>
<path d="M73.692 60.8915L74.5753 64.9959C75.229 68.033 75.5246 71.1228 75.456 74.2007L75.0308 93.2858L73.3652 151.737C72.7637 172.848 88.0162 191.708 108.88 195.652C115.998 196.997 123.269 196.482 129.985 194.158L140.371 190.562C148.205 187.851 156.447 186.351 164.822 186.113L186.705 185.492L237.911 184.038C245.283 183.829 252.687 184.833 259.831 187.011L266.52 189.05C279.353 192.963 293.006 191.736 304.552 185.632L316.551 179.289C331.445 171.415 350.276 175.855 360.894 189.745C362.534 191.89 363.931 194.206 365.058 196.649L384.261 238.252C389.744 250.131 390.151 263.566 385.386 275.348C379.401 290.148 366.042 300.449 350.121 302.543L322.38 306.19L289.404 309.053L288.297 309.09C273.445 309.585 258.547 306.533 244.825 300.184C231.104 293.836 216.206 290.784 201.353 291.279L168.177 292.385C159.34 292.679 150.628 294.155 142.271 296.773L112.074 306.234L103.814 310.018C90.7854 315.986 76.3866 318.649 61.8417 317.782L55.5869 317.409C51.5669 317.17 47.5763 316.385 43.7242 315.076L39.0698 313.495C30.7823 310.68 23.8151 304.726 19.6944 296.938C17 291.845 15.642 286.19 15.7533 280.526L16.0077 267.575L17.0499 202.805L24.4795 154.084C25.9562 144.4 25.9892 134.493 24.5772 124.684L19.566 89.8697L14.4102 70.7091C13.5196 67.3995 13.1057 63.9971 13.1812 60.6074L13.2933 55.5733C13.4512 48.4872 16.6957 41.9482 22.1739 37.6752C26.6407 34.1911 32.2651 32.472 38.0345 32.8273L41.5206 33.042C57.0811 34.0004 70.3829 45.5152 73.692 60.8915Z" fill="url(#paint34_radial)" fill-opacity="0.27"/>
<path d="M73.692 60.8915L74.5753 64.9959C75.229 68.033 75.5246 71.1228 75.456 74.2007L75.0308 93.2858L73.3652 151.737C72.7637 172.848 88.0162 191.708 108.88 195.652C115.998 196.997 123.269 196.482 129.985 194.158L140.371 190.562C148.205 187.851 156.447 186.351 164.822 186.113L186.705 185.492L237.911 184.038C245.283 183.829 252.687 184.833 259.831 187.011L266.52 189.05C279.353 192.963 293.006 191.736 304.552 185.632L316.551 179.289C331.445 171.415 350.276 175.855 360.894 189.745C362.534 191.89 363.931 194.206 365.058 196.649L384.261 238.252C389.744 250.131 390.151 263.566 385.386 275.348C379.401 290.148 366.042 300.449 350.121 302.543L322.38 306.19L289.404 309.053L288.297 309.09C273.445 309.585 258.547 306.533 244.825 300.184C231.104 293.836 216.206 290.784 201.353 291.279L168.177 292.385C159.34 292.679 150.628 294.155 142.271 296.773L112.074 306.234L103.814 310.018C90.7854 315.986 76.3866 318.649 61.8417 317.782L55.5869 317.409C51.5669 317.17 47.5763 316.385 43.7242 315.076L39.0698 313.495C30.7823 310.68 23.8151 304.726 19.6944 296.938C17 291.845 15.642 286.19 15.7533 280.526L16.0077 267.575L17.0499 202.805L24.4795 154.084C25.9562 144.4 25.9892 134.493 24.5772 124.684L19.566 89.8697L14.4102 70.7091C13.5196 67.3995 13.1057 63.9971 13.1812 60.6074L13.2933 55.5733C13.4512 48.4872 16.6957 41.9482 22.1739 37.6752C26.6407 34.1911 32.2651 32.472 38.0345 32.8273L41.5206 33.042C57.0811 34.0004 70.3829 45.5152 73.692 60.8915Z" fill="url(#paint35_linear)" fill-opacity="0.6"/>
</g>
<path d="M73.692 60.8915L74.5753 64.9959C75.229 68.033 75.5246 71.1228 75.456 74.2007L75.0308 93.2858L73.3652 151.737C72.7637 172.848 88.0162 191.708 108.88 195.652C115.998 196.997 123.269 196.482 129.985 194.158L140.371 190.562C148.205 187.851 156.447 186.351 164.822 186.113L186.705 185.492L237.911 184.038C245.283 183.829 252.687 184.833 259.831 187.011L266.52 189.05C279.353 192.963 293.006 191.736 304.552 185.632L316.551 179.289C331.445 171.415 350.276 175.855 360.894 189.745C362.534 191.89 363.931 194.206 365.058 196.649L384.261 238.252C389.744 250.131 390.151 263.566 385.386 275.348C379.401 290.148 366.042 300.449 350.121 302.543L322.38 306.19L289.404 309.053L288.297 309.09C273.445 309.585 258.547 306.533 244.825 300.184C231.104 293.836 216.206 290.784 201.353 291.279L168.177 292.385C159.34 292.679 150.628 294.155 142.271 296.773L112.074 306.234L103.814 310.018C90.7854 315.986 76.3866 318.649 61.8417 317.782L55.5869 317.409C51.5669 317.17 47.5763 316.385 43.7242 315.076L39.0698 313.495C30.7823 310.68 23.8151 304.726 19.6944 296.938C17 291.845 15.642 286.19 15.7533 280.526L16.0077 267.575L17.0499 202.805L24.4795 154.084C25.9562 144.4 25.9892 134.493 24.5772 124.684L19.566 89.8697L14.4102 70.7091C13.5196 67.3995 13.1057 63.9971 13.1812 60.6074L13.2933 55.5733C13.4512 48.4872 16.6957 41.9482 22.1739 37.6752C26.6407 34.1911 32.2651 32.472 38.0345 32.8273L41.5206 33.042C57.0811 34.0004 70.3829 45.5152 73.692 60.8915Z" stroke="#594600" stroke-opacity="0.05"/>
<g filter="url(#filter9_i)">
<path d="M26.1285 276.349L25.9571 269.606C25.8712 266.225 26.173 262.847 26.8567 259.537L34.2724 223.633C35.1892 219.194 36.7294 214.909 38.8471 210.904L41.5207 205.848C53.624 182.959 83.0842 175.919 104.319 190.84C111.987 196.229 121.194 198.977 130.549 198.671L214.152 195.931L267.025 194.198C273.369 193.99 279.602 192.503 285.35 189.825C297.889 183.984 307.209 172.918 310.836 159.565L314.605 145.691C316.125 140.094 317.017 134.345 317.264 128.548L318.661 95.7646C318.871 90.8191 319.449 85.8971 320.389 81.0392L326.063 51.7162C327.133 46.1873 328.822 40.7979 331.098 35.6497L336.687 23.008C340.064 15.369 345.979 9.13758 353.431 5.36724L355.176 4.48472C358.959 2.57054 363.133 1.54793 367.377 1.49512C378.608 1.35537 388.842 7.97846 393.325 18.2889L394.721 21.5001C396.467 25.5171 397.401 29.8385 397.467 34.2142L397.507 36.8893C397.563 40.6337 397.167 44.37 396.326 48.0168L389.949 75.6659C388.138 83.5178 387.285 91.5624 387.406 99.6245L388.105 145.948C388.204 152.493 388.945 159.014 390.318 165.418L395.585 189.985L406.34 224.143C409.251 233.391 410.804 243.01 410.951 252.697L411.208 269.747C411.29 275.196 410.445 280.617 408.71 285.779C404.51 298.27 395.324 308.491 383.364 314.022C377.215 316.865 370.513 318.387 363.732 318.472L362.36 318.489C349.419 318.65 336.829 314.214 326.829 305.972L322.238 302.187C312.824 294.427 301.573 289.22 289.574 287.068L239.419 278.075C229.89 276.367 220.166 276.049 210.554 277.133L139.3 285.169C125.564 286.718 112.456 291.734 101.208 299.746L89.5504 308.051C84.1139 311.923 77.6527 314.105 70.9736 314.324C63.5917 314.566 56.3253 312.398 50.2731 308.148L37.7496 299.354C30.624 293.809 26.3577 285.363 26.1285 276.349Z" fill="url(#paint36_radial)" fill-opacity="0.6"/>
<path d="M26.1285 276.349L25.9571 269.606C25.8712 266.225 26.173 262.847 26.8567 259.537L34.2724 223.633C35.1892 219.194 36.7294 214.909 38.8471 210.904L41.5207 205.848C53.624 182.959 83.0842 175.919 104.319 190.84C111.987 196.229 121.194 198.977 130.549 198.671L214.152 195.931L267.025 194.198C273.369 193.99 279.602 192.503 285.35 189.825C297.889 183.984 307.209 172.918 310.836 159.565L314.605 145.691C316.125 140.094 317.017 134.345 317.264 128.548L318.661 95.7646C318.871 90.8191 319.449 85.8971 320.389 81.0392L326.063 51.7162C327.133 46.1873 328.822 40.7979 331.098 35.6497L336.687 23.008C340.064 15.369 345.979 9.13758 353.431 5.36724L355.176 4.48472C358.959 2.57054 363.133 1.54793 367.377 1.49512C378.608 1.35537 388.842 7.97846 393.325 18.2889L394.721 21.5001C396.467 25.5171 397.401 29.8385 397.467 34.2142L397.507 36.8893C397.563 40.6337 397.167 44.37 396.326 48.0168L389.949 75.6659C388.138 83.5178 387.285 91.5624 387.406 99.6245L388.105 145.948C388.204 152.493 388.945 159.014 390.318 165.418L395.585 189.985L406.34 224.143C409.251 233.391 410.804 243.01 410.951 252.697L411.208 269.747C411.29 275.196 410.445 280.617 408.71 285.779C404.51 298.27 395.324 308.491 383.364 314.022C377.215 316.865 370.513 318.387 363.732 318.472L362.36 318.489C349.419 318.65 336.829 314.214 326.829 305.972L322.238 302.187C312.824 294.427 301.573 289.22 289.574 287.068L239.419 278.075C229.89 276.367 220.166 276.049 210.554 277.133L139.3 285.169C125.564 286.718 112.456 291.734 101.208 299.746L89.5504 308.051C84.1139 311.923 77.6527 314.105 70.9736 314.324C63.5917 314.566 56.3253 312.398 50.2731 308.148L37.7496 299.354C30.624 293.809 26.3577 285.363 26.1285 276.349Z" fill="url(#paint37_linear)" fill-opacity="0.6"/>
<path d="M26.1285 276.349L25.9571 269.606C25.8712 266.225 26.173 262.847 26.8567 259.537L34.2724 223.633C35.1892 219.194 36.7294 214.909 38.8471 210.904L41.5207 205.848C53.624 182.959 83.0842 175.919 104.319 190.84C111.987 196.229 121.194 198.977 130.549 198.671L214.152 195.931L267.025 194.198C273.369 193.99 279.602 192.503 285.35 189.825C297.889 183.984 307.209 172.918 310.836 159.565L314.605 145.691C316.125 140.094 317.017 134.345 317.264 128.548L318.661 95.7646C318.871 90.8191 319.449 85.8971 320.389 81.0392L326.063 51.7162C327.133 46.1873 328.822 40.7979 331.098 35.6497L336.687 23.008C340.064 15.369 345.979 9.13758 353.431 5.36724L355.176 4.48472C358.959 2.57054 363.133 1.54793 367.377 1.49512C378.608 1.35537 388.842 7.97846 393.325 18.2889L394.721 21.5001C396.467 25.5171 397.401 29.8385 397.467 34.2142L397.507 36.8893C397.563 40.6337 397.167 44.37 396.326 48.0168L389.949 75.6659C388.138 83.5178 387.285 91.5624 387.406 99.6245L388.105 145.948C388.204 152.493 388.945 159.014 390.318 165.418L395.585 189.985L406.34 224.143C409.251 233.391 410.804 243.01 410.951 252.697L411.208 269.747C411.29 275.196 410.445 280.617 408.71 285.779C404.51 298.27 395.324 308.491 383.364 314.022C377.215 316.865 370.513 318.387 363.732 318.472L362.36 318.489C349.419 318.65 336.829 314.214 326.829 305.972L322.238 302.187C312.824 294.427 301.573 289.22 289.574 287.068L239.419 278.075C229.89 276.367 220.166 276.049 210.554 277.133L139.3 285.169C125.564 286.718 112.456 291.734 101.208 299.746L89.5504 308.051C84.1139 311.923 77.6527 314.105 70.9736 314.324C63.5917 314.566 56.3253 312.398 50.2731 308.148L37.7496 299.354C30.624 293.809 26.3577 285.363 26.1285 276.349Z" fill="url(#paint38_radial)" fill-opacity="0.27"/>
<path d="M26.1285 276.349L25.9571 269.606C25.8712 266.225 26.173 262.847 26.8567 259.537L34.2724 223.633C35.1892 219.194 36.7294 214.909 38.8471 210.904L41.5207 205.848C53.624 182.959 83.0842 175.919 104.319 190.84C111.987 196.229 121.194 198.977 130.549 198.671L214.152 195.931L267.025 194.198C273.369 193.99 279.602 192.503 285.35 189.825C297.889 183.984 307.209 172.918 310.836 159.565L314.605 145.691C316.125 140.094 317.017 134.345 317.264 128.548L318.661 95.7646C318.871 90.8191 319.449 85.8971 320.389 81.0392L326.063 51.7162C327.133 46.1873 328.822 40.7979 331.098 35.6497L336.687 23.008C340.064 15.369 345.979 9.13758 353.431 5.36724L355.176 4.48472C358.959 2.57054 363.133 1.54793 367.377 1.49512C378.608 1.35537 388.842 7.97846 393.325 18.2889L394.721 21.5001C396.467 25.5171 397.401 29.8385 397.467 34.2142L397.507 36.8893C397.563 40.6337 397.167 44.37 396.326 48.0168L389.949 75.6659C388.138 83.5178 387.285 91.5624 387.406 99.6245L388.105 145.948C388.204 152.493 388.945 159.014 390.318 165.418L395.585 189.985L406.34 224.143C409.251 233.391 410.804 243.01 410.951 252.697L411.208 269.747C411.29 275.196 410.445 280.617 408.71 285.779C404.51 298.27 395.324 308.491 383.364 314.022C377.215 316.865 370.513 318.387 363.732 318.472L362.36 318.489C349.419 318.65 336.829 314.214 326.829 305.972L322.238 302.187C312.824 294.427 301.573 289.22 289.574 287.068L239.419 278.075C229.89 276.367 220.166 276.049 210.554 277.133L139.3 285.169C125.564 286.718 112.456 291.734 101.208 299.746L89.5504 308.051C84.1139 311.923 77.6527 314.105 70.9736 314.324C63.5917 314.566 56.3253 312.398 50.2731 308.148L37.7496 299.354C30.624 293.809 26.3577 285.363 26.1285 276.349Z" fill="url(#paint39_linear)" fill-opacity="0.6"/>
</g>
<path d="M26.1285 276.349L25.9571 269.606C25.8712 266.225 26.173 262.847 26.8567 259.537L34.2724 223.633C35.1892 219.194 36.7294 214.909 38.8471 210.904L41.5207 205.848C53.624 182.959 83.0842 175.919 104.319 190.84C111.987 196.229 121.194 198.977 130.549 198.671L214.152 195.931L267.025 194.198C273.369 193.99 279.602 192.503 285.35 189.825C297.889 183.984 307.209 172.918 310.836 159.565L314.605 145.691C316.125 140.094 317.017 134.345 317.264 128.548L318.661 95.7646C318.871 90.8191 319.449 85.8971 320.389 81.0392L326.063 51.7162C327.133 46.1873 328.822 40.7979 331.098 35.6497L336.687 23.008C340.064 15.369 345.979 9.13758 353.431 5.36724L355.176 4.48472C358.959 2.57054 363.133 1.54793 367.377 1.49512C378.608 1.35537 388.842 7.97846 393.325 18.2889L394.721 21.5001C396.467 25.5171 397.401 29.8385 397.467 34.2142L397.507 36.8893C397.563 40.6337 397.167 44.37 396.326 48.0168L389.949 75.6659C388.138 83.5178 387.285 91.5624 387.406 99.6245L388.105 145.948C388.204 152.493 388.945 159.014 390.318 165.418L395.585 189.985L406.34 224.143C409.251 233.391 410.804 243.01 410.951 252.697L411.208 269.747C411.29 275.196 410.445 280.617 408.71 285.779C404.51 298.27 395.324 308.491 383.364 314.022C377.215 316.865 370.513 318.387 363.732 318.472L362.36 318.489C349.419 318.65 336.829 314.214 326.829 305.972L322.238 302.187C312.824 294.427 301.573 289.22 289.574 287.068L239.419 278.075C229.89 276.367 220.166 276.049 210.554 277.133L139.3 285.169C125.564 286.718 112.456 291.734 101.208 299.746L89.5504 308.051C84.1139 311.923 77.6527 314.105 70.9736 314.324C63.5917 314.566 56.3253 312.398 50.2731 308.148L37.7496 299.354C30.624 293.809 26.3577 285.363 26.1285 276.349Z" stroke="#594600" stroke-opacity="0.05"/>
<defs>
<filter id="filter0_i" x="0.737396" y="1.79492" width="383.017" height="320.263" filterUnits="userSpaceOnUse" color-interpolation-filters="sRGB">
<feFlood flood-opacity="0" result="BackgroundImageFix"/>
<feBlend mode="normal" in="SourceGraphic" in2="BackgroundImageFix" result="shape"/>
<feColorMatrix in="SourceAlpha" type="matrix" values="0 0 0 0 0 0 0 0 0 0 0 0 0 0 0 0 0 0 127 0" result="hardAlpha"/>
<feOffset dy="4"/>
<feGaussianBlur stdDeviation="2"/>
<feComposite in2="hardAlpha" operator="arithmetic" k2="-1" k3="1"/>
<feColorMatrix type="matrix" values="0 0 0 0 0.4625 0 0 0 0 0.4625 0 0 0 0 0.4625 0 0 0 0.09 0"/>
<feBlend mode="normal" in2="shape" result="effect1_innerShadow"/>
</filter>
<filter id="filter1_i" x="18.343" y="11.8418" width="380.782" height="268.703" filterUnits="userSpaceOnUse" color-interpolation-filters="sRGB">
<feFlood flood-opacity="0" result="BackgroundImageFix"/>
<feBlend mode="normal" in="SourceGraphic" in2="BackgroundImageFix" result="shape"/>
<feColorMatrix in="SourceAlpha" type="matrix" values="0 0 0 0 0 0 0 0 0 0 0 0 0 0 0 0 0 0 127 0" result="hardAlpha"/>
<feOffset dy="4"/>
<feGaussianBlur stdDeviation="2"/>
<feComposite in2="hardAlpha" operator="arithmetic" k2="-1" k3="1"/>
<feColorMatrix type="matrix" values="0 0 0 0 0.4625 0 0 0 0 0.4625 0 0 0 0 0.4625 0 0 0 0.09 0"/>
<feBlend mode="normal" in2="shape" result="effect1_innerShadow"/>
</filter>
<filter id="filter2_i" x="18.3441" y="11.8533" width="380.794" height="289.523" filterUnits="userSpaceOnUse" color-interpolation-filters="sRGB">
<feFlood flood-opacity="0" result="BackgroundImageFix"/>
<feBlend mode="normal" in="SourceGraphic" in2="BackgroundImageFix" result="shape"/>
<feColorMatrix in="SourceAlpha" type="matrix" values="0 0 0 0 0 0 0 0 0 0 0 0 0 0 0 0 0 0 127 0" result="hardAlpha"/>
<feOffset dy="4"/>
<feGaussianBlur stdDeviation="2"/>
<feComposite in2="hardAlpha" operator="arithmetic" k2="-1" k3="1"/>
<feColorMatrix type="matrix" values="0 0 0 0 0.4625 0 0 0 0 0.4625 0 0 0 0 0.4625 0 0 0 0.09 0"/>
<feBlend mode="normal" in2="shape" result="effect1_innerShadow"/>
</filter>
<filter id="filter3_i" x="12.6732" y="32.2808" width="376.514" height="294.819" filterUnits="userSpaceOnUse" color-interpolation-filters="sRGB">
<feFlood flood-opacity="0" result="BackgroundImageFix"/>
<feBlend mode="normal" in="SourceGraphic" in2="BackgroundImageFix" result="shape"/>
<feColorMatrix in="SourceAlpha" type="matrix" values="0 0 0 0 0 0 0 0 0 0 0 0 0 0 0 0 0 0 127 0" result="hardAlpha"/>
<feOffset dy="4"/>
<feGaussianBlur stdDeviation="2"/>
<feComposite in2="hardAlpha" operator="arithmetic" k2="-1" k3="1"/>
<feColorMatrix type="matrix" values="0 0 0 0 0.4625 0 0 0 0 0.4625 0 0 0 0 0.4625 0 0 0 0.09 0"/>
<feBlend mode="normal" in2="shape" result="effect1_innerShadow"/>
</filter>
<filter id="filter4_i" x="25.5878" y="0.992676" width="386.126" height="330.009" filterUnits="userSpaceOnUse" color-interpolation-filters="sRGB">
<feFlood flood-opacity="0" result="BackgroundImageFix"/>
<feBlend mode="normal" in="SourceGraphic" in2="BackgroundImageFix" result="shape"/>
<feColorMatrix in="SourceAlpha" type="matrix" values="0 0 0 0 0 0 0 0 0 0 0 0 0 0 0 0 0 0 127 0" result="hardAlpha"/>
<feOffset dy="4"/>
<feGaussianBlur stdDeviation="2"/>
<feComposite in2="hardAlpha" operator="arithmetic" k2="-1" k3="1"/>
<feColorMatrix type="matrix" values="0 0 0 0 0.4625 0 0 0 0 0.4625 0 0 0 0 0.4625 0 0 0 0.09 0"/>
<feBlend mode="normal" in2="shape" result="effect1_innerShadow"/>
</filter>
<filter id="filter5_i" x="0.737396" y="1.79492" width="383.017" height="320.263" filterUnits="userSpaceOnUse" color-interpolation-filters="sRGB">
<feFlood flood-opacity="0" result="BackgroundImageFix"/>
<feBlend mode="normal" in="SourceGraphic" in2="BackgroundImageFix" result="shape"/>
<feColorMatrix in="SourceAlpha" type="matrix" values="0 0 0 0 0 0 0 0 0 0 0 0 0 0 0 0 0 0 127 0" result="hardAlpha"/>
<feOffset dy="4"/>
<feGaussianBlur stdDeviation="2"/>
<feComposite in2="hardAlpha" operator="arithmetic" k2="-1" k3="1"/>
<feColorMatrix type="matrix" values="0 0 0 0 0.4625 0 0 0 0 0.4625 0 0 0 0 0.4625 0 0 0 0.09 0"/>
<feBlend mode="normal" in2="shape" result="effect1_innerShadow"/>
</filter>
<filter id="filter6_i" x="18.343" y="11.8418" width="380.782" height="268.703" filterUnits="userSpaceOnUse" color-interpolation-filters="sRGB">
<feFlood flood-opacity="0" result="BackgroundImageFix"/>
<feBlend mode="normal" in="SourceGraphic" in2="BackgroundImageFix" result="shape"/>
<feColorMatrix in="SourceAlpha" type="matrix" values="0 0 0 0 0 0 0 0 0 0 0 0 0 0 0 0 0 0 127 0" result="hardAlpha"/>
<feOffset dy="4"/>
<feGaussianBlur stdDeviation="2"/>
<feComposite in2="hardAlpha" operator="arithmetic" k2="-1" k3="1"/>
<feColorMatrix type="matrix" values="0 0 0 0 0.4625 0 0 0 0 0.4625 0 0 0 0 0.4625 0 0 0 0.09 0"/>
<feBlend mode="normal" in2="shape" result="effect1_innerShadow"/>
</filter>
<filter id="filter7_i" x="18.3441" y="11.8533" width="380.794" height="289.523" filterUnits="userSpaceOnUse" color-interpolation-filters="sRGB">
<feFlood flood-opacity="0" result="BackgroundImageFix"/>
<feBlend mode="normal" in="SourceGraphic" in2="BackgroundImageFix" result="shape"/>
<feColorMatrix in="SourceAlpha" type="matrix" values="0 0 0 0 0 0 0 0 0 0 0 0 0 0 0 0 0 0 127 0" result="hardAlpha"/>
<feOffset dy="4"/>
<feGaussianBlur stdDeviation="2"/>
<feComposite in2="hardAlpha" operator="arithmetic" k2="-1" k3="1"/>
<feColorMatrix type="matrix" values="0 0 0 0 0.4625 0 0 0 0 0.4625 0 0 0 0 0.4625 0 0 0 0.09 0"/>
<feBlend mode="normal" in2="shape" result="effect1_innerShadow"/>
</filter>
<filter id="filter8_i" x="12.6732" y="32.2808" width="376.514" height="290.162" filterUnits="userSpaceOnUse" color-interpolation-filters="sRGB">
<feFlood flood-opacity="0" result="BackgroundImageFix"/>
<feBlend mode="normal" in="SourceGraphic" in2="BackgroundImageFix" result="shape"/>
<feColorMatrix in="SourceAlpha" type="matrix" values="0 0 0 0 0 0 0 0 0 0 0 0 0 0 0 0 0 0 127 0" result="hardAlpha"/>
<feOffset dy="4"/>
<feGaussianBlur stdDeviation="2"/>
<feComposite in2="hardAlpha" operator="arithmetic" k2="-1" k3="1"/>
<feColorMatrix type="matrix" values="0 0 0 0 0.4625 0 0 0 0 0.4625 0 0 0 0 0.4625 0 0 0 0.09 0"/>
<feBlend mode="normal" in2="shape" result="effect1_innerShadow"/>
</filter>
<filter id="filter9_i" x="25.4428" y="0.99292" width="386.27" height="322" filterUnits="userSpaceOnUse" color-interpolation-filters="sRGB">
<feFlood flood-opacity="0" result="BackgroundImageFix"/>
<feBlend mode="normal" in="SourceGraphic" in2="BackgroundImageFix" result="shape"/>
<feColorMatrix in="SourceAlpha" type="matrix" values="0 0 0 0 0 0 0 0 0 0 0 0 0 0 0 0 0 0 127 0" result="hardAlpha"/>
<feOffset dy="4"/>
<feGaussianBlur stdDeviation="2"/>
<feComposite in2="hardAlpha" operator="arithmetic" k2="-1" k3="1"/>
<feColorMatrix type="matrix" values="0 0 0 0 0.4625 0 0 0 0 0.4625 0 0 0 0 0.4625 0 0 0 0.09 0"/>
<feBlend mode="normal" in2="shape" result="effect1_innerShadow"/>
</filter>
<radialGradient id="paint0_radial" cx="0" cy="0" r="1" gradientUnits="userSpaceOnUse" gradientTransform="translate(194.897 160.019) rotate(178.258) scale(191.358 152.862)">
<stop offset="0.614583" stop-color="#FFE99D"/>
<stop offset="1" stop-color="#FFE99D" stop-opacity="0"/>
</radialGradient>
<linearGradient id="paint1_linear" x1="386.166" y1="154.203" x2="3.56693" y2="163.285" gradientUnits="userSpaceOnUse">
<stop stop-color="#ADFF00" stop-opacity="0.27"/>
<stop offset="0.557292" stop-color="white" stop-opacity="0"/>
</linearGradient>
<radialGradient id="paint2_radial" cx="0" cy="0" r="1" gradientUnits="userSpaceOnUse" gradientTransform="translate(194.897 160.019) rotate(178.258) scale(191.358 152.862)">
<stop offset="0.5" stop-color="#EE80F0"/>
<stop offset="1" stop-color="white" stop-opacity="0"/>
</radialGradient>
<linearGradient id="paint3_linear" x1="386.166" y1="154.203" x2="3.56693" y2="163.285" gradientUnits="userSpaceOnUse">
<stop offset="0.463542" stop-color="#7000FF" stop-opacity="0"/>
<stop offset="1" stop-color="white"/>
</linearGradient>
<radialGradient id="paint4_radial" cx="0" cy="0" r="1" gradientUnits="userSpaceOnUse" gradientTransform="translate(208.745 141.955) rotate(-90.0373) scale(131.268 189.83)">
<stop offset="0.614583" stop-color="#FFE99D"/>
<stop offset="1" stop-color="#FFE99D" stop-opacity="0"/>
</radialGradient>
<linearGradient id="paint5_linear" x1="208.83" y1="273.223" x2="213.43" y2="10.7714" gradientUnits="userSpaceOnUse">
<stop stop-color="#ADFF00" stop-opacity="0.27"/>
<stop offset="0.557292" stop-color="white" stop-opacity="0"/>
</linearGradient>
<radialGradient id="paint6_radial" cx="0" cy="0" r="1" gradientUnits="userSpaceOnUse" gradientTransform="translate(208.745 141.955) rotate(-90.0373) scale(131.268 189.83)">
<stop offset="0.5" stop-color="#EE80F0"/>
<stop offset="1" stop-color="white" stop-opacity="0"/>
</radialGradient>
<linearGradient id="paint7_linear" x1="208.83" y1="273.223" x2="213.43" y2="10.7714" gradientUnits="userSpaceOnUse">
<stop offset="0.463542" stop-color="#7000FF" stop-opacity="0"/>
<stop offset="1" stop-color="white"/>
</linearGradient>
<radialGradient id="paint8_radial" cx="0" cy="0" r="1" gradientUnits="userSpaceOnUse" gradientTransform="translate(208.752 152.379) rotate(-90.0373) scale(141.69 189.83)">
<stop offset="0.614583" stop-color="#FFE99D"/>
<stop offset="1" stop-color="#FFE99D" stop-opacity="0"/>
</radialGradient>
<linearGradient id="paint9_linear" x1="208.844" y1="294.069" x2="213.808" y2="10.7785" gradientUnits="userSpaceOnUse">
<stop stop-color="#ADFF00" stop-opacity="0.27"/>
<stop offset="0.557292" stop-color="white" stop-opacity="0"/>
</linearGradient>
<radialGradient id="paint10_radial" cx="0" cy="0" r="1" gradientUnits="userSpaceOnUse" gradientTransform="translate(208.752 152.379) rotate(-90.0373) scale(141.69 189.83)">
<stop offset="0.5" stop-color="#EE80F0"/>
<stop offset="1" stop-color="white" stop-opacity="0"/>
</radialGradient>
<linearGradient id="paint11_linear" x1="208.844" y1="294.069" x2="213.808" y2="10.7785" gradientUnits="userSpaceOnUse">
<stop offset="0.463542" stop-color="#7000FF" stop-opacity="0"/>
<stop offset="1" stop-color="white"/>
</linearGradient>
<radialGradient id="paint12_radial" cx="0" cy="0" r="1" gradientUnits="userSpaceOnUse" gradientTransform="translate(202.508 184.393) rotate(91.1253) scale(141.638 191.735)">
<stop offset="0.614583" stop-color="#FFE99D"/>
<stop offset="1" stop-color="#FFE99D" stop-opacity="0"/>
</radialGradient>
<linearGradient id="paint13_linear" x1="205.29" y1="42.7821" x2="188.443" y2="325.331" gradientUnits="userSpaceOnUse">
<stop stop-color="#ADFF00" stop-opacity="0.27"/>
<stop offset="0.557292" stop-color="white" stop-opacity="0"/>
</linearGradient>
<radialGradient id="paint14_radial" cx="0" cy="0" r="1" gradientUnits="userSpaceOnUse" gradientTransform="translate(202.508 184.393) rotate(91.1253) scale(141.638 191.735)">
<stop offset="0.5" stop-color="#EE80F0"/>
<stop offset="1" stop-color="white" stop-opacity="0"/>
</radialGradient>
<linearGradient id="paint15_linear" x1="205.29" y1="42.7821" x2="188.443" y2="325.331" gradientUnits="userSpaceOnUse">
<stop offset="0.463542" stop-color="#7000FF" stop-opacity="0"/>
<stop offset="1" stop-color="white"/>
</linearGradient>
<radialGradient id="paint16_radial" cx="0" cy="0" r="1" gradientUnits="userSpaceOnUse" gradientTransform="translate(216.962 164.013) rotate(-0.712854) scale(192.629 160.635)">
<stop offset="0.614583" stop-color="#FFE99D"/>
<stop offset="1" stop-color="#FFE99D" stop-opacity="0"/>
</radialGradient>
<linearGradient id="paint17_linear" x1="24.3478" y1="166.41" x2="409.561" y2="160.598" gradientUnits="userSpaceOnUse">
<stop stop-color="#ADFF00" stop-opacity="0.27"/>
<stop offset="0.557292" stop-color="white" stop-opacity="0"/>
</linearGradient>
<radialGradient id="paint18_radial" cx="0" cy="0" r="1" gradientUnits="userSpaceOnUse" gradientTransform="translate(216.962 164.013) rotate(-0.712854) scale(192.629 160.635)">
<stop offset="0.5" stop-color="#EE80F0"/>
<stop offset="1" stop-color="white" stop-opacity="0"/>
</radialGradient>
<linearGradient id="paint19_linear" x1="24.3478" y1="166.41" x2="409.561" y2="160.598" gradientUnits="userSpaceOnUse">
<stop offset="0.463542" stop-color="#7000FF" stop-opacity="0"/>
<stop offset="1" stop-color="white"/>
</linearGradient>
<radialGradient id="paint20_radial" cx="0" cy="0" r="1" gradientUnits="userSpaceOnUse" gradientTransform="translate(194.897 160.019) rotate(178.258) scale(191.358 152.862)">
<stop offset="0.614583" stop-color="#FFE99D"/>
<stop offset="1" stop-color="#FFE99D" stop-opacity="0"/>
</radialGradient>
<linearGradient id="paint21_linear" x1="386.166" y1="154.203" x2="3.56693" y2="163.285" gradientUnits="userSpaceOnUse">
<stop stop-color="#ADFF00" stop-opacity="0.27"/>
<stop offset="0.557292" stop-color="white" stop-opacity="0"/>
</linearGradient>
<radialGradient id="paint22_radial" cx="0" cy="0" r="1" gradientUnits="userSpaceOnUse" gradientTransform="translate(194.897 160.019) rotate(178.258) scale(191.358 152.862)">
<stop offset="0.5" stop-color="#EE80F0"/>
<stop offset="1" stop-color="white" stop-opacity="0"/>
</radialGradient>
<linearGradient id="paint23_linear" x1="386.166" y1="154.203" x2="3.56693" y2="163.285" gradientUnits="userSpaceOnUse">
<stop offset="0.463542" stop-color="#7000FF" stop-opacity="0"/>
<stop offset="1" stop-color="white"/>
</linearGradient>
<radialGradient id="paint24_radial" cx="0" cy="0" r="1" gradientUnits="userSpaceOnUse" gradientTransform="translate(208.745 141.955) rotate(-90.0373) scale(131.268 189.83)">
<stop offset="0.614583" stop-color="#FFE99D"/>
<stop offset="1" stop-color="#FFE99D" stop-opacity="0"/>
</radialGradient>
<linearGradient id="paint25_linear" x1="208.83" y1="273.223" x2="213.43" y2="10.7714" gradientUnits="userSpaceOnUse">
<stop stop-color="#ADFF00" stop-opacity="0.27"/>
<stop offset="0.557292" stop-color="white" stop-opacity="0"/>
</linearGradient>
<radialGradient id="paint26_radial" cx="0" cy="0" r="1" gradientUnits="userSpaceOnUse" gradientTransform="translate(208.745 141.955) rotate(-90.0373) scale(131.268 189.83)">
<stop offset="0.5" stop-color="#EE80F0"/>
<stop offset="1" stop-color="white" stop-opacity="0"/>
</radialGradient>
<linearGradient id="paint27_linear" x1="208.83" y1="273.223" x2="213.43" y2="10.7714" gradientUnits="userSpaceOnUse">
<stop offset="0.463542" stop-color="#7000FF" stop-opacity="0"/>
<stop offset="1" stop-color="white"/>
</linearGradient>
<radialGradient id="paint28_radial" cx="0" cy="0" r="1" gradientUnits="userSpaceOnUse" gradientTransform="translate(208.752 152.379) rotate(-90.0373) scale(141.69 189.83)">
<stop offset="0.614583" stop-color="#FFE99D"/>
<stop offset="1" stop-color="#FFE99D" stop-opacity="0"/>
</radialGradient>
<linearGradient id="paint29_linear" x1="208.844" y1="294.069" x2="213.808" y2="10.7785" gradientUnits="userSpaceOnUse">
<stop stop-color="#ADFF00" stop-opacity="0.27"/>
<stop offset="0.557292" stop-color="white" stop-opacity="0"/>
</linearGradient>
<radialGradient id="paint30_radial" cx="0" cy="0" r="1" gradientUnits="userSpaceOnUse" gradientTransform="translate(208.752 152.379) rotate(-90.0373) scale(141.69 189.83)">
<stop offset="0.5" stop-color="#EE80F0"/>
<stop offset="1" stop-color="white" stop-opacity="0"/>
</radialGradient>
<linearGradient id="paint31_linear" x1="208.844" y1="294.069" x2="213.808" y2="10.7785" gradientUnits="userSpaceOnUse">
<stop offset="0.463542" stop-color="#7000FF" stop-opacity="0"/>
<stop offset="1" stop-color="white"/>
</linearGradient>
<radialGradient id="paint32_radial" cx="0" cy="0" r="1" gradientUnits="userSpaceOnUse" gradientTransform="translate(202.508 184.393) rotate(91.1253) scale(141.638 191.735)">
<stop offset="0.614583" stop-color="#FFE99D"/>
<stop offset="1" stop-color="#FFE99D" stop-opacity="0"/>
</radialGradient>
<linearGradient id="paint33_linear" x1="205.29" y1="42.7821" x2="188.443" y2="325.331" gradientUnits="userSpaceOnUse">
<stop stop-color="#ADFF00" stop-opacity="0.27"/>
<stop offset="0.557292" stop-color="white" stop-opacity="0"/>
</linearGradient>
<radialGradient id="paint34_radial" cx="0" cy="0" r="1" gradientUnits="userSpaceOnUse" gradientTransform="translate(202.508 184.393) rotate(91.1253) scale(141.638 191.735)">
<stop offset="0.5" stop-color="#EE80F0"/>
<stop offset="1" stop-color="white" stop-opacity="0"/>
</radialGradient>
<linearGradient id="paint35_linear" x1="205.29" y1="42.7821" x2="188.443" y2="325.331" gradientUnits="userSpaceOnUse">
<stop offset="0.463542" stop-color="#7000FF" stop-opacity="0"/>
<stop offset="1" stop-color="white"/>
</linearGradient>
<radialGradient id="paint36_radial" cx="0" cy="0" r="1" gradientUnits="userSpaceOnUse" gradientTransform="translate(216.929 161.833) rotate(-0.712854) scale(192.629 158.453)">
<stop offset="0.614583" stop-color="#FFE99D"/>
<stop offset="1" stop-color="#FFE99D" stop-opacity="0"/>
</radialGradient>
<linearGradient id="paint37_linear" x1="24.3148" y1="164.229" x2="409.528" y2="158.418" gradientUnits="userSpaceOnUse">
<stop stop-color="#ADFF00" stop-opacity="0.27"/>
<stop offset="0.557292" stop-color="white" stop-opacity="0"/>
</linearGradient>
<radialGradient id="paint38_radial" cx="0" cy="0" r="1" gradientUnits="userSpaceOnUse" gradientTransform="translate(216.929 161.833) rotate(-0.712854) scale(192.629 158.453)">
<stop offset="0.5" stop-color="#EE80F0"/>
<stop offset="1" stop-color="white" stop-opacity="0"/>
</radialGradient>
<linearGradient id="paint39_linear" x1="24.3148" y1="164.229" x2="409.528" y2="158.418" gradientUnits="userSpaceOnUse">
<stop offset="0.463542" stop-color="#7000FF" stop-opacity="0"/>
<stop offset="1" stop-color="white"/>
</linearGradient>
</defs>
</svg>
