<svg width="325" height="263" viewBox="0 0 325 263" fill="none" xmlns="http://www.w3.org/2000/svg">
<g filter="url(#filter0_d)">
<mask id="path-1-inside-1" fill="white">
<path d="M74.3779 102.963C73.8695 106.813 73.4766 110.68 73.4772 114.562C73.4779 119.469 72.7039 124.339 72.0659 129.206C69.2887 150.387 76.9078 173.715 78.1255 178.292C81.4087 190.63 72.8296 198.641 85.0406 200.771L89.3806 201.528C94.5635 202.432 99.8709 202.237 104.98 200.955L111.647 199.283C119.344 197.352 127.295 196.744 135.181 197.482L168.708 200.621C176.445 201.345 184.229 201.389 191.975 200.752L205.001 199.681C216.444 198.74 227.956 199.286 239.265 201.307L256.997 204.475C261.713 205.318 266.361 206.498 270.905 208.008L287.738 213.598C291.648 214.896 295.078 217.402 297.566 220.778L299.404 223.272C301.095 225.566 301.943 228.405 301.8 231.286C301.52 236.912 297.548 241.611 292.19 242.655L279.465 245.135C277.267 245.563 275.028 245.721 272.795 245.603L267.361 245.318C263.872 245.135 260.4 244.697 256.971 244.006L229.88 238.55C223.516 237.269 217.072 236.455 210.595 236.115L156.157 233.259L123.762 235.399L89.6891 239.661C81.9104 240.634 74.0658 240.917 66.2413 240.506L46.108 239.45C42.3951 239.255 38.711 238.674 35.1115 237.715L25.036 235.031C18.6915 233.342 13.148 229.351 9.41638 223.787C5.97704 218.659 4.27999 212.497 4.59061 206.264L4.99952 198.058L6.82839 157.549C7.21717 148.937 8.36507 140.38 10.2578 131.983L12.8914 120.299C17.0405 101.892 17.5878 82.8158 14.5008 64.1921L13.3856 57.4637C12.7173 53.4317 11.7393 49.4613 10.4609 45.5902L7.21557 35.7625C6.26851 32.8946 5.86464 29.8648 6.026 26.8383C6.45758 18.7434 10.8766 11.44 17.7314 7.49224L18.002 7.33639C21.852 5.11918 26.2284 4.06889 30.6284 4.30632L42.5966 4.95224C56.7116 5.71392 68.7422 15.7764 72.4022 29.8819C74.1839 36.7489 74.1549 43.993 75.517 50.9561L75.7872 52.3373C77.3288 60.2177 77.8777 68.2586 77.1715 76.2612C76.4039 84.9608 75.3147 95.8696 74.3779 102.963Z"/>
<path d="M282.597 124.553L282.064 65.6527C282.018 60.6318 280.014 55.6915 276.205 51.2077C266.628 39.937 246.858 32.8906 225.266 33.0523L214.839 33.1304L173.692 33.5485L145.636 33.7586C135.542 33.8342 125.473 34.447 115.556 35.5893L94.282 38.0396L67.3981 39.4008C58.1997 39.8666 48.9742 38.8851 40.6794 36.5583L35.5741 35.1261C28.1733 33.0501 22.2449 29.5386 18.791 25.1854L18.0905 24.3025C16.397 22.1681 15.5134 19.8418 15.5 17.4824C15.4631 11.0053 21.9468 5.09306 32.0514 2.39016L33.5602 1.98659C37.4823 0.937471 41.7322 0.381331 46.0334 0.354396L47.9748 0.342237C51.3918 0.320839 54.7959 0.557084 58.1031 1.04514L93.9951 6.34186L136.785 10.1279C145.701 10.9168 154.717 11.2794 163.745 11.2122L177.685 11.1084C189.795 11.0182 201.862 10.155 213.671 8.53407L237.422 5.27388L261.509 0.93555C269.605 -0.522558 278.326 -0.111418 285.872 2.08401C291.843 3.82137 296.756 6.58331 299.957 10.0031L300.09 10.1443C302.78 13.0187 304.199 16.2449 304.218 19.5316L304.292 32.5702L304.757 78.2145C304.814 83.8537 304.395 89.4868 303.502 95.0536L297.981 129.494C296.853 136.536 297.04 143.623 298.542 150.63L304.679 179.275C304.938 180.484 305.286 181.672 305.722 182.83L315.145 207.878C316.706 212.027 313.099 218.724 311.977 223.009C311.737 223.925 311.637 224.281 311.236 225.139L308.456 231.085C306.226 235.858 306.269 244.099 301.012 243.689C299.424 243.565 297.393 243.067 294.957 242.767C289.755 242.127 284.388 242.968 279.306 241.682C269.25 239.138 262.368 233.313 262.308 226.607L262.222 217.138C262.158 210.035 264.672 202.994 269.598 196.48C273.738 191.006 276.181 185.152 276.812 179.192L282.597 124.553Z"/>
<path d="M166.756 198.41L213.695 197.739L224.122 196.743C231.969 195.994 239.574 193.413 246.354 189.208C263.204 178.756 273.214 159.388 272.306 138.904L272.003 114.863C271.925 108.588 272.332 102.317 273.222 96.1105L276.083 76.1553C277.238 68.1023 276.249 59.8728 273.226 52.3724L271.552 48.2207C267.9 39.1606 268.141 28.8918 272.214 20.0271L272.886 18.5661C275.723 12.392 280.508 7.43302 286.433 4.52802L287.698 3.9077C290.64 2.46546 293.848 1.7193 297.095 1.7222L298.391 1.72335C306.402 1.7305 313.645 6.71087 316.835 14.406C318.95 19.5078 319.054 25.279 317.125 30.4629L314.503 37.5116C312.921 41.7624 312.055 46.268 311.943 50.828L311.702 60.6551C311.566 66.1786 310.974 71.6796 309.933 77.0967L307.258 91.0055C305.473 100.287 304.633 109.741 304.752 119.208L304.801 123.112C304.929 133.295 306.166 143.429 308.487 153.317L312.789 171.637L317.224 192.539C318.977 200.802 318.929 209.372 317.085 217.614L314.97 227.066C313.608 233.156 310.343 238.596 305.695 242.524C300.918 246.561 294.965 248.76 288.829 248.754L273.686 248.741L199.834 248.882L141.303 242.73C131.831 241.735 122.281 241.85 112.832 243.076L71.0153 248.499L49.3069 253.52C45.7383 254.346 42.0938 254.757 38.4396 254.746L28.69 254.717C22.8517 254.699 17.2214 252.449 12.8571 248.389C7.71664 243.608 4.78703 236.742 4.8139 229.539L4.81771 228.517C4.86701 215.304 13.927 204.012 26.3463 201.685L34.503 200.156C40.8186 198.973 46.719 196.046 51.5954 191.678L52.8712 190.535C59.0355 185.013 62.0881 181.31 66.1326 179.919C74.0588 177.193 82.12 183.099 89.2296 187.519C96.1166 191.8 104.09 194.013 112.205 193.897L116.884 193.83C127.028 193.685 137.08 195.412 147.097 197.001C153.593 198.031 160.168 198.504 166.756 198.41Z"/>
<path d="M267.317 108.82L271 78.3202C271.925 73.429 268.822 62.5493 267.317 57.8202C263.991 47.3731 254.372 48.1818 243.945 46.7606L235.642 45.6288C232.416 45.1891 229.151 45.1549 225.918 45.527L178.177 51.0197L176.326 51.3305C168.721 52.6074 161.022 53.1618 153.322 52.987L114.312 52.1014L75.0673 46.5959L52.283 40.1706C48.9157 39.221 45.8928 37.2477 43.5961 34.4996L41.6077 32.1204C39.9829 30.1763 39.112 27.6652 39.1665 25.0815C39.2686 20.2393 42.565 16.1183 47.099 15.1646L59.8532 12.482C61.7314 12.087 63.6453 11.9096 65.5603 11.9531L75.7931 12.1854L115.021 18.5144L174.971 19.8753L205.13 17.2046L237.602 12.522C244.296 11.5566 251.053 11.1487 257.808 11.3021L277.635 11.7522C280.986 11.8282 284.323 12.232 287.602 12.9581L298.055 15.2728C303.505 16.4796 308.384 19.6322 311.859 24.1915C315.37 28.7982 317.225 34.5501 317.1 40.4442L316.964 46.9233L316.423 80.5016C316.282 89.2906 315.314 98.0439 313.535 106.635L312.022 113.936C308.514 130.873 308.537 148.402 312.089 165.327L313.079 170.045C313.816 173.557 314.837 176.998 316.129 180.329L319.426 188.826C320.4 191.337 320.869 194.032 320.802 196.742C320.628 203.734 316.924 210.105 311.072 213.477L309.804 214.207C306.511 216.105 302.799 217.056 299.043 216.966L285.417 216.637C273.296 216.345 262.675 208.073 258.918 196.002C256.907 189.539 258.417 182.647 260.19 176.109L264.159 161.466C266.257 153.73 267.335 145.775 267.096 137.767C266.783 127.224 266.371 113.819 267.317 108.82Z"/>
</mask>
<path d="M74.3779 102.963C73.8695 106.813 73.4766 110.68 73.4772 114.562C73.4779 119.469 72.7039 124.339 72.0659 129.206C69.2887 150.387 76.9078 173.715 78.1255 178.292C81.4087 190.63 72.8296 198.641 85.0406 200.771L89.3806 201.528C94.5635 202.432 99.8709 202.237 104.98 200.955L111.647 199.283C119.344 197.352 127.295 196.744 135.181 197.482L168.708 200.621C176.445 201.345 184.229 201.389 191.975 200.752L205.001 199.681C216.444 198.74 227.956 199.286 239.265 201.307L256.997 204.475C261.713 205.318 266.361 206.498 270.905 208.008L287.738 213.598C291.648 214.896 295.078 217.402 297.566 220.778L299.404 223.272C301.095 225.566 301.943 228.405 301.8 231.286C301.52 236.912 297.548 241.611 292.19 242.655L279.465 245.135C277.267 245.563 275.028 245.721 272.795 245.603L267.361 245.318C263.872 245.135 260.4 244.697 256.971 244.006L229.88 238.55C223.516 237.269 217.072 236.455 210.595 236.115L156.157 233.259L123.762 235.399L89.6891 239.661C81.9104 240.634 74.0658 240.917 66.2413 240.506L46.108 239.45C42.3951 239.255 38.711 238.674 35.1115 237.715L25.036 235.031C18.6915 233.342 13.148 229.351 9.41638 223.787C5.97704 218.659 4.27999 212.497 4.59061 206.264L4.99952 198.058L6.82839 157.549C7.21717 148.937 8.36507 140.38 10.2578 131.983L12.8914 120.299C17.0405 101.892 17.5878 82.8158 14.5008 64.1921L13.3856 57.4637C12.7173 53.4317 11.7393 49.4613 10.4609 45.5902L7.21557 35.7625C6.26851 32.8946 5.86464 29.8648 6.026 26.8383C6.45758 18.7434 10.8766 11.44 17.7314 7.49224L18.002 7.33639C21.852 5.11918 26.2284 4.06889 30.6284 4.30632L42.5966 4.95224C56.7116 5.71392 68.7422 15.7764 72.4022 29.8819C74.1839 36.7489 74.1549 43.993 75.517 50.9561L75.7872 52.3373C77.3288 60.2177 77.8777 68.2586 77.1715 76.2612C76.4039 84.9608 75.3147 95.8696 74.3779 102.963Z" fill="url(#paint0_radial)" fill-opacity="0.09"/>
<path d="M74.3779 102.963C73.8695 106.813 73.4766 110.68 73.4772 114.562C73.4779 119.469 72.7039 124.339 72.0659 129.206C69.2887 150.387 76.9078 173.715 78.1255 178.292C81.4087 190.63 72.8296 198.641 85.0406 200.771L89.3806 201.528C94.5635 202.432 99.8709 202.237 104.98 200.955L111.647 199.283C119.344 197.352 127.295 196.744 135.181 197.482L168.708 200.621C176.445 201.345 184.229 201.389 191.975 200.752L205.001 199.681C216.444 198.74 227.956 199.286 239.265 201.307L256.997 204.475C261.713 205.318 266.361 206.498 270.905 208.008L287.738 213.598C291.648 214.896 295.078 217.402 297.566 220.778L299.404 223.272C301.095 225.566 301.943 228.405 301.8 231.286C301.52 236.912 297.548 241.611 292.19 242.655L279.465 245.135C277.267 245.563 275.028 245.721 272.795 245.603L267.361 245.318C263.872 245.135 260.4 244.697 256.971 244.006L229.88 238.55C223.516 237.269 217.072 236.455 210.595 236.115L156.157 233.259L123.762 235.399L89.6891 239.661C81.9104 240.634 74.0658 240.917 66.2413 240.506L46.108 239.45C42.3951 239.255 38.711 238.674 35.1115 237.715L25.036 235.031C18.6915 233.342 13.148 229.351 9.41638 223.787C5.97704 218.659 4.27999 212.497 4.59061 206.264L4.99952 198.058L6.82839 157.549C7.21717 148.937 8.36507 140.38 10.2578 131.983L12.8914 120.299C17.0405 101.892 17.5878 82.8158 14.5008 64.1921L13.3856 57.4637C12.7173 53.4317 11.7393 49.4613 10.4609 45.5902L7.21557 35.7625C6.26851 32.8946 5.86464 29.8648 6.026 26.8383C6.45758 18.7434 10.8766 11.44 17.7314 7.49224L18.002 7.33639C21.852 5.11918 26.2284 4.06889 30.6284 4.30632L42.5966 4.95224C56.7116 5.71392 68.7422 15.7764 72.4022 29.8819C74.1839 36.7489 74.1549 43.993 75.517 50.9561L75.7872 52.3373C77.3288 60.2177 77.8777 68.2586 77.1715 76.2612C76.4039 84.9608 75.3147 95.8696 74.3779 102.963Z" fill="url(#paint1_linear)" fill-opacity="0.19"/>
<path d="M74.3779 102.963C73.8695 106.813 73.4766 110.68 73.4772 114.562C73.4779 119.469 72.7039 124.339 72.0659 129.206C69.2887 150.387 76.9078 173.715 78.1255 178.292C81.4087 190.63 72.8296 198.641 85.0406 200.771L89.3806 201.528C94.5635 202.432 99.8709 202.237 104.98 200.955L111.647 199.283C119.344 197.352 127.295 196.744 135.181 197.482L168.708 200.621C176.445 201.345 184.229 201.389 191.975 200.752L205.001 199.681C216.444 198.74 227.956 199.286 239.265 201.307L256.997 204.475C261.713 205.318 266.361 206.498 270.905 208.008L287.738 213.598C291.648 214.896 295.078 217.402 297.566 220.778L299.404 223.272C301.095 225.566 301.943 228.405 301.8 231.286C301.52 236.912 297.548 241.611 292.19 242.655L279.465 245.135C277.267 245.563 275.028 245.721 272.795 245.603L267.361 245.318C263.872 245.135 260.4 244.697 256.971 244.006L229.88 238.55C223.516 237.269 217.072 236.455 210.595 236.115L156.157 233.259L123.762 235.399L89.6891 239.661C81.9104 240.634 74.0658 240.917 66.2413 240.506L46.108 239.45C42.3951 239.255 38.711 238.674 35.1115 237.715L25.036 235.031C18.6915 233.342 13.148 229.351 9.41638 223.787C5.97704 218.659 4.27999 212.497 4.59061 206.264L4.99952 198.058L6.82839 157.549C7.21717 148.937 8.36507 140.38 10.2578 131.983L12.8914 120.299C17.0405 101.892 17.5878 82.8158 14.5008 64.1921L13.3856 57.4637C12.7173 53.4317 11.7393 49.4613 10.4609 45.5902L7.21557 35.7625C6.26851 32.8946 5.86464 29.8648 6.026 26.8383C6.45758 18.7434 10.8766 11.44 17.7314 7.49224L18.002 7.33639C21.852 5.11918 26.2284 4.06889 30.6284 4.30632L42.5966 4.95224C56.7116 5.71392 68.7422 15.7764 72.4022 29.8819C74.1839 36.7489 74.1549 43.993 75.517 50.9561L75.7872 52.3373C77.3288 60.2177 77.8777 68.2586 77.1715 76.2612C76.4039 84.9608 75.3147 95.8696 74.3779 102.963Z" fill="url(#paint2_radial)"/>
<path d="M74.3779 102.963C73.8695 106.813 73.4766 110.68 73.4772 114.562C73.4779 119.469 72.7039 124.339 72.0659 129.206C69.2887 150.387 76.9078 173.715 78.1255 178.292C81.4087 190.63 72.8296 198.641 85.0406 200.771L89.3806 201.528C94.5635 202.432 99.8709 202.237 104.98 200.955L111.647 199.283C119.344 197.352 127.295 196.744 135.181 197.482L168.708 200.621C176.445 201.345 184.229 201.389 191.975 200.752L205.001 199.681C216.444 198.74 227.956 199.286 239.265 201.307L256.997 204.475C261.713 205.318 266.361 206.498 270.905 208.008L287.738 213.598C291.648 214.896 295.078 217.402 297.566 220.778L299.404 223.272C301.095 225.566 301.943 228.405 301.8 231.286C301.52 236.912 297.548 241.611 292.19 242.655L279.465 245.135C277.267 245.563 275.028 245.721 272.795 245.603L267.361 245.318C263.872 245.135 260.4 244.697 256.971 244.006L229.88 238.55C223.516 237.269 217.072 236.455 210.595 236.115L156.157 233.259L123.762 235.399L89.6891 239.661C81.9104 240.634 74.0658 240.917 66.2413 240.506L46.108 239.45C42.3951 239.255 38.711 238.674 35.1115 237.715L25.036 235.031C18.6915 233.342 13.148 229.351 9.41638 223.787C5.97704 218.659 4.27999 212.497 4.59061 206.264L4.99952 198.058L6.82839 157.549C7.21717 148.937 8.36507 140.38 10.2578 131.983L12.8914 120.299C17.0405 101.892 17.5878 82.8158 14.5008 64.1921L13.3856 57.4637C12.7173 53.4317 11.7393 49.4613 10.4609 45.5902L7.21557 35.7625C6.26851 32.8946 5.86464 29.8648 6.026 26.8383C6.45758 18.7434 10.8766 11.44 17.7314 7.49224L18.002 7.33639C21.852 5.11918 26.2284 4.06889 30.6284 4.30632L42.5966 4.95224C56.7116 5.71392 68.7422 15.7764 72.4022 29.8819C74.1839 36.7489 74.1549 43.993 75.517 50.9561L75.7872 52.3373C77.3288 60.2177 77.8777 68.2586 77.1715 76.2612C76.4039 84.9608 75.3147 95.8696 74.3779 102.963Z" fill="url(#paint3_radial)" fill-opacity="0.45"/>
<path d="M282.597 124.553L282.064 65.6527C282.018 60.6318 280.014 55.6915 276.205 51.2077C266.628 39.937 246.858 32.8906 225.266 33.0523L214.839 33.1304L173.692 33.5485L145.636 33.7586C135.542 33.8342 125.473 34.447 115.556 35.5893L94.282 38.0396L67.3981 39.4008C58.1997 39.8666 48.9742 38.8851 40.6794 36.5583L35.5741 35.1261C28.1733 33.0501 22.2449 29.5386 18.791 25.1854L18.0905 24.3025C16.397 22.1681 15.5134 19.8418 15.5 17.4824C15.4631 11.0053 21.9468 5.09306 32.0514 2.39016L33.5602 1.98659C37.4823 0.937471 41.7322 0.381331 46.0334 0.354396L47.9748 0.342237C51.3918 0.320839 54.7959 0.557084 58.1031 1.04514L93.9951 6.34186L136.785 10.1279C145.701 10.9168 154.717 11.2794 163.745 11.2122L177.685 11.1084C189.795 11.0182 201.862 10.155 213.671 8.53407L237.422 5.27388L261.509 0.93555C269.605 -0.522558 278.326 -0.111418 285.872 2.08401C291.843 3.82137 296.756 6.58331 299.957 10.0031L300.09 10.1443C302.78 13.0187 304.199 16.2449 304.218 19.5316L304.292 32.5702L304.757 78.2145C304.814 83.8537 304.395 89.4868 303.502 95.0536L297.981 129.494C296.853 136.536 297.04 143.623 298.542 150.63L304.679 179.275C304.938 180.484 305.286 181.672 305.722 182.83L315.145 207.878C316.706 212.027 313.099 218.724 311.977 223.009C311.737 223.925 311.637 224.281 311.236 225.139L308.456 231.085C306.226 235.858 306.269 244.099 301.012 243.689C299.424 243.565 297.393 243.067 294.957 242.767C289.755 242.127 284.388 242.968 279.306 241.682C269.25 239.138 262.368 233.313 262.308 226.607L262.222 217.138C262.158 210.035 264.672 202.994 269.598 196.48C273.738 191.006 276.181 185.152 276.812 179.192L282.597 124.553Z" fill="url(#paint4_radial)" fill-opacity="0.09"/>
<path d="M282.597 124.553L282.064 65.6527C282.018 60.6318 280.014 55.6915 276.205 51.2077C266.628 39.937 246.858 32.8906 225.266 33.0523L214.839 33.1304L173.692 33.5485L145.636 33.7586C135.542 33.8342 125.473 34.447 115.556 35.5893L94.282 38.0396L67.3981 39.4008C58.1997 39.8666 48.9742 38.8851 40.6794 36.5583L35.5741 35.1261C28.1733 33.0501 22.2449 29.5386 18.791 25.1854L18.0905 24.3025C16.397 22.1681 15.5134 19.8418 15.5 17.4824C15.4631 11.0053 21.9468 5.09306 32.0514 2.39016L33.5602 1.98659C37.4823 0.937471 41.7322 0.381331 46.0334 0.354396L47.9748 0.342237C51.3918 0.320839 54.7959 0.557084 58.1031 1.04514L93.9951 6.34186L136.785 10.1279C145.701 10.9168 154.717 11.2794 163.745 11.2122L177.685 11.1084C189.795 11.0182 201.862 10.155 213.671 8.53407L237.422 5.27388L261.509 0.93555C269.605 -0.522558 278.326 -0.111418 285.872 2.08401C291.843 3.82137 296.756 6.58331 299.957 10.0031L300.09 10.1443C302.78 13.0187 304.199 16.2449 304.218 19.5316L304.292 32.5702L304.757 78.2145C304.814 83.8537 304.395 89.4868 303.502 95.0536L297.981 129.494C296.853 136.536 297.04 143.623 298.542 150.63L304.679 179.275C304.938 180.484 305.286 181.672 305.722 182.83L315.145 207.878C316.706 212.027 313.099 218.724 311.977 223.009C311.737 223.925 311.637 224.281 311.236 225.139L308.456 231.085C306.226 235.858 306.269 244.099 301.012 243.689C299.424 243.565 297.393 243.067 294.957 242.767C289.755 242.127 284.388 242.968 279.306 241.682C269.25 239.138 262.368 233.313 262.308 226.607L262.222 217.138C262.158 210.035 264.672 202.994 269.598 196.48C273.738 191.006 276.181 185.152 276.812 179.192L282.597 124.553Z" fill="url(#paint5_linear)" fill-opacity="0.19"/>
<path d="M282.597 124.553L282.064 65.6527C282.018 60.6318 280.014 55.6915 276.205 51.2077C266.628 39.937 246.858 32.8906 225.266 33.0523L214.839 33.1304L173.692 33.5485L145.636 33.7586C135.542 33.8342 125.473 34.447 115.556 35.5893L94.282 38.0396L67.3981 39.4008C58.1997 39.8666 48.9742 38.8851 40.6794 36.5583L35.5741 35.1261C28.1733 33.0501 22.2449 29.5386 18.791 25.1854L18.0905 24.3025C16.397 22.1681 15.5134 19.8418 15.5 17.4824C15.4631 11.0053 21.9468 5.09306 32.0514 2.39016L33.5602 1.98659C37.4823 0.937471 41.7322 0.381331 46.0334 0.354396L47.9748 0.342237C51.3918 0.320839 54.7959 0.557084 58.1031 1.04514L93.9951 6.34186L136.785 10.1279C145.701 10.9168 154.717 11.2794 163.745 11.2122L177.685 11.1084C189.795 11.0182 201.862 10.155 213.671 8.53407L237.422 5.27388L261.509 0.93555C269.605 -0.522558 278.326 -0.111418 285.872 2.08401C291.843 3.82137 296.756 6.58331 299.957 10.0031L300.09 10.1443C302.78 13.0187 304.199 16.2449 304.218 19.5316L304.292 32.5702L304.757 78.2145C304.814 83.8537 304.395 89.4868 303.502 95.0536L297.981 129.494C296.853 136.536 297.04 143.623 298.542 150.63L304.679 179.275C304.938 180.484 305.286 181.672 305.722 182.83L315.145 207.878C316.706 212.027 313.099 218.724 311.977 223.009C311.737 223.925 311.637 224.281 311.236 225.139L308.456 231.085C306.226 235.858 306.269 244.099 301.012 243.689C299.424 243.565 297.393 243.067 294.957 242.767C289.755 242.127 284.388 242.968 279.306 241.682C269.25 239.138 262.368 233.313 262.308 226.607L262.222 217.138C262.158 210.035 264.672 202.994 269.598 196.48C273.738 191.006 276.181 185.152 276.812 179.192L282.597 124.553Z" fill="url(#paint6_radial)"/>
<path d="M282.597 124.553L282.064 65.6527C282.018 60.6318 280.014 55.6915 276.205 51.2077C266.628 39.937 246.858 32.8906 225.266 33.0523L214.839 33.1304L173.692 33.5485L145.636 33.7586C135.542 33.8342 125.473 34.447 115.556 35.5893L94.282 38.0396L67.3981 39.4008C58.1997 39.8666 48.9742 38.8851 40.6794 36.5583L35.5741 35.1261C28.1733 33.0501 22.2449 29.5386 18.791 25.1854L18.0905 24.3025C16.397 22.1681 15.5134 19.8418 15.5 17.4824C15.4631 11.0053 21.9468 5.09306 32.0514 2.39016L33.5602 1.98659C37.4823 0.937471 41.7322 0.381331 46.0334 0.354396L47.9748 0.342237C51.3918 0.320839 54.7959 0.557084 58.1031 1.04514L93.9951 6.34186L136.785 10.1279C145.701 10.9168 154.717 11.2794 163.745 11.2122L177.685 11.1084C189.795 11.0182 201.862 10.155 213.671 8.53407L237.422 5.27388L261.509 0.93555C269.605 -0.522558 278.326 -0.111418 285.872 2.08401C291.843 3.82137 296.756 6.58331 299.957 10.0031L300.09 10.1443C302.78 13.0187 304.199 16.2449 304.218 19.5316L304.292 32.5702L304.757 78.2145C304.814 83.8537 304.395 89.4868 303.502 95.0536L297.981 129.494C296.853 136.536 297.04 143.623 298.542 150.63L304.679 179.275C304.938 180.484 305.286 181.672 305.722 182.83L315.145 207.878C316.706 212.027 313.099 218.724 311.977 223.009C311.737 223.925 311.637 224.281 311.236 225.139L308.456 231.085C306.226 235.858 306.269 244.099 301.012 243.689C299.424 243.565 297.393 243.067 294.957 242.767C289.755 242.127 284.388 242.968 279.306 241.682C269.25 239.138 262.368 233.313 262.308 226.607L262.222 217.138C262.158 210.035 264.672 202.994 269.598 196.48C273.738 191.006 276.181 185.152 276.812 179.192L282.597 124.553Z" fill="url(#paint7_radial)" fill-opacity="0.45"/>
<path d="M166.756 198.41L213.695 197.739L224.122 196.743C231.969 195.994 239.574 193.413 246.354 189.208C263.204 178.756 273.214 159.388 272.306 138.904L272.003 114.863C271.925 108.588 272.332 102.317 273.222 96.1105L276.083 76.1553C277.238 68.1023 276.249 59.8728 273.226 52.3724L271.552 48.2207C267.9 39.1606 268.141 28.8918 272.214 20.0271L272.886 18.5661C275.723 12.392 280.508 7.43302 286.433 4.52802L287.698 3.9077C290.64 2.46546 293.848 1.7193 297.095 1.7222L298.391 1.72335C306.402 1.7305 313.645 6.71087 316.835 14.406C318.95 19.5078 319.054 25.279 317.125 30.4629L314.503 37.5116C312.921 41.7624 312.055 46.268 311.943 50.828L311.702 60.6551C311.566 66.1786 310.974 71.6796 309.933 77.0967L307.258 91.0055C305.473 100.287 304.633 109.741 304.752 119.208L304.801 123.112C304.929 133.295 306.166 143.429 308.487 153.317L312.789 171.637L317.224 192.539C318.977 200.802 318.929 209.372 317.085 217.614L314.97 227.066C313.608 233.156 310.343 238.596 305.695 242.524C300.918 246.561 294.965 248.76 288.829 248.754L273.686 248.741L199.834 248.882L141.303 242.73C131.831 241.735 122.281 241.85 112.832 243.076L71.0153 248.499L49.3069 253.52C45.7383 254.346 42.0938 254.757 38.4396 254.746L28.69 254.717C22.8517 254.699 17.2214 252.449 12.8571 248.389C7.71664 243.608 4.78703 236.742 4.8139 229.539L4.81771 228.517C4.86701 215.304 13.927 204.012 26.3463 201.685L34.503 200.156C40.8186 198.973 46.719 196.046 51.5954 191.678L52.8712 190.535C59.0355 185.013 62.0881 181.31 66.1326 179.919C74.0588 177.193 82.12 183.099 89.2296 187.519C96.1166 191.8 104.09 194.013 112.205 193.897L116.884 193.83C127.028 193.685 137.08 195.412 147.097 197.001C153.593 198.031 160.168 198.504 166.756 198.41Z" fill="url(#paint8_radial)" fill-opacity="0.09"/>
<path d="M166.756 198.41L213.695 197.739L224.122 196.743C231.969 195.994 239.574 193.413 246.354 189.208C263.204 178.756 273.214 159.388 272.306 138.904L272.003 114.863C271.925 108.588 272.332 102.317 273.222 96.1105L276.083 76.1553C277.238 68.1023 276.249 59.8728 273.226 52.3724L271.552 48.2207C267.9 39.1606 268.141 28.8918 272.214 20.0271L272.886 18.5661C275.723 12.392 280.508 7.43302 286.433 4.52802L287.698 3.9077C290.64 2.46546 293.848 1.7193 297.095 1.7222L298.391 1.72335C306.402 1.7305 313.645 6.71087 316.835 14.406C318.95 19.5078 319.054 25.279 317.125 30.4629L314.503 37.5116C312.921 41.7624 312.055 46.268 311.943 50.828L311.702 60.6551C311.566 66.1786 310.974 71.6796 309.933 77.0967L307.258 91.0055C305.473 100.287 304.633 109.741 304.752 119.208L304.801 123.112C304.929 133.295 306.166 143.429 308.487 153.317L312.789 171.637L317.224 192.539C318.977 200.802 318.929 209.372 317.085 217.614L314.97 227.066C313.608 233.156 310.343 238.596 305.695 242.524C300.918 246.561 294.965 248.76 288.829 248.754L273.686 248.741L199.834 248.882L141.303 242.73C131.831 241.735 122.281 241.85 112.832 243.076L71.0153 248.499L49.3069 253.52C45.7383 254.346 42.0938 254.757 38.4396 254.746L28.69 254.717C22.8517 254.699 17.2214 252.449 12.8571 248.389C7.71664 243.608 4.78703 236.742 4.8139 229.539L4.81771 228.517C4.86701 215.304 13.927 204.012 26.3463 201.685L34.503 200.156C40.8186 198.973 46.719 196.046 51.5954 191.678L52.8712 190.535C59.0355 185.013 62.0881 181.31 66.1326 179.919C74.0588 177.193 82.12 183.099 89.2296 187.519C96.1166 191.8 104.09 194.013 112.205 193.897L116.884 193.83C127.028 193.685 137.08 195.412 147.097 197.001C153.593 198.031 160.168 198.504 166.756 198.41Z" fill="url(#paint9_linear)" fill-opacity="0.19"/>
<path d="M166.756 198.41L213.695 197.739L224.122 196.743C231.969 195.994 239.574 193.413 246.354 189.208C263.204 178.756 273.214 159.388 272.306 138.904L272.003 114.863C271.925 108.588 272.332 102.317 273.222 96.1105L276.083 76.1553C277.238 68.1023 276.249 59.8728 273.226 52.3724L271.552 48.2207C267.9 39.1606 268.141 28.8918 272.214 20.0271L272.886 18.5661C275.723 12.392 280.508 7.43302 286.433 4.52802L287.698 3.9077C290.64 2.46546 293.848 1.7193 297.095 1.7222L298.391 1.72335C306.402 1.7305 313.645 6.71087 316.835 14.406C318.95 19.5078 319.054 25.279 317.125 30.4629L314.503 37.5116C312.921 41.7624 312.055 46.268 311.943 50.828L311.702 60.6551C311.566 66.1786 310.974 71.6796 309.933 77.0967L307.258 91.0055C305.473 100.287 304.633 109.741 304.752 119.208L304.801 123.112C304.929 133.295 306.166 143.429 308.487 153.317L312.789 171.637L317.224 192.539C318.977 200.802 318.929 209.372 317.085 217.614L314.97 227.066C313.608 233.156 310.343 238.596 305.695 242.524C300.918 246.561 294.965 248.76 288.829 248.754L273.686 248.741L199.834 248.882L141.303 242.73C131.831 241.735 122.281 241.85 112.832 243.076L71.0153 248.499L49.3069 253.52C45.7383 254.346 42.0938 254.757 38.4396 254.746L28.69 254.717C22.8517 254.699 17.2214 252.449 12.8571 248.389C7.71664 243.608 4.78703 236.742 4.8139 229.539L4.81771 228.517C4.86701 215.304 13.927 204.012 26.3463 201.685L34.503 200.156C40.8186 198.973 46.719 196.046 51.5954 191.678L52.8712 190.535C59.0355 185.013 62.0881 181.31 66.1326 179.919C74.0588 177.193 82.12 183.099 89.2296 187.519C96.1166 191.8 104.09 194.013 112.205 193.897L116.884 193.83C127.028 193.685 137.08 195.412 147.097 197.001C153.593 198.031 160.168 198.504 166.756 198.41Z" fill="url(#paint10_radial)"/>
<path d="M166.756 198.41L213.695 197.739L224.122 196.743C231.969 195.994 239.574 193.413 246.354 189.208C263.204 178.756 273.214 159.388 272.306 138.904L272.003 114.863C271.925 108.588 272.332 102.317 273.222 96.1105L276.083 76.1553C277.238 68.1023 276.249 59.8728 273.226 52.3724L271.552 48.2207C267.9 39.1606 268.141 28.8918 272.214 20.0271L272.886 18.5661C275.723 12.392 280.508 7.43302 286.433 4.52802L287.698 3.9077C290.64 2.46546 293.848 1.7193 297.095 1.7222L298.391 1.72335C306.402 1.7305 313.645 6.71087 316.835 14.406C318.95 19.5078 319.054 25.279 317.125 30.4629L314.503 37.5116C312.921 41.7624 312.055 46.268 311.943 50.828L311.702 60.6551C311.566 66.1786 310.974 71.6796 309.933 77.0967L307.258 91.0055C305.473 100.287 304.633 109.741 304.752 119.208L304.801 123.112C304.929 133.295 306.166 143.429 308.487 153.317L312.789 171.637L317.224 192.539C318.977 200.802 318.929 209.372 317.085 217.614L314.97 227.066C313.608 233.156 310.343 238.596 305.695 242.524C300.918 246.561 294.965 248.76 288.829 248.754L273.686 248.741L199.834 248.882L141.303 242.73C131.831 241.735 122.281 241.85 112.832 243.076L71.0153 248.499L49.3069 253.52C45.7383 254.346 42.0938 254.757 38.4396 254.746L28.69 254.717C22.8517 254.699 17.2214 252.449 12.8571 248.389C7.71664 243.608 4.78703 236.742 4.8139 229.539L4.81771 228.517C4.86701 215.304 13.927 204.012 26.3463 201.685L34.503 200.156C40.8186 198.973 46.719 196.046 51.5954 191.678L52.8712 190.535C59.0355 185.013 62.0881 181.31 66.1326 179.919C74.0588 177.193 82.12 183.099 89.2296 187.519C96.1166 191.8 104.09 194.013 112.205 193.897L116.884 193.83C127.028 193.685 137.08 195.412 147.097 197.001C153.593 198.031 160.168 198.504 166.756 198.41Z" fill="url(#paint11_radial)" fill-opacity="0.45"/>
<path d="M267.317 108.82L271 78.3202C271.925 73.429 268.822 62.5493 267.317 57.8202C263.991 47.3731 254.372 48.1818 243.945 46.7606L235.642 45.6288C232.416 45.1891 229.151 45.1549 225.918 45.527L178.177 51.0197L176.326 51.3305C168.721 52.6074 161.022 53.1618 153.322 52.987L114.312 52.1014L75.0673 46.5959L52.283 40.1706C48.9157 39.221 45.8928 37.2477 43.5961 34.4996L41.6077 32.1204C39.9829 30.1763 39.112 27.6652 39.1665 25.0815C39.2686 20.2393 42.565 16.1183 47.099 15.1646L59.8532 12.482C61.7314 12.087 63.6453 11.9096 65.5603 11.9531L75.7931 12.1854L115.021 18.5144L174.971 19.8753L205.13 17.2046L237.602 12.522C244.296 11.5566 251.053 11.1487 257.808 11.3021L277.635 11.7522C280.986 11.8282 284.323 12.232 287.602 12.9581L298.055 15.2728C303.505 16.4796 308.384 19.6322 311.859 24.1915C315.37 28.7982 317.225 34.5501 317.1 40.4442L316.964 46.9233L316.423 80.5016C316.282 89.2906 315.314 98.0439 313.535 106.635L312.022 113.936C308.514 130.873 308.537 148.402 312.089 165.327L313.079 170.045C313.816 173.557 314.837 176.998 316.129 180.329L319.426 188.826C320.4 191.337 320.869 194.032 320.802 196.742C320.628 203.734 316.924 210.105 311.072 213.477L309.804 214.207C306.511 216.105 302.799 217.056 299.043 216.966L285.417 216.637C273.296 216.345 262.675 208.073 258.918 196.002C256.907 189.539 258.417 182.647 260.19 176.109L264.159 161.466C266.257 153.73 267.335 145.775 267.096 137.767C266.783 127.224 266.371 113.819 267.317 108.82Z" fill="url(#paint12_radial)" fill-opacity="0.09"/>
<path d="M267.317 108.82L271 78.3202C271.925 73.429 268.822 62.5493 267.317 57.8202C263.991 47.3731 254.372 48.1818 243.945 46.7606L235.642 45.6288C232.416 45.1891 229.151 45.1549 225.918 45.527L178.177 51.0197L176.326 51.3305C168.721 52.6074 161.022 53.1618 153.322 52.987L114.312 52.1014L75.0673 46.5959L52.283 40.1706C48.9157 39.221 45.8928 37.2477 43.5961 34.4996L41.6077 32.1204C39.9829 30.1763 39.112 27.6652 39.1665 25.0815C39.2686 20.2393 42.565 16.1183 47.099 15.1646L59.8532 12.482C61.7314 12.087 63.6453 11.9096 65.5603 11.9531L75.7931 12.1854L115.021 18.5144L174.971 19.8753L205.13 17.2046L237.602 12.522C244.296 11.5566 251.053 11.1487 257.808 11.3021L277.635 11.7522C280.986 11.8282 284.323 12.232 287.602 12.9581L298.055 15.2728C303.505 16.4796 308.384 19.6322 311.859 24.1915C315.37 28.7982 317.225 34.5501 317.1 40.4442L316.964 46.9233L316.423 80.5016C316.282 89.2906 315.314 98.0439 313.535 106.635L312.022 113.936C308.514 130.873 308.537 148.402 312.089 165.327L313.079 170.045C313.816 173.557 314.837 176.998 316.129 180.329L319.426 188.826C320.4 191.337 320.869 194.032 320.802 196.742C320.628 203.734 316.924 210.105 311.072 213.477L309.804 214.207C306.511 216.105 302.799 217.056 299.043 216.966L285.417 216.637C273.296 216.345 262.675 208.073 258.918 196.002C256.907 189.539 258.417 182.647 260.19 176.109L264.159 161.466C266.257 153.73 267.335 145.775 267.096 137.767C266.783 127.224 266.371 113.819 267.317 108.82Z" fill="url(#paint13_linear)" fill-opacity="0.19"/>
<path d="M267.317 108.82L271 78.3202C271.925 73.429 268.822 62.5493 267.317 57.8202C263.991 47.3731 254.372 48.1818 243.945 46.7606L235.642 45.6288C232.416 45.1891 229.151 45.1549 225.918 45.527L178.177 51.0197L176.326 51.3305C168.721 52.6074 161.022 53.1618 153.322 52.987L114.312 52.1014L75.0673 46.5959L52.283 40.1706C48.9157 39.221 45.8928 37.2477 43.5961 34.4996L41.6077 32.1204C39.9829 30.1763 39.112 27.6652 39.1665 25.0815C39.2686 20.2393 42.565 16.1183 47.099 15.1646L59.8532 12.482C61.7314 12.087 63.6453 11.9096 65.5603 11.9531L75.7931 12.1854L115.021 18.5144L174.971 19.8753L205.13 17.2046L237.602 12.522C244.296 11.5566 251.053 11.1487 257.808 11.3021L277.635 11.7522C280.986 11.8282 284.323 12.232 287.602 12.9581L298.055 15.2728C303.505 16.4796 308.384 19.6322 311.859 24.1915C315.37 28.7982 317.225 34.5501 317.1 40.4442L316.964 46.9233L316.423 80.5016C316.282 89.2906 315.314 98.0439 313.535 106.635L312.022 113.936C308.514 130.873 308.537 148.402 312.089 165.327L313.079 170.045C313.816 173.557 314.837 176.998 316.129 180.329L319.426 188.826C320.4 191.337 320.869 194.032 320.802 196.742C320.628 203.734 316.924 210.105 311.072 213.477L309.804 214.207C306.511 216.105 302.799 217.056 299.043 216.966L285.417 216.637C273.296 216.345 262.675 208.073 258.918 196.002C256.907 189.539 258.417 182.647 260.19 176.109L264.159 161.466C266.257 153.73 267.335 145.775 267.096 137.767C266.783 127.224 266.371 113.819 267.317 108.82Z" fill="url(#paint14_radial)"/>
<path d="M267.317 108.82L271 78.3202C271.925 73.429 268.822 62.5493 267.317 57.8202C263.991 47.3731 254.372 48.1818 243.945 46.7606L235.642 45.6288C232.416 45.1891 229.151 45.1549 225.918 45.527L178.177 51.0197L176.326 51.3305C168.721 52.6074 161.022 53.1618 153.322 52.987L114.312 52.1014L75.0673 46.5959L52.283 40.1706C48.9157 39.221 45.8928 37.2477 43.5961 34.4996L41.6077 32.1204C39.9829 30.1763 39.112 27.6652 39.1665 25.0815C39.2686 20.2393 42.565 16.1183 47.099 15.1646L59.8532 12.482C61.7314 12.087 63.6453 11.9096 65.5603 11.9531L75.7931 12.1854L115.021 18.5144L174.971 19.8753L205.13 17.2046L237.602 12.522C244.296 11.5566 251.053 11.1487 257.808 11.3021L277.635 11.7522C280.986 11.8282 284.323 12.232 287.602 12.9581L298.055 15.2728C303.505 16.4796 308.384 19.6322 311.859 24.1915C315.37 28.7982 317.225 34.5501 317.1 40.4442L316.964 46.9233L316.423 80.5016C316.282 89.2906 315.314 98.0439 313.535 106.635L312.022 113.936C308.514 130.873 308.537 148.402 312.089 165.327L313.079 170.045C313.816 173.557 314.837 176.998 316.129 180.329L319.426 188.826C320.4 191.337 320.869 194.032 320.802 196.742C320.628 203.734 316.924 210.105 311.072 213.477L309.804 214.207C306.511 216.105 302.799 217.056 299.043 216.966L285.417 216.637C273.296 216.345 262.675 208.073 258.918 196.002C256.907 189.539 258.417 182.647 260.19 176.109L264.159 161.466C266.257 153.73 267.335 145.775 267.096 137.767C266.783 127.224 266.371 113.819 267.317 108.82Z" fill="url(#paint15_radial)" fill-opacity="0.45"/>
<path d="M74.3779 102.963C73.8695 106.813 73.4766 110.68 73.4772 114.562C73.4779 119.469 72.7039 124.339 72.0659 129.206C69.2887 150.387 76.9078 173.715 78.1255 178.292C81.4087 190.63 72.8296 198.641 85.0406 200.771L89.3806 201.528C94.5635 202.432 99.8709 202.237 104.98 200.955L111.647 199.283C119.344 197.352 127.295 196.744 135.181 197.482L168.708 200.621C176.445 201.345 184.229 201.389 191.975 200.752L205.001 199.681C216.444 198.74 227.956 199.286 239.265 201.307L256.997 204.475C261.713 205.318 266.361 206.498 270.905 208.008L287.738 213.598C291.648 214.896 295.078 217.402 297.566 220.778L299.404 223.272C301.095 225.566 301.943 228.405 301.8 231.286C301.52 236.912 297.548 241.611 292.19 242.655L279.465 245.135C277.267 245.563 275.028 245.721 272.795 245.603L267.361 245.318C263.872 245.135 260.4 244.697 256.971 244.006L229.88 238.55C223.516 237.269 217.072 236.455 210.595 236.115L156.157 233.259L123.762 235.399L89.6891 239.661C81.9104 240.634 74.0658 240.917 66.2413 240.506L46.108 239.45C42.3951 239.255 38.711 238.674 35.1115 237.715L25.036 235.031C18.6915 233.342 13.148 229.351 9.41638 223.787C5.97704 218.659 4.27999 212.497 4.59061 206.264L4.99952 198.058L6.82839 157.549C7.21717 148.937 8.36507 140.38 10.2578 131.983L12.8914 120.299C17.0405 101.892 17.5878 82.8158 14.5008 64.1921L13.3856 57.4637C12.7173 53.4317 11.7393 49.4613 10.4609 45.5902L7.21557 35.7625C6.26851 32.8946 5.86464 29.8648 6.026 26.8383C6.45758 18.7434 10.8766 11.44 17.7314 7.49224L18.002 7.33639C21.852 5.11918 26.2284 4.06889 30.6284 4.30632L42.5966 4.95224C56.7116 5.71392 68.7422 15.7764 72.4022 29.8819C74.1839 36.7489 74.1549 43.993 75.517 50.9561L75.7872 52.3373C77.3288 60.2177 77.8777 68.2586 77.1715 76.2612C76.4039 84.9608 75.3147 95.8696 74.3779 102.963Z" stroke="#FF97FB" stroke-opacity="0.09" stroke-width="2" mask="url(#path-1-inside-1)"/>
<path d="M282.597 124.553L282.064 65.6527C282.018 60.6318 280.014 55.6915 276.205 51.2077C266.628 39.937 246.858 32.8906 225.266 33.0523L214.839 33.1304L173.692 33.5485L145.636 33.7586C135.542 33.8342 125.473 34.447 115.556 35.5893L94.282 38.0396L67.3981 39.4008C58.1997 39.8666 48.9742 38.8851 40.6794 36.5583L35.5741 35.1261C28.1733 33.0501 22.2449 29.5386 18.791 25.1854L18.0905 24.3025C16.397 22.1681 15.5134 19.8418 15.5 17.4824C15.4631 11.0053 21.9468 5.09306 32.0514 2.39016L33.5602 1.98659C37.4823 0.937471 41.7322 0.381331 46.0334 0.354396L47.9748 0.342237C51.3918 0.320839 54.7959 0.557084 58.1031 1.04514L93.9951 6.34186L136.785 10.1279C145.701 10.9168 154.717 11.2794 163.745 11.2122L177.685 11.1084C189.795 11.0182 201.862 10.155 213.671 8.53407L237.422 5.27388L261.509 0.93555C269.605 -0.522558 278.326 -0.111418 285.872 2.08401C291.843 3.82137 296.756 6.58331 299.957 10.0031L300.09 10.1443C302.78 13.0187 304.199 16.2449 304.218 19.5316L304.292 32.5702L304.757 78.2145C304.814 83.8537 304.395 89.4868 303.502 95.0536L297.981 129.494C296.853 136.536 297.04 143.623 298.542 150.63L304.679 179.275C304.938 180.484 305.286 181.672 305.722 182.83L315.145 207.878C316.706 212.027 313.099 218.724 311.977 223.009C311.737 223.925 311.637 224.281 311.236 225.139L308.456 231.085C306.226 235.858 306.269 244.099 301.012 243.689C299.424 243.565 297.393 243.067 294.957 242.767C289.755 242.127 284.388 242.968 279.306 241.682C269.25 239.138 262.368 233.313 262.308 226.607L262.222 217.138C262.158 210.035 264.672 202.994 269.598 196.48C273.738 191.006 276.181 185.152 276.812 179.192L282.597 124.553Z" stroke="#FF97FB" stroke-opacity="0.09" stroke-width="2" mask="url(#path-1-inside-1)"/>
<path d="M166.756 198.41L213.695 197.739L224.122 196.743C231.969 195.994 239.574 193.413 246.354 189.208C263.204 178.756 273.214 159.388 272.306 138.904L272.003 114.863C271.925 108.588 272.332 102.317 273.222 96.1105L276.083 76.1553C277.238 68.1023 276.249 59.8728 273.226 52.3724L271.552 48.2207C267.9 39.1606 268.141 28.8918 272.214 20.0271L272.886 18.5661C275.723 12.392 280.508 7.43302 286.433 4.52802L287.698 3.9077C290.64 2.46546 293.848 1.7193 297.095 1.7222L298.391 1.72335C306.402 1.7305 313.645 6.71087 316.835 14.406C318.95 19.5078 319.054 25.279 317.125 30.4629L314.503 37.5116C312.921 41.7624 312.055 46.268 311.943 50.828L311.702 60.6551C311.566 66.1786 310.974 71.6796 309.933 77.0967L307.258 91.0055C305.473 100.287 304.633 109.741 304.752 119.208L304.801 123.112C304.929 133.295 306.166 143.429 308.487 153.317L312.789 171.637L317.224 192.539C318.977 200.802 318.929 209.372 317.085 217.614L314.97 227.066C313.608 233.156 310.343 238.596 305.695 242.524C300.918 246.561 294.965 248.76 288.829 248.754L273.686 248.741L199.834 248.882L141.303 242.73C131.831 241.735 122.281 241.85 112.832 243.076L71.0153 248.499L49.3069 253.52C45.7383 254.346 42.0938 254.757 38.4396 254.746L28.69 254.717C22.8517 254.699 17.2214 252.449 12.8571 248.389C7.71664 243.608 4.78703 236.742 4.8139 229.539L4.81771 228.517C4.86701 215.304 13.927 204.012 26.3463 201.685L34.503 200.156C40.8186 198.973 46.719 196.046 51.5954 191.678L52.8712 190.535C59.0355 185.013 62.0881 181.31 66.1326 179.919C74.0588 177.193 82.12 183.099 89.2296 187.519C96.1166 191.8 104.09 194.013 112.205 193.897L116.884 193.83C127.028 193.685 137.08 195.412 147.097 197.001C153.593 198.031 160.168 198.504 166.756 198.41Z" stroke="#FF97FB" stroke-opacity="0.09" stroke-width="2" mask="url(#path-1-inside-1)"/>
<path d="M267.317 108.82L271 78.3202C271.925 73.429 268.822 62.5493 267.317 57.8202C263.991 47.3731 254.372 48.1818 243.945 46.7606L235.642 45.6288C232.416 45.1891 229.151 45.1549 225.918 45.527L178.177 51.0197L176.326 51.3305C168.721 52.6074 161.022 53.1618 153.322 52.987L114.312 52.1014L75.0673 46.5959L52.283 40.1706C48.9157 39.221 45.8928 37.2477 43.5961 34.4996L41.6077 32.1204C39.9829 30.1763 39.112 27.6652 39.1665 25.0815C39.2686 20.2393 42.565 16.1183 47.099 15.1646L59.8532 12.482C61.7314 12.087 63.6453 11.9096 65.5603 11.9531L75.7931 12.1854L115.021 18.5144L174.971 19.8753L205.13 17.2046L237.602 12.522C244.296 11.5566 251.053 11.1487 257.808 11.3021L277.635 11.7522C280.986 11.8282 284.323 12.232 287.602 12.9581L298.055 15.2728C303.505 16.4796 308.384 19.6322 311.859 24.1915C315.37 28.7982 317.225 34.5501 317.1 40.4442L316.964 46.9233L316.423 80.5016C316.282 89.2906 315.314 98.0439 313.535 106.635L312.022 113.936C308.514 130.873 308.537 148.402 312.089 165.327L313.079 170.045C313.816 173.557 314.837 176.998 316.129 180.329L319.426 188.826C320.4 191.337 320.869 194.032 320.802 196.742C320.628 203.734 316.924 210.105 311.072 213.477L309.804 214.207C306.511 216.105 302.799 217.056 299.043 216.966L285.417 216.637C273.296 216.345 262.675 208.073 258.918 196.002C256.907 189.539 258.417 182.647 260.19 176.109L264.159 161.466C266.257 153.73 267.335 145.775 267.096 137.767C266.783 127.224 266.371 113.819 267.317 108.82Z" stroke="#FF97FB" stroke-opacity="0.09" stroke-width="2" mask="url(#path-1-inside-1)"/>
</g>
<defs>
<filter id="filter0_d" x="0.554443" y="0.0773926" width="324.253" height="262.668" filterUnits="userSpaceOnUse" color-interpolation-filters="sRGB">
<feFlood flood-opacity="0" result="BackgroundImageFix"/>
<feColorMatrix in="SourceAlpha" type="matrix" values="0 0 0 0 0 0 0 0 0 0 0 0 0 0 0 0 0 0 127 0"/>
<feOffset dy="4"/>
<feGaussianBlur stdDeviation="2"/>
<feColorMatrix type="matrix" values="0 0 0 0 0.4625 0 0 0 0 0.4625 0 0 0 0 0.4625 0 0 0 0.09 0"/>
<feBlend mode="normal" in2="BackgroundImageFix" result="effect1_dropShadow"/>
<feBlend mode="normal" in="SourceGraphic" in2="effect1_dropShadow" result="shape"/>
</filter>
<radialGradient id="paint0_radial" cx="0" cy="0" r="1" gradientUnits="userSpaceOnUse" gradientTransform="translate(101.391 235.357) rotate(89.2916) scale(33.1255 29.8883)">
<stop stop-color="#A1FF80" stop-opacity="0.59"/>
<stop offset="1" stop-color="#68FF0C" stop-opacity="0"/>
</radialGradient>
<linearGradient id="paint1_linear" x1="100.982" y1="202.234" x2="101.914" y2="268.479" gradientUnits="userSpaceOnUse">
<stop stop-color="#FFEBCC"/>
<stop offset="1" stop-color="white" stop-opacity="0"/>
</linearGradient>
<radialGradient id="paint2_radial" cx="0" cy="0" r="1" gradientUnits="userSpaceOnUse" gradientTransform="translate(101.391 235.357) rotate(89.2916) scale(33.1255 29.8883)">
<stop stop-color="#68FF0C" stop-opacity="0.33"/>
<stop offset="1" stop-color="white" stop-opacity="0"/>
</radialGradient>
<radialGradient id="paint3_radial" cx="0" cy="0" r="1" gradientUnits="userSpaceOnUse" gradientTransform="translate(101.391 235.357) rotate(89.2916) scale(33.1255 29.8883)">
<stop stop-color="#68FF0C"/>
<stop offset="0.432292" stop-color="#77E875" stop-opacity="0.23"/>
</radialGradient>
<radialGradient id="paint4_radial" cx="0" cy="0" r="1" gradientUnits="userSpaceOnUse" gradientTransform="translate(101.391 235.357) rotate(89.2916) scale(33.1255 29.8883)">
<stop stop-color="#A1FF80" stop-opacity="0.59"/>
<stop offset="1" stop-color="#68FF0C" stop-opacity="0"/>
</radialGradient>
<linearGradient id="paint5_linear" x1="100.982" y1="202.234" x2="101.914" y2="268.479" gradientUnits="userSpaceOnUse">
<stop stop-color="#FFEBCC"/>
<stop offset="1" stop-color="white" stop-opacity="0"/>
</linearGradient>
<radialGradient id="paint6_radial" cx="0" cy="0" r="1" gradientUnits="userSpaceOnUse" gradientTransform="translate(101.391 235.357) rotate(89.2916) scale(33.1255 29.8883)">
<stop stop-color="#68FF0C" stop-opacity="0.33"/>
<stop offset="1" stop-color="white" stop-opacity="0"/>
</radialGradient>
<radialGradient id="paint7_radial" cx="0" cy="0" r="1" gradientUnits="userSpaceOnUse" gradientTransform="translate(101.391 235.357) rotate(89.2916) scale(33.1255 29.8883)">
<stop stop-color="#68FF0C"/>
<stop offset="0.432292" stop-color="#77E875" stop-opacity="0.23"/>
</radialGradient>
<radialGradient id="paint8_radial" cx="0" cy="0" r="1" gradientUnits="userSpaceOnUse" gradientTransform="translate(101.391 235.357) rotate(89.2916) scale(33.1255 29.8883)">
<stop stop-color="#A1FF80" stop-opacity="0.59"/>
<stop offset="1" stop-color="#68FF0C" stop-opacity="0"/>
</radialGradient>
<linearGradient id="paint9_linear" x1="100.982" y1="202.234" x2="101.914" y2="268.479" gradientUnits="userSpaceOnUse">
<stop stop-color="#FFEBCC"/>
<stop offset="1" stop-color="white" stop-opacity="0"/>
</linearGradient>
<radialGradient id="paint10_radial" cx="0" cy="0" r="1" gradientUnits="userSpaceOnUse" gradientTransform="translate(101.391 235.357) rotate(89.2916) scale(33.1255 29.8883)">
<stop stop-color="#68FF0C" stop-opacity="0.33"/>
<stop offset="1" stop-color="white" stop-opacity="0"/>
</radialGradient>
<radialGradient id="paint11_radial" cx="0" cy="0" r="1" gradientUnits="userSpaceOnUse" gradientTransform="translate(101.391 235.357) rotate(89.2916) scale(33.1255 29.8883)">
<stop stop-color="#68FF0C"/>
<stop offset="0.432292" stop-color="#77E875" stop-opacity="0.23"/>
</radialGradient>
<radialGradient id="paint12_radial" cx="0" cy="0" r="1" gradientUnits="userSpaceOnUse" gradientTransform="translate(101.391 235.357) rotate(89.2916) scale(33.1255 29.8883)">
<stop stop-color="#A1FF80" stop-opacity="0.59"/>
<stop offset="1" stop-color="#68FF0C" stop-opacity="0"/>
</radialGradient>
<linearGradient id="paint13_linear" x1="100.982" y1="202.234" x2="101.914" y2="268.479" gradientUnits="userSpaceOnUse">
<stop stop-color="#FFEBCC"/>
<stop offset="1" stop-color="white" stop-opacity="0"/>
</linearGradient>
<radialGradient id="paint14_radial" cx="0" cy="0" r="1" gradientUnits="userSpaceOnUse" gradientTransform="translate(101.391 235.357) rotate(89.2916) scale(33.1255 29.8883)">
<stop stop-color="#68FF0C" stop-opacity="0.33"/>
<stop offset="1" stop-color="white" stop-opacity="0"/>
</radialGradient>
<radialGradient id="paint15_radial" cx="0" cy="0" r="1" gradientUnits="userSpaceOnUse" gradientTransform="translate(101.391 235.357) rotate(89.2916) scale(33.1255 29.8883)">
<stop stop-color="#68FF0C"/>
<stop offset="0.432292" stop-color="#77E875" stop-opacity="0.23"/>
</radialGradient>
</defs>
</svg>
