<svg width="325" height="265" viewBox="0 0 325 265" fill="none" xmlns="http://www.w3.org/2000/svg">
<g filter="url(#filter0_d)">
<path d="M74.3778 104.963C73.8694 108.813 73.4765 112.68 73.4771 116.562V116.562C73.4778 121.469 72.7038 126.339 72.0658 131.205C69.2885 152.387 76.9076 175.715 78.1254 180.292C81.4086 192.63 72.8295 200.641 85.0405 202.771L89.3805 203.528C94.5634 204.431 99.8708 204.237 104.98 202.955L111.647 201.283C119.344 199.352 127.295 198.744 135.181 199.482L168.707 202.621C176.445 203.345 184.229 203.389 191.975 202.752L205.001 201.681C216.444 200.739 227.955 201.286 239.265 203.307L256.997 206.475C261.712 207.318 266.36 208.498 270.905 210.008L287.738 215.598C291.648 216.896 295.078 219.402 297.566 222.778L299.404 225.272C301.094 227.566 301.943 230.405 301.8 233.286C301.519 238.912 297.548 243.611 292.19 244.655L279.465 247.135C277.267 247.563 275.028 247.72 272.795 247.603L267.361 247.318C263.872 247.135 260.4 246.697 256.971 246.006L229.88 240.55C223.516 239.269 217.072 238.455 210.595 238.115L156.157 235.259L123.762 237.399L89.689 241.661C81.9103 242.634 74.0657 242.917 66.2412 242.506L46.1079 241.45C42.395 241.255 38.7109 240.674 35.1114 239.715L25.0359 237.031C18.6914 235.341 13.1479 231.351 9.41627 225.787C5.97692 220.659 4.27988 214.497 4.5905 208.264L4.99941 200.058L6.82828 159.548C7.21706 150.937 8.36496 142.38 10.2577 133.983L12.8912 122.299C17.0404 103.892 17.5876 84.8157 14.5007 66.192L13.3855 59.4636C12.7172 55.4316 11.7392 51.4612 10.4608 47.5901L7.21546 37.7624C6.2684 34.8945 5.86453 31.8647 6.02589 28.8382C6.45747 20.7433 10.8765 13.4399 17.7313 9.49213L18.0019 9.33628C21.8518 7.11907 26.2283 6.06878 30.6283 6.30621L42.5964 6.95214C56.7115 7.71382 68.7421 17.7763 72.4021 31.8818V31.8818C74.1838 38.7488 74.1548 45.9929 75.5169 52.9559L75.7871 54.3372C77.3287 62.2176 77.8776 70.2585 77.1714 78.261C76.4038 86.9607 75.3146 97.8695 74.3778 104.963Z" fill="url(#paint0_linear)" fill-opacity="0.27"/>
<path d="M74.3778 104.963C73.8694 108.813 73.4765 112.68 73.4771 116.562V116.562C73.4778 121.469 72.7038 126.339 72.0658 131.205C69.2885 152.387 76.9076 175.715 78.1254 180.292C81.4086 192.63 72.8295 200.641 85.0405 202.771L89.3805 203.528C94.5634 204.431 99.8708 204.237 104.98 202.955L111.647 201.283C119.344 199.352 127.295 198.744 135.181 199.482L168.707 202.621C176.445 203.345 184.229 203.389 191.975 202.752L205.001 201.681C216.444 200.739 227.955 201.286 239.265 203.307L256.997 206.475C261.712 207.318 266.36 208.498 270.905 210.008L287.738 215.598C291.648 216.896 295.078 219.402 297.566 222.778L299.404 225.272C301.094 227.566 301.943 230.405 301.8 233.286C301.519 238.912 297.548 243.611 292.19 244.655L279.465 247.135C277.267 247.563 275.028 247.72 272.795 247.603L267.361 247.318C263.872 247.135 260.4 246.697 256.971 246.006L229.88 240.55C223.516 239.269 217.072 238.455 210.595 238.115L156.157 235.259L123.762 237.399L89.689 241.661C81.9103 242.634 74.0657 242.917 66.2412 242.506L46.1079 241.45C42.395 241.255 38.7109 240.674 35.1114 239.715L25.0359 237.031C18.6914 235.341 13.1479 231.351 9.41627 225.787C5.97692 220.659 4.27988 214.497 4.5905 208.264L4.99941 200.058L6.82828 159.548C7.21706 150.937 8.36496 142.38 10.2577 133.983L12.8912 122.299C17.0404 103.892 17.5876 84.8157 14.5007 66.192L13.3855 59.4636C12.7172 55.4316 11.7392 51.4612 10.4608 47.5901L7.21546 37.7624C6.2684 34.8945 5.86453 31.8647 6.02589 28.8382C6.45747 20.7433 10.8765 13.4399 17.7313 9.49213L18.0019 9.33628C21.8518 7.11907 26.2283 6.06878 30.6283 6.30621L42.5964 6.95214C56.7115 7.71382 68.7421 17.7763 72.4021 31.8818V31.8818C74.1838 38.7488 74.1548 45.9929 75.5169 52.9559L75.7871 54.3372C77.3287 62.2176 77.8776 70.2585 77.1714 78.261C76.4038 86.9607 75.3146 97.8695 74.3778 104.963Z" fill="url(#paint1_linear)" fill-opacity="0.19"/>
<path d="M42.5686 7.45142L42.5964 6.95214L42.5686 7.45142C56.4574 8.20089 68.3104 18.1041 71.9181 32.0082C72.799 35.4033 73.2342 38.8991 73.6198 42.4379C73.6703 42.9013 73.72 43.3655 73.7697 43.8304C74.0985 46.905 74.4301 50.0057 75.0262 53.0528L75.2964 54.434C76.83 62.2737 77.375 70.2673 76.6734 78.2179C75.9059 86.9156 74.8174 97.8158 73.8821 104.898C73.3726 108.756 72.9765 112.648 72.9771 116.563C72.9777 120.707 72.4212 124.824 71.8602 128.973C71.7627 129.694 71.665 130.417 71.57 131.141C69.0395 150.442 75.088 171.498 77.1449 178.658C77.3583 179.401 77.5288 179.995 77.6422 180.421C78.865 185.016 78.4121 188.953 78.0273 192.299C77.904 193.37 77.7877 194.381 77.7358 195.333C77.6303 197.266 77.7954 199.01 78.8749 200.402C79.9526 201.791 81.8562 202.723 84.9538 203.263L89.2937 204.02C94.5457 204.936 99.9238 204.739 105.101 203.44L111.768 201.768C119.41 199.851 127.304 199.247 135.134 199.98L168.66 203.119C176.427 203.846 184.24 203.89 192.015 203.25L205.041 202.179C216.441 201.241 227.909 201.786 239.176 203.799L256.908 206.967C261.6 207.806 266.225 208.98 270.747 210.482L287.58 216.072C291.39 217.338 294.735 219.78 297.163 223.075L299.001 225.569C300.623 227.769 301.438 230.495 301.3 233.262C301.031 238.668 297.217 243.166 292.095 244.164L279.37 246.644C277.213 247.065 275.014 247.219 272.822 247.104L267.388 246.819C263.923 246.637 260.475 246.202 257.071 245.516L229.98 240.06C223.592 238.774 217.123 237.957 210.622 237.616L156.184 234.759L156.155 234.758L156.125 234.76L123.73 236.9L123.715 236.901L123.701 236.903L89.6278 241.165C81.8783 242.134 74.0633 242.416 66.2683 242.007L46.1349 240.951C42.4568 240.758 38.807 240.182 35.2409 239.232L25.1654 236.548C18.9405 234.89 13.4974 230.974 9.83165 225.508C6.45283 220.47 4.78455 214.415 5.08987 208.288L5.49878 200.082L5.49889 200.08L7.32776 159.57C7.71521 150.988 8.85919 142.46 10.7455 134.092L13.379 122.408C17.5424 103.938 18.0914 84.7967 14.994 66.1094L13.8787 59.381C13.2062 55.3236 12.2221 51.3282 10.9356 47.4325L7.69026 37.6049C6.76274 34.7962 6.36711 31.8285 6.52517 28.8639C6.94799 20.9332 11.2769 13.7858 17.9803 9.92532L17.9803 9.9253L18.2508 9.76947C22.0175 7.60023 26.2979 6.57332 30.6005 6.8055L42.5686 7.45142Z" stroke="#FF97FB" stroke-opacity="0.09"/>
</g>
<g filter="url(#filter1_d)">
<path d="M282.597 126.552L282.064 67.6526C282.018 62.6317 280.014 57.6914 276.204 53.2076C266.628 41.9369 246.858 34.8905 225.265 35.0522L214.839 35.1303L173.692 35.5484L145.636 35.7585C135.542 35.8341 125.473 36.4469 115.555 37.5892L94.2819 40.0395L67.398 41.4007C58.1996 41.8665 48.974 40.885 40.6793 38.5581L35.574 37.126C28.1732 35.05 22.2448 31.5385 18.7909 27.1852L18.0904 26.3024C16.3969 24.168 15.5133 21.8417 15.4999 19.4823C15.4629 13.0052 21.9467 7.09296 32.0513 4.39006L33.5601 3.98648C37.4822 2.93736 41.7321 2.38123 46.0333 2.35429L47.9747 2.34213C51.3917 2.32073 54.7958 2.55698 58.103 3.04503L93.995 8.34176L136.785 12.1278C145.701 12.9167 154.717 13.2793 163.745 13.2121L177.685 13.1083C189.795 13.0181 201.862 12.1549 213.671 10.534L237.422 7.27377L261.509 2.93544C269.605 1.47734 278.326 1.88848 285.872 4.0839C291.843 5.82126 296.756 8.5832 299.957 12.003L300.089 12.1442C302.78 15.0186 304.199 18.2448 304.218 21.5315L304.292 34.5701L304.757 80.2144C304.814 85.8536 304.395 91.4867 303.502 97.0535L297.981 131.493C296.852 138.535 297.04 145.623 298.541 152.63L304.679 181.275C304.938 182.484 305.286 183.672 305.722 184.83L315.145 209.877C316.706 214.027 313.098 220.724 311.977 225.008V225.008C311.737 225.925 311.637 226.281 311.236 227.139L308.456 233.085C306.226 237.858 306.269 246.099 301.012 245.689C299.424 245.565 297.393 245.066 294.957 244.767C289.755 244.127 284.388 244.968 279.306 243.682C269.25 241.138 262.368 235.313 262.308 228.607L262.222 219.137C262.158 212.035 264.672 204.994 269.598 198.48C273.738 193.006 276.181 187.152 276.812 181.192L282.597 126.552Z" fill="url(#paint2_radial)" fill-opacity="0.9"/>
<path d="M282.597 126.552L282.064 67.6526C282.018 62.6317 280.014 57.6914 276.204 53.2076C266.628 41.9369 246.858 34.8905 225.265 35.0522L214.839 35.1303L173.692 35.5484L145.636 35.7585C135.542 35.8341 125.473 36.4469 115.555 37.5892L94.2819 40.0395L67.398 41.4007C58.1996 41.8665 48.974 40.885 40.6793 38.5581L35.574 37.126C28.1732 35.05 22.2448 31.5385 18.7909 27.1852L18.0904 26.3024C16.3969 24.168 15.5133 21.8417 15.4999 19.4823C15.4629 13.0052 21.9467 7.09296 32.0513 4.39006L33.5601 3.98648C37.4822 2.93736 41.7321 2.38123 46.0333 2.35429L47.9747 2.34213C51.3917 2.32073 54.7958 2.55698 58.103 3.04503L93.995 8.34176L136.785 12.1278C145.701 12.9167 154.717 13.2793 163.745 13.2121L177.685 13.1083C189.795 13.0181 201.862 12.1549 213.671 10.534L237.422 7.27377L261.509 2.93544C269.605 1.47734 278.326 1.88848 285.872 4.0839C291.843 5.82126 296.756 8.5832 299.957 12.003L300.089 12.1442C302.78 15.0186 304.199 18.2448 304.218 21.5315L304.292 34.5701L304.757 80.2144C304.814 85.8536 304.395 91.4867 303.502 97.0535L297.981 131.493C296.852 138.535 297.04 145.623 298.541 152.63L304.679 181.275C304.938 182.484 305.286 183.672 305.722 184.83L315.145 209.877C316.706 214.027 313.098 220.724 311.977 225.008V225.008C311.737 225.925 311.637 226.281 311.236 227.139L308.456 233.085C306.226 237.858 306.269 246.099 301.012 245.689C299.424 245.565 297.393 245.066 294.957 244.767C289.755 244.127 284.388 244.968 279.306 243.682C269.25 241.138 262.368 235.313 262.308 228.607L262.222 219.137C262.158 212.035 264.672 204.994 269.598 198.48C273.738 193.006 276.181 187.152 276.812 181.192L282.597 126.552Z" fill="url(#paint3_linear)"/>
<path d="M282.597 126.552L282.064 67.6526C282.018 62.6317 280.014 57.6914 276.204 53.2076C266.628 41.9369 246.858 34.8905 225.265 35.0522L214.839 35.1303L173.692 35.5484L145.636 35.7585C135.542 35.8341 125.473 36.4469 115.555 37.5892L94.2819 40.0395L67.398 41.4007C58.1996 41.8665 48.974 40.885 40.6793 38.5581L35.574 37.126C28.1732 35.05 22.2448 31.5385 18.7909 27.1852L18.0904 26.3024C16.3969 24.168 15.5133 21.8417 15.4999 19.4823C15.4629 13.0052 21.9467 7.09296 32.0513 4.39006L33.5601 3.98648C37.4822 2.93736 41.7321 2.38123 46.0333 2.35429L47.9747 2.34213C51.3917 2.32073 54.7958 2.55698 58.103 3.04503L93.995 8.34176L136.785 12.1278C145.701 12.9167 154.717 13.2793 163.745 13.2121L177.685 13.1083C189.795 13.0181 201.862 12.1549 213.671 10.534L237.422 7.27377L261.509 2.93544C269.605 1.47734 278.326 1.88848 285.872 4.0839C291.843 5.82126 296.756 8.5832 299.957 12.003L300.089 12.1442C302.78 15.0186 304.199 18.2448 304.218 21.5315L304.292 34.5701L304.757 80.2144C304.814 85.8536 304.395 91.4867 303.502 97.0535L297.981 131.493C296.852 138.535 297.04 145.623 298.541 152.63L304.679 181.275C304.938 182.484 305.286 183.672 305.722 184.83L315.145 209.877C316.706 214.027 313.098 220.724 311.977 225.008V225.008C311.737 225.925 311.637 226.281 311.236 227.139L308.456 233.085C306.226 237.858 306.269 246.099 301.012 245.689C299.424 245.565 297.393 245.066 294.957 244.767C289.755 244.127 284.388 244.968 279.306 243.682C269.25 241.138 262.368 235.313 262.308 228.607L262.222 219.137C262.158 212.035 264.672 204.994 269.598 198.48C273.738 193.006 276.181 187.152 276.812 181.192L282.597 126.552Z" fill="url(#paint4_radial)" fill-opacity="0.45"/>
<path d="M282.597 126.552L282.064 67.6526C282.018 62.6317 280.014 57.6914 276.204 53.2076C266.628 41.9369 246.858 34.8905 225.265 35.0522L214.839 35.1303L173.692 35.5484L145.636 35.7585C135.542 35.8341 125.473 36.4469 115.555 37.5892L94.2819 40.0395L67.398 41.4007C58.1996 41.8665 48.974 40.885 40.6793 38.5581L35.574 37.126C28.1732 35.05 22.2448 31.5385 18.7909 27.1852L18.0904 26.3024C16.3969 24.168 15.5133 21.8417 15.4999 19.4823C15.4629 13.0052 21.9467 7.09296 32.0513 4.39006L33.5601 3.98648C37.4822 2.93736 41.7321 2.38123 46.0333 2.35429L47.9747 2.34213C51.3917 2.32073 54.7958 2.55698 58.103 3.04503L93.995 8.34176L136.785 12.1278C145.701 12.9167 154.717 13.2793 163.745 13.2121L177.685 13.1083C189.795 13.0181 201.862 12.1549 213.671 10.534L237.422 7.27377L261.509 2.93544C269.605 1.47734 278.326 1.88848 285.872 4.0839C291.843 5.82126 296.756 8.5832 299.957 12.003L300.089 12.1442C302.78 15.0186 304.199 18.2448 304.218 21.5315L304.292 34.5701L304.757 80.2144C304.814 85.8536 304.395 91.4867 303.502 97.0535L297.981 131.493C296.852 138.535 297.04 145.623 298.541 152.63L304.679 181.275C304.938 182.484 305.286 183.672 305.722 184.83L315.145 209.877C316.706 214.027 313.098 220.724 311.977 225.008V225.008C311.737 225.925 311.637 226.281 311.236 227.139L308.456 233.085C306.226 237.858 306.269 246.099 301.012 245.689C299.424 245.565 297.393 245.066 294.957 244.767C289.755 244.127 284.388 244.968 279.306 243.682C269.25 241.138 262.368 235.313 262.308 228.607L262.222 219.137C262.158 212.035 264.672 204.994 269.598 198.48C273.738 193.006 276.181 187.152 276.812 181.192L282.597 126.552Z" fill="url(#paint5_linear)" fill-opacity="0.6"/>
<path d="M282.597 126.552L282.064 67.6526C282.018 62.6317 280.014 57.6914 276.204 53.2076C266.628 41.9369 246.858 34.8905 225.265 35.0522L214.839 35.1303L173.692 35.5484L145.636 35.7585C135.542 35.8341 125.473 36.4469 115.555 37.5892L94.2819 40.0395L67.398 41.4007C58.1996 41.8665 48.974 40.885 40.6793 38.5581L35.574 37.126C28.1732 35.05 22.2448 31.5385 18.7909 27.1852L18.0904 26.3024C16.3969 24.168 15.5133 21.8417 15.4999 19.4823C15.4629 13.0052 21.9467 7.09296 32.0513 4.39006L33.5601 3.98648C37.4822 2.93736 41.7321 2.38123 46.0333 2.35429L47.9747 2.34213C51.3917 2.32073 54.7958 2.55698 58.103 3.04503L93.995 8.34176L136.785 12.1278C145.701 12.9167 154.717 13.2793 163.745 13.2121L177.685 13.1083C189.795 13.0181 201.862 12.1549 213.671 10.534L237.422 7.27377L261.509 2.93544C269.605 1.47734 278.326 1.88848 285.872 4.0839C291.843 5.82126 296.756 8.5832 299.957 12.003L300.089 12.1442C302.78 15.0186 304.199 18.2448 304.218 21.5315L304.292 34.5701L304.757 80.2144C304.814 85.8536 304.395 91.4867 303.502 97.0535L297.981 131.493C296.852 138.535 297.04 145.623 298.541 152.63L304.679 181.275C304.938 182.484 305.286 183.672 305.722 184.83L315.145 209.877C316.706 214.027 313.098 220.724 311.977 225.008V225.008C311.737 225.925 311.637 226.281 311.236 227.139L308.456 233.085C306.226 237.858 306.269 246.099 301.012 245.689C299.424 245.565 297.393 245.066 294.957 244.767C289.755 244.127 284.388 244.968 279.306 243.682C269.25 241.138 262.368 235.313 262.308 228.607L262.222 219.137C262.158 212.035 264.672 204.994 269.598 198.48C273.738 193.006 276.181 187.152 276.812 181.192L282.597 126.552Z" fill="url(#paint6_linear)"/>
<path d="M283.094 126.606L283.097 126.578L283.097 126.549L282.564 67.649C282.517 62.4914 280.457 57.4414 276.585 52.8842C266.875 41.4561 246.931 34.3899 225.261 34.5522L214.834 34.6303L214.833 34.6303L173.688 35.0484L173.686 35.0484L145.631 35.2585C135.519 35.3343 125.433 35.9481 115.497 37.0925L94.2397 39.5409L67.3718 40.9014C58.2238 41.3646 49.0526 40.388 40.8136 38.0768L35.7083 36.6446C28.371 34.5864 22.5498 31.1191 19.1824 26.8749L18.4819 25.9921C16.8468 23.9313 16.0126 21.711 15.9999 19.4803C15.9824 16.4205 17.5036 13.4493 20.3098 10.8906C23.1167 8.33107 27.1864 6.20917 32.1813 4.87308L33.6901 4.46951C37.5687 3.43201 41.7761 2.88096 46.0373 2.85427L47.9787 2.84211C51.3708 2.82087 54.7494 3.05541 58.0308 3.53966L93.9228 8.83639L93.9373 8.83852L93.9518 8.8398L136.742 12.6258C145.674 13.4161 154.706 13.7794 163.749 13.712L177.689 13.6082C189.821 13.5179 201.909 12.6532 213.739 11.0293L237.491 7.76912L237.501 7.7677L237.511 7.76585L261.598 3.42752C269.622 1.98244 278.265 2.39116 285.733 4.56397C291.645 6.28421 296.47 9.00839 299.592 12.3443L299.725 12.4856L299.725 12.4856C302.347 15.2871 303.7 18.3969 303.718 21.5335L303.792 34.5721L303.792 34.5744L304.257 80.2186C304.314 85.8296 303.896 91.4346 303.008 96.9735L297.488 131.413C296.349 138.517 296.538 145.667 298.053 152.734L304.19 181.378C304.454 182.612 304.81 183.824 305.254 185.005L314.677 210.053C315.392 211.952 314.937 214.512 314.089 217.243C313.712 218.46 313.266 219.681 312.836 220.862C312.788 220.991 312.741 221.12 312.695 221.248C312.224 222.54 311.78 223.784 311.493 224.881C311.257 225.783 311.166 226.107 310.783 226.926L308.003 232.873C307.425 234.109 307 235.557 306.609 236.994C306.535 237.263 306.463 237.531 306.392 237.798C306.076 238.973 305.768 240.12 305.398 241.163C304.942 242.445 304.414 243.503 303.721 244.214C303.05 244.902 302.21 245.281 301.05 245.19C300.285 245.131 299.404 244.98 298.388 244.801L298.243 244.776C297.272 244.605 296.191 244.415 295.017 244.271C292.85 244.004 290.652 243.991 288.491 243.978C288.022 243.975 287.556 243.972 287.091 243.967C284.469 243.936 281.907 243.825 279.428 243.197C274.456 241.939 270.299 239.877 267.387 237.329C264.477 234.781 262.836 231.774 262.808 228.603L262.722 219.134C262.659 212.158 265.127 205.222 269.997 198.782C274.184 193.246 276.667 187.308 277.309 181.246L283.094 126.606Z" stroke="#FF97FB" stroke-opacity="0.09"/>
</g>
<g filter="url(#filter2_d)">
<path d="M166.756 200.41L213.695 199.739L224.122 198.743C231.969 197.994 239.574 195.413 246.354 191.207C263.204 180.756 273.214 161.388 272.306 140.904L272.003 116.863C271.925 110.588 272.332 104.317 273.222 98.1104L276.083 78.1552C277.238 70.1022 276.249 61.8726 273.226 54.3723L271.552 50.2206C267.9 41.1605 268.141 30.8917 272.214 22.0269L272.886 20.566C275.723 14.3919 280.508 9.43292 286.433 6.52791L287.698 5.90759C290.64 4.46535 293.848 3.7192 297.095 3.72209L298.391 3.72325C306.402 3.73039 313.645 8.71076 316.835 16.4059C318.95 21.5077 319.054 27.2789 317.125 32.4628L314.503 39.5115C312.921 43.7623 312.055 48.2679 311.943 52.8279L311.702 62.6549C311.566 68.1785 310.974 73.6795 309.932 79.0966L307.258 93.0054C305.473 102.287 304.633 111.741 304.752 121.208L304.801 125.112C304.929 135.295 306.166 145.429 308.487 155.317L312.789 173.637L317.224 194.539C318.977 202.801 318.929 211.372 317.085 219.614L314.97 229.066C313.608 235.156 310.343 240.596 305.695 244.524C300.918 248.561 294.965 250.76 288.829 250.754L273.686 250.741L199.834 250.882L141.303 244.73C131.831 243.734 122.281 243.85 112.832 245.076L71.0152 250.499L49.3068 255.52C45.7382 256.345 42.0937 256.756 38.4395 256.746L28.6899 256.716C22.8516 256.699 17.2213 254.449 12.857 250.389C7.71653 245.608 4.78692 238.742 4.81379 231.539L4.8176 230.517C4.8669 217.304 13.9269 206.012 26.3462 203.685L34.5029 202.156C40.8184 200.973 46.7189 198.046 51.5952 193.678L52.8711 192.535C59.0354 187.013 62.088 183.31 66.1325 181.919C74.0587 179.193 82.1199 185.099 89.2295 189.519C96.1165 193.799 104.09 196.013 112.205 195.897L116.884 195.83C127.028 195.685 137.08 197.412 147.097 199.001C153.593 200.031 160.168 200.504 166.756 200.41Z" fill="url(#paint7_radial)" fill-opacity="0.9"/>
<path d="M166.756 200.41L213.695 199.739L224.122 198.743C231.969 197.994 239.574 195.413 246.354 191.207C263.204 180.756 273.214 161.388 272.306 140.904L272.003 116.863C271.925 110.588 272.332 104.317 273.222 98.1104L276.083 78.1552C277.238 70.1022 276.249 61.8726 273.226 54.3723L271.552 50.2206C267.9 41.1605 268.141 30.8917 272.214 22.0269L272.886 20.566C275.723 14.3919 280.508 9.43292 286.433 6.52791L287.698 5.90759C290.64 4.46535 293.848 3.7192 297.095 3.72209L298.391 3.72325C306.402 3.73039 313.645 8.71076 316.835 16.4059C318.95 21.5077 319.054 27.2789 317.125 32.4628L314.503 39.5115C312.921 43.7623 312.055 48.2679 311.943 52.8279L311.702 62.6549C311.566 68.1785 310.974 73.6795 309.932 79.0966L307.258 93.0054C305.473 102.287 304.633 111.741 304.752 121.208L304.801 125.112C304.929 135.295 306.166 145.429 308.487 155.317L312.789 173.637L317.224 194.539C318.977 202.801 318.929 211.372 317.085 219.614L314.97 229.066C313.608 235.156 310.343 240.596 305.695 244.524C300.918 248.561 294.965 250.76 288.829 250.754L273.686 250.741L199.834 250.882L141.303 244.73C131.831 243.734 122.281 243.85 112.832 245.076L71.0152 250.499L49.3068 255.52C45.7382 256.345 42.0937 256.756 38.4395 256.746L28.6899 256.716C22.8516 256.699 17.2213 254.449 12.857 250.389C7.71653 245.608 4.78692 238.742 4.81379 231.539L4.8176 230.517C4.8669 217.304 13.9269 206.012 26.3462 203.685L34.5029 202.156C40.8184 200.973 46.7189 198.046 51.5952 193.678L52.8711 192.535C59.0354 187.013 62.088 183.31 66.1325 181.919C74.0587 179.193 82.1199 185.099 89.2295 189.519C96.1165 193.799 104.09 196.013 112.205 195.897L116.884 195.83C127.028 195.685 137.08 197.412 147.097 199.001C153.593 200.031 160.168 200.504 166.756 200.41Z" fill="url(#paint8_linear)"/>
<path d="M166.756 200.41L213.695 199.739L224.122 198.743C231.969 197.994 239.574 195.413 246.354 191.207C263.204 180.756 273.214 161.388 272.306 140.904L272.003 116.863C271.925 110.588 272.332 104.317 273.222 98.1104L276.083 78.1552C277.238 70.1022 276.249 61.8726 273.226 54.3723L271.552 50.2206C267.9 41.1605 268.141 30.8917 272.214 22.0269L272.886 20.566C275.723 14.3919 280.508 9.43292 286.433 6.52791L287.698 5.90759C290.64 4.46535 293.848 3.7192 297.095 3.72209L298.391 3.72325C306.402 3.73039 313.645 8.71076 316.835 16.4059C318.95 21.5077 319.054 27.2789 317.125 32.4628L314.503 39.5115C312.921 43.7623 312.055 48.2679 311.943 52.8279L311.702 62.6549C311.566 68.1785 310.974 73.6795 309.932 79.0966L307.258 93.0054C305.473 102.287 304.633 111.741 304.752 121.208L304.801 125.112C304.929 135.295 306.166 145.429 308.487 155.317L312.789 173.637L317.224 194.539C318.977 202.801 318.929 211.372 317.085 219.614L314.97 229.066C313.608 235.156 310.343 240.596 305.695 244.524C300.918 248.561 294.965 250.76 288.829 250.754L273.686 250.741L199.834 250.882L141.303 244.73C131.831 243.734 122.281 243.85 112.832 245.076L71.0152 250.499L49.3068 255.52C45.7382 256.345 42.0937 256.756 38.4395 256.746L28.6899 256.716C22.8516 256.699 17.2213 254.449 12.857 250.389C7.71653 245.608 4.78692 238.742 4.81379 231.539L4.8176 230.517C4.8669 217.304 13.9269 206.012 26.3462 203.685L34.5029 202.156C40.8184 200.973 46.7189 198.046 51.5952 193.678L52.8711 192.535C59.0354 187.013 62.088 183.31 66.1325 181.919C74.0587 179.193 82.1199 185.099 89.2295 189.519C96.1165 193.799 104.09 196.013 112.205 195.897L116.884 195.83C127.028 195.685 137.08 197.412 147.097 199.001C153.593 200.031 160.168 200.504 166.756 200.41Z" fill="url(#paint9_radial)" fill-opacity="0.45"/>
<path d="M166.756 200.41L213.695 199.739L224.122 198.743C231.969 197.994 239.574 195.413 246.354 191.207C263.204 180.756 273.214 161.388 272.306 140.904L272.003 116.863C271.925 110.588 272.332 104.317 273.222 98.1104L276.083 78.1552C277.238 70.1022 276.249 61.8726 273.226 54.3723L271.552 50.2206C267.9 41.1605 268.141 30.8917 272.214 22.0269L272.886 20.566C275.723 14.3919 280.508 9.43292 286.433 6.52791L287.698 5.90759C290.64 4.46535 293.848 3.7192 297.095 3.72209L298.391 3.72325C306.402 3.73039 313.645 8.71076 316.835 16.4059C318.95 21.5077 319.054 27.2789 317.125 32.4628L314.503 39.5115C312.921 43.7623 312.055 48.2679 311.943 52.8279L311.702 62.6549C311.566 68.1785 310.974 73.6795 309.932 79.0966L307.258 93.0054C305.473 102.287 304.633 111.741 304.752 121.208L304.801 125.112C304.929 135.295 306.166 145.429 308.487 155.317L312.789 173.637L317.224 194.539C318.977 202.801 318.929 211.372 317.085 219.614L314.97 229.066C313.608 235.156 310.343 240.596 305.695 244.524C300.918 248.561 294.965 250.76 288.829 250.754L273.686 250.741L199.834 250.882L141.303 244.73C131.831 243.734 122.281 243.85 112.832 245.076L71.0152 250.499L49.3068 255.52C45.7382 256.345 42.0937 256.756 38.4395 256.746L28.6899 256.716C22.8516 256.699 17.2213 254.449 12.857 250.389C7.71653 245.608 4.78692 238.742 4.81379 231.539L4.8176 230.517C4.8669 217.304 13.9269 206.012 26.3462 203.685L34.5029 202.156C40.8184 200.973 46.7189 198.046 51.5952 193.678L52.8711 192.535C59.0354 187.013 62.088 183.31 66.1325 181.919C74.0587 179.193 82.1199 185.099 89.2295 189.519C96.1165 193.799 104.09 196.013 112.205 195.897L116.884 195.83C127.028 195.685 137.08 197.412 147.097 199.001C153.593 200.031 160.168 200.504 166.756 200.41Z" fill="url(#paint10_linear)" fill-opacity="0.6"/>
<path d="M166.756 200.41L213.695 199.739L224.122 198.743C231.969 197.994 239.574 195.413 246.354 191.207C263.204 180.756 273.214 161.388 272.306 140.904L272.003 116.863C271.925 110.588 272.332 104.317 273.222 98.1104L276.083 78.1552C277.238 70.1022 276.249 61.8726 273.226 54.3723L271.552 50.2206C267.9 41.1605 268.141 30.8917 272.214 22.0269L272.886 20.566C275.723 14.3919 280.508 9.43292 286.433 6.52791L287.698 5.90759C290.64 4.46535 293.848 3.7192 297.095 3.72209L298.391 3.72325C306.402 3.73039 313.645 8.71076 316.835 16.4059C318.95 21.5077 319.054 27.2789 317.125 32.4628L314.503 39.5115C312.921 43.7623 312.055 48.2679 311.943 52.8279L311.702 62.6549C311.566 68.1785 310.974 73.6795 309.932 79.0966L307.258 93.0054C305.473 102.287 304.633 111.741 304.752 121.208L304.801 125.112C304.929 135.295 306.166 145.429 308.487 155.317L312.789 173.637L317.224 194.539C318.977 202.801 318.929 211.372 317.085 219.614L314.97 229.066C313.608 235.156 310.343 240.596 305.695 244.524C300.918 248.561 294.965 250.76 288.829 250.754L273.686 250.741L199.834 250.882L141.303 244.73C131.831 243.734 122.281 243.85 112.832 245.076L71.0152 250.499L49.3068 255.52C45.7382 256.345 42.0937 256.756 38.4395 256.746L28.6899 256.716C22.8516 256.699 17.2213 254.449 12.857 250.389C7.71653 245.608 4.78692 238.742 4.81379 231.539L4.8176 230.517C4.8669 217.304 13.9269 206.012 26.3462 203.685L34.5029 202.156C40.8184 200.973 46.7189 198.046 51.5952 193.678L52.8711 192.535C59.0354 187.013 62.088 183.31 66.1325 181.919C74.0587 179.193 82.1199 185.099 89.2295 189.519C96.1165 193.799 104.09 196.013 112.205 195.897L116.884 195.83C127.028 195.685 137.08 197.412 147.097 199.001C153.593 200.031 160.168 200.504 166.756 200.41Z" fill="url(#paint11_linear)"/>
<path d="M213.701 200.239L213.721 200.238L213.741 200.236L224.169 199.241C232.093 198.484 239.772 195.878 246.617 191.632C263.625 181.083 273.719 161.544 272.805 140.888L272.503 116.855C272.425 110.607 272.831 104.361 273.717 98.1805L276.578 78.2254C277.745 70.0856 276.746 61.7671 273.689 54.1846L272.016 50.033C268.415 41.1 268.653 30.9744 272.669 22.2351L273.34 20.7741C276.13 14.7015 280.835 9.82937 286.653 6.97679L287.918 6.35647C290.791 4.94766 293.924 4.21928 297.094 4.2221L298.39 4.22326C306.188 4.23022 313.256 9.07932 316.373 16.5981C318.439 21.5831 318.541 27.2237 316.657 32.2892L314.034 39.3379C312.433 43.641 311.557 48.2014 311.443 52.8165L311.202 62.6435C311.067 68.1396 310.478 73.6131 309.441 79.003L306.767 92.9118C304.975 102.227 304.132 111.714 304.252 121.215L304.301 125.119C304.429 135.338 305.671 145.508 308.001 155.432L312.299 173.742L312.302 173.752L316.734 194.644C318.473 202.836 318.426 211.334 316.597 219.506L314.482 228.957C313.143 234.944 309.935 240.287 305.373 244.142C300.685 248.104 294.845 250.26 288.83 250.254L273.687 250.241L273.686 250.241L199.861 250.382L141.356 244.233C131.845 243.233 122.256 243.35 112.768 244.58L70.9518 250.003L70.9274 250.006L70.9034 250.012L49.1949 255.033C45.6637 255.85 42.0576 256.256 38.4419 256.246L28.6923 256.216C22.9827 256.199 17.4724 253.999 13.1979 250.023C8.16222 245.339 5.28741 238.607 5.31378 231.54L5.31759 230.518C5.36605 217.529 14.27 206.456 26.4375 204.176L34.5942 202.648C41.0015 201.447 46.9852 198.478 51.9285 194.05L53.2043 192.907C54.7506 191.522 56.1013 190.251 57.3174 189.106L57.3859 189.041C58.5761 187.92 59.6335 186.925 60.6261 186.053C62.6507 184.277 64.3658 183.055 66.2944 182.392C70.0901 181.086 73.9483 181.834 77.7877 183.498C80.9126 184.853 83.968 186.787 86.9229 188.658C87.6092 189.093 88.29 189.524 88.965 189.943C95.9332 194.275 104.001 196.514 112.211 196.397L116.89 196.33C126.324 196.195 135.683 197.688 145.057 199.183C145.71 199.287 146.364 199.391 147.017 199.495C153.542 200.53 160.146 201.004 166.762 200.91L213.701 200.239Z" stroke="#FF97FB" stroke-opacity="0.09"/>
</g>
<g filter="url(#filter3_d)">
<path d="M267.317 110.82L271 80.3201C271.925 75.4289 268.822 64.5492 267.317 59.8201C263.991 49.373 254.372 50.1817 243.945 48.7605L235.641 47.6287C232.416 47.189 229.151 47.1548 225.917 47.5269L178.177 53.0196L176.326 53.3304C168.721 54.6072 161.021 55.1617 153.322 54.9869L114.312 54.1013L75.0672 48.5958L52.2829 42.1705C48.9156 41.2209 45.8927 39.2475 43.596 36.4995L41.6076 34.1203C39.9828 32.1762 39.1119 29.6651 39.1664 27.0814C39.2685 22.2392 42.5649 18.1181 47.0989 17.1645L59.8531 14.4819C61.7313 14.0869 63.6452 13.9095 65.5602 13.953L75.793 14.1853L115.021 20.5143L174.97 21.8752L205.13 19.2045L237.602 14.5219C244.296 13.5565 251.053 13.1486 257.808 13.302L277.635 13.7521C280.986 13.8281 284.323 14.2319 287.602 14.958L298.055 17.2727C303.505 18.4795 308.384 21.6321 311.859 26.1914C315.37 30.7981 317.225 36.55 317.1 42.4441L316.964 48.9232L316.423 82.5015C316.282 91.2904 315.314 100.044 313.534 108.635L312.022 115.936C308.514 132.873 308.537 150.402 312.089 167.327L313.079 172.045C313.816 175.557 314.836 178.997 316.129 182.329L319.426 190.826C320.4 193.337 320.869 196.032 320.801 198.742C320.628 205.734 316.924 212.105 311.072 215.476L309.804 216.207C306.511 218.104 302.799 219.056 299.042 218.965L285.417 218.637C273.296 218.345 262.674 210.073 258.918 198.001V198.001C256.907 191.539 258.417 184.647 260.19 178.109L264.159 163.466C266.257 155.73 267.334 147.775 267.096 139.767C266.783 129.224 266.371 115.819 267.317 110.82Z" fill="url(#paint12_radial)" fill-opacity="0.09"/>
<path d="M267.317 110.82L271 80.3201C271.925 75.4289 268.822 64.5492 267.317 59.8201C263.991 49.373 254.372 50.1817 243.945 48.7605L235.641 47.6287C232.416 47.189 229.151 47.1548 225.917 47.5269L178.177 53.0196L176.326 53.3304C168.721 54.6072 161.021 55.1617 153.322 54.9869L114.312 54.1013L75.0672 48.5958L52.2829 42.1705C48.9156 41.2209 45.8927 39.2475 43.596 36.4995L41.6076 34.1203C39.9828 32.1762 39.1119 29.6651 39.1664 27.0814C39.2685 22.2392 42.5649 18.1181 47.0989 17.1645L59.8531 14.4819C61.7313 14.0869 63.6452 13.9095 65.5602 13.953L75.793 14.1853L115.021 20.5143L174.97 21.8752L205.13 19.2045L237.602 14.5219C244.296 13.5565 251.053 13.1486 257.808 13.302L277.635 13.7521C280.986 13.8281 284.323 14.2319 287.602 14.958L298.055 17.2727C303.505 18.4795 308.384 21.6321 311.859 26.1914C315.37 30.7981 317.225 36.55 317.1 42.4441L316.964 48.9232L316.423 82.5015C316.282 91.2904 315.314 100.044 313.534 108.635L312.022 115.936C308.514 132.873 308.537 150.402 312.089 167.327L313.079 172.045C313.816 175.557 314.836 178.997 316.129 182.329L319.426 190.826C320.4 193.337 320.869 196.032 320.801 198.742C320.628 205.734 316.924 212.105 311.072 215.476L309.804 216.207C306.511 218.104 302.799 219.056 299.042 218.965L285.417 218.637C273.296 218.345 262.674 210.073 258.918 198.001V198.001C256.907 191.539 258.417 184.647 260.19 178.109L264.159 163.466C266.257 155.73 267.334 147.775 267.096 139.767C266.783 129.224 266.371 115.819 267.317 110.82Z" fill="url(#paint13_linear)" fill-opacity="0.19"/>
<path d="M267.317 110.82L271 80.3201C271.925 75.4289 268.822 64.5492 267.317 59.8201C263.991 49.373 254.372 50.1817 243.945 48.7605L235.641 47.6287C232.416 47.189 229.151 47.1548 225.917 47.5269L178.177 53.0196L176.326 53.3304C168.721 54.6072 161.021 55.1617 153.322 54.9869L114.312 54.1013L75.0672 48.5958L52.2829 42.1705C48.9156 41.2209 45.8927 39.2475 43.596 36.4995L41.6076 34.1203C39.9828 32.1762 39.1119 29.6651 39.1664 27.0814C39.2685 22.2392 42.5649 18.1181 47.0989 17.1645L59.8531 14.4819C61.7313 14.0869 63.6452 13.9095 65.5602 13.953L75.793 14.1853L115.021 20.5143L174.97 21.8752L205.13 19.2045L237.602 14.5219C244.296 13.5565 251.053 13.1486 257.808 13.302L277.635 13.7521C280.986 13.8281 284.323 14.2319 287.602 14.958L298.055 17.2727C303.505 18.4795 308.384 21.6321 311.859 26.1914C315.37 30.7981 317.225 36.55 317.1 42.4441L316.964 48.9232L316.423 82.5015C316.282 91.2904 315.314 100.044 313.534 108.635L312.022 115.936C308.514 132.873 308.537 150.402 312.089 167.327L313.079 172.045C313.816 175.557 314.836 178.997 316.129 182.329L319.426 190.826C320.4 193.337 320.869 196.032 320.801 198.742C320.628 205.734 316.924 212.105 311.072 215.476L309.804 216.207C306.511 218.104 302.799 219.056 299.042 218.965L285.417 218.637C273.296 218.345 262.674 210.073 258.918 198.001V198.001C256.907 191.539 258.417 184.647 260.19 178.109L264.159 163.466C266.257 155.73 267.334 147.775 267.096 139.767C266.783 129.224 266.371 115.819 267.317 110.82Z" fill="url(#paint14_radial)"/>
<path d="M267.317 110.82L271 80.3201C271.925 75.4289 268.822 64.5492 267.317 59.8201C263.991 49.373 254.372 50.1817 243.945 48.7605L235.641 47.6287C232.416 47.189 229.151 47.1548 225.917 47.5269L178.177 53.0196L176.326 53.3304C168.721 54.6072 161.021 55.1617 153.322 54.9869L114.312 54.1013L75.0672 48.5958L52.2829 42.1705C48.9156 41.2209 45.8927 39.2475 43.596 36.4995L41.6076 34.1203C39.9828 32.1762 39.1119 29.6651 39.1664 27.0814C39.2685 22.2392 42.5649 18.1181 47.0989 17.1645L59.8531 14.4819C61.7313 14.0869 63.6452 13.9095 65.5602 13.953L75.793 14.1853L115.021 20.5143L174.97 21.8752L205.13 19.2045L237.602 14.5219C244.296 13.5565 251.053 13.1486 257.808 13.302L277.635 13.7521C280.986 13.8281 284.323 14.2319 287.602 14.958L298.055 17.2727C303.505 18.4795 308.384 21.6321 311.859 26.1914C315.37 30.7981 317.225 36.55 317.1 42.4441L316.964 48.9232L316.423 82.5015C316.282 91.2904 315.314 100.044 313.534 108.635L312.022 115.936C308.514 132.873 308.537 150.402 312.089 167.327L313.079 172.045C313.816 175.557 314.836 178.997 316.129 182.329L319.426 190.826C320.4 193.337 320.869 196.032 320.801 198.742C320.628 205.734 316.924 212.105 311.072 215.476L309.804 216.207C306.511 218.104 302.799 219.056 299.042 218.965L285.417 218.637C273.296 218.345 262.674 210.073 258.918 198.001V198.001C256.907 191.539 258.417 184.647 260.19 178.109L264.159 163.466C266.257 155.73 267.334 147.775 267.096 139.767C266.783 129.224 266.371 115.819 267.317 110.82Z" fill="url(#paint15_radial)" fill-opacity="0.45"/>
<path d="M267.808 110.912L267.811 110.896L267.813 110.879L271.494 80.3954C271.735 79.1042 271.709 77.457 271.524 75.6662C271.337 73.8601 270.985 71.8745 270.558 69.9028C269.705 65.9592 268.548 62.0405 267.793 59.6676C266.939 56.9844 265.671 54.9984 264.067 53.517C262.466 52.0377 260.554 51.084 258.443 50.4281C256.336 49.7734 254.015 49.4106 251.588 49.1225C250.629 49.0087 249.66 48.9071 248.679 48.8042C247.154 48.6442 245.6 48.4813 244.013 48.265L235.71 47.1332C232.443 46.6879 229.136 46.6533 225.861 47.0301L178.12 52.5229L178.107 52.5244L178.095 52.5265L176.244 52.8373C168.67 54.1089 161.002 54.6611 153.334 54.487L114.354 53.6021L75.1711 48.1053L52.4194 41.6893C49.1512 40.7676 46.2138 38.8514 43.9799 36.1785L41.9915 33.7993C40.4456 31.9496 39.6142 29.5566 39.6662 27.0911C39.7638 22.4664 42.9096 18.5564 47.201 17.6538L59.9552 14.9712C61.7958 14.5841 63.6714 14.4102 65.548 14.4528L75.7464 14.6844L114.94 21.0079L114.974 21.0134L115.008 21.0141L174.958 22.3751L174.986 22.3757L175.014 22.3733L205.174 19.7026L205.187 19.7014L205.201 19.6994L237.673 15.0168C244.339 14.0554 251.068 13.6491 257.796 13.8018L277.623 14.2519C280.941 14.3273 284.246 14.7271 287.493 15.4462L297.946 17.7609C303.277 18.9414 308.056 22.0266 311.461 26.4949C314.902 31.0101 316.722 36.6512 316.6 42.4344L316.464 48.9135L316.464 48.916L315.923 82.4943C315.782 91.2519 314.818 99.974 313.045 108.534L311.533 115.835C308.01 132.84 308.033 150.439 311.599 167.43L312.59 172.149C313.332 175.687 314.36 179.154 315.663 182.51L318.96 191.008C319.91 193.457 320.367 196.086 320.302 198.731C320.132 205.556 316.517 211.763 310.823 215.043L309.555 215.774C306.341 217.626 302.719 218.554 299.055 218.466L285.43 218.137C273.536 217.851 263.092 209.732 259.395 197.852C257.433 191.544 258.898 184.784 260.672 178.239L264.642 163.596C266.75 155.819 267.836 147.814 267.596 139.751L267.585 139.383C267.431 134.201 267.258 128.375 267.234 123.211C267.21 117.908 267.346 113.356 267.808 110.912Z" stroke="#FF97FB" stroke-opacity="0.09"/>
</g>
<defs>
<filter id="filter0_d" x="0.554443" y="6.27319" width="305.261" height="249.368" filterUnits="userSpaceOnUse" color-interpolation-filters="sRGB">
<feFlood flood-opacity="0" result="BackgroundImageFix"/>
<feColorMatrix in="SourceAlpha" type="matrix" values="0 0 0 0 0 0 0 0 0 0 0 0 0 0 0 0 0 0 127 0"/>
<feOffset dy="4"/>
<feGaussianBlur stdDeviation="2"/>
<feColorMatrix type="matrix" values="0 0 0 0 0.4625 0 0 0 0 0.4625 0 0 0 0 0.4625 0 0 0 0.09 0"/>
<feBlend mode="normal" in2="BackgroundImageFix" result="effect1_dropShadow"/>
<feBlend mode="normal" in="SourceGraphic" in2="effect1_dropShadow" result="shape"/>
</filter>
<filter id="filter1_d" x="11.4998" y="2.07739" width="308.031" height="251.626" filterUnits="userSpaceOnUse" color-interpolation-filters="sRGB">
<feFlood flood-opacity="0" result="BackgroundImageFix"/>
<feColorMatrix in="SourceAlpha" type="matrix" values="0 0 0 0 0 0 0 0 0 0 0 0 0 0 0 0 0 0 127 0"/>
<feOffset dy="4"/>
<feGaussianBlur stdDeviation="2"/>
<feColorMatrix type="matrix" values="0 0 0 0 0.4625 0 0 0 0 0.4625 0 0 0 0 0.4625 0 0 0 0.09 0"/>
<feBlend mode="normal" in2="BackgroundImageFix" result="effect1_dropShadow"/>
<feBlend mode="normal" in="SourceGraphic" in2="effect1_dropShadow" result="shape"/>
</filter>
<filter id="filter2_d" x="0.813721" y="3.72217" width="321.691" height="261.024" filterUnits="userSpaceOnUse" color-interpolation-filters="sRGB">
<feFlood flood-opacity="0" result="BackgroundImageFix"/>
<feColorMatrix in="SourceAlpha" type="matrix" values="0 0 0 0 0 0 0 0 0 0 0 0 0 0 0 0 0 0 127 0"/>
<feOffset dy="4"/>
<feGaussianBlur stdDeviation="2"/>
<feColorMatrix type="matrix" values="0 0 0 0 0.4625 0 0 0 0 0.4625 0 0 0 0 0.4625 0 0 0 0.09 0"/>
<feBlend mode="normal" in2="BackgroundImageFix" result="effect1_dropShadow"/>
<feBlend mode="normal" in="SourceGraphic" in2="effect1_dropShadow" result="shape"/>
</filter>
<filter id="filter3_d" x="35.1641" y="13.2705" width="289.644" height="213.701" filterUnits="userSpaceOnUse" color-interpolation-filters="sRGB">
<feFlood flood-opacity="0" result="BackgroundImageFix"/>
<feColorMatrix in="SourceAlpha" type="matrix" values="0 0 0 0 0 0 0 0 0 0 0 0 0 0 0 0 0 0 127 0"/>
<feOffset dy="4"/>
<feGaussianBlur stdDeviation="2"/>
<feColorMatrix type="matrix" values="0 0 0 0 0.4625 0 0 0 0 0.4625 0 0 0 0 0.4625 0 0 0 0.09 0"/>
<feBlend mode="normal" in2="BackgroundImageFix" result="effect1_dropShadow"/>
<feBlend mode="normal" in="SourceGraphic" in2="effect1_dropShadow" result="shape"/>
</filter>
<linearGradient id="paint0_linear" x1="150.461" y1="4.54012" x2="153.962" y2="249.363" gradientUnits="userSpaceOnUse">
<stop stop-color="#68FF0C"/>
<stop offset="1" stop-color="#C4C4C4" stop-opacity="0"/>
</linearGradient>
<linearGradient id="paint1_linear" x1="150.461" y1="4.54012" x2="153.962" y2="249.363" gradientUnits="userSpaceOnUse">
<stop offset="0.9999" stop-color="#FF8DFA" stop-opacity="0.44"/>
<stop offset="1" stop-color="white" stop-opacity="0"/>
</linearGradient>
<radialGradient id="paint2_radial" cx="0" cy="0" r="1" gradientUnits="userSpaceOnUse" gradientTransform="translate(166.982 124.087) rotate(179.573) scale(150.517 122.63)">
<stop offset="0.296875" stop-color="#FFE99D"/>
<stop offset="1" stop-color="#FFE99D" stop-opacity="0"/>
</radialGradient>
<linearGradient id="paint3_linear" x1="317.495" y1="122.966" x2="16.4746" y2="125.728" gradientUnits="userSpaceOnUse">
<stop stop-color="white" stop-opacity="0"/>
<stop offset="0.463542" stop-color="#ADFF00" stop-opacity="0.72"/>
</linearGradient>
<radialGradient id="paint4_radial" cx="0" cy="0" r="1" gradientUnits="userSpaceOnUse" gradientTransform="translate(166.982 124.087) rotate(179.573) scale(150.517 122.63)">
<stop offset="0.5" stop-color="#EE80F0"/>
<stop offset="1" stop-color="white" stop-opacity="0"/>
</radialGradient>
<linearGradient id="paint5_linear" x1="317.495" y1="122.966" x2="16.4746" y2="125.728" gradientUnits="userSpaceOnUse">
<stop offset="0.463542" stop-color="#BD00FF" stop-opacity="0.33"/>
<stop offset="1" stop-color="white"/>
</linearGradient>
<linearGradient id="paint6_linear" x1="317.495" y1="122.966" x2="16.4746" y2="125.728" gradientUnits="userSpaceOnUse">
<stop stop-color="#A3F94E" stop-opacity="0.81"/>
<stop offset="0.625" stop-color="#A0FF41" stop-opacity="0"/>
</linearGradient>
<radialGradient id="paint7_radial" cx="0" cy="0" r="1" gradientUnits="userSpaceOnUse" gradientTransform="translate(161.683 130.323) rotate(89.2799) scale(124.655 158.132)">
<stop offset="0.296875" stop-color="#FFE99D"/>
<stop offset="1" stop-color="#FFE99D" stop-opacity="0"/>
</radialGradient>
<linearGradient id="paint8_linear" x1="160.116" y1="5.6782" x2="163.681" y2="254.962" gradientUnits="userSpaceOnUse">
<stop stop-color="white" stop-opacity="0"/>
<stop offset="0.463542" stop-color="#ADFF00" stop-opacity="0.72"/>
</linearGradient>
<radialGradient id="paint9_radial" cx="0" cy="0" r="1" gradientUnits="userSpaceOnUse" gradientTransform="translate(161.683 130.323) rotate(89.2799) scale(124.655 158.132)">
<stop offset="0.5" stop-color="#EE80F0"/>
<stop offset="1" stop-color="white" stop-opacity="0"/>
</radialGradient>
<linearGradient id="paint10_linear" x1="160.116" y1="5.6782" x2="163.681" y2="254.962" gradientUnits="userSpaceOnUse">
<stop offset="0.463542" stop-color="#BD00FF" stop-opacity="0.33"/>
<stop offset="1" stop-color="white"/>
</linearGradient>
<linearGradient id="paint11_linear" x1="160.116" y1="5.6782" x2="163.681" y2="254.962" gradientUnits="userSpaceOnUse">
<stop stop-color="#A3F94E" stop-opacity="0.81"/>
<stop offset="0.625" stop-color="#A0FF41" stop-opacity="0"/>
</linearGradient>
<radialGradient id="paint12_radial" cx="0" cy="0" r="1" gradientUnits="userSpaceOnUse" gradientTransform="translate(101.391 237.357) rotate(89.2916) scale(33.1255 29.8883)">
<stop stop-color="#A1FF80" stop-opacity="0.59"/>
<stop offset="1" stop-color="#68FF0C" stop-opacity="0"/>
</radialGradient>
<linearGradient id="paint13_linear" x1="100.982" y1="204.234" x2="101.914" y2="270.479" gradientUnits="userSpaceOnUse">
<stop stop-color="#FFEBCC"/>
<stop offset="1" stop-color="white" stop-opacity="0"/>
</linearGradient>
<radialGradient id="paint14_radial" cx="0" cy="0" r="1" gradientUnits="userSpaceOnUse" gradientTransform="translate(101.391 237.357) rotate(89.2916) scale(33.1255 29.8883)">
<stop stop-color="#68FF0C" stop-opacity="0.33"/>
<stop offset="1" stop-color="white" stop-opacity="0"/>
</radialGradient>
<radialGradient id="paint15_radial" cx="0" cy="0" r="1" gradientUnits="userSpaceOnUse" gradientTransform="translate(101.391 237.357) rotate(89.2916) scale(33.1255 29.8883)">
<stop stop-color="#68FF0C"/>
<stop offset="0.432292" stop-color="#77E875" stop-opacity="0.23"/>
</radialGradient>
</defs>
</svg>
