<svg width="53" height="42" viewBox="0 0 53 42" fill="none" xmlns="http://www.w3.org/2000/svg">
<g filter="url(#filter0_i)">
<path d="M53 26.3599C52.9971 44.9285 38.8184 41.8034 26.1705 41.7996C13.5225 41.7958 -0.00287004 44.9127 4.56827e-07 26.3441C0.00287095 7.77552 13.5289 -0.00376955 26.1769 1.37022e-06C38.8249 0.00377229 53.0029 7.79132 53 26.3599Z" fill="url(#paint0_linear)" fill-opacity="0.81"/>
<path d="M53 26.3599C52.9971 44.9285 38.8184 41.8034 26.1705 41.7996C13.5225 41.7958 -0.00287004 44.9127 4.56827e-07 26.3441C0.00287095 7.77552 13.5289 -0.00376955 26.1769 1.37022e-06C38.8249 0.00377229 53.0029 7.79132 53 26.3599Z" fill="url(#paint1_linear)" fill-opacity="0.81"/>
</g>
<path d="M52.5 26.3598C52.4993 30.9436 51.6231 34.1225 50.1678 36.3315C48.7191 38.5303 46.6613 39.8214 44.1833 40.5655C41.6926 41.3135 38.7942 41.5033 35.6986 41.5C34.1688 41.4983 32.6012 41.4497 31.0178 41.4006L30.97 41.3991C29.3731 41.3496 27.7605 41.3001 26.1706 41.2996C24.5806 41.2991 22.9783 41.3477 21.3991 41.3963L21.327 41.3985C19.7698 41.4464 18.2361 41.4935 16.7448 41.4943C13.7105 41.4958 10.8961 41.3042 8.48956 40.5562C6.0976 39.8127 4.12123 38.5239 2.732 36.3251C1.33504 34.1141 0.499291 30.9317 0.5 26.3442C0.501415 17.193 3.8293 10.7491 8.67244 6.58662C13.528 2.4134 19.9486 0.498144 26.1768 0.500001C32.4061 0.501859 38.9929 2.42177 44.0125 6.60236C49.0182 10.7713 52.5014 17.2169 52.5 26.3598Z" stroke="#FF97FB" stroke-opacity="0.09"/>
<defs>
<filter id="filter0_i" x="0" y="0" width="53" height="46" filterUnits="userSpaceOnUse" color-interpolation-filters="sRGB">
<feFlood flood-opacity="0" result="BackgroundImageFix"/>
<feBlend mode="normal" in="SourceGraphic" in2="BackgroundImageFix" result="shape"/>
<feColorMatrix in="SourceAlpha" type="matrix" values="0 0 0 0 0 0 0 0 0 0 0 0 0 0 0 0 0 0 127 0" result="hardAlpha"/>
<feOffset dy="4"/>
<feGaussianBlur stdDeviation="2"/>
<feComposite in2="hardAlpha" operator="arithmetic" k2="-1" k3="1"/>
<feColorMatrix type="matrix" values="0 0 0 0 0.4625 0 0 0 0 0.4625 0 0 0 0 0.4625 0 0 0 0.09 0"/>
<feBlend mode="normal" in2="shape" result="effect1_innerShadow"/>
</filter>
<linearGradient id="paint0_linear" x1="26.5" y1="0" x2="26.5" y2="42" gradientUnits="userSpaceOnUse">
<stop stop-color="#68FF0C"/>
<stop offset="1" stop-color="#C4C4C4" stop-opacity="0"/>
</linearGradient>
<linearGradient id="paint1_linear" x1="26.5" y1="0" x2="26.5" y2="42" gradientUnits="userSpaceOnUse">
<stop offset="0.9999" stop-color="#FF8DFA" stop-opacity="0.44"/>
<stop offset="1" stop-color="white" stop-opacity="0"/>
</linearGradient>
</defs>
</svg>
