<svg width="186" height="199" viewBox="0 0 186 199" fill="none" xmlns="http://www.w3.org/2000/svg">
<g filter="url(#filter0_i)">
<path d="M41.3058 83.5714L34.7442 127.537L32.766 148.437C32.4587 151.685 33.3058 154.937 35.1584 157.622C37.148 160.506 40.1549 162.529 43.5751 163.287L52.9187 165.358C58.1804 166.524 63.629 166.564 68.9071 165.476L94.9464 160.107L96.8718 159.559C101.29 158.301 105.86 157.658 110.454 157.648L132.081 157.599C134.939 157.593 137.792 157.832 140.609 158.313L157.774 161.244C160.54 161.716 163.255 162.453 165.879 163.446L174.685 166.774C178.254 168.122 181.258 170.642 183.209 173.92L183.892 175.07C184.988 176.911 185.568 179.013 185.573 181.155C185.585 186.254 182.362 190.799 177.547 192.475L173.399 193.918C171.496 194.581 169.497 194.921 167.482 194.925L165.207 194.93C163.081 194.935 160.959 194.726 158.875 194.305L141.398 190.782C138.108 190.118 134.76 189.788 131.404 189.795L101.609 189.862C98.8892 189.868 96.1748 190.095 93.4926 190.543L77.9919 193.129L57.8992 196.681L29.1357 198.934L25.5213 198.934C15.5738 198.933 6.9933 191.947 4.97593 182.206C3.09649 175.893 2.57935 169.252 3.45873 162.724L4.70629 153.464L7.40687 100.295L7.40558 77.1814L5.09596 49.0033C4.83274 45.7919 4.25972 42.6135 3.38489 39.5123L1.4852 32.7781C0.543411 29.4396 0.0661138 25.9873 0.0667692 22.5186L0.0678046 17.0389C0.0683073 14.378 0.730091 11.759 1.99366 9.41733C5.23278 3.41456 11.9112 0.113811 18.6477 1.18621L26.5007 2.43636C32.3484 3.36727 37.355 7.1354 39.8682 12.4971C40.8157 14.5185 41.3759 16.6996 41.5198 18.9273L42.8071 38.8542L42.8081 57.643L42.0569 70.6072L41.3058 83.5714Z" fill="url(#paint0_radial)" fill-opacity="0.9"/>
<path d="M41.3058 83.5714L34.7442 127.537L32.766 148.437C32.4587 151.685 33.3058 154.937 35.1584 157.622C37.148 160.506 40.1549 162.529 43.5751 163.287L52.9187 165.358C58.1804 166.524 63.629 166.564 68.9071 165.476L94.9464 160.107L96.8718 159.559C101.29 158.301 105.86 157.658 110.454 157.648L132.081 157.599C134.939 157.593 137.792 157.832 140.609 158.313L157.774 161.244C160.54 161.716 163.255 162.453 165.879 163.446L174.685 166.774C178.254 168.122 181.258 170.642 183.209 173.92L183.892 175.07C184.988 176.911 185.568 179.013 185.573 181.155C185.585 186.254 182.362 190.799 177.547 192.475L173.399 193.918C171.496 194.581 169.497 194.921 167.482 194.925L165.207 194.93C163.081 194.935 160.959 194.726 158.875 194.305L141.398 190.782C138.108 190.118 134.76 189.788 131.404 189.795L101.609 189.862C98.8892 189.868 96.1748 190.095 93.4926 190.543L77.9919 193.129L57.8992 196.681L29.1357 198.934L25.5213 198.934C15.5738 198.933 6.9933 191.947 4.97593 182.206C3.09649 175.893 2.57935 169.252 3.45873 162.724L4.70629 153.464L7.40687 100.295L7.40558 77.1814L5.09596 49.0033C4.83274 45.7919 4.25972 42.6135 3.38489 39.5123L1.4852 32.7781C0.543411 29.4396 0.0661138 25.9873 0.0667692 22.5186L0.0678046 17.0389C0.0683073 14.378 0.730091 11.759 1.99366 9.41733C5.23278 3.41456 11.9112 0.113811 18.6477 1.18621L26.5007 2.43636C32.3484 3.36727 37.355 7.1354 39.8682 12.4971C40.8157 14.5185 41.3759 16.6996 41.5198 18.9273L42.8071 38.8542L42.8081 57.643L42.0569 70.6072L41.3058 83.5714Z" fill="url(#paint1_linear)" fill-opacity="0.9"/>
<path d="M41.3058 83.5714L34.7442 127.537L32.766 148.437C32.4587 151.685 33.3058 154.937 35.1584 157.622C37.148 160.506 40.1549 162.529 43.5751 163.287L52.9187 165.358C58.1804 166.524 63.629 166.564 68.9071 165.476L94.9464 160.107L96.8718 159.559C101.29 158.301 105.86 157.658 110.454 157.648L132.081 157.599C134.939 157.593 137.792 157.832 140.609 158.313L157.774 161.244C160.54 161.716 163.255 162.453 165.879 163.446L174.685 166.774C178.254 168.122 181.258 170.642 183.209 173.92L183.892 175.07C184.988 176.911 185.568 179.013 185.573 181.155C185.585 186.254 182.362 190.799 177.547 192.475L173.399 193.918C171.496 194.581 169.497 194.921 167.482 194.925L165.207 194.93C163.081 194.935 160.959 194.726 158.875 194.305L141.398 190.782C138.108 190.118 134.76 189.788 131.404 189.795L101.609 189.862C98.8892 189.868 96.1748 190.095 93.4926 190.543L77.9919 193.129L57.8992 196.681L29.1357 198.934L25.5213 198.934C15.5738 198.933 6.9933 191.947 4.97593 182.206C3.09649 175.893 2.57935 169.252 3.45873 162.724L4.70629 153.464L7.40687 100.295L7.40558 77.1814L5.09596 49.0033C4.83274 45.7919 4.25972 42.6135 3.38489 39.5123L1.4852 32.7781C0.543411 29.4396 0.0661138 25.9873 0.0667692 22.5186L0.0678046 17.0389C0.0683073 14.378 0.730091 11.759 1.99366 9.41733C5.23278 3.41456 11.9112 0.113811 18.6477 1.18621L26.5007 2.43636C32.3484 3.36727 37.355 7.1354 39.8682 12.4971C40.8157 14.5185 41.3759 16.6996 41.5198 18.9273L42.8071 38.8542L42.8081 57.643L42.0569 70.6072L41.3058 83.5714Z" fill="url(#paint2_radial)" fill-opacity="0.5"/>
<path d="M41.3058 83.5714L34.7442 127.537L32.766 148.437C32.4587 151.685 33.3058 154.937 35.1584 157.622C37.148 160.506 40.1549 162.529 43.5751 163.287L52.9187 165.358C58.1804 166.524 63.629 166.564 68.9071 165.476L94.9464 160.107L96.8718 159.559C101.29 158.301 105.86 157.658 110.454 157.648L132.081 157.599C134.939 157.593 137.792 157.832 140.609 158.313L157.774 161.244C160.54 161.716 163.255 162.453 165.879 163.446L174.685 166.774C178.254 168.122 181.258 170.642 183.209 173.92L183.892 175.07C184.988 176.911 185.568 179.013 185.573 181.155C185.585 186.254 182.362 190.799 177.547 192.475L173.399 193.918C171.496 194.581 169.497 194.921 167.482 194.925L165.207 194.93C163.081 194.935 160.959 194.726 158.875 194.305L141.398 190.782C138.108 190.118 134.76 189.788 131.404 189.795L101.609 189.862C98.8892 189.868 96.1748 190.095 93.4926 190.543L77.9919 193.129L57.8992 196.681L29.1357 198.934L25.5213 198.934C15.5738 198.933 6.9933 191.947 4.97593 182.206C3.09649 175.893 2.57935 169.252 3.45873 162.724L4.70629 153.464L7.40687 100.295L7.40558 77.1814L5.09596 49.0033C4.83274 45.7919 4.25972 42.6135 3.38489 39.5123L1.4852 32.7781C0.543411 29.4396 0.0661138 25.9873 0.0667692 22.5186L0.0678046 17.0389C0.0683073 14.378 0.730091 11.759 1.99366 9.41733C5.23278 3.41456 11.9112 0.113811 18.6477 1.18621L26.5007 2.43636C32.3484 3.36727 37.355 7.1354 39.8682 12.4971C40.8157 14.5185 41.3759 16.6996 41.5198 18.9273L42.8071 38.8542L42.8081 57.643L42.0569 70.6072L41.3058 83.5714Z" fill="url(#paint3_linear)" fill-opacity="0.6"/>
<path d="M41.3058 83.5714L34.7442 127.537L32.766 148.437C32.4587 151.685 33.3058 154.937 35.1584 157.622C37.148 160.506 40.1549 162.529 43.5751 163.287L52.9187 165.358C58.1804 166.524 63.629 166.564 68.9071 165.476L94.9464 160.107L96.8718 159.559C101.29 158.301 105.86 157.658 110.454 157.648L132.081 157.599C134.939 157.593 137.792 157.832 140.609 158.313L157.774 161.244C160.54 161.716 163.255 162.453 165.879 163.446L174.685 166.774C178.254 168.122 181.258 170.642 183.209 173.92L183.892 175.07C184.988 176.911 185.568 179.013 185.573 181.155C185.585 186.254 182.362 190.799 177.547 192.475L173.399 193.918C171.496 194.581 169.497 194.921 167.482 194.925L165.207 194.93C163.081 194.935 160.959 194.726 158.875 194.305L141.398 190.782C138.108 190.118 134.76 189.788 131.404 189.795L101.609 189.862C98.8892 189.868 96.1748 190.095 93.4926 190.543L77.9919 193.129L57.8992 196.681L29.1357 198.934L25.5213 198.934C15.5738 198.933 6.9933 191.947 4.97593 182.206C3.09649 175.893 2.57935 169.252 3.45873 162.724L4.70629 153.464L7.40687 100.295L7.40558 77.1814L5.09596 49.0033C4.83274 45.7919 4.25972 42.6135 3.38489 39.5123L1.4852 32.7781C0.543411 29.4396 0.0661138 25.9873 0.0667692 22.5186L0.0678046 17.0389C0.0683073 14.378 0.730091 11.759 1.99366 9.41733C5.23278 3.41456 11.9112 0.113811 18.6477 1.18621L26.5007 2.43636C32.3484 3.36727 37.355 7.1354 39.8682 12.4971C40.8157 14.5185 41.3759 16.6996 41.5198 18.9273L42.8071 38.8542L42.8081 57.643L42.0569 70.6072L41.3058 83.5714Z" fill="url(#paint4_linear)" fill-opacity="0.9"/>
<path d="M41.3058 83.5714L34.7442 127.537L32.766 148.437C32.4587 151.685 33.3058 154.937 35.1584 157.622C37.148 160.506 40.1549 162.529 43.5751 163.287L52.9187 165.358C58.1804 166.524 63.629 166.564 68.9071 165.476L94.9464 160.107L96.8718 159.559C101.29 158.301 105.86 157.658 110.454 157.648L132.081 157.599C134.939 157.593 137.792 157.832 140.609 158.313L157.774 161.244C160.54 161.716 163.255 162.453 165.879 163.446L174.685 166.774C178.254 168.122 181.258 170.642 183.209 173.92L183.892 175.07C184.988 176.911 185.568 179.013 185.573 181.155C185.585 186.254 182.362 190.799 177.547 192.475L173.399 193.918C171.496 194.581 169.497 194.921 167.482 194.925L165.207 194.93C163.081 194.935 160.959 194.726 158.875 194.305L141.398 190.782C138.108 190.118 134.76 189.788 131.404 189.795L101.609 189.862C98.8892 189.868 96.1748 190.095 93.4926 190.543L77.9919 193.129L57.8992 196.681L29.1357 198.934L25.5213 198.934C15.5738 198.933 6.9933 191.947 4.97593 182.206C3.09649 175.893 2.57935 169.252 3.45873 162.724L4.70629 153.464L7.40687 100.295L7.40558 77.1814L5.09596 49.0033C4.83274 45.7919 4.25972 42.6135 3.38489 39.5123L1.4852 32.7781C0.543411 29.4396 0.0661138 25.9873 0.0667692 22.5186L0.0678046 17.0389C0.0683073 14.378 0.730091 11.759 1.99366 9.41733C5.23278 3.41456 11.9112 0.113811 18.6477 1.18621L26.5007 2.43636C32.3484 3.36727 37.355 7.1354 39.8682 12.4971C40.8157 14.5185 41.3759 16.6996 41.5198 18.9273L42.8071 38.8542L42.8081 57.643L42.0569 70.6072L41.3058 83.5714Z" fill="url(#paint5_angular)" fill-opacity="0.6"/>
</g>
<defs>
<filter id="filter0_i" x="0.0667725" y="0.98584" width="185.506" height="201.948" filterUnits="userSpaceOnUse" color-interpolation-filters="sRGB">
<feFlood flood-opacity="0" result="BackgroundImageFix"/>
<feBlend mode="normal" in="SourceGraphic" in2="BackgroundImageFix" result="shape"/>
<feColorMatrix in="SourceAlpha" type="matrix" values="0 0 0 0 0 0 0 0 0 0 0 0 0 0 0 0 0 0 127 0" result="hardAlpha"/>
<feOffset dy="4"/>
<feGaussianBlur stdDeviation="2"/>
<feComposite in2="hardAlpha" operator="arithmetic" k2="-1" k3="1"/>
<feColorMatrix type="matrix" values="0 0 0 0 0.4625 0 0 0 0 0.4625 0 0 0 0 0.4625 0 0 0 0.09 0"/>
<feBlend mode="normal" in2="shape" result="effect1_innerShadow"/>
</filter>
<radialGradient id="paint0_radial" cx="0" cy="0" r="1" gradientUnits="userSpaceOnUse" gradientTransform="translate(92.8067 98.9988) rotate(89.867) scale(99.7929 92.5753)">
<stop offset="0.614583" stop-color="#FFE99D"/>
<stop offset="1" stop-color="#FFE99D" stop-opacity="0"/>
</radialGradient>
<linearGradient id="paint1_linear" x1="92.575" y1="-0.793862" x2="93.0196" y2="198.791" gradientUnits="userSpaceOnUse">
<stop stop-color="white" stop-opacity="0"/>
<stop offset="1" stop-color="#ADFF00" stop-opacity="0.6"/>
</linearGradient>
<radialGradient id="paint2_radial" cx="0" cy="0" r="1" gradientUnits="userSpaceOnUse" gradientTransform="translate(92.8067 98.9988) rotate(89.867) scale(99.7929 92.5753)">
<stop offset="0.5" stop-color="#EE80F0"/>
<stop offset="1" stop-color="white" stop-opacity="0"/>
</radialGradient>
<linearGradient id="paint3_linear" x1="92.575" y1="-0.793862" x2="93.0196" y2="198.791" gradientUnits="userSpaceOnUse">
<stop offset="0.463542" stop-color="#BD00FF" stop-opacity="0.33"/>
<stop offset="1" stop-color="white"/>
</linearGradient>
<linearGradient id="paint4_linear" x1="92.575" y1="-0.793862" x2="93.0196" y2="198.791" gradientUnits="userSpaceOnUse">
<stop stop-color="#A3F94E" stop-opacity="0.81"/>
<stop offset="1" stop-color="white" stop-opacity="0"/>
</linearGradient>
<radialGradient id="paint5_angular" cx="0" cy="0" r="1" gradientUnits="userSpaceOnUse" gradientTransform="translate(92.8067 98.9988) rotate(-17.5276) scale(114.93 120.936)">
<stop stop-color="white"/>
<stop offset="1" stop-color="#68FF0C" stop-opacity="0.33"/>
</radialGradient>
</defs>
</svg>
