<svg width="235" height="271" viewBox="0 0 235 271" fill="none" xmlns="http://www.w3.org/2000/svg">
<g filter="url(#filter0_i)">
<path d="M71.0476 83.1026L59.4376 159.055C58.5848 164.634 58.7121 170.317 59.8137 175.848L60.7416 180.506C64.0019 196.874 76.7917 209.652 93.1652 212.9C98.0258 213.864 103.022 213.946 107.916 213.142L160.88 204.445L169.556 202.365C173.929 201.317 178.421 200.863 182.912 201.015L209.637 201.917C223.197 202.375 233.936 213.482 233.936 227.049C233.936 240.266 223.62 250.926 210.753 253.99C205.966 255.13 202.158 256.345 199.316 257.391C195.036 258.966 190.693 260.489 186.19 261.198L132.866 269.587C130.292 269.992 127.692 270.195 125.088 270.195L80.0149 270.195L47.0016 269.08C42.3642 268.923 37.7727 268.122 33.3594 266.699L28.381 265.094C18.5196 261.914 10.3425 254.932 5.66033 245.694C2.68457 239.822 1.24896 233.288 1.48781 226.703L2.05621 211.032L4.58613 133.919L4.58613 66L7.33978 30.9114C8.71954 13.3296 23.7322 -0.062363 41.3548 0.568456C59.496 1.21784 73.6363 16.4546 72.9317 34.5939L71.0476 83.1026Z" fill="#DFD5FA" fill-opacity="0.6"/>
<path d="M71.0476 83.1026L59.4376 159.055C58.5848 164.634 58.7121 170.317 59.8137 175.848L60.7416 180.506C64.0019 196.874 76.7917 209.652 93.1652 212.9C98.0258 213.864 103.022 213.946 107.916 213.142L160.88 204.445L169.556 202.365C173.929 201.317 178.421 200.863 182.912 201.015L209.637 201.917C223.197 202.375 233.936 213.482 233.936 227.049C233.936 240.266 223.62 250.926 210.753 253.99C205.966 255.13 202.158 256.345 199.316 257.391C195.036 258.966 190.693 260.489 186.19 261.198L132.866 269.587C130.292 269.992 127.692 270.195 125.088 270.195L80.0149 270.195L47.0016 269.08C42.3642 268.923 37.7727 268.122 33.3594 266.699L28.381 265.094C18.5196 261.914 10.3425 254.932 5.66033 245.694C2.68457 239.822 1.24896 233.288 1.48781 226.703L2.05621 211.032L4.58613 133.919L4.58613 66L7.33978 30.9114C8.71954 13.3296 23.7322 -0.062363 41.3548 0.568456C59.496 1.21784 73.6363 16.4546 72.9317 34.5939L71.0476 83.1026Z" fill="url(#paint0_linear)" fill-opacity="0.44"/>
<path d="M71.0476 83.1026L59.4376 159.055C58.5848 164.634 58.7121 170.317 59.8137 175.848L60.7416 180.506C64.0019 196.874 76.7917 209.652 93.1652 212.9C98.0258 213.864 103.022 213.946 107.916 213.142L160.88 204.445L169.556 202.365C173.929 201.317 178.421 200.863 182.912 201.015L209.637 201.917C223.197 202.375 233.936 213.482 233.936 227.049C233.936 240.266 223.62 250.926 210.753 253.99C205.966 255.13 202.158 256.345 199.316 257.391C195.036 258.966 190.693 260.489 186.19 261.198L132.866 269.587C130.292 269.992 127.692 270.195 125.088 270.195L80.0149 270.195L47.0016 269.08C42.3642 268.923 37.7727 268.122 33.3594 266.699L28.381 265.094C18.5196 261.914 10.3425 254.932 5.66033 245.694C2.68457 239.822 1.24896 233.288 1.48781 226.703L2.05621 211.032L4.58613 133.919L4.58613 66L7.33978 30.9114C8.71954 13.3296 23.7322 -0.062363 41.3548 0.568456C59.496 1.21784 73.6363 16.4546 72.9317 34.5939L71.0476 83.1026Z" fill="url(#paint1_radial)" fill-opacity="0.19"/>
<path d="M71.0476 83.1026L59.4376 159.055C58.5848 164.634 58.7121 170.317 59.8137 175.848L60.7416 180.506C64.0019 196.874 76.7917 209.652 93.1652 212.9C98.0258 213.864 103.022 213.946 107.916 213.142L160.88 204.445L169.556 202.365C173.929 201.317 178.421 200.863 182.912 201.015L209.637 201.917C223.197 202.375 233.936 213.482 233.936 227.049C233.936 240.266 223.62 250.926 210.753 253.99C205.966 255.13 202.158 256.345 199.316 257.391C195.036 258.966 190.693 260.489 186.19 261.198L132.866 269.587C130.292 269.992 127.692 270.195 125.088 270.195L80.0149 270.195L47.0016 269.08C42.3642 268.923 37.7727 268.122 33.3594 266.699L28.381 265.094C18.5196 261.914 10.3425 254.932 5.66033 245.694C2.68457 239.822 1.24896 233.288 1.48781 226.703L2.05621 211.032L4.58613 133.919L4.58613 66L7.33978 30.9114C8.71954 13.3296 23.7322 -0.062363 41.3548 0.568456C59.496 1.21784 73.6363 16.4546 72.9317 34.5939L71.0476 83.1026Z" fill="url(#paint2_linear)" fill-opacity="0.36"/>
</g>
<path d="M71.0476 83.1026L59.4376 159.055C58.5848 164.634 58.7121 170.317 59.8137 175.848L60.7416 180.506C64.0019 196.874 76.7917 209.652 93.1652 212.9C98.0258 213.864 103.022 213.946 107.916 213.142L160.88 204.445L169.556 202.365C173.929 201.317 178.421 200.863 182.912 201.015L209.637 201.917C223.197 202.375 233.936 213.482 233.936 227.049C233.936 240.266 223.62 250.926 210.753 253.99C205.966 255.13 202.158 256.345 199.316 257.391C195.036 258.966 190.693 260.489 186.19 261.198L132.866 269.587C130.292 269.992 127.692 270.195 125.088 270.195L80.0149 270.195L47.0016 269.08C42.3642 268.923 37.7727 268.122 33.3594 266.699L28.381 265.094C18.5196 261.914 10.3425 254.932 5.66033 245.694C2.68457 239.822 1.24896 233.288 1.48781 226.703L2.05621 211.032L4.58613 133.919L4.58613 66L7.33978 30.9114C8.71954 13.3296 23.7322 -0.062363 41.3548 0.568456C59.496 1.21784 73.6363 16.4546 72.9317 34.5939L71.0476 83.1026Z" stroke="#594600" stroke-opacity="0.05"/>
<defs>
<filter id="filter0_i" x="0.962169" y="0.0471191" width="233.474" height="274.648" filterUnits="userSpaceOnUse" color-interpolation-filters="sRGB">
<feFlood flood-opacity="0" result="BackgroundImageFix"/>
<feBlend mode="normal" in="SourceGraphic" in2="BackgroundImageFix" result="shape"/>
<feColorMatrix in="SourceAlpha" type="matrix" values="0 0 0 0 0 0 0 0 0 0 0 0 0 0 0 0 0 0 127 0" result="hardAlpha"/>
<feOffset dy="4"/>
<feGaussianBlur stdDeviation="2"/>
<feComposite in2="hardAlpha" operator="arithmetic" k2="-1" k3="1"/>
<feColorMatrix type="matrix" values="0 0 0 0 0.4625 0 0 0 0 0.4625 0 0 0 0 0.4625 0 0 0 0.09 0"/>
<feBlend mode="normal" in2="shape" result="effect1_innerShadow"/>
</filter>
<linearGradient id="paint0_linear" x1="124.88" y1="3.32631" x2="115.825" y2="271.405" gradientUnits="userSpaceOnUse">
<stop stop-color="#AD00FF" stop-opacity="0.06"/>
<stop offset="0.557292" stop-color="white" stop-opacity="0"/>
</linearGradient>
<radialGradient id="paint1_radial" cx="0" cy="0" r="1" gradientUnits="userSpaceOnUse" gradientTransform="translate(120.019 137.354) rotate(92.0772) scale(134.116 117.943)">
<stop offset="0.34375" stop-color="#9680F0"/>
<stop offset="1" stop-color="white" stop-opacity="0"/>
</radialGradient>
<linearGradient id="paint2_linear" x1="124.88" y1="3.32631" x2="115.825" y2="271.405" gradientUnits="userSpaceOnUse">
<stop offset="0.463542" stop-color="#00FFF0" stop-opacity="0.17"/>
<stop offset="1" stop-color="white"/>
</linearGradient>
</defs>
</svg>
