<svg width="220" height="78" viewBox="0 0 220 78" fill="none" xmlns="http://www.w3.org/2000/svg">
<rect width="13.7838" height="52.8864" rx="6.89189" transform="matrix(0.999445 -0.0333122 0.0251366 0.999684 88.1862 22.6428)" fill="#B84EF9" fill-opacity="0.19"/>
<rect width="27.6182" height="24.1954" rx="12.0977" transform="matrix(0.0267386 0.999642 -0.999132 0.0416594 62.5588 48.3105)" fill="#B84EF9" fill-opacity="0.19"/>
<rect width="16.0811" height="35.6983" rx="8.04054" transform="matrix(0.999445 -0.0333122 0.0251366 0.999684 67.954 40.5144)" fill="#B84EF9" fill-opacity="0.19"/>
<rect width="5.74324" height="74.041" rx="2.87162" transform="matrix(0.999445 -0.0333122 0.0251366 0.999684 106.023 0.882568)" fill="#B84EF9" fill-opacity="0.19"/>
<rect width="13.7838" height="52.8864" rx="6.89189" transform="matrix(0.999445 -0.0333122 0.0251366 0.999684 116.886 21.686)" fill="#B84EF9" fill-opacity="0.19"/>
<rect width="27.6182" height="24.1954" rx="12.0977" transform="matrix(0.0267386 0.999642 -0.999132 0.0416594 181.845 44.3347)" fill="#B84EF9" fill-opacity="0.19"/>
<rect width="16.0811" height="35.6983" rx="8.04054" transform="matrix(0.999445 -0.0333122 0.0251366 0.999684 135.687 38.2566)" fill="#B84EF9" fill-opacity="0.19"/>
<rect width="18.4115" height="32.2665" rx="9.20573" transform="matrix(0.0286301 0.99959 -0.998672 0.0515088 219.388 51.0659)" fill="#B84EF9" fill-opacity="0.19"/>
<rect width="18.4115" height="32.2665" rx="9.20573" transform="matrix(0.0286301 0.99959 -0.998672 0.0515088 32.2236 57.4175)" fill="#B84EF9" fill-opacity="0.19"/>
</svg>
