<svg width="235" height="241" viewBox="0 0 235 241" fill="none" xmlns="http://www.w3.org/2000/svg">
<g filter="url(#filter0_i)">
<path d="M26.5306 5.94414e-05L34.6243 5.94405e-05C37.8364 5.94412e-05 41.0099 0.698223 43.9252 2.0462C51.6048 5.59713 56.5918 13.2111 56.7787 21.6704L59.4397 142.12L59.4365 164.589C59.4356 170.61 61.9257 176.362 66.316 180.481C70.3552 184.27 75.6864 186.379 81.2254 186.378L112.545 186.374L220.368 186.358C222.946 186.358 225.475 187.063 227.681 188.396C231.914 190.956 234.5 195.542 234.5 200.488L234.5 216.212C234.5 224.321 229.81 231.699 222.467 235.14C219.851 236.367 217.009 237.038 214.12 237.11L67.5745 240.795C62.1867 240.931 56.8126 240.194 51.6602 238.615L38.6551 234.627C17.9824 228.288 3.72939 209.377 3.3293 187.757L0.348328 26.6712C0.140217 15.4253 7.1381 5.3019 17.7326 1.52242C20.5565 0.514997 23.5325 5.94378e-05 26.5306 5.94414e-05Z" fill="url(#paint0_radial)" fill-opacity="0.9"/>
<path d="M26.5306 5.94414e-05L34.6243 5.94405e-05C37.8364 5.94412e-05 41.0099 0.698223 43.9252 2.0462C51.6048 5.59713 56.5918 13.2111 56.7787 21.6704L59.4397 142.12L59.4365 164.589C59.4356 170.61 61.9257 176.362 66.316 180.481C70.3552 184.27 75.6864 186.379 81.2254 186.378L112.545 186.374L220.368 186.358C222.946 186.358 225.475 187.063 227.681 188.396C231.914 190.956 234.5 195.542 234.5 200.488L234.5 216.212C234.5 224.321 229.81 231.699 222.467 235.14C219.851 236.367 217.009 237.038 214.12 237.11L67.5745 240.795C62.1867 240.931 56.8126 240.194 51.6602 238.615L38.6551 234.627C17.9824 228.288 3.72939 209.377 3.3293 187.757L0.348328 26.6712C0.140217 15.4253 7.1381 5.3019 17.7326 1.52242C20.5565 0.514997 23.5325 5.94378e-05 26.5306 5.94414e-05Z" fill="url(#paint1_linear)"/>
<path d="M26.5306 5.94414e-05L34.6243 5.94405e-05C37.8364 5.94412e-05 41.0099 0.698223 43.9252 2.0462C51.6048 5.59713 56.5918 13.2111 56.7787 21.6704L59.4397 142.12L59.4365 164.589C59.4356 170.61 61.9257 176.362 66.316 180.481C70.3552 184.27 75.6864 186.379 81.2254 186.378L112.545 186.374L220.368 186.358C222.946 186.358 225.475 187.063 227.681 188.396C231.914 190.956 234.5 195.542 234.5 200.488L234.5 216.212C234.5 224.321 229.81 231.699 222.467 235.14C219.851 236.367 217.009 237.038 214.12 237.11L67.5745 240.795C62.1867 240.931 56.8126 240.194 51.6602 238.615L38.6551 234.627C17.9824 228.288 3.72939 209.377 3.3293 187.757L0.348328 26.6712C0.140217 15.4253 7.1381 5.3019 17.7326 1.52242C20.5565 0.514997 23.5325 5.94378e-05 26.5306 5.94414e-05Z" fill="url(#paint2_radial)" fill-opacity="0.45"/>
<path d="M26.5306 5.94414e-05L34.6243 5.94405e-05C37.8364 5.94412e-05 41.0099 0.698223 43.9252 2.0462C51.6048 5.59713 56.5918 13.2111 56.7787 21.6704L59.4397 142.12L59.4365 164.589C59.4356 170.61 61.9257 176.362 66.316 180.481C70.3552 184.27 75.6864 186.379 81.2254 186.378L112.545 186.374L220.368 186.358C222.946 186.358 225.475 187.063 227.681 188.396C231.914 190.956 234.5 195.542 234.5 200.488L234.5 216.212C234.5 224.321 229.81 231.699 222.467 235.14C219.851 236.367 217.009 237.038 214.12 237.11L67.5745 240.795C62.1867 240.931 56.8126 240.194 51.6602 238.615L38.6551 234.627C17.9824 228.288 3.72939 209.377 3.3293 187.757L0.348328 26.6712C0.140217 15.4253 7.1381 5.3019 17.7326 1.52242C20.5565 0.514997 23.5325 5.94378e-05 26.5306 5.94414e-05Z" fill="url(#paint3_linear)" fill-opacity="0.6"/>
<path d="M26.5306 5.94414e-05L34.6243 5.94405e-05C37.8364 5.94412e-05 41.0099 0.698223 43.9252 2.0462C51.6048 5.59713 56.5918 13.2111 56.7787 21.6704L59.4397 142.12L59.4365 164.589C59.4356 170.61 61.9257 176.362 66.316 180.481C70.3552 184.27 75.6864 186.379 81.2254 186.378L112.545 186.374L220.368 186.358C222.946 186.358 225.475 187.063 227.681 188.396C231.914 190.956 234.5 195.542 234.5 200.488L234.5 216.212C234.5 224.321 229.81 231.699 222.467 235.14C219.851 236.367 217.009 237.038 214.12 237.11L67.5745 240.795C62.1867 240.931 56.8126 240.194 51.6602 238.615L38.6551 234.627C17.9824 228.288 3.72939 209.377 3.3293 187.757L0.348328 26.6712C0.140217 15.4253 7.1381 5.3019 17.7326 1.52242C20.5565 0.514997 23.5325 5.94378e-05 26.5306 5.94414e-05Z" fill="url(#paint4_linear)"/>
</g>
<defs>
<filter id="filter0_i" x="0.343809" y="0" width="234.156" height="244.811" filterUnits="userSpaceOnUse" color-interpolation-filters="sRGB">
<feFlood flood-opacity="0" result="BackgroundImageFix"/>
<feBlend mode="normal" in="SourceGraphic" in2="BackgroundImageFix" result="shape"/>
<feColorMatrix in="SourceAlpha" type="matrix" values="0 0 0 0 0 0 0 0 0 0 0 0 0 0 0 0 0 0 127 0" result="hardAlpha"/>
<feOffset dy="4"/>
<feGaussianBlur stdDeviation="2"/>
<feComposite in2="hardAlpha" operator="arithmetic" k2="-1" k3="1"/>
<feColorMatrix type="matrix" values="0 0 0 0 0.4625 0 0 0 0 0.4625 0 0 0 0 0.4625 0 0 0 0.09 0"/>
<feBlend mode="normal" in2="shape" result="effect1_innerShadow"/>
</filter>
<radialGradient id="paint0_radial" cx="0" cy="0" r="1" gradientUnits="userSpaceOnUse" gradientTransform="translate(117.294 120.319) rotate(89.8744) scale(120.544 117.047)">
<stop offset="0.296875" stop-color="#FFE99D"/>
<stop offset="1" stop-color="#FFE99D" stop-opacity="0"/>
</radialGradient>
<linearGradient id="paint1_linear" x1="117.03" y1="-0.224134" x2="117.599" y2="240.863" gradientUnits="userSpaceOnUse">
<stop stop-color="white" stop-opacity="0"/>
<stop offset="0.463542" stop-color="#ADFF00" stop-opacity="0.72"/>
</linearGradient>
<radialGradient id="paint2_radial" cx="0" cy="0" r="1" gradientUnits="userSpaceOnUse" gradientTransform="translate(117.294 120.319) rotate(89.8744) scale(120.544 117.047)">
<stop offset="0.5" stop-color="#EE80F0"/>
<stop offset="1" stop-color="white" stop-opacity="0"/>
</radialGradient>
<linearGradient id="paint3_linear" x1="117.03" y1="-0.224134" x2="117.599" y2="240.863" gradientUnits="userSpaceOnUse">
<stop offset="0.463542" stop-color="#BD00FF" stop-opacity="0.33"/>
<stop offset="1" stop-color="white"/>
</linearGradient>
<linearGradient id="paint4_linear" x1="117.03" y1="-0.224134" x2="117.599" y2="240.863" gradientUnits="userSpaceOnUse">
<stop stop-color="#A3F94E" stop-opacity="0.81"/>
<stop offset="0.625" stop-color="#A0FF41" stop-opacity="0"/>
</linearGradient>
</defs>
</svg>
