<svg width="126" height="137" viewBox="0 0 126 137" fill="none" xmlns="http://www.w3.org/2000/svg">
<g filter="url(#filter0_i)">
<path d="M12.3406 135.849L13.1998 135.51C14.0004 135.195 14.7604 134.785 15.4634 134.289L32.1872 122.483C34.1275 121.114 35.9677 119.607 37.694 117.976L65.1512 92.0294L93.0547 61.3124L110.961 36.3272L123.902 17.4678C124.847 16.0904 125.469 14.5174 125.722 12.8662C126.854 5.47937 120.514 -0.894768 113.122 0.196787L110.311 0.611759C108.287 0.910613 106.36 1.67575 104.682 2.84679L98.6242 7.07521C96.5577 8.51757 94.6173 10.1326 92.8239 11.903L76.8822 27.6397L65.1512 39.7663L39.6088 70.0552L14.4051 103.783L1.71817 121.227C0.601503 122.762 0 124.612 0 126.51C0 128.349 0.564126 130.143 1.61621 131.651L2.4658 132.868C3.4499 134.278 4.84672 135.349 6.46419 135.933C8.36809 136.621 10.4573 136.591 12.3406 135.849Z" fill="url(#paint0_radial)" fill-opacity="0.6"/>
<path d="M12.3406 135.849L13.1998 135.51C14.0004 135.195 14.7604 134.785 15.4634 134.289L32.1872 122.483C34.1275 121.114 35.9677 119.607 37.694 117.976L65.1512 92.0294L93.0547 61.3124L110.961 36.3272L123.902 17.4678C124.847 16.0904 125.469 14.5174 125.722 12.8662C126.854 5.47937 120.514 -0.894768 113.122 0.196787L110.311 0.611759C108.287 0.910613 106.36 1.67575 104.682 2.84679L98.6242 7.07521C96.5577 8.51757 94.6173 10.1326 92.8239 11.903L76.8822 27.6397L65.1512 39.7663L39.6088 70.0552L14.4051 103.783L1.71817 121.227C0.601503 122.762 0 124.612 0 126.51C0 128.349 0.564126 130.143 1.61621 131.651L2.4658 132.868C3.4499 134.278 4.84672 135.349 6.46419 135.933C8.36809 136.621 10.4573 136.591 12.3406 135.849Z" fill="url(#paint1_linear)" fill-opacity="0.9"/>
<path d="M12.3406 135.849L13.1998 135.51C14.0004 135.195 14.7604 134.785 15.4634 134.289L32.1872 122.483C34.1275 121.114 35.9677 119.607 37.694 117.976L65.1512 92.0294L93.0547 61.3124L110.961 36.3272L123.902 17.4678C124.847 16.0904 125.469 14.5174 125.722 12.8662C126.854 5.47937 120.514 -0.894768 113.122 0.196787L110.311 0.611759C108.287 0.910613 106.36 1.67575 104.682 2.84679L98.6242 7.07521C96.5577 8.51757 94.6173 10.1326 92.8239 11.903L76.8822 27.6397L65.1512 39.7663L39.6088 70.0552L14.4051 103.783L1.71817 121.227C0.601503 122.762 0 124.612 0 126.51C0 128.349 0.564126 130.143 1.61621 131.651L2.4658 132.868C3.4499 134.278 4.84672 135.349 6.46419 135.933C8.36809 136.621 10.4573 136.591 12.3406 135.849Z" fill="url(#paint2_linear)" fill-opacity="0.6"/>
<path d="M12.3406 135.849L13.1998 135.51C14.0004 135.195 14.7604 134.785 15.4634 134.289L32.1872 122.483C34.1275 121.114 35.9677 119.607 37.694 117.976L65.1512 92.0294L93.0547 61.3124L110.961 36.3272L123.902 17.4678C124.847 16.0904 125.469 14.5174 125.722 12.8662C126.854 5.47937 120.514 -0.894768 113.122 0.196787L110.311 0.611759C108.287 0.910613 106.36 1.67575 104.682 2.84679L98.6242 7.07521C96.5577 8.51757 94.6173 10.1326 92.8239 11.903L76.8822 27.6397L65.1512 39.7663L39.6088 70.0552L14.4051 103.783L1.71817 121.227C0.601503 122.762 0 124.612 0 126.51C0 128.349 0.564126 130.143 1.61621 131.651L2.4658 132.868C3.4499 134.278 4.84672 135.349 6.46419 135.933C8.36809 136.621 10.4573 136.591 12.3406 135.849Z" fill="url(#paint3_linear)" fill-opacity="0.9"/>
<path d="M12.3406 135.849L13.1998 135.51C14.0004 135.195 14.7604 134.785 15.4634 134.289L32.1872 122.483C34.1275 121.114 35.9677 119.607 37.694 117.976L65.1512 92.0294L93.0547 61.3124L110.961 36.3272L123.902 17.4678C124.847 16.0904 125.469 14.5174 125.722 12.8662C126.854 5.47937 120.514 -0.894768 113.122 0.196787L110.311 0.611759C108.287 0.910613 106.36 1.67575 104.682 2.84679L98.6242 7.07521C96.5577 8.51757 94.6173 10.1326 92.8239 11.903L76.8822 27.6397L65.1512 39.7663L39.6088 70.0552L14.4051 103.783L1.71817 121.227C0.601503 122.762 0 124.612 0 126.51C0 128.349 0.564126 130.143 1.61621 131.651L2.4658 132.868C3.4499 134.278 4.84672 135.349 6.46419 135.933C8.36809 136.621 10.4573 136.591 12.3406 135.849Z" fill="url(#paint4_linear)" fill-opacity="0.9"/>
</g>
<defs>
<filter id="filter0_i" x="0" y="0.0744629" width="125.854" height="140.354" filterUnits="userSpaceOnUse" color-interpolation-filters="sRGB">
<feFlood flood-opacity="0" result="BackgroundImageFix"/>
<feBlend mode="normal" in="SourceGraphic" in2="BackgroundImageFix" result="shape"/>
<feColorMatrix in="SourceAlpha" type="matrix" values="0 0 0 0 0 0 0 0 0 0 0 0 0 0 0 0 0 0 127 0" result="hardAlpha"/>
<feOffset dy="4"/>
<feGaussianBlur stdDeviation="2"/>
<feComposite in2="hardAlpha" operator="arithmetic" k2="-1" k3="1"/>
<feColorMatrix type="matrix" values="0 0 0 0 0.4625 0 0 0 0 0.4625 0 0 0 0 0.4625 0 0 0 0.09 0"/>
<feBlend mode="normal" in2="shape" result="effect1_innerShadow"/>
</filter>
<radialGradient id="paint0_radial" cx="0" cy="0" r="1" gradientUnits="userSpaceOnUse" gradientTransform="translate(64 67.5) rotate(90) scale(69.5 64)">
<stop offset="0.614583" stop-color="#C8FF9D" stop-opacity="0.87"/>
<stop offset="1" stop-color="#FFE99D" stop-opacity="0"/>
</radialGradient>
<linearGradient id="paint1_linear" x1="64" y1="-2" x2="64" y2="137" gradientUnits="userSpaceOnUse">
<stop stop-color="white" stop-opacity="0"/>
<stop offset="1" stop-color="#ADFF00" stop-opacity="0.6"/>
</linearGradient>
<linearGradient id="paint2_linear" x1="64" y1="-2" x2="64" y2="137" gradientUnits="userSpaceOnUse">
<stop offset="0.463542" stop-color="#BD00FF" stop-opacity="0.33"/>
<stop offset="1" stop-color="white"/>
</linearGradient>
<linearGradient id="paint3_linear" x1="64" y1="-2" x2="64" y2="137" gradientUnits="userSpaceOnUse">
<stop stop-color="#C2F94E" stop-opacity="0.63"/>
<stop offset="1" stop-color="white" stop-opacity="0"/>
</linearGradient>
<linearGradient id="paint4_linear" x1="64" y1="-2" x2="64" y2="137" gradientUnits="userSpaceOnUse">
<stop offset="0.833333" stop-color="#A3FF0C" stop-opacity="0.18"/>
<stop offset="1" stop-color="white" stop-opacity="0"/>
</linearGradient>
</defs>
</svg>
