<svg width="60" height="60" viewBox="0 0 60 60" fill="none" xmlns="http://www.w3.org/2000/svg">
<path d="M0 30C0 46.5685 13.4315 60 30 60C46.5685 60 60 46.5685 60 30C60 13.4315 46.5685 0 30 0C13.4315 0 0 13.4315 0 30Z" fill="url(#paint0_radial)"/>
<path d="M0 30C0 46.5685 13.4315 60 30 60C46.5685 60 60 46.5685 60 30C60 13.4315 46.5685 0 30 0C13.4315 0 0 13.4315 0 30Z" fill="url(#paint1_radial)"/>
<path d="M30 49.5C19.2304 49.5 10.5 40.7696 10.5 30C10.5 19.2304 19.2304 10.5 30 10.5C40.7696 10.5 49.5 19.2304 49.5 30C49.5 40.7696 40.7696 49.5 30 49.5Z" stroke="url(#paint2_radial)" stroke-opacity="0.13" stroke-width="21"/>
<defs>
<radialGradient id="paint0_radial" cx="0" cy="0" r="1" gradientUnits="userSpaceOnUse" gradientTransform="translate(30 30) rotate(90) scale(30)">
<stop offset="0.567708" stop-color="#61FF00" stop-opacity="0.08"/>
<stop offset="0.953125" stop-color="#C4C4C4" stop-opacity="0"/>
</radialGradient>
<radialGradient id="paint1_radial" cx="0" cy="0" r="1" gradientUnits="userSpaceOnUse" gradientTransform="translate(30 30) rotate(90) scale(30)">
<stop offset="0.0004" stop-color="#B9368C" stop-opacity="0.08"/>
<stop offset="1" stop-color="#FF6CF0" stop-opacity="0.06"/>
</radialGradient>
<radialGradient id="paint2_radial" cx="0" cy="0" r="1" gradientUnits="userSpaceOnUse" gradientTransform="translate(30 30) rotate(90) scale(30)">
<stop offset="0.9999" stop-color="#5AFF0D" stop-opacity="0.22"/>
<stop offset="1" stop-color="#5AFF0D" stop-opacity="0"/>
</radialGradient>
</defs>
</svg>
