<svg version="1.1" viewBox="50 50 900.0 320.0" fill="none" stroke="none" stroke-linecap="square" stroke-miterlimit="10" xmlns:xlink="http://www.w3.org/1999/xlink" xmlns="http://www.w3.org/2000/svg"><clipPath id="p.0"><path d="m0 0l960.0 0l0 720.0l-960.0 0l0 -720.0z" clip-rule="nonzero"/></clipPath><g clip-path="url(#p.0)"><path fill="#000000" fill-opacity="0.0" d="m0 0l960.0 0l0 720.0l-960.0 0z" fill-rule="evenodd"/><path fill="#00ff00" fill-opacity="0.4693" d="m459.82678 263.00262l0 0c0 -16.385895 14.326874 -29.669296 32.0 -29.669296l0 0c17.673096 0 32.0 13.2834015 32.0 29.669296l0 0c0 16.385895 -14.326904 29.669281 -32.0 29.669281l0 0c-17.673126 0 -32.0 -13.283386 -32.0 -29.669281z" fill-rule="evenodd"/><path fill="#00ff00" fill-opacity="0.4693" d="m436.08398 263.00262l0 0c0 -16.385895 14.326904 -29.669296 32.0 -29.669296l0 0c17.673126 0 32.0 13.2834015 32.0 29.669296l0 0c0 16.385895 -14.326874 29.669281 -32.0 29.669281l0 0c-17.673096 0 -32.0 -13.283386 -32.0 -29.669281z" fill-rule="evenodd"/><path fill="#00ff00" fill-opacity="0.4693" d="m448.0 281.3491l0 0c0 -16.385895 14.326874 -29.669296 32.0 -29.669296l0 0c17.673126 0 32.0 13.2834015 32.0 29.669296l0 0c0 16.385895 -14.326874 29.669281 -32.0 29.669281l0 0c-17.673126 0 -32.0 -13.283386 -32.0 -29.669281z" fill-rule="evenodd"/><path fill="#ff0000" fill-opacity="0.6927" d="m436.17322 263.00262l0 0c0 -24.396194 19.621918 -44.173233 43.826782 -44.173233l0 0c11.623596 0 22.771088 4.653961 30.990204 12.938049c8.219147 8.284088 12.836578 19.519714 12.836578 31.235184l0 0c0 24.39621 -19.621918 44.173218 -43.826782 44.173218l0 0c-24.204865 0 -43.826782 -19.777008 -43.826782 -44.173218z" fill-rule="evenodd"/></g></svg>
