<svg width="24" height="11" viewBox="0 0 24 11" fill="none" xmlns="http://www.w3.org/2000/svg">
<path d="M5.3587 8.108H4.4947L4.3747 6.716C4.1907 7.124 3.9307 7.46 3.5947 7.724C3.2667 7.988 2.8467 8.12 2.3347 8.12C1.8227 8.12 1.4147 7.984 1.1107 7.712C0.814703 7.432 0.658703 7.068 0.642703 6.62V2.984H1.6627V6.164C1.6787 6.412 1.7667 6.624 1.9267 6.8C2.0947 6.976 2.3507 7.076 2.6947 7.1C2.9347 7.1 3.1547 7.06 3.3547 6.98C3.5547 6.892 3.7267 6.776 3.8707 6.632C4.0147 6.488 4.1267 6.316 4.2067 6.116C4.2867 5.916 4.3267 5.696 4.3267 5.456V2.984H5.3587V8.108ZM6.79617 2.984H7.69617C7.71217 3.232 7.72417 3.46 7.73217 3.668C7.74817 3.868 7.76417 4.068 7.78017 4.268C7.96417 3.836 8.22417 3.492 8.56017 3.236C8.90417 2.98 9.32417 2.852 9.82017 2.852C10.3242 2.852 10.7282 2.992 11.0322 3.272C11.3362 3.552 11.4962 3.912 11.5122 4.352V8H10.4802V4.82C10.4642 4.564 10.3762 4.348 10.2162 4.172C10.0562 3.988 9.80417 3.888 9.46017 3.872C9.22017 3.872 9.00017 3.916 8.80017 4.004C8.60017 4.084 8.42817 4.196 8.28417 4.34C8.14017 4.484 8.02417 4.656 7.93617 4.856C7.85617 5.056 7.81617 5.276 7.81617 5.516V8H6.79617V2.984ZM12.7696 1.064C12.7696 0.872 12.8376 0.711999 12.9736 0.584C13.1176 0.456 13.2696 0.392 13.4296 0.392C13.5896 0.392 13.7376 0.456 13.8736 0.584C14.0096 0.711999 14.0776 0.872 14.0776 1.064C14.0776 1.256 14.0096 1.416 13.8736 1.544C13.7376 1.664 13.5896 1.724 13.4296 1.724C13.2696 1.724 13.1176 1.664 12.9736 1.544C12.8376 1.416 12.7696 1.256 12.7696 1.064ZM13.9216 8H12.9016V2.984H13.9216V8ZM15.7946 0.775999H16.8146V2.996H18.1586V3.908H16.8146V8H15.7946V3.908H14.8946V2.996H15.7946V0.775999ZM20.3871 10.412H19.3551C19.4671 10.18 19.5711 9.956 19.6671 9.74C19.7711 9.532 19.8711 9.316 19.9671 9.092C20.0711 8.876 20.1751 8.648 20.2791 8.408C20.3831 8.176 20.4991 7.924 20.6271 7.652C20.4431 7.292 20.2551 6.916 20.0631 6.524C19.8711 6.124 19.6791 5.724 19.4871 5.324C19.2951 4.924 19.1031 4.524 18.9111 4.124C18.7271 3.724 18.5431 3.344 18.3591 2.984H19.4751C19.7631 3.552 19.9991 4.032 20.1831 4.424C20.3751 4.816 20.5311 5.156 20.6511 5.444C20.7791 5.724 20.8791 5.964 20.9511 6.164C21.0311 6.364 21.0991 6.548 21.1551 6.716C21.2191 6.548 21.2871 6.364 21.3591 6.164C21.4391 5.964 21.5391 5.724 21.6591 5.444C21.7871 5.156 21.9431 4.816 22.1271 4.424C22.3191 4.032 22.5591 3.552 22.8471 2.984H23.9631L20.3871 10.412Z" fill="#FF6CF0" fill-opacity="0.29"/>
</svg>
