<svg width="165" height="28" viewBox="0 0 165 28" fill="none" xmlns="http://www.w3.org/2000/svg">
<path d="M30.6426 20.6162L31.9299 19.5041C32.4459 19.0584 33.2438 19.4081 33.261 20.0875C33.2722 20.5329 33.6423 20.8824 34.0876 20.8681L35.4771 20.8237C36.6897 20.7849 37.648 19.7702 37.6173 18.5573L37.491 13.5535C37.455 12.1288 36.9972 10.7496 36.1756 9.59058L34.1115 6.67873C33.341 5.59176 32.0765 4.96484 30.7406 5.00757C30.1248 5.02727 29.5209 5.18888 28.9759 5.47981L28.182 5.90366C25.5458 7.31097 23.9254 10.0867 24.0006 13.066L24.0792 16.1788L24.0938 16.7559C24.1556 19.2016 26.1879 21.1208 28.6331 21.0426L29.6342 21.0106C30.0049 20.9987 30.3611 20.8594 30.6426 20.6162Z" fill="url(#paint0_linear)" fill-opacity="0.27"/>
<path d="M30.6426 20.6162L31.9299 19.5041C32.4459 19.0584 33.2438 19.4081 33.261 20.0875C33.2722 20.5329 33.6423 20.8824 34.0876 20.8681L35.4771 20.8237C36.6897 20.7849 37.648 19.7702 37.6173 18.5573L37.491 13.5535C37.455 12.1288 36.9972 10.7496 36.1756 9.59058L34.1115 6.67873C33.341 5.59176 32.0765 4.96484 30.7406 5.00757C30.1248 5.02727 29.5209 5.18888 28.9759 5.47981L28.182 5.90366C25.5458 7.31097 23.9254 10.0867 24.0006 13.066L24.0792 16.1788L24.0938 16.7559C24.1556 19.2016 26.1879 21.1208 28.6331 21.0426L29.6342 21.0106C30.0049 20.9987 30.3611 20.8594 30.6426 20.6162Z" fill="url(#paint1_linear)" fill-opacity="0.19"/>
<path d="M30.8053 20.8049L32.0925 19.6929C32.4486 19.3853 32.9993 19.6266 33.0111 20.0955C33.0258 20.6789 33.5106 21.1367 34.0939 21.118L35.4834 21.0736C36.8341 21.0304 37.9013 19.9002 37.8672 18.5493L37.7409 13.5455C37.7036 12.0713 37.23 10.6443 36.3799 9.44503L34.3158 6.53318C33.4971 5.37832 32.1536 4.71225 30.7343 4.75765C30.08 4.77858 29.4384 4.95028 28.8594 5.25939L28.0654 5.68324C25.3452 7.13543 23.6731 9.99963 23.7508 13.074L23.8294 16.1868L23.8439 16.7639C23.9092 19.3476 26.0562 21.3751 28.6394 21.2925L29.6405 21.2605C30.0687 21.2468 30.48 21.0859 30.8053 20.8049Z" stroke="#828282" stroke-opacity="0.15" stroke-width="0.5"/>
<path d="M65.5147 25.0894L66.802 23.9773C67.3179 23.5316 68.1159 23.8813 68.133 24.5607C68.1443 25.0061 68.5144 25.3556 68.9597 25.3413L70.3491 25.2969C71.5618 25.2581 72.52 24.2434 72.4894 23.0305L72.3631 18.0267C72.3271 16.602 71.8693 15.2228 71.0477 14.0638L68.9836 11.1519C68.2131 10.065 66.9485 9.43804 65.6127 9.48077C64.9969 9.50047 64.3929 9.66208 63.848 9.95302L63.054 10.3769C60.4179 11.7842 58.7975 14.5599 58.8727 17.5392L58.9513 20.652L58.9659 21.2291C59.0276 23.6748 61.06 25.594 63.5052 25.5158L64.5063 25.4838C64.877 25.4719 65.2331 25.3326 65.5147 25.0894Z" fill="url(#paint2_linear)" fill-opacity="0.27"/>
<path d="M65.5147 25.0894L66.802 23.9773C67.3179 23.5316 68.1159 23.8813 68.133 24.5607C68.1443 25.0061 68.5144 25.3556 68.9597 25.3413L70.3491 25.2969C71.5618 25.2581 72.52 24.2434 72.4894 23.0305L72.3631 18.0267C72.3271 16.602 71.8693 15.2228 71.0477 14.0638L68.9836 11.1519C68.2131 10.065 66.9485 9.43804 65.6127 9.48077C64.9969 9.50047 64.3929 9.66208 63.848 9.95302L63.054 10.3769C60.4179 11.7842 58.7975 14.5599 58.8727 17.5392L58.9513 20.652L58.9659 21.2291C59.0276 23.6748 61.06 25.594 63.5052 25.5158L64.5063 25.4838C64.877 25.4719 65.2331 25.3326 65.5147 25.0894Z" fill="url(#paint3_linear)" fill-opacity="0.19"/>
<path d="M65.6774 25.2781L66.9646 24.1661C67.3207 23.8585 67.8713 24.0998 67.8832 24.5687C67.8979 25.1521 68.3827 25.6099 68.966 25.5912L70.3554 25.5468C71.7061 25.5036 72.7734 24.3734 72.7393 23.0225L72.6129 18.0187C72.5757 16.5445 72.1021 15.1175 71.2519 13.9182L69.1878 11.0064C68.3692 9.85152 67.0256 9.18545 65.6064 9.23085C64.9521 9.25178 64.3105 9.42349 63.7315 9.73259L62.9375 10.1564C60.2173 11.6086 58.5452 14.4728 58.6228 17.5472L58.7014 20.66L58.716 21.2371C58.7812 23.8208 60.9283 25.8484 63.5115 25.7657L64.5126 25.7337C64.9407 25.72 65.3521 25.5591 65.6774 25.2781Z" stroke="#828282" stroke-opacity="0.15" stroke-width="0.5"/>
<path d="M117.885 20.2206L119.173 19.1086C119.689 18.6629 120.486 19.0126 120.504 19.692C120.515 20.1374 120.885 20.4869 121.33 20.4726L122.72 20.4282C123.932 20.3894 124.891 19.3747 124.86 18.1618L124.734 13.158C124.698 11.7333 124.24 10.3541 123.418 9.19507L121.354 6.28323C120.584 5.19625 119.319 4.56933 117.983 4.61206C117.367 4.63176 116.764 4.79337 116.219 5.08431L115.425 5.50816C112.788 6.91547 111.168 9.69114 111.243 12.6705L111.322 15.7833L111.336 16.3604C111.398 18.8061 113.431 20.7253 115.876 20.6471L116.877 20.6151C117.248 20.6032 117.604 20.4639 117.885 20.2206Z" fill="url(#paint4_linear)" fill-opacity="0.27"/>
<path d="M117.885 20.2206L119.173 19.1086C119.689 18.6629 120.486 19.0126 120.504 19.692C120.515 20.1374 120.885 20.4869 121.33 20.4726L122.72 20.4282C123.932 20.3894 124.891 19.3747 124.86 18.1618L124.734 13.158C124.698 11.7333 124.24 10.3541 123.418 9.19507L121.354 6.28323C120.584 5.19625 119.319 4.56933 117.983 4.61206C117.367 4.63176 116.764 4.79337 116.219 5.08431L115.425 5.50816C112.788 6.91547 111.168 9.69114 111.243 12.6705L111.322 15.7833L111.336 16.3604C111.398 18.8061 113.431 20.7253 115.876 20.6471L116.877 20.6151C117.248 20.6032 117.604 20.4639 117.885 20.2206Z" fill="url(#paint5_linear)" fill-opacity="0.19"/>
<path d="M118.048 20.4094L119.335 19.2974C119.691 18.9898 120.242 19.2311 120.254 19.7C120.269 20.2834 120.753 20.7412 121.337 20.7225L122.726 20.6781C124.077 20.6349 125.144 19.5047 125.11 18.1538L124.984 13.15C124.946 11.6758 124.473 10.2488 123.623 9.04952L121.558 6.13767C120.74 4.98281 119.396 4.31674 117.977 4.36214C117.323 4.38307 116.681 4.55477 116.102 4.86388L115.308 5.28773C112.588 6.73992 110.916 9.60412 110.993 12.6785L111.072 15.7913L111.087 16.3684C111.152 18.9521 113.299 20.9796 115.882 20.897L116.883 20.865C117.311 20.8513 117.723 20.6904 118.048 20.4094Z" stroke="#828282" stroke-opacity="0.15" stroke-width="0.5"/>
<path d="M4.10144 13.6747L6.16856 12.1229C6.2949 12.0281 6.42799 11.9426 6.56675 11.8672L7.40911 11.4096C8.92824 10.5842 9.20013 8.51673 7.94397 7.34255C6.96544 6.42789 6.87905 4.90251 7.74741 3.87209L9.43339 1.87145C9.9673 1.2379 10.7447 0.860712 11.5703 0.834622C13.1703 0.784064 14.5005 2.04034 14.5414 3.64059L14.7478 11.7154L14.9081 17.9852L15.0126 22.075C15.0719 24.3921 13.2418 26.3298 10.9251 26.403L10.0024 26.4322C7.89892 26.4986 5.85266 25.7686 4.27267 24.388L3.68604 23.8755C2.31291 22.6757 1.50577 20.9542 1.45903 19.1258C1.4045 16.9925 2.38998 14.9596 4.10144 13.6747Z" fill="url(#paint6_linear)" fill-opacity="0.27"/>
<path d="M4.10144 13.6747L6.16856 12.1229C6.2949 12.0281 6.42799 11.9426 6.56675 11.8672L7.40911 11.4096C8.92824 10.5842 9.20013 8.51673 7.94397 7.34255C6.96544 6.42789 6.87905 4.90251 7.74741 3.87209L9.43339 1.87145C9.9673 1.2379 10.7447 0.860712 11.5703 0.834622C13.1703 0.784064 14.5005 2.04034 14.5414 3.64059L14.7478 11.7154L14.9081 17.9852L15.0126 22.075C15.0719 24.3921 13.2418 26.3298 10.9251 26.403L10.0024 26.4322C7.89892 26.4986 5.85266 25.7686 4.27267 24.388L3.68604 23.8755C2.31291 22.6757 1.50577 20.9542 1.45903 19.1258C1.4045 16.9925 2.38998 14.9596 4.10144 13.6747Z" fill="url(#paint7_linear)" fill-opacity="0.19"/>
<path d="M6.0193 11.9233L3.95218 13.4751C2.17555 14.8088 1.15254 16.9192 1.20915 19.1337C1.25767 21.0317 2.09555 22.8187 3.52097 24.0642L4.10759 24.5768C5.73487 25.9987 7.84236 26.7505 10.0088 26.6821L10.9315 26.6529C13.3862 26.5753 15.3253 24.5222 15.2625 22.0671L15.158 17.9774L14.9977 11.7075L14.7913 3.63269C14.7468 1.89442 13.3019 0.529785 11.5639 0.584704C10.6671 0.613044 9.82265 1.02277 9.24269 1.71096L7.5567 3.7116C6.60235 4.84406 6.6973 6.52049 7.77273 7.52573C8.9045 8.58363 8.65953 10.4463 7.29083 11.19L6.44847 11.6477C6.29891 11.7289 6.15547 11.821 6.0193 11.9233Z" stroke="#828282" stroke-opacity="0.15" stroke-width="0.5"/>
<path d="M163.708 11.515L163.711 11.661C163.76 13.6024 162.227 15.2265 160.286 15.2886L163.202 18.4832C163.654 18.9786 163.912 19.6212 163.929 20.294C163.968 21.8435 162.744 23.1398 161.195 23.1894L160.279 23.2187L155.542 23.3702C151.993 23.4837 149.043 20.6977 148.953 17.1475C148.928 16.1638 149.129 15.1861 149.541 14.2895L151.305 10.4479C152.364 8.14393 154.635 6.63322 157.162 6.55238L157.31 6.54766C158.942 6.49543 160.527 7.08257 161.726 8.18413L162.534 8.92673C163.259 9.59331 163.683 10.5268 163.708 11.515Z" fill="url(#paint8_linear)" fill-opacity="0.27"/>
<path d="M163.708 11.515L163.711 11.661C163.76 13.6024 162.227 15.2265 160.286 15.2886L163.202 18.4832C163.654 18.9786 163.912 19.6212 163.929 20.294C163.968 21.8435 162.744 23.1398 161.195 23.1894L160.279 23.2187L155.542 23.3702C151.993 23.4837 149.043 20.6977 148.953 17.1475C148.928 16.1638 149.129 15.1861 149.541 14.2895L151.305 10.4479C152.364 8.14393 154.635 6.63322 157.162 6.55238L157.31 6.54766C158.942 6.49543 160.527 7.08257 161.726 8.18413L162.534 8.92673C163.259 9.59331 163.683 10.5268 163.708 11.515Z" fill="url(#paint9_linear)" fill-opacity="0.19"/>
<path d="M160.806 15.487C162.635 15.177 164.009 13.5576 163.961 11.6531L163.958 11.507C163.931 10.4513 163.479 9.45414 162.704 8.74205L161.895 7.99945C160.649 6.85398 159.001 6.24343 157.303 6.29774L157.156 6.30246C154.533 6.38635 152.176 7.95398 151.078 10.3448L149.314 14.1863C148.886 15.1178 148.677 16.1336 148.703 17.1555C148.796 20.8438 151.861 23.7381 155.549 23.6201L160.285 23.4686L161.201 23.4393C162.889 23.3853 164.222 21.9736 164.179 20.286C164.161 19.5533 163.88 18.8534 163.387 18.3139L160.806 15.487Z" stroke="#828282" stroke-opacity="0.15" stroke-width="0.5"/>
<path d="M78.8769 24.2531L78.5305 21.3261L77.2256 10.2975C77.0987 9.22549 77.2137 8.13125 77.5619 7.09581L78.1072 5.47449C78.9376 3.00534 81.4114 1.46097 83.9356 1.8359L85.8087 2.11413C86.9536 2.28418 87.8305 3.19353 87.9677 4.3529C88.1396 5.80561 87.1062 7.15905 85.6595 7.37589L84.2425 7.58827C83.2823 7.73219 82.5964 8.63049 82.7105 9.59468C82.8246 10.5589 83.6955 11.2238 84.6556 11.0799L86.8448 10.7518C87.865 10.5989 88.7903 11.3054 88.9116 12.3298C89.0328 13.3543 88.304 14.3087 87.2838 14.4616L86.2436 14.6176C84.6488 14.8566 83.5097 16.3485 83.6991 17.9499L84.0016 20.506L84.3479 23.433C84.5275 24.9501 83.4482 26.3635 81.9375 26.59C80.4267 26.8164 79.0564 25.7702 78.8769 24.2531Z" fill="url(#paint10_linear)" fill-opacity="0.27"/>
<path d="M78.8769 24.2531L78.5305 21.3261L77.2256 10.2975C77.0987 9.22549 77.2137 8.13125 77.5619 7.09581L78.1072 5.47449C78.9376 3.00534 81.4114 1.46097 83.9356 1.8359L85.8087 2.11413C86.9536 2.28418 87.8305 3.19353 87.9677 4.3529C88.1396 5.80561 87.1062 7.15905 85.6595 7.37589L84.2425 7.58827C83.2823 7.73219 82.5964 8.63049 82.7105 9.59468C82.8246 10.5589 83.6955 11.2238 84.6556 11.0799L86.8448 10.7518C87.865 10.5989 88.7903 11.3054 88.9116 12.3298C89.0328 13.3543 88.304 14.3087 87.2838 14.4616L86.2436 14.6176C84.6488 14.8566 83.5097 16.3485 83.6991 17.9499L84.0016 20.506L84.3479 23.433C84.5275 24.9501 83.4482 26.3635 81.9375 26.59C80.4267 26.8164 79.0564 25.7702 78.8769 24.2531Z" fill="url(#paint11_linear)" fill-opacity="0.19"/>
<path d="M78.2833 21.3631L78.6297 24.2901C78.8254 25.9443 80.3195 27.0852 81.9668 26.8382C83.6142 26.5913 84.7909 25.0502 84.5952 23.396L84.2488 20.469L83.9464 17.9128C83.7731 16.4486 84.8148 15.0844 86.2729 14.8658L87.3132 14.7099C88.4699 14.5365 89.2963 13.4544 89.1588 12.2928C89.0214 11.1312 87.9722 10.3301 86.8155 10.5035L84.6263 10.8316C83.8026 10.9551 83.0556 10.3847 82.9577 9.55762C82.8599 8.73054 83.4482 7.95999 84.2719 7.83654L85.6888 7.62416C87.2721 7.38685 88.403 5.90567 88.2149 4.31584C88.0648 3.04704 87.1051 2.05186 85.8522 1.86577L83.9791 1.58754C81.334 1.19466 78.7418 2.81296 77.8716 5.40031L77.3264 7.02163C76.966 8.09305 76.8471 9.2253 76.9783 10.3345L78.2833 21.3631Z" stroke="#828282" stroke-opacity="0.15" stroke-width="0.5"/>
<path d="M131.003 8.59724L131.405 24.531C131.422 25.1976 131.976 25.7208 132.642 25.6995C133.309 25.6782 133.836 25.1204 133.819 24.4538L133.754 21.8972L133.712 20.2328C133.701 19.7764 133.753 19.3202 133.867 18.8773L134.579 16.1119C134.707 15.6149 135.148 15.2608 135.66 15.2445C136.293 15.2242 136.819 15.7211 136.835 16.3543L136.846 16.7882C136.858 17.2753 137.095 17.728 137.486 18.0152L137.698 18.1705C138.609 18.8387 139.89 18.6681 140.604 17.7832L140.889 17.4314C141.438 16.5789 142.744 16.8403 142.912 17.8365L143.673 22.3521C143.78 22.9862 144.337 23.442 144.98 23.4215C145.694 23.3986 146.258 22.8014 146.24 22.0874L146.118 17.2641L145.966 11.2475C145.949 10.5716 145.717 9.92023 145.304 9.3879L144.927 8.90255C144.097 7.83374 142.569 7.61396 141.46 8.40394L140.916 8.79108C140.761 8.90194 140.65 9.06566 140.607 9.25138L140.543 9.5207C140.343 10.3713 139.097 10.2503 139.075 9.37812C139.069 9.14873 138.958 8.93554 138.773 8.80031L137.444 7.82538C136.937 7.45376 136.253 7.43009 135.717 7.76562L134.45 8.55825C134 8.84026 133.417 8.52878 133.403 7.99899C133.394 7.62009 133.079 7.32275 132.7 7.33487L132.179 7.35153C131.513 7.37285 130.986 7.93058 131.003 8.59724Z" fill="url(#paint12_linear)" fill-opacity="0.27"/>
<path d="M131.003 8.59724L131.405 24.531C131.422 25.1976 131.976 25.7208 132.642 25.6995C133.309 25.6782 133.836 25.1204 133.819 24.4538L133.754 21.8972L133.712 20.2328C133.701 19.7764 133.753 19.3202 133.867 18.8773L134.579 16.1119C134.707 15.6149 135.148 15.2608 135.66 15.2445C136.293 15.2242 136.819 15.7211 136.835 16.3543L136.846 16.7882C136.858 17.2753 137.095 17.728 137.486 18.0152L137.698 18.1705C138.609 18.8387 139.89 18.6681 140.604 17.7832L140.889 17.4314C141.438 16.5789 142.744 16.8403 142.912 17.8365L143.673 22.3521C143.78 22.9862 144.337 23.442 144.98 23.4215C145.694 23.3986 146.258 22.8014 146.24 22.0874L146.118 17.2641L145.966 11.2475C145.949 10.5716 145.717 9.92023 145.304 9.3879L144.927 8.90255C144.097 7.83374 142.569 7.61396 141.46 8.40394L140.916 8.79108C140.761 8.90194 140.65 9.06566 140.607 9.25138L140.543 9.5207C140.343 10.3713 139.097 10.2503 139.075 9.37812C139.069 9.14873 138.958 8.93554 138.773 8.80031L137.444 7.82538C136.937 7.45376 136.253 7.43009 135.717 7.76562L134.45 8.55825C134 8.84026 133.417 8.52878 133.403 7.99899C133.394 7.62009 133.079 7.32275 132.7 7.33487L132.179 7.35153C131.513 7.37285 130.986 7.93058 131.003 8.59724Z" fill="url(#paint13_linear)" fill-opacity="0.19"/>
<path d="M131.003 8.59724L131.405 24.531C131.422 25.1976 131.976 25.7208 132.642 25.6995C133.309 25.6782 133.836 25.1204 133.819 24.4538L133.754 21.8972L133.712 20.2328C133.701 19.7764 133.753 19.3202 133.867 18.8773L134.579 16.1119C134.707 15.6149 135.148 15.2608 135.66 15.2445C136.293 15.2242 136.819 15.7211 136.835 16.3543L136.846 16.7882C136.858 17.2753 137.095 17.728 137.486 18.0152L137.698 18.1705C138.609 18.8387 139.89 18.6681 140.604 17.7832L140.889 17.4314C141.438 16.5789 142.744 16.8403 142.912 17.8365L143.673 22.3521C143.78 22.9862 144.337 23.442 144.98 23.4215C145.694 23.3986 146.258 22.8014 146.24 22.0874L146.118 17.2641L145.966 11.2475C145.949 10.5716 145.717 9.92023 145.304 9.3879L144.927 8.90255C144.097 7.83374 142.569 7.61396 141.46 8.40394L140.916 8.79108C140.761 8.90194 140.65 9.06566 140.607 9.25138L140.543 9.5207C140.343 10.3713 139.097 10.2503 139.075 9.37812C139.069 9.14873 138.958 8.93554 138.773 8.80031L137.444 7.82538C136.937 7.45376 136.253 7.43009 135.717 7.76562L134.45 8.55825C134 8.84026 133.417 8.52878 133.403 7.99899C133.394 7.62009 133.079 7.32275 132.7 7.33487L132.179 7.35153C131.513 7.37285 130.986 7.93058 131.003 8.59724Z" stroke="#828282" stroke-opacity="0.15" stroke-width="0.5"/>
<path d="M94.4138 20.4105L94.4616 22.3051C94.479 22.9939 95.1775 23.4497 95.8172 23.1897L97.0564 22.6861C97.8012 22.3834 98.2821 21.6502 98.2619 20.8482L98.2477 20.2879L98.1925 18.0993C98.1371 15.9073 99.8689 14.0735 102.06 14.0034L102.557 13.9875C103.837 13.9466 104.975 13.1497 105.455 11.9593L105.667 11.4308C106 10.6042 105.831 9.66302 105.232 9.01035C104.78 8.51866 104.137 8.24852 103.467 8.26993L97.9487 8.44645L97.6054 8.45744C96.767 8.48425 95.9642 8.81201 95.3438 9.38077C94.5937 10.0685 94.1773 11.0465 94.2029 12.0604L94.3061 16.1476L94.4138 20.4105Z" fill="url(#paint14_linear)" fill-opacity="0.27"/>
<path d="M94.4138 20.4105L94.4616 22.3051C94.479 22.9939 95.1775 23.4497 95.8172 23.1897L97.0564 22.6861C97.8012 22.3834 98.2821 21.6502 98.2619 20.8482L98.2477 20.2879L98.1925 18.0993C98.1371 15.9073 99.8689 14.0735 102.06 14.0034L102.557 13.9875C103.837 13.9466 104.975 13.1497 105.455 11.9593L105.667 11.4308C106 10.6042 105.831 9.66302 105.232 9.01035C104.78 8.51866 104.137 8.24852 103.467 8.26993L97.9487 8.44645L97.6054 8.45744C96.767 8.48425 95.9642 8.81201 95.3438 9.38077C94.5937 10.0685 94.1773 11.0465 94.2029 12.0604L94.3061 16.1476L94.4138 20.4105Z" fill="url(#paint15_linear)" fill-opacity="0.19"/>
<path d="M94.4138 20.4105L94.4616 22.3051C94.479 22.9939 95.1775 23.4497 95.8172 23.1897L97.0564 22.6861C97.8012 22.3834 98.2821 21.6502 98.2619 20.8482L98.2477 20.2879L98.1925 18.0993C98.1371 15.9073 99.8689 14.0735 102.06 14.0034L102.557 13.9875C103.837 13.9466 104.975 13.1497 105.455 11.9593L105.667 11.4308C106 10.6042 105.831 9.66302 105.232 9.01035C104.78 8.51866 104.137 8.24852 103.467 8.26993L97.9487 8.44645L97.6054 8.45744C96.767 8.48425 95.9642 8.81201 95.3438 9.38077C94.5937 10.0685 94.1773 11.0465 94.2029 12.0604L94.3061 16.1476L94.4138 20.4105Z" stroke="#828282" stroke-opacity="0.15" stroke-width="0.5"/>
<path d="M50.9621 19.6293L50.8831 16.4986L50.7541 11.3931L50.7238 10.1918C50.696 9.09295 51.5641 8.17369 52.6628 8.13855L55.1945 8.05757C55.7103 8.04107 56.2165 7.90864 56.6756 7.67011L57.6587 7.15937C58.233 6.861 58.5878 6.26098 58.5715 5.61571C58.5579 5.07628 58.286 4.57798 57.8407 4.27629L56.8948 3.63541C56.215 3.17485 55.4061 2.94116 54.5828 2.9675L52.5338 3.03304L47.8923 3.1815L45.9031 3.24513C45.0302 3.27305 44.1636 3.10406 43.3675 2.75069L42.2985 2.27625C42.0293 2.15672 41.7438 2.077 41.4511 2.03956L40.3692 1.90118C39.0727 1.73535 37.9279 2.77033 37.9609 4.07833C37.9815 4.89495 38.4682 5.62439 39.2128 5.95492L42.0214 7.20153C44.4111 7.88621 46.0747 10.0396 46.1376 12.5295L46.1449 12.818L46.1803 14.2201C46.221 15.8316 46.0565 17.443 45.6907 19.0156L45.643 19.2211L45.2533 20.4482C45.1065 20.9103 45.0994 21.4045 45.2328 21.8688C45.5408 22.9403 46.535 23.6635 47.6512 23.6278L47.7878 23.6234C48.5976 23.5975 49.3528 23.1995 49.8345 22.5447L50.2009 22.0465C50.7161 21.3463 50.984 20.4955 50.9621 19.6293Z" fill="url(#paint16_linear)" fill-opacity="0.27"/>
<path d="M50.9621 19.6293L50.8831 16.4986L50.7541 11.3931L50.7238 10.1918C50.696 9.09295 51.5641 8.17369 52.6628 8.13855L55.1945 8.05757C55.7103 8.04107 56.2165 7.90864 56.6756 7.67011L57.6587 7.15937C58.233 6.861 58.5878 6.26098 58.5715 5.61571C58.5579 5.07628 58.286 4.57798 57.8407 4.27629L56.8948 3.63541C56.215 3.17485 55.4061 2.94116 54.5828 2.9675L52.5338 3.03304L47.8923 3.1815L45.9031 3.24513C45.0302 3.27305 44.1636 3.10406 43.3675 2.75069L42.2985 2.27625C42.0293 2.15672 41.7438 2.077 41.4511 2.03956L40.3692 1.90118C39.0727 1.73535 37.9279 2.77033 37.9609 4.07833C37.9815 4.89495 38.4682 5.62439 39.2128 5.95492L42.0214 7.20153C44.4111 7.88621 46.0747 10.0396 46.1376 12.5295L46.1449 12.818L46.1803 14.2201C46.221 15.8316 46.0565 17.443 45.6907 19.0156L45.643 19.2211L45.2533 20.4482C45.1065 20.9103 45.0994 21.4045 45.2328 21.8688C45.5408 22.9403 46.535 23.6635 47.6512 23.6278L47.7878 23.6234C48.5976 23.5975 49.3528 23.1995 49.8345 22.5447L50.2009 22.0465C50.7161 21.3463 50.984 20.4955 50.9621 19.6293Z" fill="url(#paint17_linear)" fill-opacity="0.19"/>
<path d="M50.9621 19.6293L50.8831 16.4986L50.7541 11.3931L50.7238 10.1918C50.696 9.09295 51.5641 8.17369 52.6628 8.13855L55.1945 8.05757C55.7103 8.04107 56.2165 7.90864 56.6756 7.67011L57.6587 7.15937C58.233 6.861 58.5878 6.26098 58.5715 5.61571C58.5579 5.07628 58.286 4.57798 57.8407 4.27629L56.8948 3.63541C56.215 3.17485 55.4061 2.94116 54.5828 2.9675L52.5338 3.03304L47.8923 3.1815L45.9031 3.24513C45.0302 3.27305 44.1636 3.10406 43.3675 2.75069L42.2985 2.27625C42.0293 2.15672 41.7438 2.077 41.4511 2.03956L40.3692 1.90118C39.0727 1.73535 37.9279 2.77033 37.9609 4.07833C37.9815 4.89495 38.4682 5.62439 39.2128 5.95492L42.0214 7.20153C44.4111 7.88621 46.0747 10.0396 46.1376 12.5295L46.1449 12.818L46.1803 14.2201C46.221 15.8316 46.0565 17.443 45.6907 19.0156L45.643 19.2211L45.2533 20.4482C45.1065 20.9103 45.0994 21.4045 45.2328 21.8688C45.5408 22.9403 46.535 23.6635 47.6512 23.6278L47.7878 23.6234C48.5976 23.5975 49.3528 23.1995 49.8345 22.5447L50.2009 22.0465C50.7161 21.3463 50.984 20.4955 50.9621 19.6293Z" stroke="#828282" stroke-opacity="0.15" stroke-width="0.5"/>
<path d="M159 12.5L158 12V11H159L160 12L159 12.5Z" stroke="#FF0CE7" stroke-opacity="0.05"/>
<path d="M117 14.5L116 14V13H117L118 14L117 14.5Z" stroke="#FF0CE7" stroke-opacity="0.05"/>
<path d="M65 19.5L64 19V18H65L66 19L65 19.5Z" stroke="#FF0CE7" stroke-opacity="0.05"/>
<path d="M30 15.5L29 15V14H30L31 15L30 15.5Z" stroke="#FF0CE7" stroke-opacity="0.05"/>
<path d="M8.5 20L7 19.3333V18H8.5L10 19.3333L8.5 20Z" stroke="#FF0CE7" stroke-opacity="0.05"/>
<defs>
<linearGradient id="paint0_linear" x1="30.5363" y1="5.0141" x2="31.0466" y2="20.9654" gradientUnits="userSpaceOnUse">
<stop stop-color="#68FF0C"/>
<stop offset="1" stop-color="#C4C4C4" stop-opacity="0"/>
</linearGradient>
<linearGradient id="paint1_linear" x1="30.5363" y1="5.0141" x2="31.0466" y2="20.9654" gradientUnits="userSpaceOnUse">
<stop offset="0.9999" stop-color="#FF8DFA" stop-opacity="0.44"/>
<stop offset="1" stop-color="white" stop-opacity="0"/>
</linearGradient>
<linearGradient id="paint2_linear" x1="65.4084" y1="9.48731" x2="65.9186" y2="25.4386" gradientUnits="userSpaceOnUse">
<stop stop-color="#68FF0C"/>
<stop offset="1" stop-color="#C4C4C4" stop-opacity="0"/>
</linearGradient>
<linearGradient id="paint3_linear" x1="65.4084" y1="9.48731" x2="65.9186" y2="25.4386" gradientUnits="userSpaceOnUse">
<stop offset="0.9999" stop-color="#FF8DFA" stop-opacity="0.44"/>
<stop offset="1" stop-color="white" stop-opacity="0"/>
</linearGradient>
<linearGradient id="paint4_linear" x1="117.779" y1="4.6186" x2="118.289" y2="20.5699" gradientUnits="userSpaceOnUse">
<stop stop-color="#68FF0C"/>
<stop offset="1" stop-color="#C4C4C4" stop-opacity="0"/>
</linearGradient>
<linearGradient id="paint5_linear" x1="117.779" y1="4.6186" x2="118.289" y2="20.5699" gradientUnits="userSpaceOnUse">
<stop offset="0.9999" stop-color="#FF8DFA" stop-opacity="0.44"/>
<stop offset="1" stop-color="white" stop-opacity="0"/>
</linearGradient>
<linearGradient id="paint6_linear" x1="7.73367" y1="0.955859" x2="8.54017" y2="26.4784" gradientUnits="userSpaceOnUse">
<stop stop-color="#68FF0C"/>
<stop offset="1" stop-color="#C4C4C4" stop-opacity="0"/>
</linearGradient>
<linearGradient id="paint7_linear" x1="7.73367" y1="0.955859" x2="8.54017" y2="26.4784" gradientUnits="userSpaceOnUse">
<stop offset="0.9999" stop-color="#FF8DFA" stop-opacity="0.44"/>
<stop offset="1" stop-color="white" stop-opacity="0"/>
</linearGradient>
<linearGradient id="paint8_linear" x1="156.135" y1="6.58524" x2="156.671" y2="23.3341" gradientUnits="userSpaceOnUse">
<stop stop-color="#68FF0C"/>
<stop offset="1" stop-color="#C4C4C4" stop-opacity="0"/>
</linearGradient>
<linearGradient id="paint9_linear" x1="156.135" y1="6.58524" x2="156.671" y2="23.3341" gradientUnits="userSpaceOnUse">
<stop offset="0.9999" stop-color="#FF8DFA" stop-opacity="0.44"/>
<stop offset="1" stop-color="white" stop-opacity="0"/>
</linearGradient>
<linearGradient id="paint10_linear" x1="81.8296" y1="0.8428" x2="85.6063" y2="26.0401" gradientUnits="userSpaceOnUse">
<stop stop-color="#68FF0C"/>
<stop offset="1" stop-color="#C4C4C4" stop-opacity="0"/>
</linearGradient>
<linearGradient id="paint11_linear" x1="81.8296" y1="0.8428" x2="85.6063" y2="26.0401" gradientUnits="userSpaceOnUse">
<stop offset="0.9999" stop-color="#FF8DFA" stop-opacity="0.44"/>
<stop offset="1" stop-color="white" stop-opacity="0"/>
</linearGradient>
<linearGradient id="paint12_linear" x1="138.415" y1="7.15208" x2="139.001" y2="25.4961" gradientUnits="userSpaceOnUse">
<stop stop-color="#68FF0C"/>
<stop offset="1" stop-color="#C4C4C4" stop-opacity="0"/>
</linearGradient>
<linearGradient id="paint13_linear" x1="138.415" y1="7.15208" x2="139.001" y2="25.4961" gradientUnits="userSpaceOnUse">
<stop offset="0.9999" stop-color="#FF8DFA" stop-opacity="0.44"/>
<stop offset="1" stop-color="white" stop-opacity="0"/>
</linearGradient>
<linearGradient id="paint14_linear" x1="100.14" y1="8.37638" x2="100.624" y2="23.5301" gradientUnits="userSpaceOnUse">
<stop stop-color="#68FF0C"/>
<stop offset="1" stop-color="#C4C4C4" stop-opacity="0"/>
</linearGradient>
<linearGradient id="paint15_linear" x1="100.14" y1="8.37638" x2="100.624" y2="23.5301" gradientUnits="userSpaceOnUse">
<stop offset="0.9999" stop-color="#FF8DFA" stop-opacity="0.44"/>
<stop offset="1" stop-color="white" stop-opacity="0"/>
</linearGradient>
<linearGradient id="paint16_linear" x1="48.1755" y1="1.25633" x2="48.8899" y2="23.5881" gradientUnits="userSpaceOnUse">
<stop stop-color="#68FF0C"/>
<stop offset="1" stop-color="#C4C4C4" stop-opacity="0"/>
</linearGradient>
<linearGradient id="paint17_linear" x1="48.1755" y1="1.25633" x2="48.8899" y2="23.5881" gradientUnits="userSpaceOnUse">
<stop offset="0.9999" stop-color="#FF8DFA" stop-opacity="0.44"/>
<stop offset="1" stop-color="white" stop-opacity="0"/>
</linearGradient>
</defs>
</svg>
