<svg width="55" height="58" viewBox="0 0 55 58" fill="none" xmlns="http://www.w3.org/2000/svg">
<g filter="url(#filter0_di)">
<path d="M34.4739 6.49952L16.0222 15.3804C13.3939 16.6454 11.3847 18.911 10.4418 21.6727C9.75545 23.6831 9.67034 25.8523 10.1969 27.9153L10.2441 28.1005C11.0983 31.447 13.3973 34.245 16.5158 35.7334L31.1028 42.6951C33.9004 44.0302 37.1041 44.2216 40.031 43.2283L40.8378 42.9546C41.3558 42.7788 41.8462 42.5308 42.2945 42.218C43.8175 41.1554 44.7396 39.4281 44.7771 37.5677L44.7849 37.1789C44.8231 35.2799 44.0418 33.453 42.6406 32.1649L42.3452 31.8933C40.7562 30.4326 39.8702 28.3608 39.9136 26.2073L39.9279 25.4954C39.9764 23.0898 40.8811 20.784 42.4795 18.9922L43.1261 18.2674C44.4728 16.7579 45.2351 14.8151 45.2759 12.7884L45.2918 11.9985C45.3184 10.6783 44.9183 9.38296 44.151 8.30507C43.0249 6.72322 41.22 5.76345 39.2827 5.71639L38.232 5.69087C36.9317 5.65929 35.6439 5.93642 34.4739 6.49952Z" fill="#A3F94E" fill-opacity="0.92"/>
<path d="M34.4739 6.49952L16.0222 15.3804C13.3939 16.6454 11.3847 18.911 10.4418 21.6727C9.75545 23.6831 9.67034 25.8523 10.1969 27.9153L10.2441 28.1005C11.0983 31.447 13.3973 34.245 16.5158 35.7334L31.1028 42.6951C33.9004 44.0302 37.1041 44.2216 40.031 43.2283L40.8378 42.9546C41.3558 42.7788 41.8462 42.5308 42.2945 42.218C43.8175 41.1554 44.7396 39.4281 44.7771 37.5677L44.7849 37.1789C44.8231 35.2799 44.0418 33.453 42.6406 32.1649L42.3452 31.8933C40.7562 30.4326 39.8702 28.3608 39.9136 26.2073L39.9279 25.4954C39.9764 23.0898 40.8811 20.784 42.4795 18.9922L43.1261 18.2674C44.4728 16.7579 45.2351 14.8151 45.2759 12.7884L45.2918 11.9985C45.3184 10.6783 44.9183 9.38296 44.151 8.30507C43.0249 6.72322 41.22 5.76345 39.2827 5.71639L38.232 5.69087C36.9317 5.65929 35.6439 5.93642 34.4739 6.49952Z" stroke="#C2B1CD" stroke-opacity="0.19"/>
</g>
<defs>
<filter id="filter0_di" x="0.355957" y="0.188354" width="54.4368" height="57.1676" filterUnits="userSpaceOnUse" color-interpolation-filters="sRGB">
<feFlood flood-opacity="0" result="BackgroundImageFix"/>
<feColorMatrix in="SourceAlpha" type="matrix" values="0 0 0 0 0 0 0 0 0 0 0 0 0 0 0 0 0 0 127 0"/>
<feOffset dy="4"/>
<feGaussianBlur stdDeviation="4.5"/>
<feColorMatrix type="matrix" values="0 0 0 0 0 0 0 0 0 0 0 0 0 0 0 0 0 0 0.19 0"/>
<feBlend mode="normal" in2="BackgroundImageFix" result="effect1_dropShadow"/>
<feBlend mode="normal" in="SourceGraphic" in2="effect1_dropShadow" result="shape"/>
<feColorMatrix in="SourceAlpha" type="matrix" values="0 0 0 0 0 0 0 0 0 0 0 0 0 0 0 0 0 0 127 0" result="hardAlpha"/>
<feOffset dy="1"/>
<feGaussianBlur stdDeviation="9.5"/>
<feComposite in2="hardAlpha" operator="arithmetic" k2="-1" k3="1"/>
<feColorMatrix type="matrix" values="0 0 0 0 0.95 0 0 0 0 0.8854 0 0 0 0 0.76 0 0 0 0.13 0"/>
<feBlend mode="normal" in2="shape" result="effect2_innerShadow"/>
</filter>
</defs>
</svg>
