<svg width="38" height="40" viewBox="0 0 38 40" fill="none" xmlns="http://www.w3.org/2000/svg">
<path d="M12.0371 38.1035L30.5509 28.7814C33.1414 27.4771 35.1014 25.1894 35.9931 22.4295C36.6494 20.398 36.6915 18.2179 36.1141 16.1626L36.0621 15.9774C35.1358 12.6804 32.7862 9.96905 29.6545 8.5833L14.7017 1.96688C11.8489 0.704535 8.61903 0.591363 5.68484 1.65093L4.85642 1.95008C4.3448 2.13484 3.8615 2.39015 3.42052 2.70864C1.90012 3.8067 0.999512 5.56808 0.999512 7.44354V7.79264C0.999512 9.68455 1.82086 11.4833 3.25054 12.7223L3.57094 13C5.20412 14.4154 6.14237 16.4702 6.14237 18.6313V19.3143C6.14237 21.71 5.27954 24.0256 3.71182 25.8372L3.04675 26.6057C1.72627 28.1316 0.999512 30.082 0.999512 32.1V32.8543C0.999512 34.1911 1.43538 35.4914 2.24103 36.5582C3.40249 38.096 5.21806 39 7.14524 39H8.26329C9.57396 39 10.8664 38.693 12.0371 38.1035Z" fill="#A3F94E" fill-opacity="0.92" stroke="black" stroke-opacity="0.18"/>
</svg>
