<svg width="177" height="193" viewBox="0 0 177 193" fill="none" xmlns="http://www.w3.org/2000/svg">
<path d="M27.6496 128.85L20.5263 161.43C19.9889 163.888 21.0031 166.425 23.0868 167.836C24.6401 168.887 26.5884 169.172 28.3779 168.61L38.2727 165.5L63.4598 159.691C65.4499 159.232 67.4856 159 69.5279 159H87.8182H125.091H147.992C150.888 159 153.764 159.466 156.512 160.38L165.931 163.512C169.715 164.77 172.735 167.659 174.16 171.384L175.031 173.66C175.957 176.081 175.707 178.796 174.353 181.007C172.835 183.488 170.136 185 167.227 185H166.262C164.772 185 163.302 184.67 161.955 184.033L157.842 182.089C154.235 180.384 150.294 179.5 146.304 179.5H125.091H95.5455H69.0646C67.3286 179.5 65.5967 179.667 63.8928 180L40.4849 184.568C39.0127 184.856 37.567 185.265 36.1628 185.793L22.2914 191.003C20.5357 191.662 18.6757 192 16.8002 192C10.7609 192 5.26291 188.518 2.68181 183.058L2.54614 182.771C1.52804 180.617 1 178.264 1 175.882V169.013C1 166.681 1.30209 164.359 1.89874 162.104L10.5558 129.396C11.1525 127.141 11.4545 124.819 11.4545 122.487V43.1052C11.4545 41.0419 11.218 38.9853 10.7496 36.9758L7.45289 22.8329C7.0928 21.2881 6.48168 19.8129 5.6439 18.466L4.16056 16.0812C2.21811 12.9584 2.17328 9.01446 4.04422 5.84825L4.21894 5.55256C5.8862 2.73105 8.91977 1 12.1971 1C16.543 1 20.3052 4.02016 21.2448 8.26333L27.6341 37.1161C28.0586 39.033 28.2727 40.9904 28.2727 42.9537V123.083C28.2727 125.022 28.0638 126.955 27.6496 128.85Z" fill="#874927" fill-opacity="0.9"/>
<path d="M27.6496 128.85L20.5263 161.43C19.9889 163.888 21.0031 166.425 23.0868 167.836C24.6401 168.887 26.5884 169.172 28.3779 168.61L38.2727 165.5L63.4598 159.691C65.4499 159.232 67.4856 159 69.5279 159H87.8182H125.091H147.992C150.888 159 153.764 159.466 156.512 160.38L165.931 163.512C169.715 164.77 172.735 167.659 174.16 171.384L175.031 173.66C175.957 176.081 175.707 178.796 174.353 181.007C172.835 183.488 170.136 185 167.227 185H166.262C164.772 185 163.302 184.67 161.955 184.033L157.842 182.089C154.235 180.384 150.294 179.5 146.304 179.5H125.091H95.5455H69.0646C67.3286 179.5 65.5967 179.667 63.8928 180L40.4849 184.568C39.0127 184.856 37.567 185.265 36.1628 185.793L22.2914 191.003C20.5357 191.662 18.6757 192 16.8002 192C10.7609 192 5.26291 188.518 2.68181 183.058L2.54614 182.771C1.52804 180.617 1 178.264 1 175.882V169.013C1 166.681 1.30209 164.359 1.89874 162.104L10.5558 129.396C11.1525 127.141 11.4545 124.819 11.4545 122.487V43.1052C11.4545 41.0419 11.218 38.9853 10.7496 36.9758L7.45289 22.8329C7.0928 21.2881 6.48168 19.8129 5.6439 18.466L4.16056 16.0812C2.21811 12.9584 2.17328 9.01446 4.04422 5.84825L4.21894 5.55256C5.8862 2.73105 8.91977 1 12.1971 1C16.543 1 20.3052 4.02016 21.2448 8.26333L27.6341 37.1161C28.0586 39.033 28.2727 40.9904 28.2727 42.9537V123.083C28.2727 125.022 28.0638 126.955 27.6496 128.85Z" fill="url(#paint0_linear)" fill-opacity="0.44"/>
<path d="M27.6496 128.85L20.5263 161.43C19.9889 163.888 21.0031 166.425 23.0868 167.836C24.6401 168.887 26.5884 169.172 28.3779 168.61L38.2727 165.5L63.4598 159.691C65.4499 159.232 67.4856 159 69.5279 159H87.8182H125.091H147.992C150.888 159 153.764 159.466 156.512 160.38L165.931 163.512C169.715 164.77 172.735 167.659 174.16 171.384L175.031 173.66C175.957 176.081 175.707 178.796 174.353 181.007C172.835 183.488 170.136 185 167.227 185H166.262C164.772 185 163.302 184.67 161.955 184.033L157.842 182.089C154.235 180.384 150.294 179.5 146.304 179.5H125.091H95.5455H69.0646C67.3286 179.5 65.5967 179.667 63.8928 180L40.4849 184.568C39.0127 184.856 37.567 185.265 36.1628 185.793L22.2914 191.003C20.5357 191.662 18.6757 192 16.8002 192C10.7609 192 5.26291 188.518 2.68181 183.058L2.54614 182.771C1.52804 180.617 1 178.264 1 175.882V169.013C1 166.681 1.30209 164.359 1.89874 162.104L10.5558 129.396C11.1525 127.141 11.4545 124.819 11.4545 122.487V43.1052C11.4545 41.0419 11.218 38.9853 10.7496 36.9758L7.45289 22.8329C7.0928 21.2881 6.48168 19.8129 5.6439 18.466L4.16056 16.0812C2.21811 12.9584 2.17328 9.01446 4.04422 5.84825L4.21894 5.55256C5.8862 2.73105 8.91977 1 12.1971 1C16.543 1 20.3052 4.02016 21.2448 8.26333L27.6341 37.1161C28.0586 39.033 28.2727 40.9904 28.2727 42.9537V123.083C28.2727 125.022 28.0638 126.955 27.6496 128.85Z" fill="url(#paint1_radial)" fill-opacity="0.6"/>
<path d="M27.6496 128.85L20.5263 161.43C19.9889 163.888 21.0031 166.425 23.0868 167.836C24.6401 168.887 26.5884 169.172 28.3779 168.61L38.2727 165.5L63.4598 159.691C65.4499 159.232 67.4856 159 69.5279 159H87.8182H125.091H147.992C150.888 159 153.764 159.466 156.512 160.38L165.931 163.512C169.715 164.77 172.735 167.659 174.16 171.384L175.031 173.66C175.957 176.081 175.707 178.796 174.353 181.007C172.835 183.488 170.136 185 167.227 185H166.262C164.772 185 163.302 184.67 161.955 184.033L157.842 182.089C154.235 180.384 150.294 179.5 146.304 179.5H125.091H95.5455H69.0646C67.3286 179.5 65.5967 179.667 63.8928 180L40.4849 184.568C39.0127 184.856 37.567 185.265 36.1628 185.793L22.2914 191.003C20.5357 191.662 18.6757 192 16.8002 192C10.7609 192 5.26291 188.518 2.68181 183.058L2.54614 182.771C1.52804 180.617 1 178.264 1 175.882V169.013C1 166.681 1.30209 164.359 1.89874 162.104L10.5558 129.396C11.1525 127.141 11.4545 124.819 11.4545 122.487V43.1052C11.4545 41.0419 11.218 38.9853 10.7496 36.9758L7.45289 22.8329C7.0928 21.2881 6.48168 19.8129 5.6439 18.466L4.16056 16.0812C2.21811 12.9584 2.17328 9.01446 4.04422 5.84825L4.21894 5.55256C5.8862 2.73105 8.91977 1 12.1971 1C16.543 1 20.3052 4.02016 21.2448 8.26333L27.6341 37.1161C28.0586 39.033 28.2727 40.9904 28.2727 42.9537V123.083C28.2727 125.022 28.0638 126.955 27.6496 128.85Z" stroke="#594600" stroke-opacity="0.76"/>
<defs>
<linearGradient id="paint0_linear" x1="88.75" y1="1" x2="88.75" y2="192" gradientUnits="userSpaceOnUse">
<stop stop-color="#80FF00"/>
<stop offset="0.557292" stop-color="white" stop-opacity="0"/>
</linearGradient>
<radialGradient id="paint1_radial" cx="0" cy="0" r="1" gradientUnits="userSpaceOnUse" gradientTransform="translate(88.75 96.5) rotate(90) scale(95.5 87.75)">
<stop offset="0.5" stop-color="#EE80F0"/>
<stop offset="1" stop-color="white" stop-opacity="0"/>
</radialGradient>
</defs>
</svg>
