<svg width="66" height="71" viewBox="0 0 66 71" fill="none" xmlns="http://www.w3.org/2000/svg">
<path d="M65 70H15.0488L1 51.9286V1H53.2927L65 19.0714V70Z" fill="#FF6CF0" fill-opacity="0.06"/>
<path d="M65 70H15.0488L1 51.9286V1H53.2927L65 19.0714V70Z" fill="url(#paint0_radial)"/>
<path d="M15.0488 19.0714V70M15.0488 19.0714H65M15.0488 19.0714L1 1M15.0488 70H65M15.0488 70L1 51.9286M65 70V19.0714M65 70L53.2927 51.9286M65 19.0714L53.2927 1M1 1V51.9286M1 1H53.2927M1 51.9286H53.2927M53.2927 51.9286V1" stroke="#14FF00" stroke-opacity="0.6"/>
<defs>
<radialGradient id="paint0_radial" cx="0" cy="0" r="1" gradientUnits="userSpaceOnUse" gradientTransform="translate(33 35.5) rotate(90) scale(34.5 32)">
<stop stop-color="#FF6CF0" stop-opacity="0.06"/>
<stop offset="1" stop-color="white" stop-opacity="0"/>
</radialGradient>
</defs>
</svg>
