<svg width="267" height="198" viewBox="0 0 267 198" fill="none" xmlns="http://www.w3.org/2000/svg">
<g filter="url(#filter0_d)">
<mask id="path-1-inside-1" fill="white">
<path d="M133.603 21.4917L72.9956 21.4873C67.8291 21.4869 62.7306 22.6648 58.0878 24.9313C46.4177 30.6285 39.016 42.4795 39.017 55.466L39.0175 61.7371L39.1324 86.4849L39.1336 103.359C39.1341 109.43 39.6874 115.489 40.7868 121.46L43.145 134.267L44.3396 150.443C44.7484 155.977 43.6678 161.52 41.2101 166.496L39.6974 169.558C37.5046 173.997 33.8462 177.543 29.3405 179.597L28.4268 180.013C26.2176 181.02 23.8173 181.538 21.3896 181.533C14.7248 181.52 8.69123 177.588 5.98756 171.496L5.58387 170.586C4.53446 168.222 3.9948 165.663 4.00004 163.076L4.0024 161.908C4.00657 159.853 4.27572 157.807 4.80323 155.821L10.5282 134.265L14.7515 108.552C15.6315 103.194 16.0738 97.7736 16.0737 92.344L16.0737 83.9599C16.0738 76.6764 15.278 69.4146 13.7007 62.3039L10.5282 48.0019L6.24889 33.4919C4.81063 28.6151 5.30048 23.3722 7.61722 18.8463C9.45059 15.2647 12.3301 12.3255 15.8733 10.4191L16.0196 10.3403C18.9978 8.73786 22.3282 7.90236 25.7101 7.90922L39.1264 7.93645L94.8143 7.90374L138.805 12.2667C146.042 12.9845 153.336 12.9106 160.557 12.0464L191.949 8.28961L228.435 0.484135C229.94 0.162163 231.475 -0.000114841 233.014 6.09748e-08L238.456 0.000408234C248.834 0.00118298 256.827 9.15709 255.427 19.4399C254.271 27.9284 247.021 34.2574 238.454 34.2567L228.71 34.256C221.402 34.2555 214.177 32.7046 207.512 29.7059C201.911 27.186 195.906 25.6847 189.779 25.2723L133.603 21.4917Z"/>
<path d="M203.773 82.9291L208.914 58.6583C209.686 55.0153 209.497 51.2342 208.365 47.6862C205.867 39.8485 199.11 34.127 190.967 32.9543L184.483 32.0203C181.964 31.6575 179.411 31.5972 176.878 31.8405L139.479 35.4329L138.029 35.6452C132.067 36.5176 126.039 36.8494 120.018 36.6367L89.5119 35.5587L58.8675 31.028L41.108 25.9861C38.4833 25.2409 36.1382 23.7348 34.3687 21.658L32.8366 19.8599C31.5847 18.3906 30.9282 16.5059 30.9962 14.5769C31.1237 10.9617 33.7428 7.91915 37.2988 7.25536L47.3019 5.38809C48.775 5.11313 50.2738 5.00108 51.7714 5.054L59.7735 5.33676L90.3963 10.4824L137.278 12.1389L160.896 10.4664L186.342 7.31601C191.588 6.66652 196.877 6.43403 202.16 6.6207L217.665 7.16857C220.286 7.26117 222.892 7.59831 225.45 8.1756L233.604 10.0159C237.855 10.9754 241.641 13.382 244.314 16.8241C247.015 20.302 248.409 24.6176 248.254 29.0182L248.083 33.8555L247.33 58.9272C247.133 65.4896 246.29 72.0166 244.814 78.4137L243.559 83.8501C240.648 96.4619 240.494 109.554 243.106 122.231L243.834 125.766C244.376 128.397 245.14 130.977 246.119 133.478L248.614 139.86C249.352 141.746 249.691 143.763 249.612 145.787C249.408 151.006 246.448 155.725 241.837 158.18L240.838 158.713C238.244 160.094 235.33 160.765 232.393 160.658L221.737 160.267C212.259 159.919 204.032 153.628 201.212 144.572C200.455 142.141 200.119 139.597 200.219 137.052L201.68 99.7376C201.901 94.0856 202.601 88.4626 203.773 82.9291Z"/>
<path d="M69.5296 98.9042L63.1808 126.637C62.347 130.279 62.4043 134.068 63.3479 137.684C65.6274 146.418 72.7609 153.04 81.6398 154.665L84.7954 155.243C88.5641 155.932 92.4335 155.848 96.1685 154.996L101.042 153.884C106.669 152.6 112.468 152.251 118.208 152.851L142.611 155.403C148.243 155.992 153.914 156.101 159.565 155.73L169.067 155.106C177.414 154.558 185.798 155.059 194.021 156.598L212.063 159.975L229.231 165.755C232.068 166.71 234.545 168.512 236.327 170.917L237.644 172.694C238.855 174.329 239.447 176.34 239.316 178.37C239.06 182.335 236.123 185.609 232.209 186.291L222.914 187.911C221.308 188.191 219.675 188.28 218.049 188.175L214.091 187.919C211.551 187.754 209.025 187.41 206.532 186.889L186.841 182.768C182.215 181.8 177.526 181.161 172.81 180.856L133.166 178.293L109.539 179.476L84.671 182.138C78.9936 182.746 73.2745 182.866 67.5765 182.497L52.9146 181.549C50.2108 181.375 47.5315 180.928 44.9173 180.215L37.5996 178.221C32.9918 176.965 28.9887 174.095 26.3204 170.134C23.861 166.483 22.6808 162.12 22.9643 157.728L23.3374 151.945L25.0412 123.396C25.4034 117.327 26.3182 111.304 27.7744 105.401L29.8005 97.1886C32.9927 84.2494 33.5662 70.8023 31.4873 57.6376L30.7362 52.8814C30.2862 50.0313 29.6099 47.2215 28.7138 44.4787L26.4388 37.5154C25.775 35.4834 25.5084 33.3426 25.6537 31.21C26.0424 25.5057 29.3294 20.3999 34.3608 17.685L34.5594 17.5779C37.3853 16.0531 40.5841 15.3566 43.7882 15.5684L52.5037 16.1445C62.7826 16.824 71.4574 24.0415 73.9952 34.0257C74.6158 36.467 74.8447 38.9913 74.6735 41.5043L71.82 83.3861C71.4641 88.6109 70.6982 93.7995 69.5296 98.9042Z"/>
<path d="M142.35 148.316H179.074L187.241 147.684C193.385 147.208 199.36 145.362 204.705 142.293C217.988 134.668 226.009 120.31 225.5 105.002V87.044C225.5 82.357 225.88 77.6777 226.637 73.0522L229.072 58.1796C230.054 52.1776 229.361 46.0209 227.07 40.3871L225.802 37.2686C223.034 30.4632 223.324 22.7967 226.597 16.2197L227.137 15.1358C229.416 10.5551 233.209 6.9026 237.872 4.79631L238.868 4.34654C241.183 3.30084 243.7 2.77783 246.24 2.81467L247.253 2.82938C253.52 2.92026 259.136 6.71713 261.556 12.4982C263.16 16.3309 263.185 20.6422 261.625 24.4931L259.504 29.7293C258.226 32.8871 257.504 36.2428 257.371 39.6472L257.086 46.9838C256.926 51.1075 256.408 55.2096 255.54 59.2441L253.311 69.6031C251.824 76.5161 251.074 83.5674 251.074 90.6387V93.5552C251.074 101.161 251.942 108.743 253.66 116.153L256.845 129.88L260.109 145.538C261.399 151.728 261.277 158.128 259.754 164.264L258.006 171.3C256.881 175.834 254.274 179.862 250.599 182.746C246.823 185.709 242.144 187.288 237.344 187.219L225.5 187.047L167.729 186.364L122.005 181.144C114.605 180.299 107.133 180.284 99.7301 181.098L66.9664 184.702L49.936 188.22C47.1364 188.798 44.2816 189.066 41.4233 189.019L33.7971 188.893C29.2304 188.818 24.8483 187.078 21.4743 183.999C17.5003 180.373 15.2762 175.214 15.368 169.835L15.3811 169.072C15.5495 159.204 22.7476 150.868 32.4852 149.262L38.8807 148.208C43.8325 147.392 48.4768 145.269 52.3342 142.059L53.3434 141.219C58.2526 137.133 60.6765 134.391 63.8859 133.412C70.1023 131.516 76.3068 135.985 81.8505 139.377V139.377C87.1798 142.638 93.3062 144.363 99.554 144.363H101.765C110.779 144.363 119.698 145.993 128.615 147.309C133.157 147.978 137.747 148.316 142.35 148.316Z"/>
</mask>
<path d="M133.603 21.4917L72.9956 21.4873C67.8291 21.4869 62.7306 22.6648 58.0878 24.9313C46.4177 30.6285 39.016 42.4795 39.017 55.466L39.0175 61.7371L39.1324 86.4849L39.1336 103.359C39.1341 109.43 39.6874 115.489 40.7868 121.46L43.145 134.267L44.3396 150.443C44.7484 155.977 43.6678 161.52 41.2101 166.496L39.6974 169.558C37.5046 173.997 33.8462 177.543 29.3405 179.597L28.4268 180.013C26.2176 181.02 23.8173 181.538 21.3896 181.533C14.7248 181.52 8.69123 177.588 5.98756 171.496L5.58387 170.586C4.53446 168.222 3.9948 165.663 4.00004 163.076L4.0024 161.908C4.00657 159.853 4.27572 157.807 4.80323 155.821L10.5282 134.265L14.7515 108.552C15.6315 103.194 16.0738 97.7736 16.0737 92.344L16.0737 83.9599C16.0738 76.6764 15.278 69.4146 13.7007 62.3039L10.5282 48.0019L6.24889 33.4919C4.81063 28.6151 5.30048 23.3722 7.61722 18.8463C9.45059 15.2647 12.3301 12.3255 15.8733 10.4191L16.0196 10.3403C18.9978 8.73786 22.3282 7.90236 25.7101 7.90922L39.1264 7.93645L94.8143 7.90374L138.805 12.2667C146.042 12.9845 153.336 12.9106 160.557 12.0464L191.949 8.28961L228.435 0.484135C229.94 0.162163 231.475 -0.000114841 233.014 6.09748e-08L238.456 0.000408234C248.834 0.00118298 256.827 9.15709 255.427 19.4399C254.271 27.9284 247.021 34.2574 238.454 34.2567L228.71 34.256C221.402 34.2555 214.177 32.7046 207.512 29.7059C201.911 27.186 195.906 25.6847 189.779 25.2723L133.603 21.4917Z" fill="url(#paint0_radial)" fill-opacity="0.09"/>
<path d="M133.603 21.4917L72.9956 21.4873C67.8291 21.4869 62.7306 22.6648 58.0878 24.9313C46.4177 30.6285 39.016 42.4795 39.017 55.466L39.0175 61.7371L39.1324 86.4849L39.1336 103.359C39.1341 109.43 39.6874 115.489 40.7868 121.46L43.145 134.267L44.3396 150.443C44.7484 155.977 43.6678 161.52 41.2101 166.496L39.6974 169.558C37.5046 173.997 33.8462 177.543 29.3405 179.597L28.4268 180.013C26.2176 181.02 23.8173 181.538 21.3896 181.533C14.7248 181.52 8.69123 177.588 5.98756 171.496L5.58387 170.586C4.53446 168.222 3.9948 165.663 4.00004 163.076L4.0024 161.908C4.00657 159.853 4.27572 157.807 4.80323 155.821L10.5282 134.265L14.7515 108.552C15.6315 103.194 16.0738 97.7736 16.0737 92.344L16.0737 83.9599C16.0738 76.6764 15.278 69.4146 13.7007 62.3039L10.5282 48.0019L6.24889 33.4919C4.81063 28.6151 5.30048 23.3722 7.61722 18.8463C9.45059 15.2647 12.3301 12.3255 15.8733 10.4191L16.0196 10.3403C18.9978 8.73786 22.3282 7.90236 25.7101 7.90922L39.1264 7.93645L94.8143 7.90374L138.805 12.2667C146.042 12.9845 153.336 12.9106 160.557 12.0464L191.949 8.28961L228.435 0.484135C229.94 0.162163 231.475 -0.000114841 233.014 6.09748e-08L238.456 0.000408234C248.834 0.00118298 256.827 9.15709 255.427 19.4399C254.271 27.9284 247.021 34.2574 238.454 34.2567L228.71 34.256C221.402 34.2555 214.177 32.7046 207.512 29.7059C201.911 27.186 195.906 25.6847 189.779 25.2723L133.603 21.4917Z" fill="url(#paint1_linear)" fill-opacity="0.19"/>
<path d="M133.603 21.4917L72.9956 21.4873C67.8291 21.4869 62.7306 22.6648 58.0878 24.9313C46.4177 30.6285 39.016 42.4795 39.017 55.466L39.0175 61.7371L39.1324 86.4849L39.1336 103.359C39.1341 109.43 39.6874 115.489 40.7868 121.46L43.145 134.267L44.3396 150.443C44.7484 155.977 43.6678 161.52 41.2101 166.496L39.6974 169.558C37.5046 173.997 33.8462 177.543 29.3405 179.597L28.4268 180.013C26.2176 181.02 23.8173 181.538 21.3896 181.533C14.7248 181.52 8.69123 177.588 5.98756 171.496L5.58387 170.586C4.53446 168.222 3.9948 165.663 4.00004 163.076L4.0024 161.908C4.00657 159.853 4.27572 157.807 4.80323 155.821L10.5282 134.265L14.7515 108.552C15.6315 103.194 16.0738 97.7736 16.0737 92.344L16.0737 83.9599C16.0738 76.6764 15.278 69.4146 13.7007 62.3039L10.5282 48.0019L6.24889 33.4919C4.81063 28.6151 5.30048 23.3722 7.61722 18.8463C9.45059 15.2647 12.3301 12.3255 15.8733 10.4191L16.0196 10.3403C18.9978 8.73786 22.3282 7.90236 25.7101 7.90922L39.1264 7.93645L94.8143 7.90374L138.805 12.2667C146.042 12.9845 153.336 12.9106 160.557 12.0464L191.949 8.28961L228.435 0.484135C229.94 0.162163 231.475 -0.000114841 233.014 6.09748e-08L238.456 0.000408234C248.834 0.00118298 256.827 9.15709 255.427 19.4399C254.271 27.9284 247.021 34.2574 238.454 34.2567L228.71 34.256C221.402 34.2555 214.177 32.7046 207.512 29.7059C201.911 27.186 195.906 25.6847 189.779 25.2723L133.603 21.4917Z" fill="url(#paint2_radial)"/>
<path d="M133.603 21.4917L72.9956 21.4873C67.8291 21.4869 62.7306 22.6648 58.0878 24.9313C46.4177 30.6285 39.016 42.4795 39.017 55.466L39.0175 61.7371L39.1324 86.4849L39.1336 103.359C39.1341 109.43 39.6874 115.489 40.7868 121.46L43.145 134.267L44.3396 150.443C44.7484 155.977 43.6678 161.52 41.2101 166.496L39.6974 169.558C37.5046 173.997 33.8462 177.543 29.3405 179.597L28.4268 180.013C26.2176 181.02 23.8173 181.538 21.3896 181.533C14.7248 181.52 8.69123 177.588 5.98756 171.496L5.58387 170.586C4.53446 168.222 3.9948 165.663 4.00004 163.076L4.0024 161.908C4.00657 159.853 4.27572 157.807 4.80323 155.821L10.5282 134.265L14.7515 108.552C15.6315 103.194 16.0738 97.7736 16.0737 92.344L16.0737 83.9599C16.0738 76.6764 15.278 69.4146 13.7007 62.3039L10.5282 48.0019L6.24889 33.4919C4.81063 28.6151 5.30048 23.3722 7.61722 18.8463C9.45059 15.2647 12.3301 12.3255 15.8733 10.4191L16.0196 10.3403C18.9978 8.73786 22.3282 7.90236 25.7101 7.90922L39.1264 7.93645L94.8143 7.90374L138.805 12.2667C146.042 12.9845 153.336 12.9106 160.557 12.0464L191.949 8.28961L228.435 0.484135C229.94 0.162163 231.475 -0.000114841 233.014 6.09748e-08L238.456 0.000408234C248.834 0.00118298 256.827 9.15709 255.427 19.4399C254.271 27.9284 247.021 34.2574 238.454 34.2567L228.71 34.256C221.402 34.2555 214.177 32.7046 207.512 29.7059C201.911 27.186 195.906 25.6847 189.779 25.2723L133.603 21.4917Z" fill="url(#paint3_radial)" fill-opacity="0.45"/>
<path d="M203.773 82.9291L208.914 58.6583C209.686 55.0153 209.497 51.2342 208.365 47.6862C205.867 39.8485 199.11 34.127 190.967 32.9543L184.483 32.0203C181.964 31.6575 179.411 31.5972 176.878 31.8405L139.479 35.4329L138.029 35.6452C132.067 36.5176 126.039 36.8494 120.018 36.6367L89.5119 35.5587L58.8675 31.028L41.108 25.9861C38.4833 25.2409 36.1382 23.7348 34.3687 21.658L32.8366 19.8599C31.5847 18.3906 30.9282 16.5059 30.9962 14.5769C31.1237 10.9617 33.7428 7.91915 37.2988 7.25536L47.3019 5.38809C48.775 5.11313 50.2738 5.00108 51.7714 5.054L59.7735 5.33676L90.3963 10.4824L137.278 12.1389L160.896 10.4664L186.342 7.31601C191.588 6.66652 196.877 6.43403 202.16 6.6207L217.665 7.16857C220.286 7.26117 222.892 7.59831 225.45 8.1756L233.604 10.0159C237.855 10.9754 241.641 13.382 244.314 16.8241C247.015 20.302 248.409 24.6176 248.254 29.0182L248.083 33.8555L247.33 58.9272C247.133 65.4896 246.29 72.0166 244.814 78.4137L243.559 83.8501C240.648 96.4619 240.494 109.554 243.106 122.231L243.834 125.766C244.376 128.397 245.14 130.977 246.119 133.478L248.614 139.86C249.352 141.746 249.691 143.763 249.612 145.787C249.408 151.006 246.448 155.725 241.837 158.18L240.838 158.713C238.244 160.094 235.33 160.765 232.393 160.658L221.737 160.267C212.259 159.919 204.032 153.628 201.212 144.572C200.455 142.141 200.119 139.597 200.219 137.052L201.68 99.7376C201.901 94.0856 202.601 88.4626 203.773 82.9291Z" fill="url(#paint4_radial)" fill-opacity="0.09"/>
<path d="M203.773 82.9291L208.914 58.6583C209.686 55.0153 209.497 51.2342 208.365 47.6862C205.867 39.8485 199.11 34.127 190.967 32.9543L184.483 32.0203C181.964 31.6575 179.411 31.5972 176.878 31.8405L139.479 35.4329L138.029 35.6452C132.067 36.5176 126.039 36.8494 120.018 36.6367L89.5119 35.5587L58.8675 31.028L41.108 25.9861C38.4833 25.2409 36.1382 23.7348 34.3687 21.658L32.8366 19.8599C31.5847 18.3906 30.9282 16.5059 30.9962 14.5769C31.1237 10.9617 33.7428 7.91915 37.2988 7.25536L47.3019 5.38809C48.775 5.11313 50.2738 5.00108 51.7714 5.054L59.7735 5.33676L90.3963 10.4824L137.278 12.1389L160.896 10.4664L186.342 7.31601C191.588 6.66652 196.877 6.43403 202.16 6.6207L217.665 7.16857C220.286 7.26117 222.892 7.59831 225.45 8.1756L233.604 10.0159C237.855 10.9754 241.641 13.382 244.314 16.8241C247.015 20.302 248.409 24.6176 248.254 29.0182L248.083 33.8555L247.33 58.9272C247.133 65.4896 246.29 72.0166 244.814 78.4137L243.559 83.8501C240.648 96.4619 240.494 109.554 243.106 122.231L243.834 125.766C244.376 128.397 245.14 130.977 246.119 133.478L248.614 139.86C249.352 141.746 249.691 143.763 249.612 145.787C249.408 151.006 246.448 155.725 241.837 158.18L240.838 158.713C238.244 160.094 235.33 160.765 232.393 160.658L221.737 160.267C212.259 159.919 204.032 153.628 201.212 144.572C200.455 142.141 200.119 139.597 200.219 137.052L201.68 99.7376C201.901 94.0856 202.601 88.4626 203.773 82.9291Z" fill="url(#paint5_linear)" fill-opacity="0.19"/>
<path d="M203.773 82.9291L208.914 58.6583C209.686 55.0153 209.497 51.2342 208.365 47.6862C205.867 39.8485 199.11 34.127 190.967 32.9543L184.483 32.0203C181.964 31.6575 179.411 31.5972 176.878 31.8405L139.479 35.4329L138.029 35.6452C132.067 36.5176 126.039 36.8494 120.018 36.6367L89.5119 35.5587L58.8675 31.028L41.108 25.9861C38.4833 25.2409 36.1382 23.7348 34.3687 21.658L32.8366 19.8599C31.5847 18.3906 30.9282 16.5059 30.9962 14.5769C31.1237 10.9617 33.7428 7.91915 37.2988 7.25536L47.3019 5.38809C48.775 5.11313 50.2738 5.00108 51.7714 5.054L59.7735 5.33676L90.3963 10.4824L137.278 12.1389L160.896 10.4664L186.342 7.31601C191.588 6.66652 196.877 6.43403 202.16 6.6207L217.665 7.16857C220.286 7.26117 222.892 7.59831 225.45 8.1756L233.604 10.0159C237.855 10.9754 241.641 13.382 244.314 16.8241C247.015 20.302 248.409 24.6176 248.254 29.0182L248.083 33.8555L247.33 58.9272C247.133 65.4896 246.29 72.0166 244.814 78.4137L243.559 83.8501C240.648 96.4619 240.494 109.554 243.106 122.231L243.834 125.766C244.376 128.397 245.14 130.977 246.119 133.478L248.614 139.86C249.352 141.746 249.691 143.763 249.612 145.787C249.408 151.006 246.448 155.725 241.837 158.18L240.838 158.713C238.244 160.094 235.33 160.765 232.393 160.658L221.737 160.267C212.259 159.919 204.032 153.628 201.212 144.572C200.455 142.141 200.119 139.597 200.219 137.052L201.68 99.7376C201.901 94.0856 202.601 88.4626 203.773 82.9291Z" fill="url(#paint6_radial)"/>
<path d="M203.773 82.9291L208.914 58.6583C209.686 55.0153 209.497 51.2342 208.365 47.6862C205.867 39.8485 199.11 34.127 190.967 32.9543L184.483 32.0203C181.964 31.6575 179.411 31.5972 176.878 31.8405L139.479 35.4329L138.029 35.6452C132.067 36.5176 126.039 36.8494 120.018 36.6367L89.5119 35.5587L58.8675 31.028L41.108 25.9861C38.4833 25.2409 36.1382 23.7348 34.3687 21.658L32.8366 19.8599C31.5847 18.3906 30.9282 16.5059 30.9962 14.5769C31.1237 10.9617 33.7428 7.91915 37.2988 7.25536L47.3019 5.38809C48.775 5.11313 50.2738 5.00108 51.7714 5.054L59.7735 5.33676L90.3963 10.4824L137.278 12.1389L160.896 10.4664L186.342 7.31601C191.588 6.66652 196.877 6.43403 202.16 6.6207L217.665 7.16857C220.286 7.26117 222.892 7.59831 225.45 8.1756L233.604 10.0159C237.855 10.9754 241.641 13.382 244.314 16.8241C247.015 20.302 248.409 24.6176 248.254 29.0182L248.083 33.8555L247.33 58.9272C247.133 65.4896 246.29 72.0166 244.814 78.4137L243.559 83.8501C240.648 96.4619 240.494 109.554 243.106 122.231L243.834 125.766C244.376 128.397 245.14 130.977 246.119 133.478L248.614 139.86C249.352 141.746 249.691 143.763 249.612 145.787C249.408 151.006 246.448 155.725 241.837 158.18L240.838 158.713C238.244 160.094 235.33 160.765 232.393 160.658L221.737 160.267C212.259 159.919 204.032 153.628 201.212 144.572C200.455 142.141 200.119 139.597 200.219 137.052L201.68 99.7376C201.901 94.0856 202.601 88.4626 203.773 82.9291Z" fill="url(#paint7_radial)" fill-opacity="0.45"/>
<path d="M69.5296 98.9042L63.1808 126.637C62.347 130.279 62.4043 134.068 63.3479 137.684C65.6274 146.418 72.7609 153.04 81.6398 154.665L84.7954 155.243C88.5641 155.932 92.4335 155.848 96.1685 154.996L101.042 153.884C106.669 152.6 112.468 152.251 118.208 152.851L142.611 155.403C148.243 155.992 153.914 156.101 159.565 155.73L169.067 155.106C177.414 154.558 185.798 155.059 194.021 156.598L212.063 159.975L229.231 165.755C232.068 166.71 234.545 168.512 236.327 170.917L237.644 172.694C238.855 174.329 239.447 176.34 239.316 178.37C239.06 182.335 236.123 185.609 232.209 186.291L222.914 187.911C221.308 188.191 219.675 188.28 218.049 188.175L214.091 187.919C211.551 187.754 209.025 187.41 206.532 186.889L186.841 182.768C182.215 181.8 177.526 181.161 172.81 180.856L133.166 178.293L109.539 179.476L84.671 182.138C78.9936 182.746 73.2745 182.866 67.5765 182.497L52.9146 181.549C50.2108 181.375 47.5315 180.928 44.9173 180.215L37.5996 178.221C32.9918 176.965 28.9887 174.095 26.3204 170.134C23.861 166.483 22.6808 162.12 22.9643 157.728L23.3374 151.945L25.0412 123.396C25.4034 117.327 26.3182 111.304 27.7744 105.401L29.8005 97.1886C32.9927 84.2494 33.5662 70.8023 31.4873 57.6376L30.7362 52.8814C30.2862 50.0313 29.6099 47.2215 28.7138 44.4787L26.4388 37.5154C25.775 35.4834 25.5084 33.3426 25.6537 31.21C26.0424 25.5057 29.3294 20.3999 34.3608 17.685L34.5594 17.5779C37.3853 16.0531 40.5841 15.3566 43.7882 15.5684L52.5037 16.1445C62.7826 16.824 71.4574 24.0415 73.9952 34.0257C74.6158 36.467 74.8447 38.9913 74.6735 41.5043L71.82 83.3861C71.4641 88.6109 70.6982 93.7995 69.5296 98.9042Z" fill="url(#paint8_radial)" fill-opacity="0.09"/>
<path d="M69.5296 98.9042L63.1808 126.637C62.347 130.279 62.4043 134.068 63.3479 137.684C65.6274 146.418 72.7609 153.04 81.6398 154.665L84.7954 155.243C88.5641 155.932 92.4335 155.848 96.1685 154.996L101.042 153.884C106.669 152.6 112.468 152.251 118.208 152.851L142.611 155.403C148.243 155.992 153.914 156.101 159.565 155.73L169.067 155.106C177.414 154.558 185.798 155.059 194.021 156.598L212.063 159.975L229.231 165.755C232.068 166.71 234.545 168.512 236.327 170.917L237.644 172.694C238.855 174.329 239.447 176.34 239.316 178.37C239.06 182.335 236.123 185.609 232.209 186.291L222.914 187.911C221.308 188.191 219.675 188.28 218.049 188.175L214.091 187.919C211.551 187.754 209.025 187.41 206.532 186.889L186.841 182.768C182.215 181.8 177.526 181.161 172.81 180.856L133.166 178.293L109.539 179.476L84.671 182.138C78.9936 182.746 73.2745 182.866 67.5765 182.497L52.9146 181.549C50.2108 181.375 47.5315 180.928 44.9173 180.215L37.5996 178.221C32.9918 176.965 28.9887 174.095 26.3204 170.134C23.861 166.483 22.6808 162.12 22.9643 157.728L23.3374 151.945L25.0412 123.396C25.4034 117.327 26.3182 111.304 27.7744 105.401L29.8005 97.1886C32.9927 84.2494 33.5662 70.8023 31.4873 57.6376L30.7362 52.8814C30.2862 50.0313 29.6099 47.2215 28.7138 44.4787L26.4388 37.5154C25.775 35.4834 25.5084 33.3426 25.6537 31.21C26.0424 25.5057 29.3294 20.3999 34.3608 17.685L34.5594 17.5779C37.3853 16.0531 40.5841 15.3566 43.7882 15.5684L52.5037 16.1445C62.7826 16.824 71.4574 24.0415 73.9952 34.0257C74.6158 36.467 74.8447 38.9913 74.6735 41.5043L71.82 83.3861C71.4641 88.6109 70.6982 93.7995 69.5296 98.9042Z" fill="url(#paint9_linear)" fill-opacity="0.19"/>
<path d="M69.5296 98.9042L63.1808 126.637C62.347 130.279 62.4043 134.068 63.3479 137.684C65.6274 146.418 72.7609 153.04 81.6398 154.665L84.7954 155.243C88.5641 155.932 92.4335 155.848 96.1685 154.996L101.042 153.884C106.669 152.6 112.468 152.251 118.208 152.851L142.611 155.403C148.243 155.992 153.914 156.101 159.565 155.73L169.067 155.106C177.414 154.558 185.798 155.059 194.021 156.598L212.063 159.975L229.231 165.755C232.068 166.71 234.545 168.512 236.327 170.917L237.644 172.694C238.855 174.329 239.447 176.34 239.316 178.37C239.06 182.335 236.123 185.609 232.209 186.291L222.914 187.911C221.308 188.191 219.675 188.28 218.049 188.175L214.091 187.919C211.551 187.754 209.025 187.41 206.532 186.889L186.841 182.768C182.215 181.8 177.526 181.161 172.81 180.856L133.166 178.293L109.539 179.476L84.671 182.138C78.9936 182.746 73.2745 182.866 67.5765 182.497L52.9146 181.549C50.2108 181.375 47.5315 180.928 44.9173 180.215L37.5996 178.221C32.9918 176.965 28.9887 174.095 26.3204 170.134C23.861 166.483 22.6808 162.12 22.9643 157.728L23.3374 151.945L25.0412 123.396C25.4034 117.327 26.3182 111.304 27.7744 105.401L29.8005 97.1886C32.9927 84.2494 33.5662 70.8023 31.4873 57.6376L30.7362 52.8814C30.2862 50.0313 29.6099 47.2215 28.7138 44.4787L26.4388 37.5154C25.775 35.4834 25.5084 33.3426 25.6537 31.21C26.0424 25.5057 29.3294 20.3999 34.3608 17.685L34.5594 17.5779C37.3853 16.0531 40.5841 15.3566 43.7882 15.5684L52.5037 16.1445C62.7826 16.824 71.4574 24.0415 73.9952 34.0257C74.6158 36.467 74.8447 38.9913 74.6735 41.5043L71.82 83.3861C71.4641 88.6109 70.6982 93.7995 69.5296 98.9042Z" fill="url(#paint10_radial)"/>
<path d="M69.5296 98.9042L63.1808 126.637C62.347 130.279 62.4043 134.068 63.3479 137.684C65.6274 146.418 72.7609 153.04 81.6398 154.665L84.7954 155.243C88.5641 155.932 92.4335 155.848 96.1685 154.996L101.042 153.884C106.669 152.6 112.468 152.251 118.208 152.851L142.611 155.403C148.243 155.992 153.914 156.101 159.565 155.73L169.067 155.106C177.414 154.558 185.798 155.059 194.021 156.598L212.063 159.975L229.231 165.755C232.068 166.71 234.545 168.512 236.327 170.917L237.644 172.694C238.855 174.329 239.447 176.34 239.316 178.37C239.06 182.335 236.123 185.609 232.209 186.291L222.914 187.911C221.308 188.191 219.675 188.28 218.049 188.175L214.091 187.919C211.551 187.754 209.025 187.41 206.532 186.889L186.841 182.768C182.215 181.8 177.526 181.161 172.81 180.856L133.166 178.293L109.539 179.476L84.671 182.138C78.9936 182.746 73.2745 182.866 67.5765 182.497L52.9146 181.549C50.2108 181.375 47.5315 180.928 44.9173 180.215L37.5996 178.221C32.9918 176.965 28.9887 174.095 26.3204 170.134C23.861 166.483 22.6808 162.12 22.9643 157.728L23.3374 151.945L25.0412 123.396C25.4034 117.327 26.3182 111.304 27.7744 105.401L29.8005 97.1886C32.9927 84.2494 33.5662 70.8023 31.4873 57.6376L30.7362 52.8814C30.2862 50.0313 29.6099 47.2215 28.7138 44.4787L26.4388 37.5154C25.775 35.4834 25.5084 33.3426 25.6537 31.21C26.0424 25.5057 29.3294 20.3999 34.3608 17.685L34.5594 17.5779C37.3853 16.0531 40.5841 15.3566 43.7882 15.5684L52.5037 16.1445C62.7826 16.824 71.4574 24.0415 73.9952 34.0257C74.6158 36.467 74.8447 38.9913 74.6735 41.5043L71.82 83.3861C71.4641 88.6109 70.6982 93.7995 69.5296 98.9042Z" fill="url(#paint11_radial)" fill-opacity="0.45"/>
<path d="M142.35 148.316H179.074L187.241 147.684C193.385 147.208 199.36 145.362 204.705 142.293C217.988 134.668 226.009 120.31 225.5 105.002V87.044C225.5 82.357 225.88 77.6777 226.637 73.0522L229.072 58.1796C230.054 52.1776 229.361 46.0209 227.07 40.3871L225.802 37.2686C223.034 30.4632 223.324 22.7967 226.597 16.2197L227.137 15.1358C229.416 10.5551 233.209 6.9026 237.872 4.79631L238.868 4.34654C241.183 3.30084 243.7 2.77783 246.24 2.81467L247.253 2.82938C253.52 2.92026 259.136 6.71713 261.556 12.4982C263.16 16.3309 263.185 20.6422 261.625 24.4931L259.504 29.7293C258.226 32.8871 257.504 36.2428 257.371 39.6472L257.086 46.9838C256.926 51.1075 256.408 55.2096 255.54 59.2441L253.311 69.6031C251.824 76.5161 251.074 83.5674 251.074 90.6387V93.5552C251.074 101.161 251.942 108.743 253.66 116.153L256.845 129.88L260.109 145.538C261.399 151.728 261.277 158.128 259.754 164.264L258.006 171.3C256.881 175.834 254.274 179.862 250.599 182.746C246.823 185.709 242.144 187.288 237.344 187.219L225.5 187.047L167.729 186.364L122.005 181.144C114.605 180.299 107.133 180.284 99.7301 181.098L66.9664 184.702L49.936 188.22C47.1364 188.798 44.2816 189.066 41.4233 189.019L33.7971 188.893C29.2304 188.818 24.8483 187.078 21.4743 183.999C17.5003 180.373 15.2762 175.214 15.368 169.835L15.3811 169.072C15.5495 159.204 22.7476 150.868 32.4852 149.262L38.8807 148.208C43.8325 147.392 48.4768 145.269 52.3342 142.059L53.3434 141.219C58.2526 137.133 60.6765 134.391 63.8859 133.412C70.1023 131.516 76.3068 135.985 81.8505 139.377V139.377C87.1798 142.638 93.3062 144.363 99.554 144.363H101.765C110.779 144.363 119.698 145.993 128.615 147.309C133.157 147.978 137.747 148.316 142.35 148.316Z" fill="url(#paint12_radial)" fill-opacity="0.09"/>
<path d="M142.35 148.316H179.074L187.241 147.684C193.385 147.208 199.36 145.362 204.705 142.293C217.988 134.668 226.009 120.31 225.5 105.002V87.044C225.5 82.357 225.88 77.6777 226.637 73.0522L229.072 58.1796C230.054 52.1776 229.361 46.0209 227.07 40.3871L225.802 37.2686C223.034 30.4632 223.324 22.7967 226.597 16.2197L227.137 15.1358C229.416 10.5551 233.209 6.9026 237.872 4.79631L238.868 4.34654C241.183 3.30084 243.7 2.77783 246.24 2.81467L247.253 2.82938C253.52 2.92026 259.136 6.71713 261.556 12.4982C263.16 16.3309 263.185 20.6422 261.625 24.4931L259.504 29.7293C258.226 32.8871 257.504 36.2428 257.371 39.6472L257.086 46.9838C256.926 51.1075 256.408 55.2096 255.54 59.2441L253.311 69.6031C251.824 76.5161 251.074 83.5674 251.074 90.6387V93.5552C251.074 101.161 251.942 108.743 253.66 116.153L256.845 129.88L260.109 145.538C261.399 151.728 261.277 158.128 259.754 164.264L258.006 171.3C256.881 175.834 254.274 179.862 250.599 182.746C246.823 185.709 242.144 187.288 237.344 187.219L225.5 187.047L167.729 186.364L122.005 181.144C114.605 180.299 107.133 180.284 99.7301 181.098L66.9664 184.702L49.936 188.22C47.1364 188.798 44.2816 189.066 41.4233 189.019L33.7971 188.893C29.2304 188.818 24.8483 187.078 21.4743 183.999C17.5003 180.373 15.2762 175.214 15.368 169.835L15.3811 169.072C15.5495 159.204 22.7476 150.868 32.4852 149.262L38.8807 148.208C43.8325 147.392 48.4768 145.269 52.3342 142.059L53.3434 141.219C58.2526 137.133 60.6765 134.391 63.8859 133.412C70.1023 131.516 76.3068 135.985 81.8505 139.377V139.377C87.1798 142.638 93.3062 144.363 99.554 144.363H101.765C110.779 144.363 119.698 145.993 128.615 147.309C133.157 147.978 137.747 148.316 142.35 148.316Z" fill="url(#paint13_linear)" fill-opacity="0.19"/>
<path d="M142.35 148.316H179.074L187.241 147.684C193.385 147.208 199.36 145.362 204.705 142.293C217.988 134.668 226.009 120.31 225.5 105.002V87.044C225.5 82.357 225.88 77.6777 226.637 73.0522L229.072 58.1796C230.054 52.1776 229.361 46.0209 227.07 40.3871L225.802 37.2686C223.034 30.4632 223.324 22.7967 226.597 16.2197L227.137 15.1358C229.416 10.5551 233.209 6.9026 237.872 4.79631L238.868 4.34654C241.183 3.30084 243.7 2.77783 246.24 2.81467L247.253 2.82938C253.52 2.92026 259.136 6.71713 261.556 12.4982C263.16 16.3309 263.185 20.6422 261.625 24.4931L259.504 29.7293C258.226 32.8871 257.504 36.2428 257.371 39.6472L257.086 46.9838C256.926 51.1075 256.408 55.2096 255.54 59.2441L253.311 69.6031C251.824 76.5161 251.074 83.5674 251.074 90.6387V93.5552C251.074 101.161 251.942 108.743 253.66 116.153L256.845 129.88L260.109 145.538C261.399 151.728 261.277 158.128 259.754 164.264L258.006 171.3C256.881 175.834 254.274 179.862 250.599 182.746C246.823 185.709 242.144 187.288 237.344 187.219L225.5 187.047L167.729 186.364L122.005 181.144C114.605 180.299 107.133 180.284 99.7301 181.098L66.9664 184.702L49.936 188.22C47.1364 188.798 44.2816 189.066 41.4233 189.019L33.7971 188.893C29.2304 188.818 24.8483 187.078 21.4743 183.999C17.5003 180.373 15.2762 175.214 15.368 169.835L15.3811 169.072C15.5495 159.204 22.7476 150.868 32.4852 149.262L38.8807 148.208C43.8325 147.392 48.4768 145.269 52.3342 142.059L53.3434 141.219C58.2526 137.133 60.6765 134.391 63.8859 133.412C70.1023 131.516 76.3068 135.985 81.8505 139.377V139.377C87.1798 142.638 93.3062 144.363 99.554 144.363H101.765C110.779 144.363 119.698 145.993 128.615 147.309C133.157 147.978 137.747 148.316 142.35 148.316Z" fill="url(#paint14_radial)"/>
<path d="M142.35 148.316H179.074L187.241 147.684C193.385 147.208 199.36 145.362 204.705 142.293C217.988 134.668 226.009 120.31 225.5 105.002V87.044C225.5 82.357 225.88 77.6777 226.637 73.0522L229.072 58.1796C230.054 52.1776 229.361 46.0209 227.07 40.3871L225.802 37.2686C223.034 30.4632 223.324 22.7967 226.597 16.2197L227.137 15.1358C229.416 10.5551 233.209 6.9026 237.872 4.79631L238.868 4.34654C241.183 3.30084 243.7 2.77783 246.24 2.81467L247.253 2.82938C253.52 2.92026 259.136 6.71713 261.556 12.4982C263.16 16.3309 263.185 20.6422 261.625 24.4931L259.504 29.7293C258.226 32.8871 257.504 36.2428 257.371 39.6472L257.086 46.9838C256.926 51.1075 256.408 55.2096 255.54 59.2441L253.311 69.6031C251.824 76.5161 251.074 83.5674 251.074 90.6387V93.5552C251.074 101.161 251.942 108.743 253.66 116.153L256.845 129.88L260.109 145.538C261.399 151.728 261.277 158.128 259.754 164.264L258.006 171.3C256.881 175.834 254.274 179.862 250.599 182.746C246.823 185.709 242.144 187.288 237.344 187.219L225.5 187.047L167.729 186.364L122.005 181.144C114.605 180.299 107.133 180.284 99.7301 181.098L66.9664 184.702L49.936 188.22C47.1364 188.798 44.2816 189.066 41.4233 189.019L33.7971 188.893C29.2304 188.818 24.8483 187.078 21.4743 183.999C17.5003 180.373 15.2762 175.214 15.368 169.835L15.3811 169.072C15.5495 159.204 22.7476 150.868 32.4852 149.262L38.8807 148.208C43.8325 147.392 48.4768 145.269 52.3342 142.059L53.3434 141.219C58.2526 137.133 60.6765 134.391 63.8859 133.412C70.1023 131.516 76.3068 135.985 81.8505 139.377V139.377C87.1798 142.638 93.3062 144.363 99.554 144.363H101.765C110.779 144.363 119.698 145.993 128.615 147.309C133.157 147.978 137.747 148.316 142.35 148.316Z" fill="url(#paint15_radial)" fill-opacity="0.45"/>
<path d="M133.603 21.4917L72.9956 21.4873C67.8291 21.4869 62.7306 22.6648 58.0878 24.9313C46.4177 30.6285 39.016 42.4795 39.017 55.466L39.0175 61.7371L39.1324 86.4849L39.1336 103.359C39.1341 109.43 39.6874 115.489 40.7868 121.46L43.145 134.267L44.3396 150.443C44.7484 155.977 43.6678 161.52 41.2101 166.496L39.6974 169.558C37.5046 173.997 33.8462 177.543 29.3405 179.597L28.4268 180.013C26.2176 181.02 23.8173 181.538 21.3896 181.533C14.7248 181.52 8.69123 177.588 5.98756 171.496L5.58387 170.586C4.53446 168.222 3.9948 165.663 4.00004 163.076L4.0024 161.908C4.00657 159.853 4.27572 157.807 4.80323 155.821L10.5282 134.265L14.7515 108.552C15.6315 103.194 16.0738 97.7736 16.0737 92.344L16.0737 83.9599C16.0738 76.6764 15.278 69.4146 13.7007 62.3039L10.5282 48.0019L6.24889 33.4919C4.81063 28.6151 5.30048 23.3722 7.61722 18.8463C9.45059 15.2647 12.3301 12.3255 15.8733 10.4191L16.0196 10.3403C18.9978 8.73786 22.3282 7.90236 25.7101 7.90922L39.1264 7.93645L94.8143 7.90374L138.805 12.2667C146.042 12.9845 153.336 12.9106 160.557 12.0464L191.949 8.28961L228.435 0.484135C229.94 0.162163 231.475 -0.000114841 233.014 6.09748e-08L238.456 0.000408234C248.834 0.00118298 256.827 9.15709 255.427 19.4399C254.271 27.9284 247.021 34.2574 238.454 34.2567L228.71 34.256C221.402 34.2555 214.177 32.7046 207.512 29.7059C201.911 27.186 195.906 25.6847 189.779 25.2723L133.603 21.4917Z" stroke="#FF97FB" stroke-opacity="0.09" stroke-width="2" mask="url(#path-1-inside-1)"/>
<path d="M203.773 82.9291L208.914 58.6583C209.686 55.0153 209.497 51.2342 208.365 47.6862C205.867 39.8485 199.11 34.127 190.967 32.9543L184.483 32.0203C181.964 31.6575 179.411 31.5972 176.878 31.8405L139.479 35.4329L138.029 35.6452C132.067 36.5176 126.039 36.8494 120.018 36.6367L89.5119 35.5587L58.8675 31.028L41.108 25.9861C38.4833 25.2409 36.1382 23.7348 34.3687 21.658L32.8366 19.8599C31.5847 18.3906 30.9282 16.5059 30.9962 14.5769C31.1237 10.9617 33.7428 7.91915 37.2988 7.25536L47.3019 5.38809C48.775 5.11313 50.2738 5.00108 51.7714 5.054L59.7735 5.33676L90.3963 10.4824L137.278 12.1389L160.896 10.4664L186.342 7.31601C191.588 6.66652 196.877 6.43403 202.16 6.6207L217.665 7.16857C220.286 7.26117 222.892 7.59831 225.45 8.1756L233.604 10.0159C237.855 10.9754 241.641 13.382 244.314 16.8241C247.015 20.302 248.409 24.6176 248.254 29.0182L248.083 33.8555L247.33 58.9272C247.133 65.4896 246.29 72.0166 244.814 78.4137L243.559 83.8501C240.648 96.4619 240.494 109.554 243.106 122.231L243.834 125.766C244.376 128.397 245.14 130.977 246.119 133.478L248.614 139.86C249.352 141.746 249.691 143.763 249.612 145.787C249.408 151.006 246.448 155.725 241.837 158.18L240.838 158.713C238.244 160.094 235.33 160.765 232.393 160.658L221.737 160.267C212.259 159.919 204.032 153.628 201.212 144.572C200.455 142.141 200.119 139.597 200.219 137.052L201.68 99.7376C201.901 94.0856 202.601 88.4626 203.773 82.9291Z" stroke="#FF97FB" stroke-opacity="0.09" stroke-width="2" mask="url(#path-1-inside-1)"/>
<path d="M69.5296 98.9042L63.1808 126.637C62.347 130.279 62.4043 134.068 63.3479 137.684C65.6274 146.418 72.7609 153.04 81.6398 154.665L84.7954 155.243C88.5641 155.932 92.4335 155.848 96.1685 154.996L101.042 153.884C106.669 152.6 112.468 152.251 118.208 152.851L142.611 155.403C148.243 155.992 153.914 156.101 159.565 155.73L169.067 155.106C177.414 154.558 185.798 155.059 194.021 156.598L212.063 159.975L229.231 165.755C232.068 166.71 234.545 168.512 236.327 170.917L237.644 172.694C238.855 174.329 239.447 176.34 239.316 178.37C239.06 182.335 236.123 185.609 232.209 186.291L222.914 187.911C221.308 188.191 219.675 188.28 218.049 188.175L214.091 187.919C211.551 187.754 209.025 187.41 206.532 186.889L186.841 182.768C182.215 181.8 177.526 181.161 172.81 180.856L133.166 178.293L109.539 179.476L84.671 182.138C78.9936 182.746 73.2745 182.866 67.5765 182.497L52.9146 181.549C50.2108 181.375 47.5315 180.928 44.9173 180.215L37.5996 178.221C32.9918 176.965 28.9887 174.095 26.3204 170.134C23.861 166.483 22.6808 162.12 22.9643 157.728L23.3374 151.945L25.0412 123.396C25.4034 117.327 26.3182 111.304 27.7744 105.401L29.8005 97.1886C32.9927 84.2494 33.5662 70.8023 31.4873 57.6376L30.7362 52.8814C30.2862 50.0313 29.6099 47.2215 28.7138 44.4787L26.4388 37.5154C25.775 35.4834 25.5084 33.3426 25.6537 31.21C26.0424 25.5057 29.3294 20.3999 34.3608 17.685L34.5594 17.5779C37.3853 16.0531 40.5841 15.3566 43.7882 15.5684L52.5037 16.1445C62.7826 16.824 71.4574 24.0415 73.9952 34.0257C74.6158 36.467 74.8447 38.9913 74.6735 41.5043L71.82 83.3861C71.4641 88.6109 70.6982 93.7995 69.5296 98.9042Z" stroke="#FF97FB" stroke-opacity="0.09" stroke-width="2" mask="url(#path-1-inside-1)"/>
<path d="M142.35 148.316H179.074L187.241 147.684C193.385 147.208 199.36 145.362 204.705 142.293C217.988 134.668 226.009 120.31 225.5 105.002V87.044C225.5 82.357 225.88 77.6777 226.637 73.0522L229.072 58.1796C230.054 52.1776 229.361 46.0209 227.07 40.3871L225.802 37.2686C223.034 30.4632 223.324 22.7967 226.597 16.2197L227.137 15.1358C229.416 10.5551 233.209 6.9026 237.872 4.79631L238.868 4.34654C241.183 3.30084 243.7 2.77783 246.24 2.81467L247.253 2.82938C253.52 2.92026 259.136 6.71713 261.556 12.4982C263.16 16.3309 263.185 20.6422 261.625 24.4931L259.504 29.7293C258.226 32.8871 257.504 36.2428 257.371 39.6472L257.086 46.9838C256.926 51.1075 256.408 55.2096 255.54 59.2441L253.311 69.6031C251.824 76.5161 251.074 83.5674 251.074 90.6387V93.5552C251.074 101.161 251.942 108.743 253.66 116.153L256.845 129.88L260.109 145.538C261.399 151.728 261.277 158.128 259.754 164.264L258.006 171.3C256.881 175.834 254.274 179.862 250.599 182.746C246.823 185.709 242.144 187.288 237.344 187.219L225.5 187.047L167.729 186.364L122.005 181.144C114.605 180.299 107.133 180.284 99.7301 181.098L66.9664 184.702L49.936 188.22C47.1364 188.798 44.2816 189.066 41.4233 189.019L33.7971 188.893C29.2304 188.818 24.8483 187.078 21.4743 183.999C17.5003 180.373 15.2762 175.214 15.368 169.835L15.3811 169.072C15.5495 159.204 22.7476 150.868 32.4852 149.262L38.8807 148.208C43.8325 147.392 48.4768 145.269 52.3342 142.059L53.3434 141.219C58.2526 137.133 60.6765 134.391 63.8859 133.412C70.1023 131.516 76.3068 135.985 81.8505 139.377V139.377C87.1798 142.638 93.3062 144.363 99.554 144.363H101.765C110.779 144.363 119.698 145.993 128.615 147.309C133.157 147.978 137.747 148.316 142.35 148.316Z" stroke="#FF97FB" stroke-opacity="0.09" stroke-width="2" mask="url(#path-1-inside-1)"/>
</g>
<defs>
<filter id="filter0_d" x="0" y="0" width="266.777" height="197.025" filterUnits="userSpaceOnUse" color-interpolation-filters="sRGB">
<feFlood flood-opacity="0" result="BackgroundImageFix"/>
<feColorMatrix in="SourceAlpha" type="matrix" values="0 0 0 0 0 0 0 0 0 0 0 0 0 0 0 0 0 0 127 0"/>
<feOffset dy="4"/>
<feGaussianBlur stdDeviation="2"/>
<feColorMatrix type="matrix" values="0 0 0 0 0.4625 0 0 0 0 0.4625 0 0 0 0 0.4625 0 0 0 0.09 0"/>
<feBlend mode="normal" in2="BackgroundImageFix" result="effect1_dropShadow"/>
<feBlend mode="normal" in="SourceGraphic" in2="effect1_dropShadow" result="shape"/>
</filter>
<radialGradient id="paint0_radial" cx="0" cy="0" r="1" gradientUnits="userSpaceOnUse" gradientTransform="translate(134.801 -9.47428) rotate(90.0123) scale(24.7418 23.3814)">
<stop stop-color="#A1FF80" stop-opacity="0.59"/>
<stop offset="1" stop-color="#68FF0C" stop-opacity="0"/>
</radialGradient>
<linearGradient id="paint1_linear" x1="134.806" y1="-34.216" x2="134.795" y2="15.2675" gradientUnits="userSpaceOnUse">
<stop stop-color="#FFEBCC"/>
<stop offset="1" stop-color="white" stop-opacity="0"/>
</linearGradient>
<radialGradient id="paint2_radial" cx="0" cy="0" r="1" gradientUnits="userSpaceOnUse" gradientTransform="translate(134.801 -9.47428) rotate(90.0123) scale(24.7418 23.3814)">
<stop stop-color="#68FF0C" stop-opacity="0.33"/>
<stop offset="1" stop-color="white" stop-opacity="0"/>
</radialGradient>
<radialGradient id="paint3_radial" cx="0" cy="0" r="1" gradientUnits="userSpaceOnUse" gradientTransform="translate(134.801 -9.47428) rotate(90.0123) scale(24.7418 23.3814)">
<stop stop-color="#68FF0C"/>
<stop offset="1" stop-color="#AE75E8" stop-opacity="0.45"/>
</radialGradient>
<radialGradient id="paint4_radial" cx="0" cy="0" r="1" gradientUnits="userSpaceOnUse" gradientTransform="translate(134.801 -9.47428) rotate(90.0123) scale(24.7418 23.3814)">
<stop stop-color="#A1FF80" stop-opacity="0.59"/>
<stop offset="1" stop-color="#68FF0C" stop-opacity="0"/>
</radialGradient>
<linearGradient id="paint5_linear" x1="134.806" y1="-34.216" x2="134.795" y2="15.2675" gradientUnits="userSpaceOnUse">
<stop stop-color="#FFEBCC"/>
<stop offset="1" stop-color="white" stop-opacity="0"/>
</linearGradient>
<radialGradient id="paint6_radial" cx="0" cy="0" r="1" gradientUnits="userSpaceOnUse" gradientTransform="translate(134.801 -9.47428) rotate(90.0123) scale(24.7418 23.3814)">
<stop stop-color="#68FF0C" stop-opacity="0.33"/>
<stop offset="1" stop-color="white" stop-opacity="0"/>
</radialGradient>
<radialGradient id="paint7_radial" cx="0" cy="0" r="1" gradientUnits="userSpaceOnUse" gradientTransform="translate(134.801 -9.47428) rotate(90.0123) scale(24.7418 23.3814)">
<stop stop-color="#68FF0C"/>
<stop offset="1" stop-color="#AE75E8" stop-opacity="0.45"/>
</radialGradient>
<radialGradient id="paint8_radial" cx="0" cy="0" r="1" gradientUnits="userSpaceOnUse" gradientTransform="translate(134.801 -9.47428) rotate(90.0123) scale(24.7418 23.3814)">
<stop stop-color="#A1FF80" stop-opacity="0.59"/>
<stop offset="1" stop-color="#68FF0C" stop-opacity="0"/>
</radialGradient>
<linearGradient id="paint9_linear" x1="134.806" y1="-34.216" x2="134.795" y2="15.2675" gradientUnits="userSpaceOnUse">
<stop stop-color="#FFEBCC"/>
<stop offset="1" stop-color="white" stop-opacity="0"/>
</linearGradient>
<radialGradient id="paint10_radial" cx="0" cy="0" r="1" gradientUnits="userSpaceOnUse" gradientTransform="translate(134.801 -9.47428) rotate(90.0123) scale(24.7418 23.3814)">
<stop stop-color="#68FF0C" stop-opacity="0.33"/>
<stop offset="1" stop-color="white" stop-opacity="0"/>
</radialGradient>
<radialGradient id="paint11_radial" cx="0" cy="0" r="1" gradientUnits="userSpaceOnUse" gradientTransform="translate(134.801 -9.47428) rotate(90.0123) scale(24.7418 23.3814)">
<stop stop-color="#68FF0C"/>
<stop offset="1" stop-color="#AE75E8" stop-opacity="0.45"/>
</radialGradient>
<radialGradient id="paint12_radial" cx="0" cy="0" r="1" gradientUnits="userSpaceOnUse" gradientTransform="translate(134.801 -9.47428) rotate(90.0123) scale(24.7418 23.3814)">
<stop stop-color="#A1FF80" stop-opacity="0.59"/>
<stop offset="1" stop-color="#68FF0C" stop-opacity="0"/>
</radialGradient>
<linearGradient id="paint13_linear" x1="134.806" y1="-34.216" x2="134.795" y2="15.2675" gradientUnits="userSpaceOnUse">
<stop stop-color="#FFEBCC"/>
<stop offset="1" stop-color="white" stop-opacity="0"/>
</linearGradient>
<radialGradient id="paint14_radial" cx="0" cy="0" r="1" gradientUnits="userSpaceOnUse" gradientTransform="translate(134.801 -9.47428) rotate(90.0123) scale(24.7418 23.3814)">
<stop stop-color="#68FF0C" stop-opacity="0.33"/>
<stop offset="1" stop-color="white" stop-opacity="0"/>
</radialGradient>
<radialGradient id="paint15_radial" cx="0" cy="0" r="1" gradientUnits="userSpaceOnUse" gradientTransform="translate(134.801 -9.47428) rotate(90.0123) scale(24.7418 23.3814)">
<stop stop-color="#68FF0C"/>
<stop offset="1" stop-color="#AE75E8" stop-opacity="0.45"/>
</radialGradient>
</defs>
</svg>
