<svg width="260" height="205" viewBox="0 0 260 205" fill="none" xmlns="http://www.w3.org/2000/svg">
<mask id="path-1-inside-1" fill="white">
<path d="M130.53 36.99L69.9219 36.9855C64.7554 36.9852 59.6568 38.163 55.014 40.4296C43.344 46.1267 35.9423 57.9778 35.9432 70.9642L35.9437 77.2353L36.0586 101.983L36.0599 118.857C36.0604 124.929 36.6137 130.987 37.7131 136.958L40.0712 149.765L41.2659 165.941C41.6747 171.475 40.5941 177.018 38.1364 181.994L36.6237 185.056C34.4309 189.496 30.7724 193.042 26.2668 195.095L25.3531 195.511C23.1439 196.518 20.7436 197.037 18.3159 197.032C11.6511 197.018 5.6175 193.086 2.91383 186.994L2.51014 186.085C1.46073 183.72 0.921068 181.161 0.926307 178.574L0.928672 177.407C0.932835 175.351 1.20199 173.305 1.7295 171.319L7.45443 149.763L11.6778 124.05C12.5578 118.692 13 113.272 13 107.842L13 99.4582C13 92.1746 12.2043 84.9128 10.627 77.8021L7.45443 63.5001L3.17516 48.9901C1.7369 44.1134 2.22675 38.8705 4.54349 34.3445C6.37686 30.7629 9.25633 27.8238 12.7995 25.9173L12.9459 25.8385C15.9241 24.2361 19.2544 23.4006 22.6363 23.4075L36.0527 23.4347L91.7406 23.402L135.731 27.7649C142.968 28.4827 150.262 28.4088 157.483 27.5447L188.875 23.7879L225.361 15.9824C226.866 15.6604 228.401 15.4981 229.94 15.4982L235.383 15.4987C245.76 15.4994 253.753 24.6553 252.353 34.9381C251.197 43.4267 243.947 49.7556 235.38 49.755L225.637 49.7543C218.328 49.7537 211.103 48.2029 204.438 45.2041C198.838 42.6843 192.833 41.183 186.705 40.7706L130.53 36.99Z"/>
<path d="M200.7 98.4273L205.84 74.1566C206.612 70.5136 206.423 66.7324 205.292 63.1844C202.793 55.3467 196.036 49.6253 187.894 48.4525L181.409 47.5186C178.891 47.1558 176.337 47.0954 173.804 47.3387L136.406 50.9311L134.955 51.1434C128.993 52.0158 122.965 52.3477 116.944 52.1349L86.4382 51.057L55.7937 46.5262L38.0343 41.4843C35.4096 40.7391 33.0645 39.2331 31.2949 37.1562L29.7629 35.3581C28.511 33.8889 27.8545 32.0042 27.9225 30.0752C28.05 26.4599 30.6691 23.4174 34.2251 22.7536L44.2282 20.8863C45.7012 20.6114 47.2001 20.4993 48.6977 20.5522L56.6998 20.835L87.3225 25.9806L134.204 27.6372L157.822 25.9647L183.269 22.8143C188.515 22.1648 193.804 21.9323 199.086 22.1189L214.591 22.6668C217.212 22.7594 219.818 23.0966 222.376 23.6738L230.53 25.5142C234.781 26.4736 238.567 28.8802 241.24 32.3224C243.941 35.8003 245.335 40.1158 245.18 44.5164L245.009 49.3538L244.256 74.4254C244.059 80.9878 243.216 87.5148 241.74 93.9119L240.485 99.3483C237.574 111.96 237.42 125.052 240.032 137.729L240.76 141.264C241.302 143.895 242.067 146.475 243.045 148.977L245.54 155.358C246.278 157.244 246.618 159.262 246.538 161.285C246.334 166.504 243.374 171.223 238.764 173.679L237.764 174.211C235.17 175.592 232.256 176.263 229.319 176.156L218.664 175.765C209.186 175.417 200.958 169.126 198.139 160.071C197.381 157.639 197.045 155.095 197.145 152.55L198.606 115.236C198.827 109.584 199.528 103.961 200.7 98.4273Z"/>
<path d="M66.4559 114.402L60.107 142.135C59.2733 145.777 59.3306 149.566 60.2742 153.182C62.5536 161.916 69.6872 168.538 78.5661 170.163L81.7217 170.741C85.4903 171.43 89.3597 171.347 93.0947 170.494L97.9684 169.382C103.595 168.098 109.395 167.749 115.135 168.35L139.537 170.901C145.169 171.49 150.841 171.6 156.491 171.228L165.993 170.604C174.341 170.056 182.724 170.557 190.947 172.096L208.989 175.473L226.157 181.253C228.995 182.208 231.471 184.01 233.253 186.415L234.57 188.193C235.781 189.827 236.373 191.838 236.242 193.869C235.987 197.833 233.049 201.107 229.136 201.789L219.84 203.41C218.234 203.69 216.601 203.778 214.975 203.673L211.018 203.417C208.477 203.253 205.951 202.908 203.459 202.387L183.767 198.266C179.141 197.298 174.452 196.659 169.736 196.354L130.092 193.791L106.466 194.974L81.5972 197.636C75.9198 198.244 70.2008 198.364 64.5028 197.996L49.8409 197.048C47.1371 196.873 44.4577 196.426 41.8435 195.713L34.5259 193.719C29.9181 192.464 25.9149 189.593 23.2466 185.632C20.7873 181.981 19.6071 177.618 19.8905 173.226L20.2637 167.443L21.9674 138.894C22.3296 132.825 23.2445 126.802 24.7007 120.899L26.7268 112.687C29.919 99.7476 30.4925 86.3005 28.4136 73.1358L27.6625 68.3797C27.2124 65.5295 26.5361 62.7197 25.64 59.9769L23.3651 53.0136C22.7012 50.9816 22.4347 48.8409 22.58 46.7082C22.9686 41.004 26.2557 35.8981 31.2871 33.1833L31.4857 33.0761C34.3115 31.5513 37.5103 30.8548 40.7145 31.0666L49.43 31.6427C59.7089 32.3222 68.3836 39.5397 70.9215 49.5239C71.542 51.9652 71.771 54.4895 71.5998 57.0026L68.7463 98.8844C68.3903 104.109 67.6245 109.298 66.4559 114.402Z"/>
<path d="M139.277 163.814H176L184.167 163.182C190.312 162.706 196.286 160.86 201.631 157.792C214.915 150.166 222.935 135.808 222.426 120.5V102.542C222.426 97.8552 222.806 93.1759 223.563 88.5505L225.998 73.6778C226.98 67.6759 226.288 61.5192 223.996 55.8854L222.728 52.7669C219.96 45.9614 220.25 38.2949 223.523 31.7179L224.063 30.634C226.343 26.0533 230.135 22.4008 234.798 20.2946L235.794 19.8448C238.109 18.7991 240.626 18.2761 243.166 18.3129L244.18 18.3276C250.446 18.4185 256.062 22.2154 258.482 27.9965C260.086 31.8292 260.111 36.1404 258.551 39.9914L256.431 45.2276C255.152 48.3854 254.43 51.741 254.298 55.1454L254.012 62.482C253.852 66.6057 253.335 70.7078 252.467 74.7423L250.238 85.1014C248.75 92.0144 248 99.0657 248 106.137V109.053C248 116.66 248.868 124.241 250.587 131.651L253.771 145.379L257.035 161.037C258.325 167.226 258.204 173.626 256.68 179.762L254.933 186.798C253.807 191.332 251.2 195.36 247.525 198.244C243.749 201.208 239.071 202.786 234.271 202.717L222.426 202.545L164.655 201.862L118.931 196.642C111.531 195.798 104.06 195.782 96.6564 196.597L63.8927 200.2L46.8623 203.718C44.0627 204.297 41.2079 204.565 38.3495 204.518L30.7234 204.392C26.1567 204.316 21.7746 202.576 18.4006 199.497C14.4266 195.871 12.2025 190.712 12.2943 185.333L12.3073 184.57C12.4758 174.702 19.6738 166.366 29.4115 164.761L35.807 163.706C40.7588 162.89 45.4031 160.767 49.2605 157.557L50.2697 156.717C58.778 149.636 70.2678 147.287 80.8728 150.461L112.284 159.861C121.042 162.483 130.135 163.814 139.277 163.814Z"/>
<path d="M159.114 19.4039C159.111 33.0684 144.635 30.7687 131.722 30.7659C118.808 30.7631 105 33.0568 105.002 19.3923C105.005 5.72781 118.815 0.00308539 131.728 0.00586038C144.641 0.00863537 159.117 5.73944 159.114 19.4039Z"/>
</mask>
<g filter="url(#filter0_i)">
<path d="M130.53 36.99L69.9219 36.9855C64.7554 36.9852 59.6568 38.163 55.014 40.4296C43.344 46.1267 35.9423 57.9778 35.9432 70.9642L35.9437 77.2353L36.0586 101.983L36.0599 118.857C36.0604 124.929 36.6137 130.987 37.7131 136.958L40.0712 149.765L41.2659 165.941C41.6747 171.475 40.5941 177.018 38.1364 181.994L36.6237 185.056C34.4309 189.496 30.7724 193.042 26.2668 195.095L25.3531 195.511C23.1439 196.518 20.7436 197.037 18.3159 197.032C11.6511 197.018 5.6175 193.086 2.91383 186.994L2.51014 186.085C1.46073 183.72 0.921068 181.161 0.926307 178.574L0.928672 177.407C0.932835 175.351 1.20199 173.305 1.7295 171.319L7.45443 149.763L11.6778 124.05C12.5578 118.692 13 113.272 13 107.842L13 99.4582C13 92.1746 12.2043 84.9128 10.627 77.8021L7.45443 63.5001L3.17516 48.9901C1.7369 44.1134 2.22675 38.8705 4.54349 34.3445C6.37686 30.7629 9.25633 27.8238 12.7995 25.9173L12.9459 25.8385C15.9241 24.2361 19.2544 23.4006 22.6363 23.4075L36.0527 23.4347L91.7406 23.402L135.731 27.7649C142.968 28.4827 150.262 28.4088 157.483 27.5447L188.875 23.7879L225.361 15.9824C226.866 15.6604 228.401 15.4981 229.94 15.4982L235.383 15.4987C245.76 15.4994 253.753 24.6553 252.353 34.9381C251.197 43.4267 243.947 49.7556 235.38 49.755L225.637 49.7543C218.328 49.7537 211.103 48.2029 204.438 45.2041C198.838 42.6843 192.833 41.183 186.705 40.7706L130.53 36.99Z" fill="url(#paint0_radial)" fill-opacity="0.09"/>
<path d="M130.53 36.99L69.9219 36.9855C64.7554 36.9852 59.6568 38.163 55.014 40.4296C43.344 46.1267 35.9423 57.9778 35.9432 70.9642L35.9437 77.2353L36.0586 101.983L36.0599 118.857C36.0604 124.929 36.6137 130.987 37.7131 136.958L40.0712 149.765L41.2659 165.941C41.6747 171.475 40.5941 177.018 38.1364 181.994L36.6237 185.056C34.4309 189.496 30.7724 193.042 26.2668 195.095L25.3531 195.511C23.1439 196.518 20.7436 197.037 18.3159 197.032C11.6511 197.018 5.6175 193.086 2.91383 186.994L2.51014 186.085C1.46073 183.72 0.921068 181.161 0.926307 178.574L0.928672 177.407C0.932835 175.351 1.20199 173.305 1.7295 171.319L7.45443 149.763L11.6778 124.05C12.5578 118.692 13 113.272 13 107.842L13 99.4582C13 92.1746 12.2043 84.9128 10.627 77.8021L7.45443 63.5001L3.17516 48.9901C1.7369 44.1134 2.22675 38.8705 4.54349 34.3445C6.37686 30.7629 9.25633 27.8238 12.7995 25.9173L12.9459 25.8385C15.9241 24.2361 19.2544 23.4006 22.6363 23.4075L36.0527 23.4347L91.7406 23.402L135.731 27.7649C142.968 28.4827 150.262 28.4088 157.483 27.5447L188.875 23.7879L225.361 15.9824C226.866 15.6604 228.401 15.4981 229.94 15.4982L235.383 15.4987C245.76 15.4994 253.753 24.6553 252.353 34.9381C251.197 43.4267 243.947 49.7556 235.38 49.755L225.637 49.7543C218.328 49.7537 211.103 48.2029 204.438 45.2041C198.838 42.6843 192.833 41.183 186.705 40.7706L130.53 36.99Z" fill="url(#paint1_linear)" fill-opacity="0.19"/>
<path d="M130.53 36.99L69.9219 36.9855C64.7554 36.9852 59.6568 38.163 55.014 40.4296C43.344 46.1267 35.9423 57.9778 35.9432 70.9642L35.9437 77.2353L36.0586 101.983L36.0599 118.857C36.0604 124.929 36.6137 130.987 37.7131 136.958L40.0712 149.765L41.2659 165.941C41.6747 171.475 40.5941 177.018 38.1364 181.994L36.6237 185.056C34.4309 189.496 30.7724 193.042 26.2668 195.095L25.3531 195.511C23.1439 196.518 20.7436 197.037 18.3159 197.032C11.6511 197.018 5.6175 193.086 2.91383 186.994L2.51014 186.085C1.46073 183.72 0.921068 181.161 0.926307 178.574L0.928672 177.407C0.932835 175.351 1.20199 173.305 1.7295 171.319L7.45443 149.763L11.6778 124.05C12.5578 118.692 13 113.272 13 107.842L13 99.4582C13 92.1746 12.2043 84.9128 10.627 77.8021L7.45443 63.5001L3.17516 48.9901C1.7369 44.1134 2.22675 38.8705 4.54349 34.3445C6.37686 30.7629 9.25633 27.8238 12.7995 25.9173L12.9459 25.8385C15.9241 24.2361 19.2544 23.4006 22.6363 23.4075L36.0527 23.4347L91.7406 23.402L135.731 27.7649C142.968 28.4827 150.262 28.4088 157.483 27.5447L188.875 23.7879L225.361 15.9824C226.866 15.6604 228.401 15.4981 229.94 15.4982L235.383 15.4987C245.76 15.4994 253.753 24.6553 252.353 34.9381C251.197 43.4267 243.947 49.7556 235.38 49.755L225.637 49.7543C218.328 49.7537 211.103 48.2029 204.438 45.2041C198.838 42.6843 192.833 41.183 186.705 40.7706L130.53 36.99Z" fill="url(#paint2_radial)"/>
<path d="M130.53 36.99L69.9219 36.9855C64.7554 36.9852 59.6568 38.163 55.014 40.4296C43.344 46.1267 35.9423 57.9778 35.9432 70.9642L35.9437 77.2353L36.0586 101.983L36.0599 118.857C36.0604 124.929 36.6137 130.987 37.7131 136.958L40.0712 149.765L41.2659 165.941C41.6747 171.475 40.5941 177.018 38.1364 181.994L36.6237 185.056C34.4309 189.496 30.7724 193.042 26.2668 195.095L25.3531 195.511C23.1439 196.518 20.7436 197.037 18.3159 197.032C11.6511 197.018 5.6175 193.086 2.91383 186.994L2.51014 186.085C1.46073 183.72 0.921068 181.161 0.926307 178.574L0.928672 177.407C0.932835 175.351 1.20199 173.305 1.7295 171.319L7.45443 149.763L11.6778 124.05C12.5578 118.692 13 113.272 13 107.842L13 99.4582C13 92.1746 12.2043 84.9128 10.627 77.8021L7.45443 63.5001L3.17516 48.9901C1.7369 44.1134 2.22675 38.8705 4.54349 34.3445C6.37686 30.7629 9.25633 27.8238 12.7995 25.9173L12.9459 25.8385C15.9241 24.2361 19.2544 23.4006 22.6363 23.4075L36.0527 23.4347L91.7406 23.402L135.731 27.7649C142.968 28.4827 150.262 28.4088 157.483 27.5447L188.875 23.7879L225.361 15.9824C226.866 15.6604 228.401 15.4981 229.94 15.4982L235.383 15.4987C245.76 15.4994 253.753 24.6553 252.353 34.9381C251.197 43.4267 243.947 49.7556 235.38 49.755L225.637 49.7543C218.328 49.7537 211.103 48.2029 204.438 45.2041C198.838 42.6843 192.833 41.183 186.705 40.7706L130.53 36.99Z" fill="url(#paint3_radial)"/>
<path d="M200.7 98.4273L205.84 74.1566C206.612 70.5136 206.423 66.7324 205.292 63.1844C202.793 55.3467 196.036 49.6253 187.894 48.4525L181.409 47.5186C178.891 47.1558 176.337 47.0954 173.804 47.3387L136.406 50.9311L134.955 51.1434C128.993 52.0158 122.965 52.3477 116.944 52.1349L86.4382 51.057L55.7937 46.5262L38.0343 41.4843C35.4096 40.7391 33.0645 39.2331 31.2949 37.1562L29.7629 35.3581C28.511 33.8889 27.8545 32.0042 27.9225 30.0752C28.05 26.4599 30.6691 23.4174 34.2251 22.7536L44.2282 20.8863C45.7012 20.6114 47.2001 20.4993 48.6977 20.5522L56.6998 20.835L87.3225 25.9806L134.204 27.6372L157.822 25.9647L183.269 22.8143C188.515 22.1648 193.804 21.9323 199.086 22.1189L214.591 22.6668C217.212 22.7594 219.818 23.0966 222.376 23.6738L230.53 25.5142C234.781 26.4736 238.567 28.8802 241.24 32.3224C243.941 35.8003 245.335 40.1158 245.18 44.5164L245.009 49.3538L244.256 74.4254C244.059 80.9878 243.216 87.5148 241.74 93.9119L240.485 99.3483C237.574 111.96 237.42 125.052 240.032 137.729L240.76 141.264C241.302 143.895 242.067 146.475 243.045 148.977L245.54 155.358C246.278 157.244 246.618 159.262 246.538 161.285C246.334 166.504 243.374 171.223 238.764 173.679L237.764 174.211C235.17 175.592 232.256 176.263 229.319 176.156L218.664 175.765C209.186 175.417 200.958 169.126 198.139 160.071C197.381 157.639 197.045 155.095 197.145 152.55L198.606 115.236C198.827 109.584 199.528 103.961 200.7 98.4273Z" fill="url(#paint4_radial)" fill-opacity="0.09"/>
<path d="M200.7 98.4273L205.84 74.1566C206.612 70.5136 206.423 66.7324 205.292 63.1844C202.793 55.3467 196.036 49.6253 187.894 48.4525L181.409 47.5186C178.891 47.1558 176.337 47.0954 173.804 47.3387L136.406 50.9311L134.955 51.1434C128.993 52.0158 122.965 52.3477 116.944 52.1349L86.4382 51.057L55.7937 46.5262L38.0343 41.4843C35.4096 40.7391 33.0645 39.2331 31.2949 37.1562L29.7629 35.3581C28.511 33.8889 27.8545 32.0042 27.9225 30.0752C28.05 26.4599 30.6691 23.4174 34.2251 22.7536L44.2282 20.8863C45.7012 20.6114 47.2001 20.4993 48.6977 20.5522L56.6998 20.835L87.3225 25.9806L134.204 27.6372L157.822 25.9647L183.269 22.8143C188.515 22.1648 193.804 21.9323 199.086 22.1189L214.591 22.6668C217.212 22.7594 219.818 23.0966 222.376 23.6738L230.53 25.5142C234.781 26.4736 238.567 28.8802 241.24 32.3224C243.941 35.8003 245.335 40.1158 245.18 44.5164L245.009 49.3538L244.256 74.4254C244.059 80.9878 243.216 87.5148 241.74 93.9119L240.485 99.3483C237.574 111.96 237.42 125.052 240.032 137.729L240.76 141.264C241.302 143.895 242.067 146.475 243.045 148.977L245.54 155.358C246.278 157.244 246.618 159.262 246.538 161.285C246.334 166.504 243.374 171.223 238.764 173.679L237.764 174.211C235.17 175.592 232.256 176.263 229.319 176.156L218.664 175.765C209.186 175.417 200.958 169.126 198.139 160.071C197.381 157.639 197.045 155.095 197.145 152.55L198.606 115.236C198.827 109.584 199.528 103.961 200.7 98.4273Z" fill="url(#paint5_linear)" fill-opacity="0.19"/>
<path d="M200.7 98.4273L205.84 74.1566C206.612 70.5136 206.423 66.7324 205.292 63.1844C202.793 55.3467 196.036 49.6253 187.894 48.4525L181.409 47.5186C178.891 47.1558 176.337 47.0954 173.804 47.3387L136.406 50.9311L134.955 51.1434C128.993 52.0158 122.965 52.3477 116.944 52.1349L86.4382 51.057L55.7937 46.5262L38.0343 41.4843C35.4096 40.7391 33.0645 39.2331 31.2949 37.1562L29.7629 35.3581C28.511 33.8889 27.8545 32.0042 27.9225 30.0752C28.05 26.4599 30.6691 23.4174 34.2251 22.7536L44.2282 20.8863C45.7012 20.6114 47.2001 20.4993 48.6977 20.5522L56.6998 20.835L87.3225 25.9806L134.204 27.6372L157.822 25.9647L183.269 22.8143C188.515 22.1648 193.804 21.9323 199.086 22.1189L214.591 22.6668C217.212 22.7594 219.818 23.0966 222.376 23.6738L230.53 25.5142C234.781 26.4736 238.567 28.8802 241.24 32.3224C243.941 35.8003 245.335 40.1158 245.18 44.5164L245.009 49.3538L244.256 74.4254C244.059 80.9878 243.216 87.5148 241.74 93.9119L240.485 99.3483C237.574 111.96 237.42 125.052 240.032 137.729L240.76 141.264C241.302 143.895 242.067 146.475 243.045 148.977L245.54 155.358C246.278 157.244 246.618 159.262 246.538 161.285C246.334 166.504 243.374 171.223 238.764 173.679L237.764 174.211C235.17 175.592 232.256 176.263 229.319 176.156L218.664 175.765C209.186 175.417 200.958 169.126 198.139 160.071C197.381 157.639 197.045 155.095 197.145 152.55L198.606 115.236C198.827 109.584 199.528 103.961 200.7 98.4273Z" fill="url(#paint6_radial)"/>
<path d="M200.7 98.4273L205.84 74.1566C206.612 70.5136 206.423 66.7324 205.292 63.1844C202.793 55.3467 196.036 49.6253 187.894 48.4525L181.409 47.5186C178.891 47.1558 176.337 47.0954 173.804 47.3387L136.406 50.9311L134.955 51.1434C128.993 52.0158 122.965 52.3477 116.944 52.1349L86.4382 51.057L55.7937 46.5262L38.0343 41.4843C35.4096 40.7391 33.0645 39.2331 31.2949 37.1562L29.7629 35.3581C28.511 33.8889 27.8545 32.0042 27.9225 30.0752C28.05 26.4599 30.6691 23.4174 34.2251 22.7536L44.2282 20.8863C45.7012 20.6114 47.2001 20.4993 48.6977 20.5522L56.6998 20.835L87.3225 25.9806L134.204 27.6372L157.822 25.9647L183.269 22.8143C188.515 22.1648 193.804 21.9323 199.086 22.1189L214.591 22.6668C217.212 22.7594 219.818 23.0966 222.376 23.6738L230.53 25.5142C234.781 26.4736 238.567 28.8802 241.24 32.3224C243.941 35.8003 245.335 40.1158 245.18 44.5164L245.009 49.3538L244.256 74.4254C244.059 80.9878 243.216 87.5148 241.74 93.9119L240.485 99.3483C237.574 111.96 237.42 125.052 240.032 137.729L240.76 141.264C241.302 143.895 242.067 146.475 243.045 148.977L245.54 155.358C246.278 157.244 246.618 159.262 246.538 161.285C246.334 166.504 243.374 171.223 238.764 173.679L237.764 174.211C235.17 175.592 232.256 176.263 229.319 176.156L218.664 175.765C209.186 175.417 200.958 169.126 198.139 160.071C197.381 157.639 197.045 155.095 197.145 152.55L198.606 115.236C198.827 109.584 199.528 103.961 200.7 98.4273Z" fill="url(#paint7_radial)"/>
<path d="M66.4559 114.402L60.107 142.135C59.2733 145.777 59.3306 149.566 60.2742 153.182C62.5536 161.916 69.6872 168.538 78.5661 170.163L81.7217 170.741C85.4903 171.43 89.3597 171.347 93.0947 170.494L97.9684 169.382C103.595 168.098 109.395 167.749 115.135 168.35L139.537 170.901C145.169 171.49 150.841 171.6 156.491 171.228L165.993 170.604C174.341 170.056 182.724 170.557 190.947 172.096L208.989 175.473L226.157 181.253C228.995 182.208 231.471 184.01 233.253 186.415L234.57 188.193C235.781 189.827 236.373 191.838 236.242 193.869C235.987 197.833 233.049 201.107 229.136 201.789L219.84 203.41C218.234 203.69 216.601 203.778 214.975 203.673L211.018 203.417C208.477 203.253 205.951 202.908 203.459 202.387L183.767 198.266C179.141 197.298 174.452 196.659 169.736 196.354L130.092 193.791L106.466 194.974L81.5972 197.636C75.9198 198.244 70.2008 198.364 64.5028 197.996L49.8409 197.048C47.1371 196.873 44.4577 196.426 41.8435 195.713L34.5259 193.719C29.9181 192.464 25.9149 189.593 23.2466 185.632C20.7873 181.981 19.6071 177.618 19.8905 173.226L20.2637 167.443L21.9674 138.894C22.3296 132.825 23.2445 126.802 24.7007 120.899L26.7268 112.687C29.919 99.7476 30.4925 86.3005 28.4136 73.1358L27.6625 68.3797C27.2124 65.5295 26.5361 62.7197 25.64 59.9769L23.3651 53.0136C22.7012 50.9816 22.4347 48.8409 22.58 46.7082C22.9686 41.004 26.2557 35.8981 31.2871 33.1833L31.4857 33.0761C34.3115 31.5513 37.5103 30.8548 40.7145 31.0666L49.43 31.6427C59.7089 32.3222 68.3836 39.5397 70.9215 49.5239C71.542 51.9652 71.771 54.4895 71.5998 57.0026L68.7463 98.8844C68.3903 104.109 67.6245 109.298 66.4559 114.402Z" fill="url(#paint8_radial)" fill-opacity="0.09"/>
<path d="M66.4559 114.402L60.107 142.135C59.2733 145.777 59.3306 149.566 60.2742 153.182C62.5536 161.916 69.6872 168.538 78.5661 170.163L81.7217 170.741C85.4903 171.43 89.3597 171.347 93.0947 170.494L97.9684 169.382C103.595 168.098 109.395 167.749 115.135 168.35L139.537 170.901C145.169 171.49 150.841 171.6 156.491 171.228L165.993 170.604C174.341 170.056 182.724 170.557 190.947 172.096L208.989 175.473L226.157 181.253C228.995 182.208 231.471 184.01 233.253 186.415L234.57 188.193C235.781 189.827 236.373 191.838 236.242 193.869C235.987 197.833 233.049 201.107 229.136 201.789L219.84 203.41C218.234 203.69 216.601 203.778 214.975 203.673L211.018 203.417C208.477 203.253 205.951 202.908 203.459 202.387L183.767 198.266C179.141 197.298 174.452 196.659 169.736 196.354L130.092 193.791L106.466 194.974L81.5972 197.636C75.9198 198.244 70.2008 198.364 64.5028 197.996L49.8409 197.048C47.1371 196.873 44.4577 196.426 41.8435 195.713L34.5259 193.719C29.9181 192.464 25.9149 189.593 23.2466 185.632C20.7873 181.981 19.6071 177.618 19.8905 173.226L20.2637 167.443L21.9674 138.894C22.3296 132.825 23.2445 126.802 24.7007 120.899L26.7268 112.687C29.919 99.7476 30.4925 86.3005 28.4136 73.1358L27.6625 68.3797C27.2124 65.5295 26.5361 62.7197 25.64 59.9769L23.3651 53.0136C22.7012 50.9816 22.4347 48.8409 22.58 46.7082C22.9686 41.004 26.2557 35.8981 31.2871 33.1833L31.4857 33.0761C34.3115 31.5513 37.5103 30.8548 40.7145 31.0666L49.43 31.6427C59.7089 32.3222 68.3836 39.5397 70.9215 49.5239C71.542 51.9652 71.771 54.4895 71.5998 57.0026L68.7463 98.8844C68.3903 104.109 67.6245 109.298 66.4559 114.402Z" fill="url(#paint9_linear)" fill-opacity="0.19"/>
<path d="M66.4559 114.402L60.107 142.135C59.2733 145.777 59.3306 149.566 60.2742 153.182C62.5536 161.916 69.6872 168.538 78.5661 170.163L81.7217 170.741C85.4903 171.43 89.3597 171.347 93.0947 170.494L97.9684 169.382C103.595 168.098 109.395 167.749 115.135 168.35L139.537 170.901C145.169 171.49 150.841 171.6 156.491 171.228L165.993 170.604C174.341 170.056 182.724 170.557 190.947 172.096L208.989 175.473L226.157 181.253C228.995 182.208 231.471 184.01 233.253 186.415L234.57 188.193C235.781 189.827 236.373 191.838 236.242 193.869C235.987 197.833 233.049 201.107 229.136 201.789L219.84 203.41C218.234 203.69 216.601 203.778 214.975 203.673L211.018 203.417C208.477 203.253 205.951 202.908 203.459 202.387L183.767 198.266C179.141 197.298 174.452 196.659 169.736 196.354L130.092 193.791L106.466 194.974L81.5972 197.636C75.9198 198.244 70.2008 198.364 64.5028 197.996L49.8409 197.048C47.1371 196.873 44.4577 196.426 41.8435 195.713L34.5259 193.719C29.9181 192.464 25.9149 189.593 23.2466 185.632C20.7873 181.981 19.6071 177.618 19.8905 173.226L20.2637 167.443L21.9674 138.894C22.3296 132.825 23.2445 126.802 24.7007 120.899L26.7268 112.687C29.919 99.7476 30.4925 86.3005 28.4136 73.1358L27.6625 68.3797C27.2124 65.5295 26.5361 62.7197 25.64 59.9769L23.3651 53.0136C22.7012 50.9816 22.4347 48.8409 22.58 46.7082C22.9686 41.004 26.2557 35.8981 31.2871 33.1833L31.4857 33.0761C34.3115 31.5513 37.5103 30.8548 40.7145 31.0666L49.43 31.6427C59.7089 32.3222 68.3836 39.5397 70.9215 49.5239C71.542 51.9652 71.771 54.4895 71.5998 57.0026L68.7463 98.8844C68.3903 104.109 67.6245 109.298 66.4559 114.402Z" fill="url(#paint10_radial)"/>
<path d="M66.4559 114.402L60.107 142.135C59.2733 145.777 59.3306 149.566 60.2742 153.182C62.5536 161.916 69.6872 168.538 78.5661 170.163L81.7217 170.741C85.4903 171.43 89.3597 171.347 93.0947 170.494L97.9684 169.382C103.595 168.098 109.395 167.749 115.135 168.35L139.537 170.901C145.169 171.49 150.841 171.6 156.491 171.228L165.993 170.604C174.341 170.056 182.724 170.557 190.947 172.096L208.989 175.473L226.157 181.253C228.995 182.208 231.471 184.01 233.253 186.415L234.57 188.193C235.781 189.827 236.373 191.838 236.242 193.869C235.987 197.833 233.049 201.107 229.136 201.789L219.84 203.41C218.234 203.69 216.601 203.778 214.975 203.673L211.018 203.417C208.477 203.253 205.951 202.908 203.459 202.387L183.767 198.266C179.141 197.298 174.452 196.659 169.736 196.354L130.092 193.791L106.466 194.974L81.5972 197.636C75.9198 198.244 70.2008 198.364 64.5028 197.996L49.8409 197.048C47.1371 196.873 44.4577 196.426 41.8435 195.713L34.5259 193.719C29.9181 192.464 25.9149 189.593 23.2466 185.632C20.7873 181.981 19.6071 177.618 19.8905 173.226L20.2637 167.443L21.9674 138.894C22.3296 132.825 23.2445 126.802 24.7007 120.899L26.7268 112.687C29.919 99.7476 30.4925 86.3005 28.4136 73.1358L27.6625 68.3797C27.2124 65.5295 26.5361 62.7197 25.64 59.9769L23.3651 53.0136C22.7012 50.9816 22.4347 48.8409 22.58 46.7082C22.9686 41.004 26.2557 35.8981 31.2871 33.1833L31.4857 33.0761C34.3115 31.5513 37.5103 30.8548 40.7145 31.0666L49.43 31.6427C59.7089 32.3222 68.3836 39.5397 70.9215 49.5239C71.542 51.9652 71.771 54.4895 71.5998 57.0026L68.7463 98.8844C68.3903 104.109 67.6245 109.298 66.4559 114.402Z" fill="url(#paint11_radial)"/>
<path d="M139.277 163.814H176L184.167 163.182C190.312 162.706 196.286 160.86 201.631 157.792C214.915 150.166 222.935 135.808 222.426 120.5V102.542C222.426 97.8552 222.806 93.1759 223.563 88.5505L225.998 73.6778C226.98 67.6759 226.288 61.5192 223.996 55.8854L222.728 52.7669C219.96 45.9614 220.25 38.2949 223.523 31.7179L224.063 30.634C226.343 26.0533 230.135 22.4008 234.798 20.2946L235.794 19.8448C238.109 18.7991 240.626 18.2761 243.166 18.3129L244.18 18.3276C250.446 18.4185 256.062 22.2154 258.482 27.9965C260.086 31.8292 260.111 36.1404 258.551 39.9914L256.431 45.2276C255.152 48.3854 254.43 51.741 254.298 55.1454L254.012 62.482C253.852 66.6057 253.335 70.7078 252.467 74.7423L250.238 85.1014C248.75 92.0144 248 99.0657 248 106.137V109.053C248 116.66 248.868 124.241 250.587 131.651L253.771 145.379L257.035 161.037C258.325 167.226 258.204 173.626 256.68 179.762L254.933 186.798C253.807 191.332 251.2 195.36 247.525 198.244C243.749 201.208 239.071 202.786 234.271 202.717L222.426 202.545L164.655 201.862L118.931 196.642C111.531 195.798 104.06 195.782 96.6564 196.597L63.8927 200.2L46.8623 203.718C44.0627 204.297 41.2079 204.565 38.3495 204.518L30.7234 204.392C26.1567 204.316 21.7746 202.576 18.4006 199.497C14.4266 195.871 12.2025 190.712 12.2943 185.333L12.3073 184.57C12.4758 174.702 19.6738 166.366 29.4115 164.761L35.807 163.706C40.7588 162.89 45.4031 160.767 49.2605 157.557L50.2697 156.717C58.778 149.636 70.2678 147.287 80.8728 150.461L112.284 159.861C121.042 162.483 130.135 163.814 139.277 163.814Z" fill="url(#paint12_radial)" fill-opacity="0.09"/>
<path d="M139.277 163.814H176L184.167 163.182C190.312 162.706 196.286 160.86 201.631 157.792C214.915 150.166 222.935 135.808 222.426 120.5V102.542C222.426 97.8552 222.806 93.1759 223.563 88.5505L225.998 73.6778C226.98 67.6759 226.288 61.5192 223.996 55.8854L222.728 52.7669C219.96 45.9614 220.25 38.2949 223.523 31.7179L224.063 30.634C226.343 26.0533 230.135 22.4008 234.798 20.2946L235.794 19.8448C238.109 18.7991 240.626 18.2761 243.166 18.3129L244.18 18.3276C250.446 18.4185 256.062 22.2154 258.482 27.9965C260.086 31.8292 260.111 36.1404 258.551 39.9914L256.431 45.2276C255.152 48.3854 254.43 51.741 254.298 55.1454L254.012 62.482C253.852 66.6057 253.335 70.7078 252.467 74.7423L250.238 85.1014C248.75 92.0144 248 99.0657 248 106.137V109.053C248 116.66 248.868 124.241 250.587 131.651L253.771 145.379L257.035 161.037C258.325 167.226 258.204 173.626 256.68 179.762L254.933 186.798C253.807 191.332 251.2 195.36 247.525 198.244C243.749 201.208 239.071 202.786 234.271 202.717L222.426 202.545L164.655 201.862L118.931 196.642C111.531 195.798 104.06 195.782 96.6564 196.597L63.8927 200.2L46.8623 203.718C44.0627 204.297 41.2079 204.565 38.3495 204.518L30.7234 204.392C26.1567 204.316 21.7746 202.576 18.4006 199.497C14.4266 195.871 12.2025 190.712 12.2943 185.333L12.3073 184.57C12.4758 174.702 19.6738 166.366 29.4115 164.761L35.807 163.706C40.7588 162.89 45.4031 160.767 49.2605 157.557L50.2697 156.717C58.778 149.636 70.2678 147.287 80.8728 150.461L112.284 159.861C121.042 162.483 130.135 163.814 139.277 163.814Z" fill="url(#paint13_linear)" fill-opacity="0.19"/>
<path d="M139.277 163.814H176L184.167 163.182C190.312 162.706 196.286 160.86 201.631 157.792C214.915 150.166 222.935 135.808 222.426 120.5V102.542C222.426 97.8552 222.806 93.1759 223.563 88.5505L225.998 73.6778C226.98 67.6759 226.288 61.5192 223.996 55.8854L222.728 52.7669C219.96 45.9614 220.25 38.2949 223.523 31.7179L224.063 30.634C226.343 26.0533 230.135 22.4008 234.798 20.2946L235.794 19.8448C238.109 18.7991 240.626 18.2761 243.166 18.3129L244.18 18.3276C250.446 18.4185 256.062 22.2154 258.482 27.9965C260.086 31.8292 260.111 36.1404 258.551 39.9914L256.431 45.2276C255.152 48.3854 254.43 51.741 254.298 55.1454L254.012 62.482C253.852 66.6057 253.335 70.7078 252.467 74.7423L250.238 85.1014C248.75 92.0144 248 99.0657 248 106.137V109.053C248 116.66 248.868 124.241 250.587 131.651L253.771 145.379L257.035 161.037C258.325 167.226 258.204 173.626 256.68 179.762L254.933 186.798C253.807 191.332 251.2 195.36 247.525 198.244C243.749 201.208 239.071 202.786 234.271 202.717L222.426 202.545L164.655 201.862L118.931 196.642C111.531 195.798 104.06 195.782 96.6564 196.597L63.8927 200.2L46.8623 203.718C44.0627 204.297 41.2079 204.565 38.3495 204.518L30.7234 204.392C26.1567 204.316 21.7746 202.576 18.4006 199.497C14.4266 195.871 12.2025 190.712 12.2943 185.333L12.3073 184.57C12.4758 174.702 19.6738 166.366 29.4115 164.761L35.807 163.706C40.7588 162.89 45.4031 160.767 49.2605 157.557L50.2697 156.717C58.778 149.636 70.2678 147.287 80.8728 150.461L112.284 159.861C121.042 162.483 130.135 163.814 139.277 163.814Z" fill="url(#paint14_radial)"/>
<path d="M139.277 163.814H176L184.167 163.182C190.312 162.706 196.286 160.86 201.631 157.792C214.915 150.166 222.935 135.808 222.426 120.5V102.542C222.426 97.8552 222.806 93.1759 223.563 88.5505L225.998 73.6778C226.98 67.6759 226.288 61.5192 223.996 55.8854L222.728 52.7669C219.96 45.9614 220.25 38.2949 223.523 31.7179L224.063 30.634C226.343 26.0533 230.135 22.4008 234.798 20.2946L235.794 19.8448C238.109 18.7991 240.626 18.2761 243.166 18.3129L244.18 18.3276C250.446 18.4185 256.062 22.2154 258.482 27.9965C260.086 31.8292 260.111 36.1404 258.551 39.9914L256.431 45.2276C255.152 48.3854 254.43 51.741 254.298 55.1454L254.012 62.482C253.852 66.6057 253.335 70.7078 252.467 74.7423L250.238 85.1014C248.75 92.0144 248 99.0657 248 106.137V109.053C248 116.66 248.868 124.241 250.587 131.651L253.771 145.379L257.035 161.037C258.325 167.226 258.204 173.626 256.68 179.762L254.933 186.798C253.807 191.332 251.2 195.36 247.525 198.244C243.749 201.208 239.071 202.786 234.271 202.717L222.426 202.545L164.655 201.862L118.931 196.642C111.531 195.798 104.06 195.782 96.6564 196.597L63.8927 200.2L46.8623 203.718C44.0627 204.297 41.2079 204.565 38.3495 204.518L30.7234 204.392C26.1567 204.316 21.7746 202.576 18.4006 199.497C14.4266 195.871 12.2025 190.712 12.2943 185.333L12.3073 184.57C12.4758 174.702 19.6738 166.366 29.4115 164.761L35.807 163.706C40.7588 162.89 45.4031 160.767 49.2605 157.557L50.2697 156.717C58.778 149.636 70.2678 147.287 80.8728 150.461L112.284 159.861C121.042 162.483 130.135 163.814 139.277 163.814Z" fill="url(#paint15_radial)"/>
<path d="M159.114 19.4039C159.111 33.0684 144.635 30.7687 131.722 30.7659C118.808 30.7631 105 33.0568 105.002 19.3923C105.005 5.72781 118.815 0.00308539 131.728 0.00586038C144.641 0.00863537 159.117 5.73944 159.114 19.4039Z" fill="url(#paint16_radial)" fill-opacity="0.09"/>
<path d="M159.114 19.4039C159.111 33.0684 144.635 30.7687 131.722 30.7659C118.808 30.7631 105 33.0568 105.002 19.3923C105.005 5.72781 118.815 0.00308539 131.728 0.00586038C144.641 0.00863537 159.117 5.73944 159.114 19.4039Z" fill="url(#paint17_linear)" fill-opacity="0.19"/>
<path d="M159.114 19.4039C159.111 33.0684 144.635 30.7687 131.722 30.7659C118.808 30.7631 105 33.0568 105.002 19.3923C105.005 5.72781 118.815 0.00308539 131.728 0.00586038C144.641 0.00863537 159.117 5.73944 159.114 19.4039Z" fill="url(#paint18_radial)"/>
<path d="M159.114 19.4039C159.111 33.0684 144.635 30.7687 131.722 30.7659C118.808 30.7631 105 33.0568 105.002 19.3923C105.005 5.72781 118.815 0.00308539 131.728 0.00586038C144.641 0.00863537 159.117 5.73944 159.114 19.4039Z" fill="url(#paint19_radial)"/>
</g>
<path d="M130.53 36.99L69.9219 36.9855C64.7554 36.9852 59.6568 38.163 55.014 40.4296C43.344 46.1267 35.9423 57.9778 35.9432 70.9642L35.9437 77.2353L36.0586 101.983L36.0599 118.857C36.0604 124.929 36.6137 130.987 37.7131 136.958L40.0712 149.765L41.2659 165.941C41.6747 171.475 40.5941 177.018 38.1364 181.994L36.6237 185.056C34.4309 189.496 30.7724 193.042 26.2668 195.095L25.3531 195.511C23.1439 196.518 20.7436 197.037 18.3159 197.032C11.6511 197.018 5.6175 193.086 2.91383 186.994L2.51014 186.085C1.46073 183.72 0.921068 181.161 0.926307 178.574L0.928672 177.407C0.932835 175.351 1.20199 173.305 1.7295 171.319L7.45443 149.763L11.6778 124.05C12.5578 118.692 13 113.272 13 107.842L13 99.4582C13 92.1746 12.2043 84.9128 10.627 77.8021L7.45443 63.5001L3.17516 48.9901C1.7369 44.1134 2.22675 38.8705 4.54349 34.3445C6.37686 30.7629 9.25633 27.8238 12.7995 25.9173L12.9459 25.8385C15.9241 24.2361 19.2544 23.4006 22.6363 23.4075L36.0527 23.4347L91.7406 23.402L135.731 27.7649C142.968 28.4827 150.262 28.4088 157.483 27.5447L188.875 23.7879L225.361 15.9824C226.866 15.6604 228.401 15.4981 229.94 15.4982L235.383 15.4987C245.76 15.4994 253.753 24.6553 252.353 34.9381C251.197 43.4267 243.947 49.7556 235.38 49.755L225.637 49.7543C218.328 49.7537 211.103 48.2029 204.438 45.2041C198.838 42.6843 192.833 41.183 186.705 40.7706L130.53 36.99Z" stroke="#FF97FB" stroke-opacity="0.09" stroke-width="2" mask="url(#path-1-inside-1)"/>
<path d="M200.7 98.4273L205.84 74.1566C206.612 70.5136 206.423 66.7324 205.292 63.1844C202.793 55.3467 196.036 49.6253 187.894 48.4525L181.409 47.5186C178.891 47.1558 176.337 47.0954 173.804 47.3387L136.406 50.9311L134.955 51.1434C128.993 52.0158 122.965 52.3477 116.944 52.1349L86.4382 51.057L55.7937 46.5262L38.0343 41.4843C35.4096 40.7391 33.0645 39.2331 31.2949 37.1562L29.7629 35.3581C28.511 33.8889 27.8545 32.0042 27.9225 30.0752C28.05 26.4599 30.6691 23.4174 34.2251 22.7536L44.2282 20.8863C45.7012 20.6114 47.2001 20.4993 48.6977 20.5522L56.6998 20.835L87.3225 25.9806L134.204 27.6372L157.822 25.9647L183.269 22.8143C188.515 22.1648 193.804 21.9323 199.086 22.1189L214.591 22.6668C217.212 22.7594 219.818 23.0966 222.376 23.6738L230.53 25.5142C234.781 26.4736 238.567 28.8802 241.24 32.3224C243.941 35.8003 245.335 40.1158 245.18 44.5164L245.009 49.3538L244.256 74.4254C244.059 80.9878 243.216 87.5148 241.74 93.9119L240.485 99.3483C237.574 111.96 237.42 125.052 240.032 137.729L240.76 141.264C241.302 143.895 242.067 146.475 243.045 148.977L245.54 155.358C246.278 157.244 246.618 159.262 246.538 161.285C246.334 166.504 243.374 171.223 238.764 173.679L237.764 174.211C235.17 175.592 232.256 176.263 229.319 176.156L218.664 175.765C209.186 175.417 200.958 169.126 198.139 160.071C197.381 157.639 197.045 155.095 197.145 152.55L198.606 115.236C198.827 109.584 199.528 103.961 200.7 98.4273Z" stroke="#FF97FB" stroke-opacity="0.09" stroke-width="2" mask="url(#path-1-inside-1)"/>
<path d="M66.4559 114.402L60.107 142.135C59.2733 145.777 59.3306 149.566 60.2742 153.182C62.5536 161.916 69.6872 168.538 78.5661 170.163L81.7217 170.741C85.4903 171.43 89.3597 171.347 93.0947 170.494L97.9684 169.382C103.595 168.098 109.395 167.749 115.135 168.35L139.537 170.901C145.169 171.49 150.841 171.6 156.491 171.228L165.993 170.604C174.341 170.056 182.724 170.557 190.947 172.096L208.989 175.473L226.157 181.253C228.995 182.208 231.471 184.01 233.253 186.415L234.57 188.193C235.781 189.827 236.373 191.838 236.242 193.869C235.987 197.833 233.049 201.107 229.136 201.789L219.84 203.41C218.234 203.69 216.601 203.778 214.975 203.673L211.018 203.417C208.477 203.253 205.951 202.908 203.459 202.387L183.767 198.266C179.141 197.298 174.452 196.659 169.736 196.354L130.092 193.791L106.466 194.974L81.5972 197.636C75.9198 198.244 70.2008 198.364 64.5028 197.996L49.8409 197.048C47.1371 196.873 44.4577 196.426 41.8435 195.713L34.5259 193.719C29.9181 192.464 25.9149 189.593 23.2466 185.632C20.7873 181.981 19.6071 177.618 19.8905 173.226L20.2637 167.443L21.9674 138.894C22.3296 132.825 23.2445 126.802 24.7007 120.899L26.7268 112.687C29.919 99.7476 30.4925 86.3005 28.4136 73.1358L27.6625 68.3797C27.2124 65.5295 26.5361 62.7197 25.64 59.9769L23.3651 53.0136C22.7012 50.9816 22.4347 48.8409 22.58 46.7082C22.9686 41.004 26.2557 35.8981 31.2871 33.1833L31.4857 33.0761C34.3115 31.5513 37.5103 30.8548 40.7145 31.0666L49.43 31.6427C59.7089 32.3222 68.3836 39.5397 70.9215 49.5239C71.542 51.9652 71.771 54.4895 71.5998 57.0026L68.7463 98.8844C68.3903 104.109 67.6245 109.298 66.4559 114.402Z" stroke="#FF97FB" stroke-opacity="0.09" stroke-width="2" mask="url(#path-1-inside-1)"/>
<path d="M139.277 163.814H176L184.167 163.182C190.312 162.706 196.286 160.86 201.631 157.792C214.915 150.166 222.935 135.808 222.426 120.5V102.542C222.426 97.8552 222.806 93.1759 223.563 88.5505L225.998 73.6778C226.98 67.6759 226.288 61.5192 223.996 55.8854L222.728 52.7669C219.96 45.9614 220.25 38.2949 223.523 31.7179L224.063 30.634C226.343 26.0533 230.135 22.4008 234.798 20.2946L235.794 19.8448C238.109 18.7991 240.626 18.2761 243.166 18.3129L244.18 18.3276C250.446 18.4185 256.062 22.2154 258.482 27.9965C260.086 31.8292 260.111 36.1404 258.551 39.9914L256.431 45.2276C255.152 48.3854 254.43 51.741 254.298 55.1454L254.012 62.482C253.852 66.6057 253.335 70.7078 252.467 74.7423L250.238 85.1014C248.75 92.0144 248 99.0657 248 106.137V109.053C248 116.66 248.868 124.241 250.587 131.651L253.771 145.379L257.035 161.037C258.325 167.226 258.204 173.626 256.68 179.762L254.933 186.798C253.807 191.332 251.2 195.36 247.525 198.244C243.749 201.208 239.071 202.786 234.271 202.717L222.426 202.545L164.655 201.862L118.931 196.642C111.531 195.798 104.06 195.782 96.6564 196.597L63.8927 200.2L46.8623 203.718C44.0627 204.297 41.2079 204.565 38.3495 204.518L30.7234 204.392C26.1567 204.316 21.7746 202.576 18.4006 199.497C14.4266 195.871 12.2025 190.712 12.2943 185.333L12.3073 184.57C12.4758 174.702 19.6738 166.366 29.4115 164.761L35.807 163.706C40.7588 162.89 45.4031 160.767 49.2605 157.557L50.2697 156.717C58.778 149.636 70.2678 147.287 80.8728 150.461L112.284 159.861C121.042 162.483 130.135 163.814 139.277 163.814Z" stroke="#FF97FB" stroke-opacity="0.09" stroke-width="2" mask="url(#path-1-inside-1)"/>
<path d="M159.114 19.4039C159.111 33.0684 144.635 30.7687 131.722 30.7659C118.808 30.7631 105 33.0568 105.002 19.3923C105.005 5.72781 118.815 0.00308539 131.728 0.00586038C144.641 0.00863537 159.117 5.73944 159.114 19.4039Z" stroke="#FF97FB" stroke-opacity="0.09" stroke-width="2" mask="url(#path-1-inside-1)"/>
<defs>
<filter id="filter0_i" x="0.92627" y="0.00585938" width="258.777" height="208.517" filterUnits="userSpaceOnUse" color-interpolation-filters="sRGB">
<feFlood flood-opacity="0" result="BackgroundImageFix"/>
<feBlend mode="normal" in="SourceGraphic" in2="BackgroundImageFix" result="shape"/>
<feColorMatrix in="SourceAlpha" type="matrix" values="0 0 0 0 0 0 0 0 0 0 0 0 0 0 0 0 0 0 127 0" result="hardAlpha"/>
<feOffset dy="4"/>
<feGaussianBlur stdDeviation="2"/>
<feComposite in2="hardAlpha" operator="arithmetic" k2="-1" k3="1"/>
<feColorMatrix type="matrix" values="0 0 0 0 0.4625 0 0 0 0 0.4625 0 0 0 0 0.4625 0 0 0 0.09 0"/>
<feBlend mode="normal" in2="shape" result="effect1_innerShadow"/>
</filter>
<radialGradient id="paint0_radial" cx="0" cy="0" r="1" gradientUnits="userSpaceOnUse" gradientTransform="translate(131.727 6.024) rotate(90.0123) scale(24.7418 23.3814)">
<stop stop-color="#A1FF80" stop-opacity="0.59"/>
<stop offset="1" stop-color="#68FF0C" stop-opacity="0"/>
</radialGradient>
<linearGradient id="paint1_linear" x1="131.732" y1="-18.7177" x2="131.722" y2="30.7658" gradientUnits="userSpaceOnUse">
<stop stop-color="#FFEBCC"/>
<stop offset="1" stop-color="white" stop-opacity="0"/>
</linearGradient>
<radialGradient id="paint2_radial" cx="0" cy="0" r="1" gradientUnits="userSpaceOnUse" gradientTransform="translate(131.727 6.024) rotate(90.0123) scale(24.7418 23.3814)">
<stop stop-color="#68FF0C" stop-opacity="0.33"/>
<stop offset="1" stop-color="white" stop-opacity="0"/>
</radialGradient>
<radialGradient id="paint3_radial" cx="0" cy="0" r="1" gradientUnits="userSpaceOnUse" gradientTransform="translate(131.727 6.024) rotate(90.0123) scale(24.7418 23.3814)">
<stop stop-color="#68FF0C" stop-opacity="0"/>
<stop offset="1" stop-color="#AE75E8" stop-opacity="0.07"/>
</radialGradient>
<radialGradient id="paint4_radial" cx="0" cy="0" r="1" gradientUnits="userSpaceOnUse" gradientTransform="translate(131.727 6.024) rotate(90.0123) scale(24.7418 23.3814)">
<stop stop-color="#A1FF80" stop-opacity="0.59"/>
<stop offset="1" stop-color="#68FF0C" stop-opacity="0"/>
</radialGradient>
<linearGradient id="paint5_linear" x1="131.732" y1="-18.7177" x2="131.722" y2="30.7658" gradientUnits="userSpaceOnUse">
<stop stop-color="#FFEBCC"/>
<stop offset="1" stop-color="white" stop-opacity="0"/>
</linearGradient>
<radialGradient id="paint6_radial" cx="0" cy="0" r="1" gradientUnits="userSpaceOnUse" gradientTransform="translate(131.727 6.024) rotate(90.0123) scale(24.7418 23.3814)">
<stop stop-color="#68FF0C" stop-opacity="0.33"/>
<stop offset="1" stop-color="white" stop-opacity="0"/>
</radialGradient>
<radialGradient id="paint7_radial" cx="0" cy="0" r="1" gradientUnits="userSpaceOnUse" gradientTransform="translate(131.727 6.024) rotate(90.0123) scale(24.7418 23.3814)">
<stop stop-color="#68FF0C" stop-opacity="0"/>
<stop offset="1" stop-color="#AE75E8" stop-opacity="0.07"/>
</radialGradient>
<radialGradient id="paint8_radial" cx="0" cy="0" r="1" gradientUnits="userSpaceOnUse" gradientTransform="translate(131.727 6.024) rotate(90.0123) scale(24.7418 23.3814)">
<stop stop-color="#A1FF80" stop-opacity="0.59"/>
<stop offset="1" stop-color="#68FF0C" stop-opacity="0"/>
</radialGradient>
<linearGradient id="paint9_linear" x1="131.732" y1="-18.7177" x2="131.722" y2="30.7658" gradientUnits="userSpaceOnUse">
<stop stop-color="#FFEBCC"/>
<stop offset="1" stop-color="white" stop-opacity="0"/>
</linearGradient>
<radialGradient id="paint10_radial" cx="0" cy="0" r="1" gradientUnits="userSpaceOnUse" gradientTransform="translate(131.727 6.024) rotate(90.0123) scale(24.7418 23.3814)">
<stop stop-color="#68FF0C" stop-opacity="0.33"/>
<stop offset="1" stop-color="white" stop-opacity="0"/>
</radialGradient>
<radialGradient id="paint11_radial" cx="0" cy="0" r="1" gradientUnits="userSpaceOnUse" gradientTransform="translate(131.727 6.024) rotate(90.0123) scale(24.7418 23.3814)">
<stop stop-color="#68FF0C" stop-opacity="0"/>
<stop offset="1" stop-color="#AE75E8" stop-opacity="0.07"/>
</radialGradient>
<radialGradient id="paint12_radial" cx="0" cy="0" r="1" gradientUnits="userSpaceOnUse" gradientTransform="translate(131.727 6.024) rotate(90.0123) scale(24.7418 23.3814)">
<stop stop-color="#A1FF80" stop-opacity="0.59"/>
<stop offset="1" stop-color="#68FF0C" stop-opacity="0"/>
</radialGradient>
<linearGradient id="paint13_linear" x1="131.732" y1="-18.7177" x2="131.722" y2="30.7658" gradientUnits="userSpaceOnUse">
<stop stop-color="#FFEBCC"/>
<stop offset="1" stop-color="white" stop-opacity="0"/>
</linearGradient>
<radialGradient id="paint14_radial" cx="0" cy="0" r="1" gradientUnits="userSpaceOnUse" gradientTransform="translate(131.727 6.024) rotate(90.0123) scale(24.7418 23.3814)">
<stop stop-color="#68FF0C" stop-opacity="0.33"/>
<stop offset="1" stop-color="white" stop-opacity="0"/>
</radialGradient>
<radialGradient id="paint15_radial" cx="0" cy="0" r="1" gradientUnits="userSpaceOnUse" gradientTransform="translate(131.727 6.024) rotate(90.0123) scale(24.7418 23.3814)">
<stop stop-color="#68FF0C" stop-opacity="0"/>
<stop offset="1" stop-color="#AE75E8" stop-opacity="0.07"/>
</radialGradient>
<radialGradient id="paint16_radial" cx="0" cy="0" r="1" gradientUnits="userSpaceOnUse" gradientTransform="translate(131.727 6.024) rotate(90.0123) scale(24.7418 23.3814)">
<stop stop-color="#A1FF80" stop-opacity="0.59"/>
<stop offset="1" stop-color="#68FF0C" stop-opacity="0"/>
</radialGradient>
<linearGradient id="paint17_linear" x1="131.732" y1="-18.7177" x2="131.722" y2="30.7658" gradientUnits="userSpaceOnUse">
<stop stop-color="#FFEBCC"/>
<stop offset="1" stop-color="white" stop-opacity="0"/>
</linearGradient>
<radialGradient id="paint18_radial" cx="0" cy="0" r="1" gradientUnits="userSpaceOnUse" gradientTransform="translate(131.727 6.024) rotate(90.0123) scale(24.7418 23.3814)">
<stop stop-color="#68FF0C" stop-opacity="0.33"/>
<stop offset="1" stop-color="white" stop-opacity="0"/>
</radialGradient>
<radialGradient id="paint19_radial" cx="0" cy="0" r="1" gradientUnits="userSpaceOnUse" gradientTransform="translate(131.727 6.024) rotate(90.0123) scale(24.7418 23.3814)">
<stop stop-color="#68FF0C" stop-opacity="0"/>
<stop offset="1" stop-color="#AE75E8" stop-opacity="0.07"/>
</radialGradient>
</defs>
</svg>
