<svg width="188" height="219" viewBox="0 0 188 219" fill="none" xmlns="http://www.w3.org/2000/svg">
<g filter="url(#filter0_i)">
<path d="M30.6974 127.913L27.1151 165.25C26.89 167.596 27.0141 169.962 27.4832 172.271L28.4942 177.248C29.8086 183.718 34.9039 188.752 41.3897 189.988C43.6431 190.417 45.9618 190.365 48.1936 189.835L69.2815 184.825C73.3695 183.483 77.6436 182.795 81.9462 182.785L94.1216 182.757C97.4085 182.75 100.688 183.066 103.913 183.702L114.146 185.721C116.334 186.153 118.468 186.82 120.512 187.712L125.97 190.093C128.944 191.391 131.38 193.674 132.868 196.557L133.252 197.303C134.026 198.803 134.432 200.466 134.436 202.154C134.445 206.508 131.801 210.428 127.76 212.05L126.011 212.751C124.432 213.385 122.747 213.712 121.046 213.716L119.806 213.719C118.274 213.722 116.746 213.549 115.253 213.201L104.776 210.761C101.021 209.887 97.1774 209.449 93.3217 209.458L75.8432 209.498C72.7146 209.505 69.5937 209.806 66.5214 210.396L57.1004 212.206L44.0467 215.96C39.591 217.241 34.9787 217.897 30.3424 217.907L24.25 217.921C22.0886 217.926 19.9408 217.579 17.891 216.894L17.4433 216.744C12.5716 215.115 8.57805 211.565 6.39011 206.917C5.21652 204.425 4.60497 201.704 4.5987 198.949L4.58001 190.73L4.38647 153.537L7.64131 122.958C8.07184 118.913 8.00717 114.831 7.44871 110.802L4.38006 88.6615L1.71428 77.7708C1.26963 75.9543 1.0448 74.0909 1.04461 72.2207L1.04419 67.875C1.04387 64.6155 2.30794 61.4831 4.57039 59.1367C6.94303 56.6762 10.2144 55.2863 13.6325 55.2867L14.5887 55.2868C21.6667 55.2875 27.7587 60.2878 29.1392 67.2299L30.2716 72.9241C30.5513 74.3308 30.6923 75.7615 30.6924 77.1957L30.6974 127.913Z" fill="#FAD5F6" fill-opacity="0.45"/>
<path d="M30.6974 127.913L27.1151 165.25C26.89 167.596 27.0141 169.962 27.4832 172.271L28.4942 177.248C29.8086 183.718 34.9039 188.752 41.3897 189.988C43.6431 190.417 45.9618 190.365 48.1936 189.835L69.2815 184.825C73.3695 183.483 77.6436 182.795 81.9462 182.785L94.1216 182.757C97.4085 182.75 100.688 183.066 103.913 183.702L114.146 185.721C116.334 186.153 118.468 186.82 120.512 187.712L125.97 190.093C128.944 191.391 131.38 193.674 132.868 196.557L133.252 197.303C134.026 198.803 134.432 200.466 134.436 202.154C134.445 206.508 131.801 210.428 127.76 212.05L126.011 212.751C124.432 213.385 122.747 213.712 121.046 213.716L119.806 213.719C118.274 213.722 116.746 213.549 115.253 213.201L104.776 210.761C101.021 209.887 97.1774 209.449 93.3217 209.458L75.8432 209.498C72.7146 209.505 69.5937 209.806 66.5214 210.396L57.1004 212.206L44.0467 215.96C39.591 217.241 34.9787 217.897 30.3424 217.907L24.25 217.921C22.0886 217.926 19.9408 217.579 17.891 216.894L17.4433 216.744C12.5716 215.115 8.57805 211.565 6.39011 206.917C5.21652 204.425 4.60497 201.704 4.5987 198.949L4.58001 190.73L4.38647 153.537L7.64131 122.958C8.07184 118.913 8.00717 114.831 7.44871 110.802L4.38006 88.6615L1.71428 77.7708C1.26963 75.9543 1.0448 74.0909 1.04461 72.2207L1.04419 67.875C1.04387 64.6155 2.30794 61.4831 4.57039 59.1367C6.94303 56.6762 10.2144 55.2863 13.6325 55.2867L14.5887 55.2868C21.6667 55.2875 27.7587 60.2878 29.1392 67.2299L30.2716 72.9241C30.5513 74.3308 30.6923 75.7615 30.6924 77.1957L30.6974 127.913Z" fill="url(#paint0_linear)" fill-opacity="0.6"/>
<path d="M30.6974 127.913L27.1151 165.25C26.89 167.596 27.0141 169.962 27.4832 172.271L28.4942 177.248C29.8086 183.718 34.9039 188.752 41.3897 189.988C43.6431 190.417 45.9618 190.365 48.1936 189.835L69.2815 184.825C73.3695 183.483 77.6436 182.795 81.9462 182.785L94.1216 182.757C97.4085 182.75 100.688 183.066 103.913 183.702L114.146 185.721C116.334 186.153 118.468 186.82 120.512 187.712L125.97 190.093C128.944 191.391 131.38 193.674 132.868 196.557L133.252 197.303C134.026 198.803 134.432 200.466 134.436 202.154C134.445 206.508 131.801 210.428 127.76 212.05L126.011 212.751C124.432 213.385 122.747 213.712 121.046 213.716L119.806 213.719C118.274 213.722 116.746 213.549 115.253 213.201L104.776 210.761C101.021 209.887 97.1774 209.449 93.3217 209.458L75.8432 209.498C72.7146 209.505 69.5937 209.806 66.5214 210.396L57.1004 212.206L44.0467 215.96C39.591 217.241 34.9787 217.897 30.3424 217.907L24.25 217.921C22.0886 217.926 19.9408 217.579 17.891 216.894L17.4433 216.744C12.5716 215.115 8.57805 211.565 6.39011 206.917C5.21652 204.425 4.60497 201.704 4.5987 198.949L4.58001 190.73L4.38647 153.537L7.64131 122.958C8.07184 118.913 8.00717 114.831 7.44871 110.802L4.38006 88.6615L1.71428 77.7708C1.26963 75.9543 1.0448 74.0909 1.04461 72.2207L1.04419 67.875C1.04387 64.6155 2.30794 61.4831 4.57039 59.1367C6.94303 56.6762 10.2144 55.2863 13.6325 55.2867L14.5887 55.2868C21.6667 55.2875 27.7587 60.2878 29.1392 67.2299L30.2716 72.9241C30.5513 74.3308 30.6923 75.7615 30.6924 77.1957L30.6974 127.913Z" fill="url(#paint1_radial)" fill-opacity="0.36"/>
<path d="M30.6974 127.913L27.1151 165.25C26.89 167.596 27.0141 169.962 27.4832 172.271L28.4942 177.248C29.8086 183.718 34.9039 188.752 41.3897 189.988C43.6431 190.417 45.9618 190.365 48.1936 189.835L69.2815 184.825C73.3695 183.483 77.6436 182.795 81.9462 182.785L94.1216 182.757C97.4085 182.75 100.688 183.066 103.913 183.702L114.146 185.721C116.334 186.153 118.468 186.82 120.512 187.712L125.97 190.093C128.944 191.391 131.38 193.674 132.868 196.557L133.252 197.303C134.026 198.803 134.432 200.466 134.436 202.154C134.445 206.508 131.801 210.428 127.76 212.05L126.011 212.751C124.432 213.385 122.747 213.712 121.046 213.716L119.806 213.719C118.274 213.722 116.746 213.549 115.253 213.201L104.776 210.761C101.021 209.887 97.1774 209.449 93.3217 209.458L75.8432 209.498C72.7146 209.505 69.5937 209.806 66.5214 210.396L57.1004 212.206L44.0467 215.96C39.591 217.241 34.9787 217.897 30.3424 217.907L24.25 217.921C22.0886 217.926 19.9408 217.579 17.891 216.894L17.4433 216.744C12.5716 215.115 8.57805 211.565 6.39011 206.917C5.21652 204.425 4.60497 201.704 4.5987 198.949L4.58001 190.73L4.38647 153.537L7.64131 122.958C8.07184 118.913 8.00717 114.831 7.44871 110.802L4.38006 88.6615L1.71428 77.7708C1.26963 75.9543 1.0448 74.0909 1.04461 72.2207L1.04419 67.875C1.04387 64.6155 2.30794 61.4831 4.57039 59.1367C6.94303 56.6762 10.2144 55.2863 13.6325 55.2867L14.5887 55.2868C21.6667 55.2875 27.7587 60.2878 29.1392 67.2299L30.2716 72.9241C30.5513 74.3308 30.6923 75.7615 30.6924 77.1957L30.6974 127.913Z" fill="url(#paint2_linear)" fill-opacity="0.45"/>
<path d="M149.706 101.875L154.357 60.5486C154.686 57.6247 154.521 54.6663 153.87 51.7969L153.129 48.5328C151.226 40.1428 144.454 33.7265 135.974 32.277C133.363 31.8307 130.692 31.8761 128.098 32.4108L100.897 38.0173L99.8074 38.3288C95.3225 39.6108 90.6803 40.2589 86.0158 40.2543L67.4012 40.236C64.4981 40.2332 61.6007 39.9775 58.7419 39.4718L43.5387 36.7828C40.9871 36.3315 38.4855 35.6324 36.0695 34.6955L28.1524 31.6253C24.8409 30.3412 22.0649 27.9685 20.2807 24.8975L19.676 23.8566C18.6826 22.1466 18.1603 20.2039 18.1622 18.2263C18.1669 13.4769 21.1702 9.24825 25.6529 7.67927L29.2801 6.40972C31.0487 5.7907 32.9093 5.47544 34.7831 5.47728L36.81 5.47928C38.7531 5.48119 40.6908 5.68181 42.5931 6.07801L58.0484 9.2971C61.3858 9.99221 64.7855 10.3442 68.1946 10.3475L94.4826 10.3734C97.2452 10.3761 100.003 10.1499 102.728 9.69701L116.487 7.41058L135.638 2.6213C139.621 1.62515 143.712 1.12343 147.818 1.12747L158.6 1.13807C161.125 1.14056 163.636 1.50781 166.056 2.2284L168.151 2.85211C173.549 4.45962 178.075 8.16806 180.713 13.1446C182.322 16.1804 183.161 19.5647 183.158 23.0007L183.15 31.652L183.247 73.2895L178.999 107.426C178.429 112.003 178.496 116.638 179.197 121.197L182.996 145.917L186.325 158.061C186.893 160.132 187.177 162.272 187.169 164.42L187.156 168.256C187.142 172.481 185.351 176.504 182.223 179.343C179.444 181.866 175.821 183.258 172.067 183.247L170.231 183.241C160.984 183.213 152.991 176.78 150.986 167.752L150.103 163.772C149.703 161.974 149.505 160.137 149.511 158.295L149.706 101.875Z" fill="#FAD5F6" fill-opacity="0.45"/>
<path d="M149.706 101.875L154.357 60.5486C154.686 57.6247 154.521 54.6663 153.87 51.7969L153.129 48.5328C151.226 40.1428 144.454 33.7265 135.974 32.277C133.363 31.8307 130.692 31.8761 128.098 32.4108L100.897 38.0173L99.8074 38.3288C95.3225 39.6108 90.6803 40.2589 86.0158 40.2543L67.4012 40.236C64.4981 40.2332 61.6007 39.9775 58.7419 39.4718L43.5387 36.7828C40.9871 36.3315 38.4855 35.6324 36.0695 34.6955L28.1524 31.6253C24.8409 30.3412 22.0649 27.9685 20.2807 24.8975L19.676 23.8566C18.6826 22.1466 18.1603 20.2039 18.1622 18.2263C18.1669 13.4769 21.1702 9.24825 25.6529 7.67927L29.2801 6.40972C31.0487 5.7907 32.9093 5.47544 34.7831 5.47728L36.81 5.47928C38.7531 5.48119 40.6908 5.68181 42.5931 6.07801L58.0484 9.2971C61.3858 9.99221 64.7855 10.3442 68.1946 10.3475L94.4826 10.3734C97.2452 10.3761 100.003 10.1499 102.728 9.69701L116.487 7.41058L135.638 2.6213C139.621 1.62515 143.712 1.12343 147.818 1.12747L158.6 1.13807C161.125 1.14056 163.636 1.50781 166.056 2.2284L168.151 2.85211C173.549 4.45962 178.075 8.16806 180.713 13.1446C182.322 16.1804 183.161 19.5647 183.158 23.0007L183.15 31.652L183.247 73.2895L178.999 107.426C178.429 112.003 178.496 116.638 179.197 121.197L182.996 145.917L186.325 158.061C186.893 160.132 187.177 162.272 187.169 164.42L187.156 168.256C187.142 172.481 185.351 176.504 182.223 179.343C179.444 181.866 175.821 183.258 172.067 183.247L170.231 183.241C160.984 183.213 152.991 176.78 150.986 167.752L150.103 163.772C149.703 161.974 149.505 160.137 149.511 158.295L149.706 101.875Z" fill="url(#paint3_linear)" fill-opacity="0.6"/>
<path d="M149.706 101.875L154.357 60.5486C154.686 57.6247 154.521 54.6663 153.87 51.7969L153.129 48.5328C151.226 40.1428 144.454 33.7265 135.974 32.277C133.363 31.8307 130.692 31.8761 128.098 32.4108L100.897 38.0173L99.8074 38.3288C95.3225 39.6108 90.6803 40.2589 86.0158 40.2543L67.4012 40.236C64.4981 40.2332 61.6007 39.9775 58.7419 39.4718L43.5387 36.7828C40.9871 36.3315 38.4855 35.6324 36.0695 34.6955L28.1524 31.6253C24.8409 30.3412 22.0649 27.9685 20.2807 24.8975L19.676 23.8566C18.6826 22.1466 18.1603 20.2039 18.1622 18.2263C18.1669 13.4769 21.1702 9.24825 25.6529 7.67927L29.2801 6.40972C31.0487 5.7907 32.9093 5.47544 34.7831 5.47728L36.81 5.47928C38.7531 5.48119 40.6908 5.68181 42.5931 6.07801L58.0484 9.2971C61.3858 9.99221 64.7855 10.3442 68.1946 10.3475L94.4826 10.3734C97.2452 10.3761 100.003 10.1499 102.728 9.69701L116.487 7.41058L135.638 2.6213C139.621 1.62515 143.712 1.12343 147.818 1.12747L158.6 1.13807C161.125 1.14056 163.636 1.50781 166.056 2.2284L168.151 2.85211C173.549 4.45962 178.075 8.16806 180.713 13.1446C182.322 16.1804 183.161 19.5647 183.158 23.0007L183.15 31.652L183.247 73.2895L178.999 107.426C178.429 112.003 178.496 116.638 179.197 121.197L182.996 145.917L186.325 158.061C186.893 160.132 187.177 162.272 187.169 164.42L187.156 168.256C187.142 172.481 185.351 176.504 182.223 179.343C179.444 181.866 175.821 183.258 172.067 183.247L170.231 183.241C160.984 183.213 152.991 176.78 150.986 167.752L150.103 163.772C149.703 161.974 149.505 160.137 149.511 158.295L149.706 101.875Z" fill="url(#paint4_radial)" fill-opacity="0.36"/>
<path d="M149.706 101.875L154.357 60.5486C154.686 57.6247 154.521 54.6663 153.87 51.7969L153.129 48.5328C151.226 40.1428 144.454 33.7265 135.974 32.277C133.363 31.8307 130.692 31.8761 128.098 32.4108L100.897 38.0173L99.8074 38.3288C95.3225 39.6108 90.6803 40.2589 86.0158 40.2543L67.4012 40.236C64.4981 40.2332 61.6007 39.9775 58.7419 39.4718L43.5387 36.7828C40.9871 36.3315 38.4855 35.6324 36.0695 34.6955L28.1524 31.6253C24.8409 30.3412 22.0649 27.9685 20.2807 24.8975L19.676 23.8566C18.6826 22.1466 18.1603 20.2039 18.1622 18.2263C18.1669 13.4769 21.1702 9.24825 25.6529 7.67927L29.2801 6.40972C31.0487 5.7907 32.9093 5.47544 34.7831 5.47728L36.81 5.47928C38.7531 5.48119 40.6908 5.68181 42.5931 6.07801L58.0484 9.2971C61.3858 9.99221 64.7855 10.3442 68.1946 10.3475L94.4826 10.3734C97.2452 10.3761 100.003 10.1499 102.728 9.69701L116.487 7.41058L135.638 2.6213C139.621 1.62515 143.712 1.12343 147.818 1.12747L158.6 1.13807C161.125 1.14056 163.636 1.50781 166.056 2.2284L168.151 2.85211C173.549 4.45962 178.075 8.16806 180.713 13.1446C182.322 16.1804 183.161 19.5647 183.158 23.0007L183.15 31.652L183.247 73.2895L178.999 107.426C178.429 112.003 178.496 116.638 179.197 121.197L182.996 145.917L186.325 158.061C186.893 160.132 187.177 162.272 187.169 164.42L187.156 168.256C187.142 172.481 185.351 176.504 182.223 179.343C179.444 181.866 175.821 183.258 172.067 183.247L170.231 183.241C160.984 183.213 152.991 176.78 150.986 167.752L150.103 163.772C149.703 161.974 149.505 160.137 149.511 158.295L149.706 101.875Z" fill="url(#paint5_linear)" fill-opacity="0.45"/>
</g>
<path d="M30.6974 127.913L27.1151 165.25C26.89 167.596 27.0141 169.962 27.4832 172.271L28.4942 177.248C29.8086 183.718 34.9039 188.752 41.3897 189.988C43.6431 190.417 45.9618 190.365 48.1936 189.835L69.2815 184.825C73.3695 183.483 77.6436 182.795 81.9462 182.785L94.1216 182.757C97.4085 182.75 100.688 183.066 103.913 183.702L114.146 185.721C116.334 186.153 118.468 186.82 120.512 187.712L125.97 190.093C128.944 191.391 131.38 193.674 132.868 196.557L133.252 197.303C134.026 198.803 134.432 200.466 134.436 202.154C134.445 206.508 131.801 210.428 127.76 212.05L126.011 212.751C124.432 213.385 122.747 213.712 121.046 213.716L119.806 213.719C118.274 213.722 116.746 213.549 115.253 213.201L104.776 210.761C101.021 209.887 97.1774 209.449 93.3217 209.458L75.8432 209.498C72.7146 209.505 69.5937 209.806 66.5214 210.396L57.1004 212.206L44.0467 215.96C39.591 217.241 34.9787 217.897 30.3424 217.907L24.25 217.921C22.0886 217.926 19.9408 217.579 17.891 216.894L17.4433 216.744C12.5716 215.115 8.57805 211.565 6.39011 206.917C5.21652 204.425 4.60497 201.704 4.5987 198.949L4.58001 190.73L4.38647 153.537L7.64131 122.958C8.07184 118.913 8.00717 114.831 7.44871 110.802L4.38006 88.6615L1.71428 77.7708C1.26963 75.9543 1.0448 74.0909 1.04461 72.2207L1.04419 67.875C1.04387 64.6155 2.30794 61.4831 4.57039 59.1367C6.94303 56.6762 10.2144 55.2863 13.6325 55.2867L14.5887 55.2868C21.6667 55.2875 27.7587 60.2878 29.1392 67.2299L30.2716 72.9241C30.5513 74.3308 30.6923 75.7615 30.6924 77.1957L30.6974 127.913Z" stroke="#594600" stroke-opacity="0.05"/>
<path d="M149.706 101.875L154.357 60.5486C154.686 57.6247 154.521 54.6663 153.87 51.7969L153.129 48.5328C151.226 40.1428 144.454 33.7265 135.974 32.277C133.363 31.8307 130.692 31.8761 128.098 32.4108L100.897 38.0173L99.8074 38.3288C95.3225 39.6108 90.6803 40.2589 86.0158 40.2543L67.4012 40.236C64.4981 40.2332 61.6007 39.9775 58.7419 39.4718L43.5387 36.7828C40.9871 36.3315 38.4855 35.6324 36.0695 34.6955L28.1524 31.6253C24.8409 30.3412 22.0649 27.9685 20.2807 24.8975L19.676 23.8566C18.6826 22.1466 18.1603 20.2039 18.1622 18.2263C18.1669 13.4769 21.1702 9.24825 25.6529 7.67927L29.2801 6.40972C31.0487 5.7907 32.9093 5.47544 34.7831 5.47728L36.81 5.47928C38.7531 5.48119 40.6908 5.68181 42.5931 6.07801L58.0484 9.2971C61.3858 9.99221 64.7855 10.3442 68.1946 10.3475L94.4826 10.3734C97.2452 10.3761 100.003 10.1499 102.728 9.69701L116.487 7.41058L135.638 2.6213C139.621 1.62515 143.712 1.12343 147.818 1.12747L158.6 1.13807C161.125 1.14056 163.636 1.50781 166.056 2.2284L168.151 2.85211C173.549 4.45962 178.075 8.16806 180.713 13.1446C182.322 16.1804 183.161 19.5647 183.158 23.0007L183.15 31.652L183.247 73.2895L178.999 107.426C178.429 112.003 178.496 116.638 179.197 121.197L182.996 145.917L186.325 158.061C186.893 160.132 187.177 162.272 187.169 164.42L187.156 168.256C187.142 172.481 185.351 176.504 182.223 179.343C179.444 181.866 175.821 183.258 172.067 183.247L170.231 183.241C160.984 183.213 152.991 176.78 150.986 167.752L150.103 163.772C149.703 161.974 149.505 160.137 149.511 158.295L149.706 101.875Z" stroke="#594600" stroke-opacity="0.05"/>
<defs>
<filter id="filter0_i" x="0.544189" y="0.627441" width="187.125" height="221.794" filterUnits="userSpaceOnUse" color-interpolation-filters="sRGB">
<feFlood flood-opacity="0" result="BackgroundImageFix"/>
<feBlend mode="normal" in="SourceGraphic" in2="BackgroundImageFix" result="shape"/>
<feColorMatrix in="SourceAlpha" type="matrix" values="0 0 0 0 0 0 0 0 0 0 0 0 0 0 0 0 0 0 127 0" result="hardAlpha"/>
<feOffset dy="4"/>
<feGaussianBlur stdDeviation="2"/>
<feComposite in2="hardAlpha" operator="arithmetic" k2="-1" k3="1"/>
<feColorMatrix type="matrix" values="0 0 0 0 0.4625 0 0 0 0 0.4625 0 0 0 0 0.4625 0 0 0 0.09 0"/>
<feBlend mode="normal" in2="shape" result="effect1_innerShadow"/>
</filter>
<linearGradient id="paint0_linear" x1="94.1069" y1="1.12744" x2="94.1069" y2="217.921" gradientUnits="userSpaceOnUse">
<stop stop-color="#80FF00" stop-opacity="0.45"/>
<stop offset="0.557292" stop-color="white" stop-opacity="0"/>
</linearGradient>
<radialGradient id="paint1_radial" cx="0" cy="0" r="1" gradientUnits="userSpaceOnUse" gradientTransform="translate(94.1069 109.524) rotate(90) scale(108.397 93.0627)">
<stop offset="0.5" stop-color="#EE80F0"/>
<stop offset="1" stop-color="white" stop-opacity="0"/>
</radialGradient>
<linearGradient id="paint2_linear" x1="94.1069" y1="1.12744" x2="94.1069" y2="217.921" gradientUnits="userSpaceOnUse">
<stop offset="0.463542" stop-color="#9EFF00" stop-opacity="0"/>
<stop offset="1" stop-color="white"/>
</linearGradient>
<linearGradient id="paint3_linear" x1="94.1069" y1="1.12744" x2="94.1069" y2="217.921" gradientUnits="userSpaceOnUse">
<stop stop-color="#80FF00" stop-opacity="0.45"/>
<stop offset="0.557292" stop-color="white" stop-opacity="0"/>
</linearGradient>
<radialGradient id="paint4_radial" cx="0" cy="0" r="1" gradientUnits="userSpaceOnUse" gradientTransform="translate(94.1069 109.524) rotate(90) scale(108.397 93.0627)">
<stop offset="0.5" stop-color="#EE80F0"/>
<stop offset="1" stop-color="white" stop-opacity="0"/>
</radialGradient>
<linearGradient id="paint5_linear" x1="94.1069" y1="1.12744" x2="94.1069" y2="217.921" gradientUnits="userSpaceOnUse">
<stop offset="0.463542" stop-color="#9EFF00" stop-opacity="0"/>
<stop offset="1" stop-color="white"/>
</linearGradient>
</defs>
</svg>
