<svg width="236" height="248" viewBox="0 0 236 248" fill="none" xmlns="http://www.w3.org/2000/svg">
<g filter="url(#filter0_i)">
<path d="M39.5743 134.882L34.9262 181.194C34.622 184.224 34.789 187.284 35.4212 190.263L36.5539 195.601C38.3527 204.078 45.0947 210.628 53.6202 212.182C56.459 212.7 59.3733 212.636 62.1871 211.996L89.7608 205.726L90.5261 205.485C95.3397 203.973 100.354 203.198 105.4 203.186L123.771 203.144C126.92 203.137 130.062 203.427 133.156 204.011L148.254 206.86C151.014 207.381 153.713 208.189 156.306 209.271L163.769 212.386C167.469 213.93 170.525 216.699 172.427 220.228L172.967 221.23C173.98 223.109 174.512 225.21 174.517 227.345C174.529 232.717 171.224 237.539 166.209 239.465L163.421 240.536C161.455 241.291 159.368 241.68 157.262 241.685L155.481 241.689C153.489 241.693 151.502 241.477 149.558 241.044L134.007 237.58C130.4 236.776 126.716 236.375 123.021 236.383L96.6794 236.443C93.6828 236.45 90.6929 236.726 87.7457 237.268L73.911 239.814L54.6499 245.116C50.3637 246.296 45.9393 246.899 41.4937 246.909L31.0474 246.933C28.319 246.939 25.6063 246.519 23.0076 245.687L21.863 245.321C15.8153 243.387 10.815 239.075 8.01252 233.378C6.44185 230.184 5.62117 226.675 5.61308 223.116L5.59027 213.085L5.34323 166.785L9.71723 127.496C10.1874 123.273 10.1173 119.007 9.50861 114.801L5.34314 86.0217L1.88216 72.4861C1.30047 70.2111 1.00618 67.8722 1.00618 65.5241L1.00618 60.4912C1.00618 56.2217 2.71061 52.1289 5.74105 49.1215C8.74149 46.1438 12.7973 44.4728 17.0245 44.4728L18.5068 44.4728C27.8028 44.4729 35.8224 50.9978 37.7129 60.0996L39.0015 66.3031C39.3823 68.1363 39.5742 70.0038 39.5742 71.8762L39.5742 86.0217L39.5743 134.882Z" fill="url(#paint0_radial)" fill-opacity="0.44"/>
<path d="M39.5743 134.882L34.9262 181.194C34.622 184.224 34.789 187.284 35.4212 190.263L36.5539 195.601C38.3527 204.078 45.0947 210.628 53.6202 212.182C56.459 212.7 59.3733 212.636 62.1871 211.996L89.7608 205.726L90.5261 205.485C95.3397 203.973 100.354 203.198 105.4 203.186L123.771 203.144C126.92 203.137 130.062 203.427 133.156 204.011L148.254 206.86C151.014 207.381 153.713 208.189 156.306 209.271L163.769 212.386C167.469 213.93 170.525 216.699 172.427 220.228L172.967 221.23C173.98 223.109 174.512 225.21 174.517 227.345C174.529 232.717 171.224 237.539 166.209 239.465L163.421 240.536C161.455 241.291 159.368 241.68 157.262 241.685L155.481 241.689C153.489 241.693 151.502 241.477 149.558 241.044L134.007 237.58C130.4 236.776 126.716 236.375 123.021 236.383L96.6794 236.443C93.6828 236.45 90.6929 236.726 87.7457 237.268L73.911 239.814L54.6499 245.116C50.3637 246.296 45.9393 246.899 41.4937 246.909L31.0474 246.933C28.319 246.939 25.6063 246.519 23.0076 245.687L21.863 245.321C15.8153 243.387 10.815 239.075 8.01252 233.378C6.44185 230.184 5.62117 226.675 5.61308 223.116L5.59027 213.085L5.34323 166.785L9.71723 127.496C10.1874 123.273 10.1173 119.007 9.50861 114.801L5.34314 86.0217L1.88216 72.4861C1.30047 70.2111 1.00618 67.8722 1.00618 65.5241L1.00618 60.4912C1.00618 56.2217 2.71061 52.1289 5.74105 49.1215C8.74149 46.1438 12.7973 44.4728 17.0245 44.4728L18.5068 44.4728C27.8028 44.4729 35.8224 50.9978 37.7129 60.0996L39.0015 66.3031C39.3823 68.1363 39.5742 70.0038 39.5742 71.8762L39.5742 86.0217L39.5743 134.882Z" fill="url(#paint1_linear)" fill-opacity="0.6"/>
<path d="M39.5743 134.882L34.9262 181.194C34.622 184.224 34.789 187.284 35.4212 190.263L36.5539 195.601C38.3527 204.078 45.0947 210.628 53.6202 212.182C56.459 212.7 59.3733 212.636 62.1871 211.996L89.7608 205.726L90.5261 205.485C95.3397 203.973 100.354 203.198 105.4 203.186L123.771 203.144C126.92 203.137 130.062 203.427 133.156 204.011L148.254 206.86C151.014 207.381 153.713 208.189 156.306 209.271L163.769 212.386C167.469 213.93 170.525 216.699 172.427 220.228L172.967 221.23C173.98 223.109 174.512 225.21 174.517 227.345C174.529 232.717 171.224 237.539 166.209 239.465L163.421 240.536C161.455 241.291 159.368 241.68 157.262 241.685L155.481 241.689C153.489 241.693 151.502 241.477 149.558 241.044L134.007 237.58C130.4 236.776 126.716 236.375 123.021 236.383L96.6794 236.443C93.6828 236.45 90.6929 236.726 87.7457 237.268L73.911 239.814L54.6499 245.116C50.3637 246.296 45.9393 246.899 41.4937 246.909L31.0474 246.933C28.319 246.939 25.6063 246.519 23.0076 245.687L21.863 245.321C15.8153 243.387 10.815 239.075 8.01252 233.378C6.44185 230.184 5.62117 226.675 5.61308 223.116L5.59027 213.085L5.34323 166.785L9.71723 127.496C10.1874 123.273 10.1173 119.007 9.50861 114.801L5.34314 86.0217L1.88216 72.4861C1.30047 70.2111 1.00618 67.8722 1.00618 65.5241L1.00618 60.4912C1.00618 56.2217 2.71061 52.1289 5.74105 49.1215C8.74149 46.1438 12.7973 44.4728 17.0245 44.4728L18.5068 44.4728C27.8028 44.4729 35.8224 50.9978 37.7129 60.0996L39.0015 66.3031C39.3823 68.1363 39.5742 70.0038 39.5742 71.8762L39.5742 86.0217L39.5743 134.882Z" fill="url(#paint2_radial)" fill-opacity="0.44"/>
<path d="M39.5743 134.882L34.9262 181.194C34.622 184.224 34.789 187.284 35.4212 190.263L36.5539 195.601C38.3527 204.078 45.0947 210.628 53.6202 212.182C56.459 212.7 59.3733 212.636 62.1871 211.996L89.7608 205.726L90.5261 205.485C95.3397 203.973 100.354 203.198 105.4 203.186L123.771 203.144C126.92 203.137 130.062 203.427 133.156 204.011L148.254 206.86C151.014 207.381 153.713 208.189 156.306 209.271L163.769 212.386C167.469 213.93 170.525 216.699 172.427 220.228L172.967 221.23C173.98 223.109 174.512 225.21 174.517 227.345C174.529 232.717 171.224 237.539 166.209 239.465L163.421 240.536C161.455 241.291 159.368 241.68 157.262 241.685L155.481 241.689C153.489 241.693 151.502 241.477 149.558 241.044L134.007 237.58C130.4 236.776 126.716 236.375 123.021 236.383L96.6794 236.443C93.6828 236.45 90.6929 236.726 87.7457 237.268L73.911 239.814L54.6499 245.116C50.3637 246.296 45.9393 246.899 41.4937 246.909L31.0474 246.933C28.319 246.939 25.6063 246.519 23.0076 245.687L21.863 245.321C15.8153 243.387 10.815 239.075 8.01252 233.378C6.44185 230.184 5.62117 226.675 5.61308 223.116L5.59027 213.085L5.34323 166.785L9.71723 127.496C10.1874 123.273 10.1173 119.007 9.50861 114.801L5.34314 86.0217L1.88216 72.4861C1.30047 70.2111 1.00618 67.8722 1.00618 65.5241L1.00618 60.4912C1.00618 56.2217 2.71061 52.1289 5.74105 49.1215C8.74149 46.1438 12.7973 44.4728 17.0245 44.4728L18.5068 44.4728C27.8028 44.4729 35.8224 50.9978 37.7129 60.0996L39.0015 66.3031C39.3823 68.1363 39.5742 70.0038 39.5742 71.8762L39.5742 86.0217L39.5743 134.882Z" fill="url(#paint3_linear)" fill-opacity="0.59"/>
</g>
<path d="M39.5743 134.882L34.9262 181.194C34.622 184.224 34.789 187.284 35.4212 190.263L36.5539 195.601C38.3527 204.078 45.0947 210.628 53.6202 212.182C56.459 212.7 59.3733 212.636 62.1871 211.996L89.7608 205.726L90.5261 205.485C95.3397 203.973 100.354 203.198 105.4 203.186L123.771 203.144C126.92 203.137 130.062 203.427 133.156 204.011L148.254 206.86C151.014 207.381 153.713 208.189 156.306 209.271L163.769 212.386C167.469 213.93 170.525 216.699 172.427 220.228L172.967 221.23C173.98 223.109 174.512 225.21 174.517 227.345C174.529 232.717 171.224 237.539 166.209 239.465L163.421 240.536C161.455 241.291 159.368 241.68 157.262 241.685L155.481 241.689C153.489 241.693 151.502 241.477 149.558 241.044L134.007 237.58C130.4 236.776 126.716 236.375 123.021 236.383L96.6794 236.443C93.6828 236.45 90.6929 236.726 87.7457 237.268L73.911 239.814L54.6499 245.116C50.3637 246.296 45.9393 246.899 41.4937 246.909L31.0474 246.933C28.319 246.939 25.6063 246.519 23.0076 245.687L21.863 245.321C15.8153 243.387 10.815 239.075 8.01252 233.378C6.44185 230.184 5.62117 226.675 5.61308 223.116L5.59027 213.085L5.34323 166.785L9.71723 127.496C10.1874 123.273 10.1173 119.007 9.50861 114.801L5.34314 86.0217L1.88216 72.4861C1.30047 70.2111 1.00618 67.8722 1.00618 65.5241L1.00618 60.4912C1.00618 56.2217 2.71061 52.1289 5.74105 49.1215C8.74149 46.1438 12.7973 44.4728 17.0245 44.4728L18.5068 44.4728C27.8028 44.4729 35.8224 50.9978 37.7129 60.0996L39.0015 66.3031C39.3823 68.1363 39.5742 70.0038 39.5742 71.8762L39.5742 86.0217L39.5743 134.882Z" stroke="#594600" stroke-opacity="0.05"/>
<g filter="url(#filter1_i)">
<path d="M191.244 118.922L197.451 71.9446C197.875 68.7369 197.776 65.4817 197.159 62.3055L196.278 57.7689C194.497 48.593 187.354 41.3991 178.191 39.5518C175.269 38.9627 172.261 38.9454 169.332 39.501L139.544 45.1518L137.93 45.5901C133.266 46.8567 128.442 47.4403 123.61 47.3227L102.593 46.811C99.5826 46.7377 96.5846 46.3925 93.6359 45.7797L76.9311 42.3078C74.083 41.7159 71.3017 40.8388 68.6293 39.6897L60.3551 36.1322C56.6232 34.5276 53.5521 31.6951 51.6517 28.1048L51.057 26.9812C50.0199 25.022 49.5036 22.8291 49.5576 20.613C49.6899 15.1772 53.2066 10.4041 58.359 8.66685L61.9203 7.46609C63.9469 6.78279 66.0775 6.45984 68.2156 6.51189L70.2952 6.56252C72.4223 6.6143 74.5378 6.89155 76.6064 7.3896L93.7239 11.511C97.1612 12.3385 100.677 12.7992 104.211 12.8853L133.496 13.5982C136.362 13.668 139.228 13.4913 142.062 13.07L157.413 10.789L178.851 5.75374C182.994 4.78052 187.245 4.34037 191.5 4.44396L203.548 4.73725C206.377 4.80613 209.18 5.29815 211.864 6.19697L213.669 6.8014C219.774 8.84604 224.794 13.2719 227.587 19.0731C229.226 22.4779 230.033 26.2234 229.941 30.0011L229.697 40.0214L228.697 87.3123L222.972 127.158C222.34 131.558 222.297 136.022 222.845 140.433L226.493 169.79L229.816 183.687C230.379 186.042 230.632 188.46 230.567 190.881L230.441 195.601C230.318 200.196 228.313 204.538 224.895 207.611C221.705 210.479 217.538 212.014 213.25 211.9L211.425 211.851C201.392 211.585 192.901 204.361 191.032 194.5L190.01 189.111C189.636 187.137 189.475 185.128 189.528 183.12L189.91 168.82L191.244 118.922Z" fill="url(#paint4_radial)" fill-opacity="0.44"/>
<path d="M191.244 118.922L197.451 71.9446C197.875 68.7369 197.776 65.4817 197.159 62.3055L196.278 57.7689C194.497 48.593 187.354 41.3991 178.191 39.5518C175.269 38.9627 172.261 38.9454 169.332 39.501L139.544 45.1518L137.93 45.5901C133.266 46.8567 128.442 47.4403 123.61 47.3227L102.593 46.811C99.5826 46.7377 96.5846 46.3925 93.6359 45.7797L76.9311 42.3078C74.083 41.7159 71.3017 40.8388 68.6293 39.6897L60.3551 36.1322C56.6232 34.5276 53.5521 31.6951 51.6517 28.1048L51.057 26.9812C50.0199 25.022 49.5036 22.8291 49.5576 20.613C49.6899 15.1772 53.2066 10.4041 58.359 8.66685L61.9203 7.46609C63.9469 6.78279 66.0775 6.45984 68.2156 6.51189L70.2952 6.56252C72.4223 6.6143 74.5378 6.89155 76.6064 7.3896L93.7239 11.511C97.1612 12.3385 100.677 12.7992 104.211 12.8853L133.496 13.5982C136.362 13.668 139.228 13.4913 142.062 13.07L157.413 10.789L178.851 5.75374C182.994 4.78052 187.245 4.34037 191.5 4.44396L203.548 4.73725C206.377 4.80613 209.18 5.29815 211.864 6.19697L213.669 6.8014C219.774 8.84604 224.794 13.2719 227.587 19.0731C229.226 22.4779 230.033 26.2234 229.941 30.0011L229.697 40.0214L228.697 87.3123L222.972 127.158C222.34 131.558 222.297 136.022 222.845 140.433L226.493 169.79L229.816 183.687C230.379 186.042 230.632 188.46 230.567 190.881L230.441 195.601C230.318 200.196 228.313 204.538 224.895 207.611C221.705 210.479 217.538 212.014 213.25 211.9L211.425 211.851C201.392 211.585 192.901 204.361 191.032 194.5L190.01 189.111C189.636 187.137 189.475 185.128 189.528 183.12L189.91 168.82L191.244 118.922Z" fill="url(#paint5_linear)" fill-opacity="0.6"/>
<path d="M191.244 118.922L197.451 71.9446C197.875 68.7369 197.776 65.4817 197.159 62.3055L196.278 57.7689C194.497 48.593 187.354 41.3991 178.191 39.5518C175.269 38.9627 172.261 38.9454 169.332 39.501L139.544 45.1518L137.93 45.5901C133.266 46.8567 128.442 47.4403 123.61 47.3227L102.593 46.811C99.5826 46.7377 96.5846 46.3925 93.6359 45.7797L76.9311 42.3078C74.083 41.7159 71.3017 40.8388 68.6293 39.6897L60.3551 36.1322C56.6232 34.5276 53.5521 31.6951 51.6517 28.1048L51.057 26.9812C50.0199 25.022 49.5036 22.8291 49.5576 20.613C49.6899 15.1772 53.2066 10.4041 58.359 8.66685L61.9203 7.46609C63.9469 6.78279 66.0775 6.45984 68.2156 6.51189L70.2952 6.56252C72.4223 6.6143 74.5378 6.89155 76.6064 7.3896L93.7239 11.511C97.1612 12.3385 100.677 12.7992 104.211 12.8853L133.496 13.5982C136.362 13.668 139.228 13.4913 142.062 13.07L157.413 10.789L178.851 5.75374C182.994 4.78052 187.245 4.34037 191.5 4.44396L203.548 4.73725C206.377 4.80613 209.18 5.29815 211.864 6.19697L213.669 6.8014C219.774 8.84604 224.794 13.2719 227.587 19.0731C229.226 22.4779 230.033 26.2234 229.941 30.0011L229.697 40.0214L228.697 87.3123L222.972 127.158C222.34 131.558 222.297 136.022 222.845 140.433L226.493 169.79L229.816 183.687C230.379 186.042 230.632 188.46 230.567 190.881L230.441 195.601C230.318 200.196 228.313 204.538 224.895 207.611C221.705 210.479 217.538 212.014 213.25 211.9L211.425 211.851C201.392 211.585 192.901 204.361 191.032 194.5L190.01 189.111C189.636 187.137 189.475 185.128 189.528 183.12L189.91 168.82L191.244 118.922Z" fill="url(#paint6_radial)" fill-opacity="0.44"/>
<path d="M191.244 118.922L197.451 71.9446C197.875 68.7369 197.776 65.4817 197.159 62.3055L196.278 57.7689C194.497 48.593 187.354 41.3991 178.191 39.5518C175.269 38.9627 172.261 38.9454 169.332 39.501L139.544 45.1518L137.93 45.5901C133.266 46.8567 128.442 47.4403 123.61 47.3227L102.593 46.811C99.5826 46.7377 96.5846 46.3925 93.6359 45.7797L76.9311 42.3078C74.083 41.7159 71.3017 40.8388 68.6293 39.6897L60.3551 36.1322C56.6232 34.5276 53.5521 31.6951 51.6517 28.1048L51.057 26.9812C50.0199 25.022 49.5036 22.8291 49.5576 20.613C49.6899 15.1772 53.2066 10.4041 58.359 8.66685L61.9203 7.46609C63.9469 6.78279 66.0775 6.45984 68.2156 6.51189L70.2952 6.56252C72.4223 6.6143 74.5378 6.89155 76.6064 7.3896L93.7239 11.511C97.1612 12.3385 100.677 12.7992 104.211 12.8853L133.496 13.5982C136.362 13.668 139.228 13.4913 142.062 13.07L157.413 10.789L178.851 5.75374C182.994 4.78052 187.245 4.34037 191.5 4.44396L203.548 4.73725C206.377 4.80613 209.18 5.29815 211.864 6.19697L213.669 6.8014C219.774 8.84604 224.794 13.2719 227.587 19.0731C229.226 22.4779 230.033 26.2234 229.941 30.0011L229.697 40.0214L228.697 87.3123L222.972 127.158C222.34 131.558 222.297 136.022 222.845 140.433L226.493 169.79L229.816 183.687C230.379 186.042 230.632 188.46 230.567 190.881L230.441 195.601C230.318 200.196 228.313 204.538 224.895 207.611C221.705 210.479 217.538 212.014 213.25 211.9L211.425 211.851C201.392 211.585 192.901 204.361 191.032 194.5L190.01 189.111C189.636 187.137 189.475 185.128 189.528 183.12L189.91 168.82L191.244 118.922Z" fill="url(#paint7_linear)" fill-opacity="0.59"/>
</g>
<path d="M191.244 118.922L197.451 71.9446C197.875 68.7369 197.776 65.4817 197.159 62.3055L196.278 57.7689C194.497 48.593 187.354 41.3991 178.191 39.5518C175.269 38.9627 172.261 38.9454 169.332 39.501L139.544 45.1518L137.93 45.5901C133.266 46.8567 128.442 47.4403 123.61 47.3227L102.593 46.811C99.5826 46.7377 96.5846 46.3925 93.6359 45.7797L76.9311 42.3078C74.083 41.7159 71.3017 40.8388 68.6293 39.6897L60.3551 36.1322C56.6232 34.5276 53.5521 31.6951 51.6517 28.1048L51.057 26.9812C50.0199 25.022 49.5036 22.8291 49.5576 20.613C49.6899 15.1772 53.2066 10.4041 58.359 8.66685L61.9203 7.46609C63.9469 6.78279 66.0775 6.45984 68.2156 6.51189L70.2952 6.56252C72.4223 6.6143 74.5378 6.89155 76.6064 7.3896L93.7239 11.511C97.1612 12.3385 100.677 12.7992 104.211 12.8853L133.496 13.5982C136.362 13.668 139.228 13.4913 142.062 13.07L157.413 10.789L178.851 5.75374C182.994 4.78052 187.245 4.34037 191.5 4.44396L203.548 4.73725C206.377 4.80613 209.18 5.29815 211.864 6.19697L213.669 6.8014C219.774 8.84604 224.794 13.2719 227.587 19.0731C229.226 22.4779 230.033 26.2234 229.941 30.0011L229.697 40.0214L228.697 87.3123L222.972 127.158C222.34 131.558 222.297 136.022 222.845 140.433L226.493 169.79L229.816 183.687C230.379 186.042 230.632 188.46 230.567 190.881L230.441 195.601C230.318 200.196 228.313 204.538 224.895 207.611C221.705 210.479 217.538 212.014 213.25 211.9L211.425 211.851C201.392 211.585 192.901 204.361 191.032 194.5L190.01 189.111C189.636 187.137 189.475 185.128 189.528 183.12L189.91 168.82L191.244 118.922Z" stroke="#594600" stroke-opacity="0.05"/>
<defs>
<filter id="filter0_i" x="0.457153" y="43.6145" width="174.605" height="207.887" filterUnits="userSpaceOnUse" color-interpolation-filters="sRGB">
<feFlood flood-opacity="0" result="BackgroundImageFix"/>
<feBlend mode="normal" in="SourceGraphic" in2="BackgroundImageFix" result="shape"/>
<feColorMatrix in="SourceAlpha" type="matrix" values="0 0 0 0 0 0 0 0 0 0 0 0 0 0 0 0 0 0 127 0" result="hardAlpha"/>
<feOffset dy="4"/>
<feGaussianBlur stdDeviation="2"/>
<feComposite in2="hardAlpha" operator="arithmetic" k2="-1" k3="1"/>
<feColorMatrix type="matrix" values="0 0 0 0 0.4625 0 0 0 0 0.4625 0 0 0 0 0.4625 0 0 0 0.09 0"/>
<feBlend mode="normal" in2="shape" result="effect1_innerShadow"/>
</filter>
<filter id="filter1_i" x="44.4883" y="0.487793" width="191.104" height="216.333" filterUnits="userSpaceOnUse" color-interpolation-filters="sRGB">
<feFlood flood-opacity="0" result="BackgroundImageFix"/>
<feBlend mode="normal" in="SourceGraphic" in2="BackgroundImageFix" result="shape"/>
<feColorMatrix in="SourceAlpha" type="matrix" values="0 0 0 0 0 0 0 0 0 0 0 0 0 0 0 0 0 0 127 0" result="hardAlpha"/>
<feOffset dy="4"/>
<feGaussianBlur stdDeviation="2"/>
<feComposite in2="hardAlpha" operator="arithmetic" k2="-1" k3="1"/>
<feColorMatrix type="matrix" values="0 0 0 0 0.4625 0 0 0 0 0.4625 0 0 0 0 0.4625 0 0 0 0.09 0"/>
<feBlend mode="normal" in2="shape" result="effect1_innerShadow"/>
</filter>
<radialGradient id="paint0_radial" cx="0" cy="0" r="1" gradientUnits="userSpaceOnUse" gradientTransform="translate(87.7556 145.55) rotate(89.8697) scale(101.253 86.5753)">
<stop offset="0.614583" stop-color="#FFE99D"/>
<stop offset="1" stop-color="#FFE99D" stop-opacity="0"/>
</radialGradient>
<linearGradient id="paint1_linear" x1="87.5254" y1="44.2975" x2="87.9859" y2="246.803" gradientUnits="userSpaceOnUse">
<stop stop-color="#ADFF00" stop-opacity="0.27"/>
<stop offset="0.557292" stop-color="white" stop-opacity="0"/>
</linearGradient>
<radialGradient id="paint2_radial" cx="0" cy="0" r="1" gradientUnits="userSpaceOnUse" gradientTransform="translate(87.7556 145.55) rotate(89.8697) scale(101.253 86.5753)">
<stop offset="0.5" stop-color="#EE80F0"/>
<stop offset="1" stop-color="white" stop-opacity="0"/>
</radialGradient>
<linearGradient id="paint3_linear" x1="87.5254" y1="44.2975" x2="87.9859" y2="246.803" gradientUnits="userSpaceOnUse">
<stop offset="0.463542" stop-color="#7000FF" stop-opacity="0"/>
<stop offset="1" stop-color="white"/>
</linearGradient>
<radialGradient id="paint4_radial" cx="0" cy="0" r="1" gradientUnits="userSpaceOnUse" gradientTransform="translate(140.044 106.662) rotate(-88.6054) scale(103.44 92.5543)">
<stop offset="0.614583" stop-color="#FFE99D"/>
<stop offset="1" stop-color="#FFE99D" stop-opacity="0"/>
</radialGradient>
<linearGradient id="paint5_linear" x1="137.527" y1="210.071" x2="142.562" y2="3.25253" gradientUnits="userSpaceOnUse">
<stop stop-color="#ADFF00" stop-opacity="0.27"/>
<stop offset="0.557292" stop-color="white" stop-opacity="0"/>
</linearGradient>
<radialGradient id="paint6_radial" cx="0" cy="0" r="1" gradientUnits="userSpaceOnUse" gradientTransform="translate(140.044 106.662) rotate(-88.6054) scale(103.44 92.5543)">
<stop offset="0.5" stop-color="#EE80F0"/>
<stop offset="1" stop-color="white" stop-opacity="0"/>
</radialGradient>
<linearGradient id="paint7_linear" x1="137.527" y1="210.071" x2="142.562" y2="3.25253" gradientUnits="userSpaceOnUse">
<stop offset="0.463542" stop-color="#7000FF" stop-opacity="0"/>
<stop offset="1" stop-color="white"/>
</linearGradient>
</defs>
</svg>
