<svg width="36" height="37" viewBox="0 0 36 37" fill="none" xmlns="http://www.w3.org/2000/svg">
<g filter="url(#filter0_i)">
<ellipse cx="18" cy="18.5" rx="18" ry="18.5" fill="url(#paint0_radial)" fill-opacity="0.09"/>
<ellipse cx="18" cy="18.5" rx="18" ry="18.5" fill="url(#paint1_linear)"/>
<ellipse cx="18" cy="18.5" rx="18" ry="18.5" fill="url(#paint2_radial)"/>
<ellipse cx="18" cy="18.5" rx="18" ry="18.5" fill="url(#paint3_radial)"/>
</g>
<path d="M35.5 18.5C35.5 28.4541 27.6522 36.5 18 36.5C8.34784 36.5 0.5 28.4541 0.5 18.5C0.5 8.54587 8.34784 0.5 18 0.5C27.6522 0.5 35.5 8.54587 35.5 18.5Z" stroke="#FF97FB" stroke-opacity="0.09"/>
<defs>
<filter id="filter0_i" x="0" y="0" width="36" height="41" filterUnits="userSpaceOnUse" color-interpolation-filters="sRGB">
<feFlood flood-opacity="0" result="BackgroundImageFix"/>
<feBlend mode="normal" in="SourceGraphic" in2="BackgroundImageFix" result="shape"/>
<feColorMatrix in="SourceAlpha" type="matrix" values="0 0 0 0 0 0 0 0 0 0 0 0 0 0 0 0 0 0 127 0" result="hardAlpha"/>
<feOffset dy="4"/>
<feGaussianBlur stdDeviation="2"/>
<feComposite in2="hardAlpha" operator="arithmetic" k2="-1" k3="1"/>
<feColorMatrix type="matrix" values="0 0 0 0 0.4625 0 0 0 0 0.4625 0 0 0 0 0.4625 0 0 0 0.09 0"/>
<feBlend mode="normal" in2="shape" result="effect1_innerShadow"/>
</filter>
<radialGradient id="paint0_radial" cx="0" cy="0" r="1" gradientUnits="userSpaceOnUse" gradientTransform="translate(18 18.5) rotate(90) scale(18.5 18)">
<stop stop-color="#68FF0C"/>
<stop offset="1" stop-color="#68FF0C" stop-opacity="0"/>
</radialGradient>
<linearGradient id="paint1_linear" x1="18" y1="0" x2="18" y2="37" gradientUnits="userSpaceOnUse">
<stop stop-color="#CDFFBB" stop-opacity="0.6"/>
<stop offset="1" stop-color="white" stop-opacity="0"/>
</linearGradient>
<radialGradient id="paint2_radial" cx="0" cy="0" r="1" gradientUnits="userSpaceOnUse" gradientTransform="translate(18 18.5) rotate(90) scale(18.5 18)">
<stop stop-color="#68FF0C" stop-opacity="0.33"/>
<stop offset="1" stop-color="white" stop-opacity="0"/>
</radialGradient>
<radialGradient id="paint3_radial" cx="0" cy="0" r="1" gradientUnits="userSpaceOnUse" gradientTransform="translate(18 18.5) rotate(90) scale(18.5 18)">
<stop stop-color="#68FF0C" stop-opacity="0"/>
<stop offset="1" stop-color="#AE75E8" stop-opacity="0.07"/>
</radialGradient>
</defs>
</svg>
