<svg width="254" height="278" viewBox="0 0 254 278" fill="none" xmlns="http://www.w3.org/2000/svg">
<g filter="url(#filter0_i)">
<path d="M57.0863 124.379L50.3754 187.018C49.9085 191.377 50.1644 195.782 51.1328 200.058L52.3657 205.501C55.1813 217.932 65.2143 227.44 77.7782 229.585C81.7103 230.257 85.734 230.174 89.6351 229.343L129.963 220.751L134.76 219.339C139.31 218 144.027 217.315 148.77 217.305L181.784 217.235C184.738 217.229 187.686 217.484 190.595 217.998L216.045 222.497C219.294 223.071 222.479 223.966 225.552 225.168L237.978 230.026C242.998 231.989 247.2 235.606 249.888 240.279L250.765 241.804C252.248 244.381 253.031 247.301 253.039 250.274C253.056 257.485 248.539 263.927 241.755 266.368L236.646 268.206C233.974 269.167 231.155 269.662 228.314 269.668L225.389 269.674C222.499 269.68 219.618 269.386 216.789 268.796L191.439 263.505C188.045 262.797 184.585 262.444 181.117 262.451L137.692 262.543C134.882 262.549 132.077 262.792 129.307 263.27L106.947 267.124L75.6889 275.184C71.6456 276.227 67.4874 276.759 63.3115 276.768L44.4486 276.808C40.6534 276.816 36.8773 276.267 33.2414 275.177L30.4247 274.333C22.2383 271.88 15.3845 266.233 11.4115 258.666C9.0316 254.133 7.78222 249.093 7.76979 243.974L7.73773 230.763L7.37899 167.778L13.9527 112.462C14.4876 107.96 14.4079 103.407 13.7157 98.9267L7.37888 57.9114L2.36561 39.5438C1.5131 36.4203 1.08112 33.1972 1.08112 29.9598L1.08112 23.9259C1.08112 17.6636 3.68614 11.6842 8.27187 7.42087C12.4412 3.54464 17.9233 1.39013 23.617 1.39013L26.2316 1.39013C39.924 1.39015 51.7799 10.9057 54.744 24.2743L56.1958 30.8219C56.7876 33.4911 57.0862 36.2169 57.0862 38.9508L57.0862 57.9114L57.0863 124.379Z" fill="url(#paint0_radial)" fill-opacity="0.9"/>
<path d="M57.0863 124.379L50.3754 187.018C49.9085 191.377 50.1644 195.782 51.1328 200.058L52.3657 205.501C55.1813 217.932 65.2143 227.44 77.7782 229.585C81.7103 230.257 85.734 230.174 89.6351 229.343L129.963 220.751L134.76 219.339C139.31 218 144.027 217.315 148.77 217.305L181.784 217.235C184.738 217.229 187.686 217.484 190.595 217.998L216.045 222.497C219.294 223.071 222.479 223.966 225.552 225.168L237.978 230.026C242.998 231.989 247.2 235.606 249.888 240.279L250.765 241.804C252.248 244.381 253.031 247.301 253.039 250.274C253.056 257.485 248.539 263.927 241.755 266.368L236.646 268.206C233.974 269.167 231.155 269.662 228.314 269.668L225.389 269.674C222.499 269.68 219.618 269.386 216.789 268.796L191.439 263.505C188.045 262.797 184.585 262.444 181.117 262.451L137.692 262.543C134.882 262.549 132.077 262.792 129.307 263.27L106.947 267.124L75.6889 275.184C71.6456 276.227 67.4874 276.759 63.3115 276.768L44.4486 276.808C40.6534 276.816 36.8773 276.267 33.2414 275.177L30.4247 274.333C22.2383 271.88 15.3845 266.233 11.4115 258.666C9.0316 254.133 7.78222 249.093 7.76979 243.974L7.73773 230.763L7.37899 167.778L13.9527 112.462C14.4876 107.96 14.4079 103.407 13.7157 98.9267L7.37888 57.9114L2.36561 39.5438C1.5131 36.4203 1.08112 33.1972 1.08112 29.9598L1.08112 23.9259C1.08112 17.6636 3.68614 11.6842 8.27187 7.42087C12.4412 3.54464 17.9233 1.39013 23.617 1.39013L26.2316 1.39013C39.924 1.39015 51.7799 10.9057 54.744 24.2743L56.1958 30.8219C56.7876 33.4911 57.0862 36.2169 57.0862 38.9508L57.0862 57.9114L57.0863 124.379Z" fill="url(#paint1_linear)" fill-opacity="0.9"/>
<path d="M57.0863 124.379L50.3754 187.018C49.9085 191.377 50.1644 195.782 51.1328 200.058L52.3657 205.501C55.1813 217.932 65.2143 227.44 77.7782 229.585C81.7103 230.257 85.734 230.174 89.6351 229.343L129.963 220.751L134.76 219.339C139.31 218 144.027 217.315 148.77 217.305L181.784 217.235C184.738 217.229 187.686 217.484 190.595 217.998L216.045 222.497C219.294 223.071 222.479 223.966 225.552 225.168L237.978 230.026C242.998 231.989 247.2 235.606 249.888 240.279L250.765 241.804C252.248 244.381 253.031 247.301 253.039 250.274C253.056 257.485 248.539 263.927 241.755 266.368L236.646 268.206C233.974 269.167 231.155 269.662 228.314 269.668L225.389 269.674C222.499 269.68 219.618 269.386 216.789 268.796L191.439 263.505C188.045 262.797 184.585 262.444 181.117 262.451L137.692 262.543C134.882 262.549 132.077 262.792 129.307 263.27L106.947 267.124L75.6889 275.184C71.6456 276.227 67.4874 276.759 63.3115 276.768L44.4486 276.808C40.6534 276.816 36.8773 276.267 33.2414 275.177L30.4247 274.333C22.2383 271.88 15.3845 266.233 11.4115 258.666C9.0316 254.133 7.78222 249.093 7.76979 243.974L7.73773 230.763L7.37899 167.778L13.9527 112.462C14.4876 107.96 14.4079 103.407 13.7157 98.9267L7.37888 57.9114L2.36561 39.5438C1.5131 36.4203 1.08112 33.1972 1.08112 29.9598L1.08112 23.9259C1.08112 17.6636 3.68614 11.6842 8.27187 7.42087C12.4412 3.54464 17.9233 1.39013 23.617 1.39013L26.2316 1.39013C39.924 1.39015 51.7799 10.9057 54.744 24.2743L56.1958 30.8219C56.7876 33.4911 57.0862 36.2169 57.0862 38.9508L57.0862 57.9114L57.0863 124.379Z" fill="url(#paint2_radial)" fill-opacity="0.45"/>
<path d="M57.0863 124.379L50.3754 187.018C49.9085 191.377 50.1644 195.782 51.1328 200.058L52.3657 205.501C55.1813 217.932 65.2143 227.44 77.7782 229.585C81.7103 230.257 85.734 230.174 89.6351 229.343L129.963 220.751L134.76 219.339C139.31 218 144.027 217.315 148.77 217.305L181.784 217.235C184.738 217.229 187.686 217.484 190.595 217.998L216.045 222.497C219.294 223.071 222.479 223.966 225.552 225.168L237.978 230.026C242.998 231.989 247.2 235.606 249.888 240.279L250.765 241.804C252.248 244.381 253.031 247.301 253.039 250.274C253.056 257.485 248.539 263.927 241.755 266.368L236.646 268.206C233.974 269.167 231.155 269.662 228.314 269.668L225.389 269.674C222.499 269.68 219.618 269.386 216.789 268.796L191.439 263.505C188.045 262.797 184.585 262.444 181.117 262.451L137.692 262.543C134.882 262.549 132.077 262.792 129.307 263.27L106.947 267.124L75.6889 275.184C71.6456 276.227 67.4874 276.759 63.3115 276.768L44.4486 276.808C40.6534 276.816 36.8773 276.267 33.2414 275.177L30.4247 274.333C22.2383 271.88 15.3845 266.233 11.4115 258.666C9.0316 254.133 7.78222 249.093 7.76979 243.974L7.73773 230.763L7.37899 167.778L13.9527 112.462C14.4876 107.96 14.4079 103.407 13.7157 98.9267L7.37888 57.9114L2.36561 39.5438C1.5131 36.4203 1.08112 33.1972 1.08112 29.9598L1.08112 23.9259C1.08112 17.6636 3.68614 11.6842 8.27187 7.42087C12.4412 3.54464 17.9233 1.39013 23.617 1.39013L26.2316 1.39013C39.924 1.39015 51.7799 10.9057 54.744 24.2743L56.1958 30.8219C56.7876 33.4911 57.0862 36.2169 57.0862 38.9508L57.0862 57.9114L57.0863 124.379Z" fill="url(#paint3_linear)" fill-opacity="0.6"/>
<path d="M57.0863 124.379L50.3754 187.018C49.9085 191.377 50.1644 195.782 51.1328 200.058L52.3657 205.501C55.1813 217.932 65.2143 227.44 77.7782 229.585C81.7103 230.257 85.734 230.174 89.6351 229.343L129.963 220.751L134.76 219.339C139.31 218 144.027 217.315 148.77 217.305L181.784 217.235C184.738 217.229 187.686 217.484 190.595 217.998L216.045 222.497C219.294 223.071 222.479 223.966 225.552 225.168L237.978 230.026C242.998 231.989 247.2 235.606 249.888 240.279L250.765 241.804C252.248 244.381 253.031 247.301 253.039 250.274C253.056 257.485 248.539 263.927 241.755 266.368L236.646 268.206C233.974 269.167 231.155 269.662 228.314 269.668L225.389 269.674C222.499 269.68 219.618 269.386 216.789 268.796L191.439 263.505C188.045 262.797 184.585 262.444 181.117 262.451L137.692 262.543C134.882 262.549 132.077 262.792 129.307 263.27L106.947 267.124L75.6889 275.184C71.6456 276.227 67.4874 276.759 63.3115 276.768L44.4486 276.808C40.6534 276.816 36.8773 276.267 33.2414 275.177L30.4247 274.333C22.2383 271.88 15.3845 266.233 11.4115 258.666C9.0316 254.133 7.78222 249.093 7.76979 243.974L7.73773 230.763L7.37899 167.778L13.9527 112.462C14.4876 107.96 14.4079 103.407 13.7157 98.9267L7.37888 57.9114L2.36561 39.5438C1.5131 36.4203 1.08112 33.1972 1.08112 29.9598L1.08112 23.9259C1.08112 17.6636 3.68614 11.6842 8.27187 7.42087C12.4412 3.54464 17.9233 1.39013 23.617 1.39013L26.2316 1.39013C39.924 1.39015 51.7799 10.9057 54.744 24.2743L56.1958 30.8219C56.7876 33.4911 57.0862 36.2169 57.0862 38.9508L57.0862 57.9114L57.0863 124.379Z" fill="url(#paint4_linear)"/>
</g>
<path d="M57.0863 124.379L50.3754 187.018C49.9085 191.377 50.1644 195.782 51.1328 200.058L52.3657 205.501C55.1813 217.932 65.2143 227.44 77.7782 229.585C81.7103 230.257 85.734 230.174 89.6351 229.343L129.963 220.751L134.76 219.339C139.31 218 144.027 217.315 148.77 217.305L181.784 217.235C184.738 217.229 187.686 217.484 190.595 217.998L216.045 222.497C219.294 223.071 222.479 223.966 225.552 225.168L237.978 230.026C242.998 231.989 247.2 235.606 249.888 240.279L250.765 241.804C252.248 244.381 253.031 247.301 253.039 250.274C253.056 257.485 248.539 263.927 241.755 266.368L236.646 268.206C233.974 269.167 231.155 269.662 228.314 269.668L225.389 269.674C222.499 269.68 219.618 269.386 216.789 268.796L191.439 263.505C188.045 262.797 184.585 262.444 181.117 262.451L137.692 262.543C134.882 262.549 132.077 262.792 129.307 263.27L106.947 267.124L75.6889 275.184C71.6456 276.227 67.4874 276.759 63.3115 276.768L44.4486 276.808C40.6534 276.816 36.8773 276.267 33.2414 275.177L30.4247 274.333C22.2383 271.88 15.3845 266.233 11.4115 258.666C9.0316 254.133 7.78222 249.093 7.76979 243.974L7.73773 230.763L7.37899 167.778L13.9527 112.462C14.4876 107.96 14.4079 103.407 13.7157 98.9267L7.37888 57.9114L2.36561 39.5438C1.5131 36.4203 1.08112 33.1972 1.08112 29.9598L1.08112 23.9259C1.08112 17.6636 3.68614 11.6842 8.27187 7.42087C12.4412 3.54464 17.9233 1.39013 23.617 1.39013L26.2316 1.39013C39.924 1.39015 51.7799 10.9057 54.744 24.2743L56.1958 30.8219C56.7876 33.4911 57.0862 36.2169 57.0862 38.9508L57.0862 57.9114L57.0863 124.379Z" stroke="#594600" stroke-opacity="0.05"/>
<defs>
<filter id="filter0_i" x="0.581116" y="0.890137" width="252.958" height="280.418" filterUnits="userSpaceOnUse" color-interpolation-filters="sRGB">
<feFlood flood-opacity="0" result="BackgroundImageFix"/>
<feBlend mode="normal" in="SourceGraphic" in2="BackgroundImageFix" result="shape"/>
<feColorMatrix in="SourceAlpha" type="matrix" values="0 0 0 0 0 0 0 0 0 0 0 0 0 0 0 0 0 0 127 0" result="hardAlpha"/>
<feOffset dy="4"/>
<feGaussianBlur stdDeviation="2"/>
<feComposite in2="hardAlpha" operator="arithmetic" k2="-1" k3="1"/>
<feColorMatrix type="matrix" values="0 0 0 0 0.4625 0 0 0 0 0.4625 0 0 0 0 0.4625 0 0 0 0.09 0"/>
<feBlend mode="normal" in2="shape" result="effect1_innerShadow"/>
</filter>
<radialGradient id="paint0_radial" cx="0" cy="0" r="1" gradientUnits="userSpaceOnUse" gradientTransform="translate(127.051 138.892) rotate(89.8609) scale(137.74 125.717)">
<stop offset="0.614583" stop-color="#FFE99D"/>
<stop offset="1" stop-color="#FFE99D" stop-opacity="0"/>
</radialGradient>
<linearGradient id="paint1_linear" x1="126.717" y1="1.15161" x2="127.304" y2="276.632" gradientUnits="userSpaceOnUse">
<stop stop-color="white" stop-opacity="0"/>
<stop offset="1" stop-color="#ADFF00" stop-opacity="0.6"/>
</linearGradient>
<radialGradient id="paint2_radial" cx="0" cy="0" r="1" gradientUnits="userSpaceOnUse" gradientTransform="translate(127.051 138.892) rotate(89.8609) scale(137.74 125.717)">
<stop offset="0.5" stop-color="#EE80F0"/>
<stop offset="1" stop-color="white" stop-opacity="0"/>
</radialGradient>
<linearGradient id="paint3_linear" x1="126.717" y1="1.15161" x2="127.304" y2="276.632" gradientUnits="userSpaceOnUse">
<stop offset="0.463542" stop-color="#BD00FF" stop-opacity="0.33"/>
<stop offset="1" stop-color="white"/>
</linearGradient>
<linearGradient id="paint4_linear" x1="126.717" y1="1.15161" x2="127.304" y2="276.632" gradientUnits="userSpaceOnUse">
<stop stop-color="#A3F94E" stop-opacity="0.81"/>
<stop offset="1" stop-color="white" stop-opacity="0"/>
</linearGradient>
</defs>
</svg>
