<svg width="184" height="187" viewBox="0 0 184 187" fill="none" xmlns="http://www.w3.org/2000/svg">
<g filter="url(#filter0_i)">
<path d="M3.46539 157.812L1.85528 152.804C-1.32123 142.925 1.96125 132.338 10.5312 124.821C13.1122 122.557 16.1031 120.636 19.3955 119.126L42.7399 108.424C52.7415 103.839 61.8275 98.0022 69.668 91.1253L90.227 73.093L107.362 58.0639C114.48 51.8204 119.54 44.1881 122.05 35.9064L126.414 21.5079C129.329 11.8904 138.647 4.42616 150.404 2.28909L155.154 1.42579C163.389 -0.070978 171.91 2.22225 177.405 7.41368C181.424 11.2115 183.42 16.1888 182.949 21.2435L182.047 30.9268C180.806 44.2596 172.001 56.4013 158.291 63.6865L150.119 68.0287C141.519 72.5985 134.197 78.6305 128.653 85.7128L70.3295 160.218C68.9164 162.024 67.6809 163.918 66.6347 165.882L61.4297 175.657C58.7597 180.671 53.4658 184.432 47.0562 185.869C42.842 186.813 38.3944 186.695 34.2924 185.529L31.8711 184.841C27.9099 183.716 24.2897 181.915 21.245 179.556L16.561 175.927C10.2296 171.021 5.69628 164.75 3.46539 157.812Z" fill="url(#paint0_radial)" fill-opacity="0.6"/>
<path d="M3.46539 157.812L1.85528 152.804C-1.32123 142.925 1.96125 132.338 10.5312 124.821C13.1122 122.557 16.1031 120.636 19.3955 119.126L42.7399 108.424C52.7415 103.839 61.8275 98.0022 69.668 91.1253L90.227 73.093L107.362 58.0639C114.48 51.8204 119.54 44.1881 122.05 35.9064L126.414 21.5079C129.329 11.8904 138.647 4.42616 150.404 2.28909L155.154 1.42579C163.389 -0.070978 171.91 2.22225 177.405 7.41368C181.424 11.2115 183.42 16.1888 182.949 21.2435L182.047 30.9268C180.806 44.2596 172.001 56.4013 158.291 63.6865L150.119 68.0287C141.519 72.5985 134.197 78.6305 128.653 85.7128L70.3295 160.218C68.9164 162.024 67.6809 163.918 66.6347 165.882L61.4297 175.657C58.7597 180.671 53.4658 184.432 47.0562 185.869C42.842 186.813 38.3944 186.695 34.2924 185.529L31.8711 184.841C27.9099 183.716 24.2897 181.915 21.245 179.556L16.561 175.927C10.2296 171.021 5.69628 164.75 3.46539 157.812Z" fill="url(#paint1_linear)" fill-opacity="0.6"/>
<path d="M3.46539 157.812L1.85528 152.804C-1.32123 142.925 1.96125 132.338 10.5312 124.821C13.1122 122.557 16.1031 120.636 19.3955 119.126L42.7399 108.424C52.7415 103.839 61.8275 98.0022 69.668 91.1253L90.227 73.093L107.362 58.0639C114.48 51.8204 119.54 44.1881 122.05 35.9064L126.414 21.5079C129.329 11.8904 138.647 4.42616 150.404 2.28909L155.154 1.42579C163.389 -0.070978 171.91 2.22225 177.405 7.41368C181.424 11.2115 183.42 16.1888 182.949 21.2435L182.047 30.9268C180.806 44.2596 172.001 56.4013 158.291 63.6865L150.119 68.0287C141.519 72.5985 134.197 78.6305 128.653 85.7128L70.3295 160.218C68.9164 162.024 67.6809 163.918 66.6347 165.882L61.4297 175.657C58.7597 180.671 53.4658 184.432 47.0562 185.869C42.842 186.813 38.3944 186.695 34.2924 185.529L31.8711 184.841C27.9099 183.716 24.2897 181.915 21.245 179.556L16.561 175.927C10.2296 171.021 5.69628 164.75 3.46539 157.812Z" fill="url(#paint2_radial)" fill-opacity="0.27"/>
<path d="M3.46539 157.812L1.85528 152.804C-1.32123 142.925 1.96125 132.338 10.5312 124.821C13.1122 122.557 16.1031 120.636 19.3955 119.126L42.7399 108.424C52.7415 103.839 61.8275 98.0022 69.668 91.1253L90.227 73.093L107.362 58.0639C114.48 51.8204 119.54 44.1881 122.05 35.9064L126.414 21.5079C129.329 11.8904 138.647 4.42616 150.404 2.28909L155.154 1.42579C163.389 -0.070978 171.91 2.22225 177.405 7.41368C181.424 11.2115 183.42 16.1888 182.949 21.2435L182.047 30.9268C180.806 44.2596 172.001 56.4013 158.291 63.6865L150.119 68.0287C141.519 72.5985 134.197 78.6305 128.653 85.7128L70.3295 160.218C68.9164 162.024 67.6809 163.918 66.6347 165.882L61.4297 175.657C58.7597 180.671 53.4658 184.432 47.0562 185.869C42.842 186.813 38.3944 186.695 34.2924 185.529L31.8711 184.841C27.9099 183.716 24.2897 181.915 21.245 179.556L16.561 175.927C10.2296 171.021 5.69628 164.75 3.46539 157.812Z" fill="url(#paint3_linear)" fill-opacity="0.6"/>
</g>
<path d="M3.46539 157.812L1.85528 152.804C-1.32123 142.925 1.96125 132.338 10.5312 124.821C13.1122 122.557 16.1031 120.636 19.3955 119.126L42.7399 108.424C52.7415 103.839 61.8275 98.0022 69.668 91.1253L90.227 73.093L107.362 58.0639C114.48 51.8204 119.54 44.1881 122.05 35.9064L126.414 21.5079C129.329 11.8904 138.647 4.42616 150.404 2.28909L155.154 1.42579C163.389 -0.070978 171.91 2.22225 177.405 7.41368C181.424 11.2115 183.42 16.1888 182.949 21.2435L182.047 30.9268C180.806 44.2596 172.001 56.4013 158.291 63.6865L150.119 68.0287C141.519 72.5985 134.197 78.6305 128.653 85.7128L70.3295 160.218C68.9164 162.024 67.6809 163.918 66.6347 165.882L61.4297 175.657C58.7597 180.671 53.4658 184.432 47.0562 185.869C42.842 186.813 38.3944 186.695 34.2924 185.529L31.8711 184.841C27.9099 183.716 24.2897 181.915 21.245 179.556L16.561 175.927C10.2296 171.021 5.69628 164.75 3.46539 157.812Z" stroke="#594600" stroke-opacity="0.05"/>
<defs>
<filter id="filter0_i" x="0.119629" y="0.525879" width="183.443" height="190.423" filterUnits="userSpaceOnUse" color-interpolation-filters="sRGB">
<feFlood flood-opacity="0" result="BackgroundImageFix"/>
<feBlend mode="normal" in="SourceGraphic" in2="BackgroundImageFix" result="shape"/>
<feColorMatrix in="SourceAlpha" type="matrix" values="0 0 0 0 0 0 0 0 0 0 0 0 0 0 0 0 0 0 127 0" result="hardAlpha"/>
<feOffset dy="4"/>
<feGaussianBlur stdDeviation="2"/>
<feComposite in2="hardAlpha" operator="arithmetic" k2="-1" k3="1"/>
<feColorMatrix type="matrix" values="0 0 0 0 0.4625 0 0 0 0 0.4625 0 0 0 0 0.4625 0 0 0 0.09 0"/>
<feBlend mode="normal" in2="shape" result="effect1_innerShadow"/>
</filter>
<radialGradient id="paint0_radial" cx="0" cy="0" r="1" gradientUnits="userSpaceOnUse" gradientTransform="translate(97.7956 91.5429) rotate(37.7694) scale(43.4677 116.459)">
<stop offset="0.614583" stop-color="#FFE99D"/>
<stop offset="1" stop-color="#FFE99D" stop-opacity="0"/>
</radialGradient>
<linearGradient id="paint1_linear" x1="63.4352" y1="64.9195" x2="119.534" y2="129.185" gradientUnits="userSpaceOnUse">
<stop stop-color="#ADFF00" stop-opacity="0.27"/>
<stop offset="0.557292" stop-color="white" stop-opacity="0"/>
</linearGradient>
<radialGradient id="paint2_radial" cx="0" cy="0" r="1" gradientUnits="userSpaceOnUse" gradientTransform="translate(97.7956 91.5429) rotate(37.7694) scale(43.4677 116.459)">
<stop offset="0.5" stop-color="#EE80F0"/>
<stop offset="1" stop-color="white" stop-opacity="0"/>
</radialGradient>
<linearGradient id="paint3_linear" x1="63.4352" y1="64.9195" x2="119.534" y2="129.185" gradientUnits="userSpaceOnUse">
<stop offset="0.463542" stop-color="#7000FF" stop-opacity="0"/>
<stop offset="1" stop-color="white"/>
</linearGradient>
</defs>
</svg>
