<svg width="37" height="40" viewBox="0 0 37 40" fill="none" xmlns="http://www.w3.org/2000/svg">
<path d="M25.4739 1.49952L7.02219 10.3804C4.3939 11.6454 2.38468 13.911 1.4418 16.6727C0.755447 18.6831 0.670336 20.8523 1.19686 22.9153L1.24414 23.1005C2.09826 26.447 4.39728 29.245 7.51576 30.7334L22.1028 37.6951C24.9004 39.0302 28.1041 39.2216 31.031 38.2283L31.8378 37.9546C32.3558 37.7788 32.8462 37.5308 33.2945 37.218C34.8175 36.1554 35.7396 34.4281 35.7771 32.5677L35.7849 32.1789C35.8231 30.2799 35.0418 28.453 33.6406 27.1649L33.3452 26.8933C31.7562 25.4326 30.8702 23.3608 30.9136 21.2073L30.9279 20.4954C30.9764 18.0898 31.8811 15.784 33.4795 13.9922L34.1261 13.2674C35.4728 11.7579 36.2351 9.81511 36.2759 7.78836L36.2918 6.99846C36.3184 5.67826 35.9183 4.38296 35.151 3.30507C34.0249 1.72322 32.22 0.763449 30.2827 0.716395L29.232 0.690874C27.9317 0.659294 26.6439 0.936416 25.4739 1.49952Z" fill="#A3F94E" fill-opacity="0.92" stroke="black" stroke-opacity="0.19"/>
</svg>
