<svg width="56" height="58" viewBox="0 0 56 58" fill="none" xmlns="http://www.w3.org/2000/svg">
<g filter="url(#filter0_di)">
<path d="M21.0371 43.1035L39.5509 33.7814C42.1414 32.4771 44.1014 30.1894 44.9931 27.4295C45.6494 25.398 45.6915 23.2179 45.1141 21.1626L45.0621 20.9774C44.1358 17.6804 41.7862 14.9691 38.6545 13.5833L23.7017 6.96688C20.8489 5.70454 17.619 5.59136 14.6848 6.65093L13.8564 6.95008C13.3448 7.13484 12.8615 7.39015 12.4205 7.70864C10.9001 8.8067 9.99951 10.5681 9.99951 12.4435V12.7926C9.99951 14.6845 10.8209 16.4833 12.2505 17.7223L12.5709 18C14.2041 19.4154 15.1424 21.4702 15.1424 23.6313V24.3143C15.1424 26.71 14.2795 29.0256 12.7118 30.8372L12.0467 31.6057C10.7263 33.1316 9.99951 35.082 9.99951 37.1V37.8543C9.99951 39.1911 10.4354 40.4914 11.241 41.5582C12.4025 43.096 14.2181 44 16.1452 44H17.2633C18.574 44 19.8664 43.693 21.0371 43.1035Z" fill="#A3F94E" fill-opacity="0.92"/>
<path d="M21.0371 43.1035L39.5509 33.7814C42.1414 32.4771 44.1014 30.1894 44.9931 27.4295C45.6494 25.398 45.6915 23.2179 45.1141 21.1626L45.0621 20.9774C44.1358 17.6804 41.7862 14.9691 38.6545 13.5833L23.7017 6.96688C20.8489 5.70454 17.619 5.59136 14.6848 6.65093L13.8564 6.95008C13.3448 7.13484 12.8615 7.39015 12.4205 7.70864C10.9001 8.8067 9.99951 10.5681 9.99951 12.4435V12.7926C9.99951 14.6845 10.8209 16.4833 12.2505 17.7223L12.5709 18C14.2041 19.4154 15.1424 21.4702 15.1424 23.6313V24.3143C15.1424 26.71 14.2795 29.0256 12.7118 30.8372L12.0467 31.6057C10.7263 33.1316 9.99951 35.082 9.99951 37.1V37.8543C9.99951 39.1911 10.4354 40.4914 11.241 41.5582C12.4025 43.096 14.2181 44 16.1452 44H17.2633C18.574 44 19.8664 43.693 21.0371 43.1035Z" fill="url(#paint0_radial)"/>
<path d="M21.0371 43.1035L39.5509 33.7814C42.1414 32.4771 44.1014 30.1894 44.9931 27.4295C45.6494 25.398 45.6915 23.2179 45.1141 21.1626L45.0621 20.9774C44.1358 17.6804 41.7862 14.9691 38.6545 13.5833L23.7017 6.96688C20.8489 5.70454 17.619 5.59136 14.6848 6.65093L13.8564 6.95008C13.3448 7.13484 12.8615 7.39015 12.4205 7.70864C10.9001 8.8067 9.99951 10.5681 9.99951 12.4435V12.7926C9.99951 14.6845 10.8209 16.4833 12.2505 17.7223L12.5709 18C14.2041 19.4154 15.1424 21.4702 15.1424 23.6313V24.3143C15.1424 26.71 14.2795 29.0256 12.7118 30.8372L12.0467 31.6057C10.7263 33.1316 9.99951 35.082 9.99951 37.1V37.8543C9.99951 39.1911 10.4354 40.4914 11.241 41.5582C12.4025 43.096 14.2181 44 16.1452 44H17.2633C18.574 44 19.8664 43.693 21.0371 43.1035Z" fill="url(#paint1_radial)" fill-opacity="0.45"/>
<path d="M21.0371 43.1035L39.5509 33.7814C42.1414 32.4771 44.1014 30.1894 44.9931 27.4295C45.6494 25.398 45.6915 23.2179 45.1141 21.1626L45.0621 20.9774C44.1358 17.6804 41.7862 14.9691 38.6545 13.5833L23.7017 6.96688C20.8489 5.70454 17.619 5.59136 14.6848 6.65093L13.8564 6.95008C13.3448 7.13484 12.8615 7.39015 12.4205 7.70864C10.9001 8.8067 9.99951 10.5681 9.99951 12.4435V12.7926C9.99951 14.6845 10.8209 16.4833 12.2505 17.7223L12.5709 18C14.2041 19.4154 15.1424 21.4702 15.1424 23.6313V24.3143C15.1424 26.71 14.2795 29.0256 12.7118 30.8372L12.0467 31.6057C10.7263 33.1316 9.99951 35.082 9.99951 37.1V37.8543C9.99951 39.1911 10.4354 40.4914 11.241 41.5582C12.4025 43.096 14.2181 44 16.1452 44H17.2633C18.574 44 19.8664 43.693 21.0371 43.1035Z" stroke="#C2B1CD" stroke-opacity="0.01"/>
</g>
<defs>
<filter id="filter0_di" x="0.499512" y="0.430786" width="54.5187" height="57.0692" filterUnits="userSpaceOnUse" color-interpolation-filters="sRGB">
<feFlood flood-opacity="0" result="BackgroundImageFix"/>
<feColorMatrix in="SourceAlpha" type="matrix" values="0 0 0 0 0 0 0 0 0 0 0 0 0 0 0 0 0 0 127 0"/>
<feOffset dy="4"/>
<feGaussianBlur stdDeviation="4.5"/>
<feColorMatrix type="matrix" values="0 0 0 0 0 0 0 0 0 0 0 0 0 0 0 0 0 0 0.05 0"/>
<feBlend mode="normal" in2="BackgroundImageFix" result="effect1_dropShadow"/>
<feBlend mode="normal" in="SourceGraphic" in2="effect1_dropShadow" result="shape"/>
<feColorMatrix in="SourceAlpha" type="matrix" values="0 0 0 0 0 0 0 0 0 0 0 0 0 0 0 0 0 0 127 0" result="hardAlpha"/>
<feOffset dy="1"/>
<feGaussianBlur stdDeviation="2"/>
<feComposite in2="hardAlpha" operator="arithmetic" k2="-1" k3="1"/>
<feColorMatrix type="matrix" values="0 0 0 0 0.95 0 0 0 0 0.8854 0 0 0 0 0.76 0 0 0 0.19 0"/>
<feBlend mode="normal" in2="shape" result="effect2_innerShadow"/>
</filter>
<radialGradient id="paint0_radial" cx="0" cy="0" r="1" gradientUnits="userSpaceOnUse" gradientTransform="translate(27.9995 24.5) rotate(90) scale(19.5 18)">
<stop stop-color="white" stop-opacity="0.36"/>
<stop offset="1" stop-color="white" stop-opacity="0"/>
</radialGradient>
<radialGradient id="paint1_radial" cx="0" cy="0" r="1" gradientUnits="userSpaceOnUse" gradientTransform="translate(27.9995 24.5) rotate(90) scale(19.5 18)">
<stop stop-color="#D400FF" stop-opacity="0.19"/>
<stop offset="1" stop-color="white" stop-opacity="0"/>
</radialGradient>
</defs>
</svg>
